<svg xmlns="http://www.w3.org/2000/svg" width="100" height="100" viewBox="0 0 103.301 100.67"><defs><style>.a{fill:#fff;}</style></defs><g transform="translate(-4637 -408.562)"><g transform="translate(4715.786 508.994) rotate(180)"><circle class="a" cx="18.786" cy="18.786" r="18.786" transform="translate(-1.223 -0.238)"/><path class="a" d="M0,10.738,16.819,31.769l17.006-4.691V0L3.026,10.263" transform="translate(2.524 18.548)"/></g><g transform="translate(4740.301 428.296) rotate(90)"><circle class="a" cx="18.427" cy="18.427" r="18.427"/><path class="a" d="M0,10.738,16.819,31.769l17.006-4.691V0L3.026,10.263" transform="translate(3.029 17.59)"/></g><g transform="translate(4657.34 408.801)"><circle class="a" cx="18.786" cy="18.786" r="18.786" transform="translate(0.159 -0.238)"/><path class="a" d="M-.076-10.429,16.743,10.6,33.749,5.911V-21.167L2.949-10.9" transform="translate(3.982 39.714)"/></g><g transform="translate(4637 489.719) rotate(-90)"><circle class="a" cx="18.427" cy="18.427" r="18.427" transform="translate(0)"/><path class="a" d="M0,10.738,16.819,31.769l17.006-4.691V0L3.026,10.263" transform="translate(3.029 17.59)"/><ellipse class="a" cx="8.349" cy="10.437" rx="8.349" ry="10.437" transform="translate(22.472 41.214)"/></g></g></svg>