<svg xmlns="http://www.w3.org/2000/svg" xmlns:xlink="http://www.w3.org/1999/xlink" fill="none" version="1.1" width="26" height="25" viewBox="0 0 26 25">
    <g>
        <g>
            <g>
                <rect x="0" y="0" width="26" height="25" rx="1" fill="currentColor" fill-opacity="0.6"/>
            </g>
            <g>
                <rect x="2.2608695030212402" y="6.818181991577148" width="4.5217390060424805" height="4.545454502105713" rx="0" fill="#FFFFFF"/>
            </g>
            <g>
                <rect x="2.2608695030212402" y="12.5" width="4.5217390060424805" height="4.545454502105713" rx="0" fill="#FFFFFF"/>
            </g>
            <g>
                <rect x="2.2608695030212402" y="18.18181800842285" width="4.5217390060424805" height="4.545454502105713" rx="0" fill="#FFFFFF"/>
            </g>
            <g>
                <rect x="7.91304349899292" y="6.818181991577148" width="4.5217390060424805" height="4.545454502105713" rx="0" fill="#FFFFFF"/>
            </g>
            <g>
                <rect x="7.91304349899292" y="12.5" width="4.5217390060424805" height="4.545454502105713" rx="0" fill="#FFFFFF"/>
            </g>
            <g>
                <rect x="7.91304349899292" y="18.18181800842285" width="4.5217390060424805" height="4.545454502105713" rx="0" fill="#FFFFFF"/>
            </g>
            <g>
                <rect x="13.565217018127441" y="6.818181991577148" width="4.5217390060424805" height="4.545454502105713" rx="0" fill="#FFFFFF"/>
            </g>
            <g>
                <rect x="13.565217018127441" y="12.5" width="4.5217390060424805" height="4.545454502105713" rx="0" fill="#FFFFFF"/>
            </g>
            <g>
                <rect x="13.565217018127441" y="18.18181800842285" width="4.5217390060424805" height="4.545454502105713" rx="0" fill="#FFFFFF"/>
            </g>
            <g>
                <rect x="19.217391967773438" y="6.818181991577148" width="4.5217390060424805" height="4.545454502105713" rx="0" fill="#FFFFFF"/>
            </g>
            <g>
                <rect x="19.217391967773438" y="12.5" width="4.5217390060424805" height="4.545454502105713" rx="0" fill="#FFFFFF"/>
            </g>
            <g>
                <rect x="19.217391967773438" y="18.18181800842285" width="4.5217390060424805" height="4.545454502105713" rx="0" fill="#FFFFFF"/>
            </g>
            <g>
                <rect x="1.1304347515106201" y="4.545454502105713" width="23.7391300201416" height="1.1363636255264282" rx="0.5681818127632141" fill="#FFFFFF"/>
            </g>
            <g>
                <ellipse cx="12.434781789779663" cy="2.2727272510528564" rx="1.1304347515106201" ry="1.1363636255264282" fill="#FFFFFF"/>
            </g>
        </g>
    </g>
</svg>