<svg width="200" height="200" viewBox="0 0 200 200" fill="none" xmlns="http://www.w3.org/2000/svg">
<path d="M167.06 29.5825C165.877 27.2677 163.352 25.7947 160.571 25.7947H19.9035C17.0988 25.7947 14.5496 27.2995 13.3808 29.6511C12.2112 31.9979 12.6297 34.76 14.459 36.7199L64.4387 90.2957V150.714C64.4387 153.223 65.9809 155.519 68.421 156.637L105.358 173.519C106.365 173.982 107.462 174.205 108.549 174.205C109.827 174.205 111.106 173.891 112.246 173.268C114.339 172.107 115.649 170.045 115.724 167.792L118.255 90.2983L166.122 36.6059C167.88 34.6321 168.248 31.8971 167.06 29.5825ZM101.714 157.085L78.7874 146.607V94.4587H103.76L101.714 157.085ZM107.574 81.4426C107.19 81.384 106.839 81.2295 106.439 81.2295H74.9066L35.5353 39.0241H145.384L107.574 81.4426ZM133.878 102.345H187.275V114.017H133.878V102.345ZM133.878 127.755H187.275V139.426H133.878V127.755ZM133.878 151.097H187.275V162.769H133.878V151.097Z" fill="#7B71F1"/>
</svg>
