<svg xmlns="http://www.w3.org/2000/svg" xmlns:xlink="http://www.w3.org/1999/xlink" fill="none" version="1.1" width="28" height="28" viewBox="0 0 28 28">
    <g>
        <g>
            <path d="M27.4771,12.0413L15.1953,0.477026C14.5098,-0.159009,13.4815,-0.159009,12.8531,0.477026L0.57125,12.0413C0.2285,12.3882,0,12.8508,0,13.3134L0,26.1497C0,27.1327,0.79975,27.9422,1.77088,27.9422L10.3396,27.9422L10.3396,19.0955C10.3396,17.0718,11.9963,15.3949,13.9956,15.3949C15.995,15.3949,17.6516,17.0718,17.6516,19.0955L17.6516,28L26.2204,28C27.1915,28,27.9913,27.1905,27.9913,26.2075L27.9913,13.3134C28.0484,12.8508,27.8199,12.3882,27.4771,12.0413Z" fill="currentColor"/>
        </g>
    </g>
</svg>