<svg xmlns="http://www.w3.org/2000/svg" xmlns:xlink="http://www.w3.org/1999/xlink" fill="none" version="1.1" width="69.2569580078125" height="69.2568359375" viewBox="0 0 69.2569580078125 69.2568359375">
	<g transform="matrix(0.10000000149011612,0,0,-0.10000000149011612,0,76.18251963445073)">
		<g>
			<path d="M326.45703,760.0639659375C320.45703,755.1058359375,254.45804,725.3578459375,178.45804,693.6257959375C51.458038,640.0780059375,38.458038,632.1449559375,20.458038,597.4380459375C-2.5419617,552.8148759375,-6.5419617,498.2754259375,10.458038,447.7024859375C22.458038,412.9955759375,31.458038,406.0541959375,108.45804,370.3556559375C154.45804,349.5314959375,194.45804,331.6822159375,197.45804,331.6822159375C200.45804,331.6822159375,234.45804,317.7994359375,272.45804,299.9501659375C330.45804,274.1678759375,345.45804,262.2683559375,357.45804,234.5028259375C376.45804,188.8880259375,374.45804,153.1894759375,352.45804,124.4323119375C331.45804,97.6584029375,331.45804,97.6584029375,201.45804,156.1643519375C39.458038,228.5530659375,31.458038,230.5363159375,31.458038,208.7205459375C31.458038,201.7791559375,52.458038,187.89639593750002,79.458038,177.9801359375C105.45804,168.0638659375,160.45804,144.2648389375,201.45804,125.4239389375C357.45804,55.0184749375,334.45804,58.9849799375,406.45804,92.70027193749999C442.45804,109.5579189375,473.45804,123.44068493750001,476.45804,123.44068493750001C479.45804,123.44068493750001,509.45804,136.33182493750002,543.45801,151.2062229375C578.45801,167.0722429375,618.45801,184.9215159375,633.45801,190.8712659375C669.45801,205.7456659375,694.45801,255.3269759375,692.45801,312.8413059375C690.45801,402.0876759375,664.45801,437.7862259375,616.45801,415.9704559375C599.45801,409.0290559375,548.45801,386.2216459375,501.45804,366.3891259375C454.45804,346.5566059375,401.45804,322.7575659375,383.45804,313.8329359375C351.45804,297.9669059375,349.45804,297.9669059375,335.45804,315.8161759375C327.45804,326.7240859375,321.45804,356.4728659375,321.45804,382.2551559375C321.45804,452.6606159375,344.45804,471.5015259375,506.45804,539.9237359374999C677.45801,611.3207959375,684.45801,622.2286959375,584.45801,663.8770159375C547.45801,678.7514059375,496.45804,700.5671959375,471.45804,711.4750959375C403.45804,741.2238759375,344.45703,760.0639659375,341.45703,760.0639659375C340.45703,760.0639659375,331.45703,764.0304559375,326.45703,760.0639659375ZM457.45804,677.7597659375C556.45703,634.1351959375,382.45801,743.2102059375,352.45801,733.2939459375C341.45801,729.3274559375,308.45801,732.2984659375,262.45801,711.4743059375C217.45801,689.6585059375,113.45801,644.0475459375,108.45801,644.0475459375C102.45801,644.0475459375,398.45703,560.7509759375,398.45703,554.8012059375001C398.45703,549.8430759375,116.45801,644.0475459375,108.45801,644.0475459375C90.458008,644.0475459375,292.45804,443.7359959375,284.45804,386.2216459375C279.45804,349.5314959375,309.45703,364.4089659375,296.45703,370.3587359375C287.45703,374.3252259375,343.45703,487.3706359375,321.45703,495.3036459375C268.45703,514.1445359375,334.45703,402.0907559375,296.45703,430.8479259375C267.45703,451.6720859375,296.45703,464.5632359375,296.45703,505.2199059375C296.45703,579.5918559375,395.45703,530.0105559374999,476.45703,554.8012059375001C489.45703,558.7677259375,199.45804,661.8937359375,226.45804,673.7932759375C314.45804,712.4666759375,326.45804,717.4248059375,344.45804,717.4248059375C355.45804,718.4164459375,405.45804,699.5755659375,457.45804,677.7597659375ZM653.45801,351.5178259375C660.45801,320.7774059375,522.45703,373.3336159375,506.45703,346.5596959375C494.45703,328.7104159375,645.45801,280.12074593750003,633.45801,277.14585593749996C621.45801,273.17935593749996,604.45703,343.5809359375,571.45703,327.7149359375C537.45703,311.84890593750004,485.45703,155.17195093750001,471.45703,151.20545193750002C446.45703,145.2556919375,590.45801,140.3014369375,584.45801,190.87437593750002C581.45801,219.6315259375,668.45605,249.3803259375,666.45605,256.32170593750004C663.45605,269.2128459375,584.45605,297.9700059375,666.45605,331.6853059375C694.45605,343.5848059375,645.45801,381.2704759375,653.45801,386.2286059375C661.45801,390.1951259375,599.45801,368.3723759375,615.45801,367.3807659375C642.45801,366.3891259375,646.45801,385.2331259375,653.45801,351.5178259375Z" fill="currentColor" fill-opacity="1" style="mix-blend-mode:passthrough"/>
		</g>
		<g>
			<path d="M498.4580388769531,464.56011223828125C355.45803787695314,401.0960332382813,332.45803787695314,388.2048912382813,349.45803837695314,377.29700263828124C358.45803787695314,371.34724523828123,401.45803787695314,388.2048912382813,539.4580388769531,451.66897623828123C574.4580388769531,467.5349962382812,613.4580388769532,483.40101923828126,627.4580388769532,486.3758892382813C650.4580388769532,492.32564923828124,660.4580388769532,514.1414292382813,644.4580388769532,523.0660692382812C639.4580388769532,525.0493192382812,574.4580388769531,499.26703923828126,498.4580388769531,464.56011223828125Z" fill="currentColor" fill-opacity="1" style="mix-blend-mode:passthrough"/>
		</g>
		<g>
			<path d="M31.458038330078125,307.8831680810547C31.458038330078125,299.95015808105467,48.458038330078125,288.0506480810547,69.45803833007812,281.1092580810547C89.45803833007812,275.1595000810547,111.45803833007812,266.2348630810547,116.45803833007812,262.2683640810547C122.45803833007812,258.30185708105466,170.45803833007812,235.4944530810547,225.45803833007812,212.68705008105468C294.4580383300781,183.9298863810547,327.4580383300781,175.00524998105467,334.4580383300781,181.9466340810547C341.4580383300781,188.8880176810547,327.4580383300781,199.79590608105468,285.4580383300781,218.6368060810547C253.45803833007812,232.5195730810547,198.45803833007812,257.3102260810547,163.45803833007812,273.17624708105467C128.45803833007812,289.04226808105466,96.45706133007812,296.9776380810547,86.45803833007812,301.9345980810547C46.458038330078125,321.7682980810547,71.45803833007812,306.89272808105466,66.45803833007812,311.8508580810547C46.458038330078125,321.7671180810547,31.458038330078125,323.7491880810547,31.458038330078125,307.8831680810547Z" fill="currentColor" fill-opacity="1" style="mix-blend-mode:passthrough"/>
		</g>
	</g>
</svg>
