<svg xmlns="http://www.w3.org/2000/svg" xmlns:xlink="http://www.w3.org/1999/xlink" fill="none" version="1.1" width="28" height="24" viewBox="0 0 28 24">
    <g>
        <g>
            <path d="M25.8702,0L2.12975,0C0.952125,0,0,0.921203,0,2.06059L0,18.2574C0,19.3968,0.952125,20.318,2.12975,20.318L5.54676,20.318L6.12617,22.8028C6.39553,23.9543,7.8519,24.3937,8.74765,23.5907L12.4121,20.318L25.8702,20.318C27.0479,20.318,28,19.3968,28,18.2574L28,2.06059C28,0.924233,27.0447,0,25.8702,0ZM7.76734,11.0969C6.77136,11.0969,5.96644,10.315,5.96644,9.35445C5.96644,8.39386,6.7745,7.61205,7.76734,7.61205C8.76331,7.61205,9.56823,8.39386,9.56823,9.35445C9.56823,10.315,8.76331,11.0969,7.76734,11.0969ZM14.3257,11.2181C13.3298,11.2181,12.5248,10.4363,12.5248,9.47566C12.5248,8.51507,13.3329,7.73326,14.3257,7.73326C15.3217,7.73326,16.1266,8.51507,16.1266,9.47566C16.1266,10.4363,15.3217,11.2181,14.3257,11.2181ZM20.8841,11.2181C19.8881,11.2181,19.0832,10.4363,19.0832,9.47566C19.0832,8.51507,19.8913,7.73326,20.8841,7.73326C21.8801,7.73326,22.685,8.51507,22.685,9.47566C22.685,10.4363,21.8801,11.2181,20.8841,11.2181Z" fill="currentColor"/>
        </g>
    </g>
</svg>