<svg xmlns="http://www.w3.org/2000/svg" xmlns:xlink="http://www.w3.org/1999/xlink" fill="none" version="1.1" width="25" height="25" viewBox="0 0 25 25">
    <defs>
        <clipPath id="master_svg0_1_09">
            <rect x="0" y="0" width="25" height="25" rx="0"/>
        </clipPath>
    </defs>
    <g>
        <g clip-path="url(#master_svg0_1_09)">
            <g>
                <path d="M1.98437,5.42034912109375L23.01565,5.42034912109375C23.68125,5.42034912109375,24.21875,4.89534912109375,24.21875,4.24847912109375C24.21875,3.60159912109375,23.68125,3.07659912109375,23.01565,3.07659912109375L1.98437,3.07659912109375C1.320312,3.07659912109375,0.78125,3.60159912109375,0.78125,4.24847912109375C0.78125,4.89534912109375,1.320313,5.42034912109375,1.98437,5.42034912109375ZM23.01565,11.27971912109375L1.98437,11.27971912109375C1.31875,11.27971912109375,0.78125,11.80471912109375,0.78125,12.45159912109375C0.78125,13.09849912109375,1.31875,13.62349912109375,1.98437,13.62349912109375L23.01565,13.62349912109375C23.68125,13.62349912109375,24.21875,13.09849912109375,24.21875,12.45159912109375C24.21875,11.80472912109375,23.67815,11.27971912109375,23.01565,11.27971912109375ZM23.01565,19.57969912109375L1.98437,19.57969912109375C1.320312,19.57969912109375,0.78125,20.10469912109375,0.78125,20.75159912109375C0.78125,21.39849912109375,1.320313,21.92349912109375,1.98437,21.92349912109375L23.01565,21.92349912109375C23.68125,21.92349912109375,24.21875,21.39849912109375,24.21875,20.75159912109375C24.21875,20.10469912109375,23.68125,19.57969912109375,23.01565,19.57969912109375Z" fill="currentColor"/>
            </g>
        </g>
    </g>
</svg>