<?xml version="1.0" standalone="no"?><!DOCTYPE svg PUBLIC "-//W3C//DTD SVG 1.1//EN" "http://www.w3.org/Graphics/SVG/1.1/DTD/svg11.dtd"><svg t="1757774045185" class="icon" viewBox="0 0 1024 1024" version="1.1" xmlns="http://www.w3.org/2000/svg" p-id="9178" xmlns:xlink="http://www.w3.org/1999/xlink" width="200" height="200"><path d="M759.424 972.8c-13.696 0-29.0816-3.968-43.3664-11.1872l-203.776-103.04-205.0304 102.8608a90.9312 90.9312 0 0 1-43.008 10.6752 90.7776 90.7776 0 0 1-54.7072-18.1248c-28.6976-21.76-43.392-59.4432-36.608-93.7984l41.9328-219.904-160.7424-151.4496a100.7872 100.7872 0 0 1-24.9856-96.768l0.3328-1.1264c11.6736-35.4048 40.6528-60.2112 75.8016-64.9728l223.3088-41.0368 100.2496-205.824C444.9024 46.5664 477.6704 25.6 512.256 25.6c36.1216 0 69.7344 21.7344 83.8144 54.1184l99.9168 205.1328 223.3344 39.4752a91.2896 91.2896 0 0 1 74.4192 65.7408 95.872 95.872 0 0 1-23.296 97.1008l-0.512 0.5632-160.2816 152.576 40.4992 220.3136c6.528 35.2256-7.3472 70.8352-36.1984 93.0048a85.4016 85.4016 0 0 1-54.5536 19.1744z" fill="#FCB510" p-id="9179"></path></svg>