<svg width="200" height="200" viewBox="0 0 200 200" fill="none" xmlns="http://www.w3.org/2000/svg">
<path d="M148.325 190C145.65 190 142.645 189.225 139.855 187.815L100.055 167.69L60.0098 187.78C57.4246 189.157 54.5389 189.873 51.6098 189.865C47.7582 189.877 44.0074 188.634 40.9248 186.325C35.3198 182.075 32.4498 174.715 33.7748 168.005L41.9648 125.055L10.5698 95.475C8.18328 93.0209 6.47796 89.9869 5.62216 86.6725C4.76637 83.358 4.78968 79.8777 5.6898 76.575L5.7548 76.355C8.0348 69.44 13.6948 64.595 20.5598 63.665L64.1748 55.65L83.7548 15.45C86.8948 9.095 93.2948 5 100.05 5C107.105 5 113.67 9.245 116.42 15.57L135.935 55.635L179.555 63.345C182.958 63.8543 186.142 65.3376 188.721 67.6159C191.3 69.8943 193.165 72.8704 194.09 76.185C195.147 79.4591 195.281 82.9611 194.479 86.3066C193.676 89.6522 191.967 92.7119 189.54 95.15L189.44 95.26L158.135 125.06L166.045 168.09C167.32 174.97 164.61 181.925 158.975 186.255C155.967 188.704 152.199 190.029 148.32 190H148.325Z" fill="#8D8D8D"/>
</svg>
