<svg xmlns="http://www.w3.org/2000/svg" xmlns:xlink="http://www.w3.org/1999/xlink" fill="none" version="1.1" width="50" height="50" viewBox="0 0 50 50"><rect x="0" y="0" width="50" height="50" rx="0" fill="#FFFFFF" fill-opacity="1" style="opacity:0;"/><rect x="13" y="9" width="6" height="34" rx="0" fill="#CACCFF" fill-opacity="1"/><path d="M39,17L42.880493200000004,17Q42.885057,17,42.8879881,16.9978123Q42.9618106,16.9427161,42,15.5L43,14L39,14L39,17Z" fill="#FAB85C" fill-opacity="1"/><rect x="12" y="8" width="26" height="36" rx="2" fill-opacity="0" stroke-opacity="1" stroke="#7B71F1" fill="none" stroke-width="3"/><path d="M9.5,19L10.5,19L10.5,18.9998Q10.5984716,18.9997997,10.6950512,18.9805889Q10.791630699999999,18.9613781,10.8826065,18.9236946Q10.9735825,18.8860109,11.0554588,18.8313029Q11.1373348,18.7765951,11.206965,18.7069654Q11.2765951,18.6373353,11.3313026,18.5554588Q11.3860106,18.4735825,11.4236941,18.3826065Q11.4613779,18.2916305,11.4805887,18.195051Q11.4997997,18.0984716,11.4998,18Q11.4997997,17.9015284,11.4805889,17.8049488Q11.461378100000001,17.7083693,11.4236944,17.617393Q11.3860109,17.526417,11.3313029,17.4445407Q11.2765951,17.3626647,11.206965,17.2930346Q11.1373348,17.2234046,11.0554588,17.1686969Q10.9735825,17.1139889,10.8826065,17.0763052Q10.791630699999999,17.0386219,10.6950512,17.0194108Q10.5984716,17.0002,10.5,17.0002L10.5,16.9999999L9.5,16.9999999Q9.2928931,16.9999999,9.1464466,16.8535534Q9,16.7071068,9,16.5Q9,16.2928932,9.1464466,16.1464467Q9.2928934,16,9.5,16L14.5,16L14.5,15.99980003Q14.5984716,15.99979997,14.6950502,15.98058909Q14.791629799999999,15.96137822,14.8826056,15.92369473Q14.9735818,15.88601124,15.0554585,15.8313033Q15.1373348,15.776595350000001,15.206965,15.70696533Q15.2765946,15.6373353,15.3313026,15.55545908Q15.386010200000001,15.47358286,15.423694099999999,15.38260686Q15.461378100000001,15.29163089,15.4805889,15.1950513Q15.4997997,15.098471709,15.4998002,15Q15.4997997,14.901528291,15.4805889,14.8049487Q15.461377599999999,14.70836911,15.423693700000001,14.61739314Q15.386010200000001,14.52641714,15.3313022,14.44454092Q15.2765946,14.3626647,15.206965,14.29303467Q15.1373348,14.223404649999999,15.0554585,14.16869676Q14.9735823,14.11398882,14.882606,14.07630533Q14.791629799999999,14.03862178,14.6950507,14.01941091Q14.5984716,14.00020003,14.5,14.00019997L14.5,14L9.5000004,14Q8.46446642,13.9999998,7.73223311,14.73223299Q7,15.46446598,7,16.5Q7,17.5355339,7.73223293,18.267767Q8.4644658,19,9.5,19Z" fill-rule="evenodd" fill="#7B71F1" fill-opacity="1"/><path d="M9.5,25.5L10.5,25.5L10.5,25.4998Q10.5984716,25.4997997,10.6950512,25.4805889Q10.791630699999999,25.4613781,10.8826065,25.4236946Q10.9735825,25.3860109,11.0554588,25.3313029Q11.1373348,25.2765951,11.206965,25.2069654Q11.2765951,25.1373353,11.3313026,25.0554588Q11.3860106,24.9735825,11.4236941,24.8826065Q11.4613779,24.7916305,11.4805887,24.695051Q11.4997997,24.5984716,11.4998,24.5Q11.4997997,24.4015284,11.4805889,24.3049488Q11.461378100000001,24.2083693,11.4236944,24.117393Q11.3860109,24.026417,11.3313029,23.9445407Q11.2765951,23.8626647,11.206965,23.7930346Q11.1373348,23.7234046,11.0554588,23.6686969Q10.9735825,23.6139889,10.8826065,23.5763052Q10.791630699999999,23.5386219,10.6950512,23.5194108Q10.5984716,23.5002,10.5,23.5002L10.5,23.4999999L9.5,23.4999999Q9.2928931,23.4999999,9.1464466,23.3535534Q9,23.2071068,9,23Q9,22.7928932,9.1464466,22.6464467Q9.2928934,22.5,9.5,22.5L14.5,22.5L14.5,22.49980003Q14.5984716,22.49979997,14.6950502,22.48058909Q14.791629799999999,22.46137822,14.8826056,22.42369473Q14.9735818,22.38601124,15.0554585,22.3313033Q15.1373348,22.27659535,15.206965,22.20696533Q15.2765946,22.1373353,15.3313026,22.05545908Q15.386010200000001,21.97358286,15.423694099999999,21.88260686Q15.461378100000001,21.79163089,15.4805889,21.6950513Q15.4997997,21.598471709,15.4998002,21.5Q15.4997997,21.401528291,15.4805889,21.3049487Q15.461377599999999,21.20836911,15.423693700000001,21.11739314Q15.386010200000001,21.02641714,15.3313022,20.94454092Q15.2765946,20.8626647,15.206965,20.79303467Q15.1373348,20.72340465,15.0554585,20.66869676Q14.9735823,20.61398882,14.882606,20.57630533Q14.791629799999999,20.53862178,14.6950507,20.51941091Q14.5984716,20.50020003,14.5,20.50019997L14.5,20.5L9.5000004,20.5Q8.46446642,20.4999998,7.73223311,21.23223299Q7,21.96446598,7,23Q7,24.0355339,7.73223293,24.767767Q8.4644658,25.5,9.5,25.5Z" fill-rule="evenodd" fill="#7B71F1" fill-opacity="1"/><path d="M9.5,32.5L10.5,32.5L10.5,32.4998Q10.5984716,32.4997997,10.6950512,32.4805889Q10.791630699999999,32.4613781,10.8826065,32.4236946Q10.9735825,32.3860109,11.0554588,32.3313029Q11.1373348,32.2765951,11.206965,32.2069654Q11.2765951,32.137335300000004,11.3313026,32.0554588Q11.3860106,31.9735825,11.4236941,31.8826065Q11.4613779,31.7916305,11.4805887,31.695051Q11.4997997,31.5984716,11.4998,31.5Q11.4997997,31.4015284,11.4805889,31.3049488Q11.461378100000001,31.2083693,11.4236944,31.117393Q11.3860109,31.026417,11.3313029,30.9445407Q11.2765951,30.8626647,11.206965,30.7930346Q11.1373348,30.7234046,11.0554588,30.6686969Q10.9735825,30.6139889,10.8826065,30.5763052Q10.791630699999999,30.5386219,10.6950512,30.5194108Q10.5984716,30.5002,10.5,30.5002L10.5,30.4999999L9.5,30.4999999Q9.2928931,30.4999999,9.1464466,30.3535534Q9,30.2071068,9,30Q9,29.7928932,9.1464466,29.6464467Q9.2928934,29.5,9.5,29.5L14.5,29.5L14.5,29.49980003Q14.5984716,29.49979997,14.6950502,29.48058909Q14.791629799999999,29.46137822,14.8826056,29.42369473Q14.9735818,29.38601124,15.0554585,29.3313033Q15.1373348,29.27659535,15.206965,29.20696533Q15.2765946,29.1373353,15.3313026,29.05545908Q15.386010200000001,28.97358286,15.423694099999999,28.88260686Q15.461378100000001,28.79163089,15.4805889,28.6950513Q15.4997997,28.598471709,15.4998002,28.5Q15.4997997,28.401528291,15.4805889,28.3049487Q15.461377599999999,28.20836911,15.423693700000001,28.11739314Q15.386010200000001,28.02641714,15.3313022,27.94454092Q15.2765946,27.8626647,15.206965,27.79303467Q15.1373348,27.72340465,15.0554585,27.66869676Q14.9735823,27.61398882,14.882606,27.57630533Q14.791629799999999,27.53862178,14.6950507,27.51941091Q14.5984716,27.50020003,14.5,27.50019997L14.5,27.5L9.5000004,27.5Q8.46446642,27.4999998,7.73223311,28.23223299Q7,28.96446598,7,30Q7,31.0355339,7.73223293,31.767767Q8.4644658,32.5,9.5,32.5Z" fill-rule="evenodd" fill="#7B71F1" fill-opacity="1"/><path d="M9.5,39.5L10.5,39.5L10.5,39.4998Q10.5984716,39.4997997,10.6950512,39.4805889Q10.791630699999999,39.4613781,10.8826065,39.4236946Q10.9735825,39.3860109,11.0554588,39.3313029Q11.1373348,39.2765951,11.206965,39.2069654Q11.2765951,39.137335300000004,11.3313026,39.0554588Q11.3860106,38.9735825,11.4236941,38.8826065Q11.4613779,38.7916305,11.4805887,38.695051Q11.4997997,38.598471599999996,11.4998,38.5Q11.4997997,38.401528400000004,11.4805889,38.3049488Q11.461378100000001,38.2083693,11.4236944,38.117393Q11.3860109,38.026417,11.3313029,37.9445407Q11.2765951,37.862664699999996,11.206965,37.7930346Q11.1373348,37.7234046,11.0554588,37.6686969Q10.9735825,37.6139889,10.8826065,37.5763052Q10.791630699999999,37.5386219,10.6950512,37.5194108Q10.5984716,37.5002,10.5,37.5002L10.5,37.4999999L9.5,37.4999999Q9.2928931,37.4999999,9.1464466,37.3535534Q9,37.2071068,9,37Q9,36.7928932,9.1464466,36.6464467Q9.2928934,36.5,9.5,36.5L14.5,36.5L14.5,36.49980003Q14.5984716,36.49979997,14.6950502,36.48058909Q14.791629799999999,36.46137822,14.8826056,36.42369473Q14.9735818,36.38601124,15.0554585,36.3313033Q15.1373348,36.27659535,15.206965,36.20696533Q15.2765946,36.1373353,15.3313026,36.05545908Q15.386010200000001,35.97358286,15.423694099999999,35.88260686Q15.461378100000001,35.79163089,15.4805889,35.6950513Q15.4997997,35.598471709,15.4998002,35.5Q15.4997997,35.401528291,15.4805889,35.3049487Q15.461377599999999,35.20836911,15.423693700000001,35.11739314Q15.386010200000001,35.02641714,15.3313022,34.94454092Q15.2765946,34.8626647,15.206965,34.79303467Q15.1373348,34.72340465,15.0554585,34.66869676Q14.9735823,34.61398882,14.882606,34.57630533Q14.791629799999999,34.53862178,14.6950507,34.51941091Q14.5984716,34.50020003,14.5,34.50019997L14.5,34.5L9.5000004,34.5Q8.46446642,34.4999998,7.73223311,35.23223299Q7,35.96446598,7,37Q7,38.0355339,7.73223293,38.767767Q8.4644658,39.5,9.5,39.5Z" fill-rule="evenodd" fill="#7B71F1" fill-opacity="1"/><ellipse cx="27" cy="21" rx="4.449999988079071" ry="4.449999988079071" fill="#FAB85C" fill-opacity="1"/><ellipse cx="27" cy="21" rx="3.550000011920929" ry="3.550000011920929" fill-opacity="0" stroke-opacity="1" stroke="#FAB85C" fill="none" stroke-width="1.7999999523162842"/><g transform="matrix(0.6246950626373291,0.7808687686920166,-0.7808687686920166,0.6246950626373291,29.938566073746188,-13.666903188248398)"><path d="" fill="#FAB85C" fill-opacity="1"/><path d="M29.1857733226625,25.31201076875L32.7874760890625,25.31691071875L32.7874762890625,25.31671081875L32.7888364890625,25.31671181875Q32.8873080890625,25.31671161875,32.9838876890625,25.29750084875Q33.0804671890625,25.27828991875,33.1714429890625,25.24060648875Q33.2624187890625,25.20292293875,33.3442949890625,25.14821505875Q33.4261712890625,25.09350704875,33.4958014890625,25.02387708875Q33.5654315890625,24.95424705875,33.6201390890625,24.87237083875Q33.6748470890625,24.79049455875,33.7125305890625,24.69951858875Q33.7502140890625,24.60854261875,33.7694253890625,24.51196300875Q33.7886361890625,24.41538342875,33.7886366890625,24.31691172715Q33.7886366890625,24.21852585675,33.7694587890625,24.12202718875Q33.7502812890625,24.02552851875,33.7126617890625,23.93461900875Q33.675041689062496,23.84370952875,33.6204232890625,23.76187681875Q33.5658044890625,23.68004411875,33.4962825890625,23.61042749875Q33.4267606890625,23.54081093875,33.3450021890625,23.48608105875Q33.2632441890625,23.43135130875,33.1723858890625,23.39360785875Q33.0815276890625,23.35586452875,32.9850551890625,23.33655547875Q32.8885826890625,23.31724655875,32.7901968890625,23.31711262875L32.7901970890625,23.31691264875L29.1884942554625,23.31201266875L29.1884939833625,23.31221264875L29.1871337890625,23.31221168875Q29.0886620800625,23.31221174875,28.9920824890625,23.33142262875Q28.8955028990625,23.35063349875,28.8045269290625,23.38831698875Q28.7135509290625,23.42600047875,28.6316747090625,23.48070841875Q28.5497984890625,23.53541636875,28.4801684590625,23.60504638875Q28.4105384390625,23.67467641875,28.3558305490625,23.75655263875Q28.3011226090625,23.83842885875,28.2634391190625,23.92940485875Q28.2257555690625,24.02038082875,28.2065446990625,24.11696041875Q28.1873338190625,24.21354000975,28.1873337590625,24.31201171875Q28.1873338190625,24.41039758175,28.2065116190625,24.50689625875Q28.2256892890625,24.60339492875,28.2633089990625,24.69430440875Q28.3009287690625,24.78521391875,28.3555472490625,24.86704665875Q28.4101657890625,24.94887935875,28.4796876890625,25.01849603875Q28.5492097090625,25.08811258875,28.6309680390625,25.14284240875Q28.7127264190625,25.19757222875,28.8035846090625,25.23531555875Q28.8944428590625,25.27305894875,28.9909153390625,25.29236793875Q29.0873878230625,25.31167691875,29.1857735947625,25.31181078875L29.1857733226625,25.31201076875Z" fill-rule="evenodd" fill="#FAB85C" fill-opacity="1"/></g><g transform="matrix(0.6246950626373291,0.7808687686920166,-0.7808687686920166,0.6246950626373291,34.67232636225526,-11.14157136817812)"><path d="M34.6273231828125,31.123902078125Q34.7336873828125,30.990944388125,34.7900471828125,30.830274378125Q34.846406982812496,30.669604388125,34.846406982812496,30.499336242676Q34.846406982812496,30.400864549125,34.8271951828125,30.304284958125Q34.8079843828125,30.207705378125,34.7703008828125,30.116729378125Q34.7326173828125,30.025753378125,34.6779098828125,29.943877158125Q34.6232022828125,29.862000938125,34.5535721828125,29.792370918125002Q34.483941982812496,29.722740888125,34.4020657828125,29.668033008125Q34.3201894828125,29.613325118125,34.2292136828125,29.575641628125Q34.1382374828125,29.537958148125,34.0416578828125,29.518747208125Q33.9450778828125,29.499536278125,33.8466066828125,29.499536218125Q33.7341508828125,29.499536218125,33.6245050828125,29.524517898125Q33.5148591828125,29.549499508125,33.4135026828125,29.598214448125Q33.3121461828125,29.646929388125,33.2241429828125,29.716943148125Q33.136140782812504,29.786956908125,33.065890282812504,29.874770758125L33.0657338828125,29.874645588125L28.1462823128125,36.024030178125L28.1464383028125,36.024155178125Q28.0400734528125,36.157113078125,27.9837139828125,36.317782878125Q27.9273545728125,36.478452678125,27.9273545128125,36.648720778124996Q27.9273545728125,36.747191878125,27.9465653928125,36.843771478125Q27.9657763228125,36.940350978125,28.0034598728125,37.031327278125Q28.0411433528125,37.122302978125,28.0958513028125,37.204179278125Q28.1505592428125,37.286055578125,28.2201892128125,37.355686178125Q28.2898192428125,37.425315878125,28.3716954628125,37.480024378125Q28.4535716728125,37.534731878125,28.5445476728125,37.572415378125Q28.6355236428125,37.610098878125,28.7321032328125,37.629309678125Q28.8286828248125,37.648520478125,28.9271545112125,37.648520978125Q29.0396104228125,37.648520978125,29.1492564728125,37.623539878125Q29.2589024928125,37.598557978125,29.3602592328125,37.549842878125Q29.4616159828125,37.501128178125,29.5496183028125,37.431114178125Q29.6376206828125,37.361100178125,29.7078707828125,37.273286378125L29.7080268228125,37.273411278124996L34.6274790828125,31.124026958125L34.6273231828125,31.123902078125Z" fill-rule="evenodd" fill="#FAB85C" fill-opacity="1"/></g><g transform="matrix(0.6246950626373291,0.7808687686920166,-0.7808687686920166,0.6246950626373291,32.14309931686148,-10.378710245946422)"><path d="M30.46036674375,28.87407713875Q30.56673144375,28.74111950875,30.62309094375,28.58044963875Q30.67945024375,28.41977972875,30.67945024375,28.24951171875Q30.679450043750002,28.15104000975,30.66023924375,28.05446041875Q30.64102814375,27.95788082875,30.60334464375,27.86690485875Q30.56566094375,27.77592885875,30.51095314375,27.69405263875Q30.45624514375,27.61217641875,30.38661524375,27.54254638875Q30.31698514375,27.47291636875,30.235108843749998,27.41820847875Q30.15323254375,27.36350053875,30.06225684375,27.32581704875Q29.97128084375,27.28813349875,29.87470154375,27.26892262875Q29.77812194375,27.24971174875,29.67965034375,27.24971168875Q29.56719444375,27.24971168875,29.45754834375,27.27469336875Q29.34790254375,27.29967504875,29.24654574375,27.34838997875Q29.14518904375,27.39710491875,29.05718664375,27.46711867875Q28.96918414375,27.53713249875,28.89893384375,27.62494629875L28.89877774375,27.62482130875L26.08777982375,31.13861181875L26.08793580375,31.13873651875Q25.98157107375,31.27169421875,25.92521166375,31.43236401875Q25.86885231375,31.59303381875,25.86885231375,31.76330181875Q25.86885237375,31.86177351875,25.88806325375,31.95835281875Q25.90727412375,32.05493261875,25.94495761375,32.14590831875Q25.98264110375,32.23688461875,26.03734904375,32.31876091875Q26.09205699375,32.40063711875,26.16168701375,32.470267318750004Q26.23131704375,32.53989691875,26.31319326375,32.59460451875Q26.39506948375,32.64931251875,26.48604548375,32.68699601875Q26.57702145375,32.72467991875,26.67360104375,32.74389071875Q26.77018063475,32.76310161875,26.86865234375,32.76310201875Q26.98110829375,32.76310201875,27.09075434375,32.73812051875Q27.20040041375,32.71313901875,27.30175715375,32.66442441875Q27.40311396375,32.61570931875,27.49111628375,32.54569531875Q27.57911861375,32.47568131875,27.64936870375,32.38786741875L27.64952486375,32.38799241875L30.46052284375,28.87420212875L30.46036674375,28.87407713875Z" fill-rule="evenodd" fill="#FAB85C" fill-opacity="1"/></g><path d="M27.7858744,19.4183621Q27.8103476,19.4936728,27.856894,19.5577362Q27.903440500000002,19.6217995,27.9675045,19.6683445Q28.0315685,19.714889499999998,28.1068797,19.7393613Q28.182190900000002,19.7638328,28.2613783,19.7638357L29.2655821,19.7638736Q29.2852268,19.7638745,29.304811,19.765416600000002Q29.324395199999998,19.7669587,29.3437977,19.770032399999998Q29.3632002,19.7731061,29.3823018,19.7776926Q29.4014034,19.782279,29.4200859,19.7883501Q29.4387684,19.7944212,29.4569178,19.801939Q29.4750667,19.8094573,29.4925699,19.818376100000002Q29.510072700000002,19.8272948,29.5268226,19.8375595Q29.5435715,19.8478239,29.559464,19.8593707Q29.575357,19.8709178,29.5902948,19.8836761Q29.6052322,19.896434499999998,29.619123000000002,19.9103255Q29.6330137,19.9242165,29.645771500000002,19.9391544Q29.658529299999998,19.9540923,29.6700754,19.969985Q29.6816225,19.985878,29.6918864,20.0026278Q29.7021503,20.0193775,29.7110691,20.0368807Q29.719986900000002,20.0543842,29.7275043,20.0725331Q29.7350216,20.0906823,29.7410917,20.109365Q29.747162799999998,20.1280482,29.7517486,20.1471498Q29.7563348,20.1662517,29.759408,20.185654200000002Q29.7624812,20.2050567,29.7640228,20.2246408Q29.765564,20.2442245,29.765564,20.2638688Q29.7655644,20.2835135,29.7640238,20.3030972Q29.7624826,20.3226814,29.7594094,20.3420839Q29.7563367,20.3614867,29.7517509,20.3805883Q29.7471652,20.399690200000002,29.7410946,20.4183731Q29.7350249,20.437056300000002,29.7275076,20.4552057Q29.7199907,20.4733551,29.7110724,20.4908586Q29.7021542,20.5083623,29.691890700000002,20.5251122Q29.6816273,20.5418622,29.6700807,20.5577552Q29.658534500000002,20.5736485,29.6457772,20.5885866Q29.633019400000002,20.6035247,29.6191292,20.6174159Q29.6052389,20.6313071,29.5903015,20.6440656Q29.5753641,20.6568241,29.5594711,20.6683712L28.7470751,21.2586579Q28.683011999999998,21.3052053,28.6364689,21.369269799999998Q28.5899248,21.4333344,28.565455,21.508646Q28.5409842,21.5839577,28.540982200000002,21.6631451Q28.5409813,21.7423325,28.5654492,21.8176455L28.8757291,22.7727127Q28.8817987,22.7913961,28.8863845,22.810498199999998Q28.8909698,22.8296003,28.8940425,22.8490028Q28.8971148,22.8684053,28.8986559,22.8879895Q28.9001961,22.9075732,28.9001951,22.9272175Q28.9001951,22.946862199999998,28.898653,22.9664459Q28.8971119,22.9860306,28.8940382,23.0054326Q28.8909645,23.0248346,28.886377799999998,23.0439363Q28.8817911,23.0630379,28.87572,23.081720400000002Q28.8696499,23.1004038,28.8621321,23.118552700000002Q28.8546143,23.1367021,28.845695499999998,23.1542053Q28.8367767,23.1717086,28.8265128,23.188458Q28.8162479,23.205207299999998,28.8047009,23.2210999Q28.7931542,23.2369928,28.780396,23.2519302Q28.7676382,23.2668676,28.7537475,23.2807584Q28.7398567,23.2946491,28.7249184,23.3074074Q28.7099805,23.3201647,28.694087500000002,23.331711300000002Q28.678195,23.3432584,28.6614456,23.3535223Q28.6446962,23.3637872,28.6271925,23.372705500000002Q28.6096897,23.3816242,28.5915403,23.389141600000002Q28.5733919,23.3966594,28.5547085,23.40273Q28.536026,23.408801099999998,28.516923900000002,23.4133873Q28.4978228,23.417973500000002,28.4784198,23.421046699999998Q28.4590168,23.4241204,28.4394331,23.425661599999998Q28.419848899999998,23.4272032,28.4002042,23.4272032Q28.3805599,23.4272041,28.360976700000002,23.425663Q28.3413925,23.4241228,28.32199,23.421050100000002Q28.302587,23.4179773,28.2834849,23.4133921Q28.2643833,23.4088058,28.245699899999998,23.4027362Q28.2270169,23.396666500000002,28.2088675,23.3891492Q28.190718699999998,23.3816323,28.173214899999998,23.3727145Q28.1557112,23.3637967,28.1389608,23.3535328Q28.1222105,23.3432693,28.1063175,23.3317227L27.2938771,22.7414975Q27.2298107,22.6949544,27.1544991,22.670485499999998Q27.0791869,22.6460171,27,22.6460171Q26.9208121,22.6460171,26.8455,22.670485Q26.7701879,22.6949539,26.7061226,22.741497L25.893682,23.3317227Q25.877789,23.3432693,25.8610392,23.3535328Q25.8442893,23.3637967,25.8267858,23.3727145Q25.8092821,23.3816323,25.7911327,23.3891497Q25.7729833,23.396666500000002,25.754300100000002,23.4027362Q25.7356172,23.4088058,25.7165151,23.4133916Q25.6974134,23.4179773,25.6780107,23.421050100000002Q25.658608,23.4241228,25.639024,23.4256635Q25.6194401,23.4272041,25.5997953,23.4272032Q25.5801508,23.4272032,25.5605669,23.425662Q25.5409832,23.4241209,25.5215807,23.4210472Q25.5021782,23.417974,25.4830766,23.4133873Q25.463975,23.408801099999998,25.445292,23.4027305Q25.426609,23.3966599,25.4084601,23.3891425Q25.390311,23.3816242,25.3728077,23.3727059Q25.3553045,23.3637877,25.3385549,23.3535233Q25.321805,23.343258900000002,25.3059123,23.3317118Q25.2900195,23.3201656,25.2750819,23.3074074Q25.2601442,23.2946496,25.2462535,23.280758900000002Q25.2323627,23.2668681,25.2196045,23.2519307Q25.2068462,23.2369928,25.1952994,23.2210999Q25.1837525,23.2052078,25.1734881,23.188458400000002Q25.1632237,23.1717091,25.1543052,23.1542053Q25.1453867,23.1367021,25.1378686,23.118552700000002Q25.1303506,23.1004038,25.1242795,23.0817208Q25.1182089,23.0630379,25.1136224,23.0439367Q25.1090362,23.0248356,25.1059628,23.0054331Q25.1028893,22.9860306,25.1013474,22.9664464Q25.0998056,22.9468627,25.0998049,22.927218Q25.0998044,22.9075737,25.1013451,22.887990000000002Q25.1028857,22.868405799999998,25.1059582,22.8490028Q25.109030699999998,22.8296003,25.113615799999998,22.810498199999998Q25.118201,22.7913961,25.1242707,22.7727127L25.4345505,21.817646Q25.459017799999998,21.7423334,25.459016300000002,21.6631455Q25.4590149,21.5839586,25.4345448,21.508647Q25.4100742,21.4333353,25.363530400000002,21.3692708Q25.3169866,21.3052058,25.2529244,21.2586584L24.4405286,20.6683712Q24.4246364,20.6568241,24.4096992,20.6440656Q24.3947618,20.6313071,24.3808715,20.6174159Q24.3669813,20.6035247,24.3542236,20.5885866Q24.3414661,20.5736485,24.3299198,20.5577555Q24.3183734,20.5418625,24.3081098,20.5251126Q24.297846,20.5083628,24.288928,20.490859Q24.28001,20.4733553,24.2724929,20.4552059Q24.2649755,20.4370565,24.2589054,20.4183733Q24.2528354,20.3996904,24.2482498,20.380588799999998Q24.2436643,20.3614869,24.2405914,20.3420844Q24.2375185,20.3226819,24.2359774,20.3030977Q24.2344365,20.283514,24.2344366,20.2638693Q24.2344369,20.244225,24.2359784,20.224641300000002Q24.2375197,20.2050571,24.240593,20.1856546Q24.2436661,20.1662521,24.2482519,20.1471503Q24.2528379,20.1280487,24.2589083,20.1093655Q24.2649789,20.0906827,24.2724965,20.0725336Q24.280014,20.0543847,24.2889323,20.0368812Q24.2978506,20.0193779,24.3081146,20.0026283Q24.3183787,19.9858785,24.3299253,19.9699855Q24.3414719,19.9540927,24.3542298,19.9391549Q24.3669877,19.924217,24.3808782,19.910326Q24.3947687,19.896435,24.4097062,19.8836765Q24.4246438,19.8709183,24.4405361,19.8593712Q24.4564288,19.8478243,24.4731781,19.8375599Q24.4899276,19.8272953,24.5074308,19.8183765Q24.5249339,19.8094578,24.543083,19.8019395Q24.5612317,19.7944214,24.5799146,19.7883503Q24.5985974,19.7822795,24.617699,19.7776933Q24.6368005,19.7731066,24.6562029,19.7700326Q24.6756054,19.7669587,24.6951892,19.765416600000002Q24.7147731,19.7638745,24.7344174,19.7638738L25.7386215,19.7638359Q25.8178086,19.7638326,25.8931196,19.7393608Q25.9684308,19.714889,26.032495,19.6683443Q26.0965586,19.6217988,26.143105,19.5577357Q26.1896515,19.4936728,26.2141249,19.4183624L26.5244775,18.4633189Q26.5305488,18.4446362,26.5380673,18.4264874Q26.5455856,18.4083385,26.5545046,18.3908355Q26.5634236,18.3733325,26.5736883,18.3565831Q26.5839529,18.3398339,26.5955,18.3239415Q26.6070473,18.3080492,26.6198058,18.2931117Q26.6325643,18.2781743,26.6464553,18.2642839Q26.6603463,18.2503935,26.6752841,18.2376357Q26.6902223,18.224878,26.706115,18.2133315Q26.7220082,18.2017851,26.7387581,18.1915213Q26.7555079,18.1812574,26.7730117,18.1723392Q26.790514899999998,18.1634212,26.8086643,18.1559037Q26.8268132,18.1483862,26.8454962,18.1423159Q26.8641794,18.1362456,26.8832812,18.1316599Q26.9023829,18.127074,26.9217854,18.124001Q26.9411881,18.120928,26.960772,18.1193868Q26.9803557,18.1178455,27,18.1178455Q27.0196447,18.1178455,27.0392289,18.1193868Q27.0588126,18.120928,27.0782151,18.124001Q27.0976181,18.127074,27.1167197,18.1316599Q27.1358213,18.1362456,27.1545038,18.1423159Q27.173187300000002,18.1483862,27.1913366,18.1559037Q27.2094855,18.1634212,27.2269888,18.1723392Q27.2444925,18.1812575,27.2612424,18.1915214Q27.2779922,18.2017852,27.2938848,18.2133316Q27.3097782,18.2248781,27.3247161,18.2376357Q27.3396544,18.2503935,27.3535452,18.2642839Q27.3674364,18.2781744,27.3801947,18.2931118Q27.3929529,18.3080492,27.4045,18.3239416Q27.4160471,18.339834,27.4263124,18.3565834Q27.4365768,18.3733327,27.4454961,18.3908358Q27.4544153,18.4083388,27.4619331,18.4264877Q27.469451,18.4446363,27.475521999999998,18.4633191L27.7858744,19.4183621Z" fill="#FFFFFF" fill-opacity="1"/></svg>