<?xml version="1.0" encoding="UTF-8"?>
<svg id="_图层_2" data-name="图层 2" xmlns="http://www.w3.org/2000/svg" viewBox="0 0 650 650">
  <defs>
    <style>
      .cls-1 {
        fill: #8780f2;
      }

      .cls-2 {
        fill: #ffe200;
      }

      .cls-3 {
        fill: none;
      }

      .cls-4 {
        fill: #6f66ef;
      }

      .cls-5 {
        fill: #565599;
      }

      .cls-6 {
        fill: #f7f8f8;
      }
    </style>
  </defs>
  <g id="_图层_2-2" data-name="图层 2">
    <g>
      <g>
        <g>
          <path class="cls-5" d="M162.49,538.98l105.23-40.12c5.13-2.03,8.51-6.89,8.51-12.43V159.92c0-9.32-9.32-15.67-17.97-12.43l-105.23,40.12c-5.13,2.03-8.51,6.89-8.51,12.43v326.51c0,9.32,9.32,15.67,17.97,12.43h0Z"/>
          <path class="cls-5" d="M406.19,200.04v326.51c0,9.32,9.32,15.67,17.97,12.43l105.23-40.12c5.13-2.03,8.51-6.89,8.51-12.43V159.92c0-9.32-9.32-15.67-17.97-12.43l-105.23,40.12c-5.13,2.03-8.51,6.89-8.51,12.43h0Z"/>
          <path class="cls-5" d="M283.12,498.86l105.23,40.12c8.65,3.38,17.97-3.11,17.97-12.43V200.04c0-5.54-3.38-10.4-8.51-12.43l-105.23-40.12c-8.65-3.38-17.97,3.11-17.97,12.43v326.51c0,5.54,3.38,10.4,8.51,12.43Z"/>
        </g>
        <path class="cls-4" d="M130.07,502.51l105.23-40.12c5.13-2.03,8.51-6.89,8.51-12.43V123.45c0-9.32-9.32-15.67-17.97-12.43l-105.23,40.12c-5.13,2.03-8.51,6.89-8.51,12.43v326.51c0,9.32,9.32,15.67,17.97,12.43h0Z"/>
        <path class="cls-4" d="M373.77,163.57v326.51c0,9.32,9.32,15.67,17.97,12.43l105.23-40.12c5.13-2.03,8.51-6.89,8.51-12.43V123.45c0-9.32-9.32-15.67-17.97-12.43l-105.23,40.12c-5.13,2.03-8.51,6.89-8.51,12.43h0Z"/>
        <path class="cls-1" d="M250.7,462.39l105.23,40.12c8.65,3.38,17.97-3.11,17.97-12.43V163.57c0-5.54-3.38-10.4-8.51-12.43l-105.23-40.12c-8.65-3.38-17.97,3.11-17.97,12.43v326.51c0,5.54,3.38,10.4,8.51,12.43Z"/>
        <circle class="cls-2" cx="202.3" cy="245.18" r="5.4"/>
        <circle class="cls-2" cx="448.45" cy="301.49" r="5.4"/>
        <path class="cls-2" d="M206,234.94l13.12-22.72c1.65-2.85-.41-6.42-3.7-6.42h-26.23c-3.29,0-5.35,3.56-3.7,6.42l13.12,22.72c1.65,2.85,5.76,2.85,7.41,0Z"/>
        <rect class="cls-6" x="198.53" y="264.65" width="24.32" height="8.33" rx="2.72" ry="2.72" transform="translate(379.6 -28.04) rotate(67.73)"/>
        <rect class="cls-6" x="209.72" y="293.18" width="24.32" height="8.33" rx="2.72" ry="2.72" transform="translate(412.94 -20.68) rotate(67.73)"/>
        <rect class="cls-6" x="220.91" y="321.7" width="24.32" height="8.33" rx="2.72" ry="2.72" transform="translate(446.28 -13.32) rotate(67.73)"/>
        <rect class="cls-6" x="239.41" y="319.32" width="24.32" height="8.33" rx="2.72" ry="2.72" transform="translate(633.48 174.92) rotate(106.62)"/>
        <rect class="cls-6" x="247.81" y="288.95" width="24.32" height="8.33" rx="2.72" ry="2.72" transform="translate(615.18 127.82) rotate(106.62)"/>
        <rect class="cls-6" x="257.15" y="261.51" width="24.32" height="8.33" rx="2.72" ry="2.72" transform="translate(600.89 83.58) rotate(106.62)"/>
        <rect class="cls-6" x="351.94" y="298.2" width="24.32" height="8.33" rx="2.72" ry="2.72" transform="translate(549.73 -132.99) rotate(73.38)"/>
        <rect class="cls-6" x="279.14" y="246.1" width="24.32" height="8.33" rx="2.72" ry="2.72" transform="translate(144.86 -104.76) rotate(26.92)"/>
        <rect class="cls-6" x="306.66" y="259.86" width="24.32" height="8.33" rx="2.72" ry="2.72" transform="translate(154.07 -115.73) rotate(26.92)"/>
        <rect class="cls-6" x="332.65" y="273.62" width="24.32" height="8.33" rx="2.72" ry="2.72" transform="translate(163.11 -126) rotate(26.92)"/>
        <rect class="cls-6" x="376" y="320.57" width="24.32" height="8.33" rx="2.72" ry="2.72" transform="translate(170.81 -132.3) rotate(24.65)"/>
        <rect class="cls-6" x="404.24" y="333.53" width="24.32" height="8.33" rx="2.72" ry="2.72" transform="translate(178.78 -142.89) rotate(24.65)"/>
        <rect class="cls-6" x="425.65" y="321.3" width="24.32" height="8.33" rx="2.72" ry="2.72" transform="translate(916.21 63.29) rotate(114.65)"/>
        <path class="cls-2" d="M443.18,270.31l2.73-8.41c.8-2.46,4.28-2.46,5.07,0l2.73,8.41h8.84c2.58,0,3.66,3.31,1.57,4.83l-7.16,5.2,2.73,8.41c.8,2.46-2.01,4.5-4.11,2.98l-7.16-5.2-7.16,5.2c-2.09,1.52-4.9-.52-4.11-2.98l2.73-8.41-7.16-5.2c-2.09-1.52-1.02-4.83,1.57-4.83h8.84Z"/>
      </g>
      <rect id="_切片_" data-name="&amp;lt;切片&amp;gt;" class="cls-3" width="650" height="650"/>
    </g>
  </g>
</svg>