<svg xmlns="http://www.w3.org/2000/svg" xmlns:xlink="http://www.w3.org/1999/xlink" fill="none" version="1.1" width="39" height="37" viewBox="0 0 39 37"><path d="M2.6898432999999997,17.80055C2.0639624999999997,18.431721,2.5110419,19.504675,3.3999193,19.504675L5.5121946,19.504675L5.5121946,32C5.5121946,33.104568,6.4076252,34,7.5121946,34L15.739839,34L15.739839,27.237877C15.739839,26.811815,15.758507,26.378721,15.846961,25.961943Q16.4974,22.897203,19.349592,22.897196Q22.201784,22.89719,22.852226,25.961939C22.940683,26.378719,22.959349,26.811815,22.959349,27.237877L22.959349,29.836445L22.959349,34L30.585371,34C31.689941,34,32.585370999999995,33.104568,32.585370999999995,32L32.585370999999995,19.504675L35.57233,19.504675C36.465126,19.504675,36.910435,18.423622,36.276657,17.7948L21.479824,3.1135874C20.303427,1.94638276,18.403482,1.95410645,17.236614,3.1308367L2.6898432999999997,17.80055Z" fill="#7B71F1" fill-opacity="1"/><path d="M21.459349,27.237877L21.459349,35.5L30.585371,35.5Q34.085373,35.5,34.085373,32L34.085373,21.004675L35.57233,21.004675Q37.246323,21.004675,37.8839,19.456854Q38.521481,17.909031,37.333153,16.729988L22.536318,2.0487756Q21.21287,0.73567033,19.348549,0.74324894Q17.484228,0.75082757,16.1715,2.0746492L1.62472963,16.744360999999998Q0.45120347000000005,17.927807,1.092238307,19.46624Q1.7332739799999999,21.004675,3.3999193,21.004675L4.0121946,21.004675L4.0121946,32Q4.0121946,35.5,7.5121946,35.5L17.239838,35.5L17.239838,27.237877Q17.239838,26.624111,17.31428,26.273355Q17.712461,24.3972,19.349596,24.397196Q20.986725,24.397192,21.384909,26.273354Q21.459349,26.624088,21.459349,27.237877ZM24.459349,32.5L24.459349,27.237877Q24.459349,26.30924,24.319544,25.650524Q23.416843,21.397188,19.349588,21.397196Q15.282339,21.397207,14.379643,25.65053Q14.239839,26.309261,14.239839,27.237877L14.239839,32.5L7.5121946,32.5Q7.0121946,32.5,7.0121946,32L7.0121946,18.004675L4.5998771000000005,18.004675L18.301727,4.1870241Q18.739304,3.7457504,19.360744,3.7432241Q19.982183,3.7406979,20.423334,4.1784L34.358498,18.004675L31.085371,18.004675L31.085371,32Q31.085371,32.5,30.585371,32.5L24.459349,32.5Z" fill-rule="evenodd" fill="#7B71F1" fill-opacity="1"/><rect x="0" y="0" width="39" height="37" rx="0" fill="#D8D8D8" fill-opacity="1" style="opacity:0;"/><rect x="14" y="10" width="3" height="5" rx="1.5" fill="#FAB85C" fill-opacity="1"/><rect x="23.501829147338867" y="15.005859375" width="1.719902753829956" height="3.5037248134613037" rx="0.859951376914978" fill="#FAB85C" fill-opacity="1" transform="matrix(0.7071067690849304,-0.7071067690849304,-0.7071067690849304,-0.7071067690849304,17.4942714113771,42.234906590959895)"/><rect x="23.536556243896484" y="10" width="1.7936162948608398" height="3.5872325897216797" rx="0.8968081474304199" fill="#FAB85C" fill-opacity="1" transform="matrix(0.7071067690849304,0.7071067690849304,-0.7071067690849304,0.7071067690849304,13.9647656937384,-13.713925931856693)"/><path d="M17.20015997,18.59988004Q17.10281283,18.47008386,17.0515064,18.31616455Q17.00019997,18.16224521,17.00019997,18Q17.00020003,17.901528291,17.01941091,17.8049487Q17.03862178,17.70836911,17.07630527,17.61739314Q17.11398876,17.52641714,17.1686967,17.44454092Q17.22340465,17.3626647,17.29303467,17.29303467Q17.3626647,17.22340465,17.44454092,17.16869676Q17.52641714,17.11398882,17.61739314,17.07630533Q17.70836911,17.03862178,17.8049487,17.01941091Q17.901528291,17.00020003,18,17.00019997Q18.11641053,17.00020003,18.22970697,17.026945650000002Q18.34300339,17.05369133,18.44712415,17.10575163Q18.55124491,17.157812,18.64061928,17.23240179Q18.7299937,17.306991580000002,18.79984003,17.40011996L18.80000001,17.39999998Q19.0722245,17.7629659,19.3047001,17.917949677Q19.4277756,18,19.5,18Q19.5722244,18,19.6952999,17.917949677Q19.9277757,17.76296577,20.2,17.39999998L20.20016,17.40011996Q20.2700062,17.306991580000002,20.3593807,17.23240185Q20.448755300000002,17.15781206,20.552876,17.105751689999998Q20.6569967,17.05369139,20.7702932,17.02694571Q20.8835895,17.00020003,21,17.00019997Q21.0984716,17.00020003,21.195051,17.01941091Q21.2916305,17.03862178,21.3826065,17.07630527Q21.4735825,17.11398876,21.5554588,17.1686967Q21.6373351,17.22340465,21.7069652,17.29303467Q21.7765951,17.3626647,21.8313026,17.44454092Q21.8860106,17.52641714,21.9236944,17.61739314Q21.9613779,17.70836911,21.9805887,17.8049487Q21.9997997,17.901528291,21.9998,18Q21.9998,18.16224521,21.9484937,18.31616455Q21.8971872,18.47008386,21.79984,18.59988004L21.8,18.60000002Q20.75,20,19.5,20Q18.25,20,17.19999999,18.60000002L17.20015997,18.59988004Z" fill-rule="evenodd" fill="#FAB85C" fill-opacity="1"/><ellipse cx="19.5" cy="27" rx="3.5" ry="4" fill="#FAB85C" fill-opacity="1"/><path d="M16,27L16,35.5L23,35.5L23,27L16,27Z" fill="#FAB85C" fill-opacity="1"/></svg>