<svg xmlns="http://www.w3.org/2000/svg" xmlns:xlink="http://www.w3.org/1999/xlink" fill="none" version="1.1" width="50" height="50" viewBox="0 0 50 50"><g><g><g><path d="M31.8636,9L17.13636,9C13.74734,9,11,12.13341,11,15.99868L11,41.597C10.999211723,42.6686,12.01135,43.3438,12.82986,42.8176L23.897399999999998,35.702799999999996C24.2715,35.4623,24.7285,35.4623,25.102600000000002,35.702799999999996L36.170100000000005,42.8176C36.988600000000005,43.3438,38.0008,42.6686,38,41.597L38,15.99868C38,12.13341,35.252700000000004,9,31.8636,9ZM32.6652,21.4576C32.8548,21.486,33.023399999999995,21.6186,33.086600000000004,21.8168C33.1498,22.0131,33.093599999999995,22.220100000000002,32.954899999999995,22.3564L29.2917,25.9547L30.1575,31.0356C30.1908,31.2267,30.1153,31.4283,29.9502,31.5486C29.7834,31.6689,29.5727,31.6778,29.4006,31.5875L24.8716,29.1939L20.34086,31.5911C20.17052,31.6813,19.95628,31.6725,19.789450000000002,31.5522C19.622619999999998,31.4319,19.550620000000002,31.2284,19.58223,31.0391L20.44623,25.9583L16.78301,22.3564C16.64604,22.221899999999998,16.58633,22.0149,16.6513,21.8168C16.71452,21.6204,16.883110000000002,21.486,17.07277,21.4576L22.1391,20.7182L24.401,16.09372C24.487000000000002,15.92035,24.662599999999998,15.800049999999999,24.869799999999998,15.800049999999999C25.0753,15.800049999999999,25.2527,15.91858,25.3387,16.09372L27.6006,20.7182L32.6652,21.4576Z" fill-rule="evenodd" fill="#FFDD01" fill-opacity="1"/></g></g></g></svg>