<svg xmlns="http://www.w3.org/2000/svg" xmlns:xlink="http://www.w3.org/1999/xlink" fill="none" version="1.1" width="50" height="50" viewBox="0 0 50 50"><g><g><path d="M39.8108,14.47275L27.7513,14.47275L27.7513,12.78608C27.7513,11.24954,26.5227,10,25.0022,10C23.486,10,22.2531,11.24513,22.2531,12.78608L22.2531,14.47275L10.19351,14.47275C8.42902,14.47275,7,15.92098,7,17.7092L7,35.7635C7,37.5518,8.42902,39,10.19351,39L39.8065,39C41.571,39,43,37.5518,43,35.7635L43,17.7092C43.0043,15.92098,41.5753,14.47275,39.8108,14.47275ZM24.9891,11.74406C25.4683,11.74406,25.8561,12.13703,25.8561,12.622720000000001C25.8561,13.10841,25.4683,13.50137,24.9891,13.50137C24.5099,13.50137,24.1221,13.10841,24.1221,12.622720000000001C24.1265,12.13703,24.5099,11.74406,24.9891,11.74406ZM33.2757,20.5306C35.3103,20.5306,36.9572,22.1996,36.9572,24.2616C36.9572,26.3235,35.3103,27.9925,33.2757,27.9925C31.2411,27.9925,29.5942,26.3235,29.5942,24.2616C29.5942,22.1996,31.2454,20.5306,33.2757,20.5306ZM16.676389999999998,28.9021L10.72068,28.9021C10.25886,28.9021,9.88418,28.5224,9.88418,28.0544C9.88418,27.5863,10.25886,27.2066,10.72068,27.2066L16.676389999999998,27.2066C17.138199999999998,27.2066,17.512900000000002,27.5863,17.512900000000002,28.0544C17.512900000000002,28.5224,17.138199999999998,28.9021,16.676389999999998,28.9021ZM21.7041,23.5993C21.7041,24.0673,21.3294,24.447,20.8676,24.447L10.72068,24.447C10.25886,24.447,9.88418,24.0673,9.88418,23.5993C9.88418,23.1312,10.25886,22.7515,10.72068,22.7515L20.8676,22.7515C21.3294,22.7515,21.7041,23.1312,21.7041,23.5993ZM39.4318,32.8273C39.4318,34.9953,27.0629,34.9953,27.0629,32.8273C27.0629,30.6594,28.7969,28.9021,30.9361,28.9021L35.5543,28.9021C37.6978,28.9021,39.4318,30.6594,39.4318,32.8273Z" fill="#FED855" fill-opacity="1"/></g></g></svg>