<svg xmlns="http://www.w3.org/2000/svg" xmlns:xlink="http://www.w3.org/1999/xlink" fill="none" version="1.1" width="50" height="50" viewBox="0 0 50 50"><g><path d="M9,14L9,35Q9,35.098255,9.009630546,35.196034999999995Q9.019261092,35.293816,9.038429435,35.390181Q9.057597782,35.486547,9.086119324,35.58057Q9.11464086,35.674593,9.15224092,35.765366Q9.18984097,35.856139999999996,9.23615745,35.942791Q9.28247392,36.029446,9.33706075,36.111137Q9.39164761,36.192835,9.45397907,36.268785Q9.51631057,36.344738,9.5857864,36.414211Q9.65526235,36.483688,9.73121345,36.546020999999996Q9.80716461,36.608353,9.88885951,36.662937Q9.97055447,36.717524999999995,10.0572064,36.76384Q10.1438584,36.810158,10.234633,36.847755Q10.3254076,36.885357,10.4194306,36.913877Q10.5134535,36.942402,10.6098193,36.961569Q10.706185099999999,36.98074,10.8039658,36.990368000000004Q10.9017464,37,11,37L40,37Q40.098255,37,40.196033,36.99037Q40.293816,36.980738,40.390179,36.961567Q40.486546000000004,36.9424,40.580566000000005,36.913879Q40.674589,36.885357,40.765361999999996,36.847755Q40.856138,36.810158,40.942791,36.76384Q41.029442,36.717524999999995,41.111137,36.662937Q41.192833,36.608353,41.268784,36.546020999999996Q41.344734,36.483688,41.414211,36.414211Q41.483688,36.344738,41.546017,36.268787Q41.608349,36.192837,41.662933,36.111139Q41.717522,36.029446,41.76384,35.942793Q41.810158,35.856139999999996,41.847755,35.765366Q41.885361,35.674593,41.913879,35.58057Q41.942406,35.486547,41.961571,35.390181Q41.98074,35.293816,41.990372,35.196037000000004Q42,35.098255,42,35L42,14Q42,13.9017464,41.990372,13.8039658Q41.98074,13.706185099999999,41.961571,13.6098193Q41.942406,13.5134535,41.913879,13.4194306Q41.885361,13.3254076,41.847755,13.234633Q41.810158,13.1438584,41.76384,13.0572064Q41.717522,12.97055447,41.662933,12.88885945Q41.608349,12.80716455,41.546021,12.73121345Q41.483688,12.65526235,41.414211,12.5857864Q41.344734,12.51631057,41.268784,12.4539791Q41.192833,12.39164761,41.111137,12.33706075Q41.029442,12.28247392,40.942791,12.23615746Q40.856138,12.18984097,40.765361999999996,12.15224092Q40.674589,12.11464086,40.580566000000005,12.086119324Q40.486546000000004,12.057597782,40.390179,12.038429435Q40.293816,12.019261092,40.196034999999995,12.009630546Q40.098255,12,40,12L11,12Q10.9017464,12,10.8039658,12.009630546Q10.706185099999999,12.019261092,10.6098193,12.038429435Q10.5134535,12.057597782,10.4194306,12.086119324Q10.3254076,12.11464086,10.234633,12.15224092Q10.1438584,12.18984097,10.0572064,12.23615745Q9.97055447,12.28247392,9.88885945,12.33706075Q9.80716455,12.39164761,9.73121345,12.45397907Q9.65526235,12.51631057,9.5857864,12.5857864Q9.51631057,12.65526235,9.4539791,12.73121345Q9.39164761,12.80716461,9.33706075,12.88885951Q9.28247392,12.97055447,9.23615746,13.0572064Q9.18984097,13.1438584,9.15224092,13.234633Q9.11464086,13.3254076,9.086119324,13.4194306Q9.057597782,13.5134535,9.038429435,13.6098193Q9.019261092,13.706185099999999,9.009630546,13.8039658Q9,13.9017464,9,14ZM33.599762,24.386284L33.903712999999996,24.73489C34.026379,24.875559000000003,34.011423,25.08912,33.870346,25.211318L33.185421000000005,25.805109C33.054369,25.918639,32.858574000000004,25.914259,32.732731,25.794983000000002L32.121012,25.216297C31.988497,25.090702,31.980034,24.882444,32.101921000000004,24.74651L32.439403999999996,24.368689C32.494877,24.306835,32.525558000000004,24.226675,32.525558000000004,24.143589L32.525558000000004,22.680111C32.525467,22.440517,32.282505,22.277473,32.060753,22.368191C28.976257,23.631472000000002,27.758629,24.045814,27.024899,24.372839C26.255642,24.715799,25.705011,24.713974,24.941898000000002,24.430109C24.178784999999998,24.146244,20.727426,22.836485,18.9284554,21.9838953C17.7267637,21.4150047,17.6477461,21.0542812,18.9490404,20.5717115C20.644756,19.9334316,23.109894,18.9135122,24.595617,18.3564076L24.603296,18.353332C25.474569,18.004353000000002,25.950876,17.8135729,27.030542,18.2641101C27.036686,18.266766099999998,27.156372,18.3193889,27.163345,18.3222108C28.609558,18.912682099999998,31.480572,20.0270576,33.114536,20.6945534C34.398909,21.2491217,34.01832,21.4686222,33.639680999999996,21.6869984C33.59794,21.711072,33.556223,21.735132200000002,33.516762,21.759626400000002L33.516762,24.164837C33.516783000000004,24.246253,33.546265,24.324911,33.599762,24.386284ZM27.201193,26.623666999999998C28.026558,26.329843,30.03635,25.548966,31.37151,25.0322C31.588108,24.948393,31.821182,25.108718,31.820379,25.340964L31.820379,30.619846C31.820379,30.733574,31.761784,30.839283,31.665333,30.899559C31.070213,31.2724,28.830507,32.550621,26.14608,32.550621C23.254482,32.550621,20.954848,31.271238,20.347279,30.899227C20.249057999999998,30.839134,20.189283,30.73217,20.189577,30.617023L20.189577,25.369681999999997C20.189577,25.142895,20.413076,24.983725,20.627325,25.05793C21.7085,25.433428,23.567728000000002,26.219118,24.839142000000002,26.602916C24.897456,26.620514999999997,24.953322999999997,26.637585,25.007109,26.654018C25.801565,26.896751000000002,26.141775,27.000697000000002,27.201193,26.623666999999998Z" fill-rule="evenodd" fill="#83CB89" fill-opacity="1"/></g></svg>