<svg xmlns="http://www.w3.org/2000/svg" xmlns:xlink="http://www.w3.org/1999/xlink" fill="none" version="1.1" width="50" height="50" viewBox="0 0 50 50"><g><g><g><path d="M9,14L9,35Q9,35.098299999999995,9.00963055,35.196Q9.0192611,35.293800000000005,9.0384294,35.3902Q9.0575978,35.4865,9.0861193,35.580600000000004Q9.114641,35.6746,9.152241,35.7654Q9.189841,35.8561,9.236157,35.9428Q9.282474,36.029399999999995,9.337061,36.1111Q9.391648,36.1928,9.453979,36.2688Q9.516311,36.3447,9.585786,36.4142Q9.655262,36.4837,9.731213,36.546Q9.807164,36.6084,9.888859,36.6629Q9.970554,36.7175,10.05721,36.7638Q10.14386,36.810199999999995,10.23463,36.8478Q10.32541,36.885400000000004,10.41943,36.9139Q10.51345,36.9424,10.60982,36.961600000000004Q10.70619,36.9807,10.80397,36.9904Q10.90175,37,11,37L40,37Q40.098299999999995,37,40.196,36.9904Q40.293800000000005,36.9807,40.3902,36.961600000000004Q40.4865,36.9424,40.580600000000004,36.9139Q40.6746,36.885400000000004,40.7654,36.8478Q40.8561,36.810199999999995,40.9428,36.7638Q41.0294,36.7175,41.1111,36.6629Q41.1928,36.6084,41.2688,36.546Q41.3447,36.4837,41.4142,36.4142Q41.4837,36.3447,41.546,36.2688Q41.6083,36.1928,41.6629,36.1111Q41.7175,36.029399999999995,41.7638,35.9428Q41.8102,35.8561,41.8478,35.7654Q41.8854,35.6746,41.9139,35.580600000000004Q41.9424,35.4865,41.9616,35.3902Q41.9807,35.293800000000005,41.9904,35.196Q42,35.098299999999995,42,35L42,14Q42,13.90175,41.9904,13.80397Q41.9807,13.70619,41.9616,13.60982Q41.9424,13.51345,41.9139,13.41943Q41.8854,13.32541,41.8478,13.23463Q41.8102,13.14386,41.7638,13.05721Q41.7175,12.970554,41.6629,12.888859Q41.6083,12.807164,41.546,12.731213Q41.4837,12.655262,41.4142,12.585786Q41.3447,12.516311,41.2688,12.453979Q41.1928,12.391648,41.1111,12.337061Q41.0294,12.282474,40.9428,12.236157Q40.8561,12.189841,40.7654,12.152241Q40.6746,12.114641,40.580600000000004,12.0861193Q40.4865,12.0575978,40.3902,12.0384294Q40.293800000000005,12.0192611,40.196,12.00963055Q40.098299999999995,12,40,12L11,12Q10.90175,12,10.80397,12.00963055Q10.70619,12.0192611,10.60982,12.0384294Q10.51345,12.0575978,10.41943,12.0861193Q10.32541,12.114641,10.23463,12.152241Q10.14386,12.189841,10.05721,12.236157Q9.970554,12.282474,9.888859,12.337061Q9.807164,12.391648,9.731213,12.453979Q9.655262,12.516311,9.585786,12.585786Q9.516311,12.655262,9.453979,12.731213Q9.391648,12.807164,9.337061,12.888859Q9.282474,12.970554,9.236157,13.05721Q9.189841,13.14386,9.152241,13.23463Q9.114641,13.32541,9.0861193,13.41943Q9.0575978,13.51345,9.0384294,13.60982Q9.0192611,13.70619,9.00963055,13.80397Q9,13.90175,9,14ZM33.5998,24.3863L33.9037,24.7349C34.026399999999995,24.8756,34.011399999999995,25.089100000000002,33.8703,25.2113L33.1854,25.8051C33.0544,25.918599999999998,32.858599999999996,25.9143,32.7327,25.795L32.120999999999995,25.2163C31.9885,25.0907,31.98,24.8824,32.1019,24.746499999999997L32.4394,24.3687C32.4949,24.306800000000003,32.5256,24.2267,32.5256,24.1436L32.5256,22.6801C32.5255,22.4405,32.2825,22.2775,32.0608,22.3682C28.9763,23.631500000000003,27.7586,24.0458,27.0249,24.372799999999998C26.2556,24.7158,25.705,24.714,24.9419,24.4301C24.178800000000003,24.1462,20.7274,22.8365,18.92846,21.9839C17.72676,21.415,17.647750000000002,21.05428,18.94904,20.57171C20.6448,19.93343,23.1099,18.91351,24.595599999999997,18.35641L24.6033,18.35333C25.4746,18.00435,25.9509,17.81357,27.0305,18.26411C27.0367,18.26677,27.1564,18.31939,27.1633,18.32221C28.6096,18.91268,31.4806,20.02706,33.1145,20.69455C34.3989,21.249119999999998,34.018299999999996,21.46862,33.639700000000005,21.686999999999998C33.597899999999996,21.71107,33.556200000000004,21.735129999999998,33.5168,21.75963L33.5168,24.1648C33.5168,24.246299999999998,33.5463,24.3249,33.5998,24.3863ZM27.2012,26.6237C28.0266,26.3298,30.0364,25.549,31.3715,25.0322C31.5881,24.9484,31.8212,25.1087,31.8204,25.341L31.8204,30.6198C31.8204,30.7336,31.7618,30.8393,31.6653,30.8996C31.0702,31.2724,28.8305,32.5506,26.1461,32.5506C23.2545,32.5506,20.9548,31.2712,20.3473,30.8992C20.2491,30.8391,20.1893,30.7322,20.1896,30.617L20.1896,25.3697C20.1896,25.142899999999997,20.4131,24.9837,20.627299999999998,25.0579C21.7085,25.4334,23.567700000000002,26.219099999999997,24.839100000000002,26.602899999999998C24.8975,26.6205,24.9533,26.6376,25.0071,26.654C25.8016,26.8968,26.1418,27.000700000000002,27.2012,26.6237Z" fill-rule="evenodd" fill="#83CB89" fill-opacity="1"/></g></g></g></svg>