<svg xmlns="http://www.w3.org/2000/svg" xmlns:xlink="http://www.w3.org/1999/xlink" fill="none" version="1.1" width="50" height="50" viewBox="0 0 50 50"><g><g><path d="M30.3929,11C31.0438,11,31.5714,11.447715,31.5714,12L31.5714,13L37.4643,13C39.3365,12.99991,40.8843,14.23818,40.9941,15.824L41,16L41,36C41,37.6569,39.417,39,37.4643,39L11.53571,39C9.58299,39,8,37.6569,8,36L8,16C8,14.34315,9.58299,13,11.53571,13L17.42857,13L17.42857,12C17.42857,11.447715,17.95624,11,18.607100000000003,11C19.2581,11,19.7857,11.447715,19.7857,12L19.7857,13L29.2143,13L29.2143,12C29.2143,11.447715,29.7419,11,30.3929,11ZM13,22Q13,21.9015,13.019210000000001,21.8049Q13.03843,21.7083,13.07612,21.6173Q13.11381,21.5263,13.16853,21.4444Q13.22325,21.3625,13.29289,21.2929Q13.36254,21.2232,13.44443,21.1685Q13.52632,21.113799999999998,13.61732,21.0761Q13.70831,21.0384,13.80491,21.019199999999998Q13.90151,21,14,21L35,21Q35.0985,21,35.1951,21.019199999999998Q35.2917,21.0384,35.3827,21.0761Q35.4737,21.113799999999998,35.5556,21.1685Q35.6375,21.2232,35.7071,21.2929Q35.776700000000005,21.3625,35.8315,21.4444Q35.8862,21.5263,35.9239,21.6173Q35.961600000000004,21.7083,35.9808,21.8049Q36,21.9015,36,22Q36,22.0985,35.9808,22.1951Q35.961600000000004,22.2917,35.9239,22.3827Q35.8862,22.4737,35.8315,22.5556Q35.776700000000005,22.6375,35.7071,22.7071Q35.6375,22.776699999999998,35.5556,22.8315Q35.4737,22.886200000000002,35.3827,22.9239Q35.2917,22.9616,35.1951,22.980800000000002Q35.0985,23,35,23L14,23Q13.90151,23,13.80491,22.980800000000002Q13.70831,22.9616,13.61732,22.9239Q13.52632,22.886200000000002,13.44443,22.8315Q13.36254,22.776699999999998,13.29289,22.7071Q13.22325,22.6375,13.16853,22.5556Q13.11381,22.4737,13.07612,22.3827Q13.03843,22.2917,13.019210000000001,22.1951Q13,22.0985,13,22ZM13,30Q13,29.9015,13.019210000000001,29.8049Q13.03843,29.7083,13.07612,29.6173Q13.11381,29.5263,13.16853,29.4444Q13.22325,29.3625,13.29289,29.2929Q13.36254,29.2232,13.44443,29.1685Q13.52632,29.1138,13.61732,29.0761Q13.70831,29.0384,13.80491,29.0192Q13.90151,29,14,29L35,29Q35.0985,29,35.1951,29.0192Q35.2917,29.0384,35.3827,29.0761Q35.4737,29.1138,35.5556,29.1685Q35.6375,29.2232,35.7071,29.2929Q35.776700000000005,29.3625,35.8315,29.4444Q35.8862,29.5263,35.9239,29.6173Q35.961600000000004,29.7083,35.9808,29.8049Q36,29.9015,36,30Q36,30.0985,35.9808,30.1951Q35.961600000000004,30.2917,35.9239,30.3827Q35.8862,30.4737,35.8315,30.5556Q35.776700000000005,30.6375,35.7071,30.7071Q35.6375,30.7767,35.5556,30.8315Q35.4737,30.8862,35.3827,30.9239Q35.2917,30.9616,35.1951,30.9808Q35.0985,31,35,31L14,31Q13.90151,31,13.80491,30.9808Q13.70831,30.9616,13.61732,30.9239Q13.52632,30.8862,13.44443,30.8315Q13.36254,30.7767,13.29289,30.7071Q13.22325,30.6375,13.16853,30.5556Q13.11381,30.4737,13.07612,30.3827Q13.03843,30.2917,13.019210000000001,30.1951Q13,30.0985,13,30Z" fill-rule="evenodd" fill="#FDC93E" fill-opacity="1"/></g></g></svg>