<svg xmlns="http://www.w3.org/2000/svg" xmlns:xlink="http://www.w3.org/1999/xlink" fill="none" version="1.1" width="50" height="50" viewBox="0 0 50 50"><g><g><g><path d="M42.0002,25.0002Q42.0002,25.4176,41.9797,25.8344Q41.9592,26.2512,41.9183,26.6665Q41.8774,27.0818,41.8162,27.4946Q41.7549,27.9075,41.6735,28.3168Q41.5921,28.7261,41.4907,29.1309Q41.3893,29.5357,41.2682,29.9351Q41.147,30.3344,41.0064,30.7274Q40.8658,31.1203,40.7061,31.5058Q40.5464,31.8914,40.368,32.268699999999995Q40.1896,32.6459,39.9928,33.013999999999996Q39.796099999999996,33.382000000000005,39.5816,33.739999999999995Q39.367000000000004,34.097899999999996,39.1351,34.444900000000004Q38.9033,34.7919,38.6547,35.1271Q38.406099999999995,35.4623,38.1413,35.7849Q37.876599999999996,36.1075,37.5963,36.4167Q37.3161,36.726,37.021,37.021Q36.725899999999996,37.3161,36.4167,37.5964Q36.1075,37.8767,35.7849,38.141400000000004Q35.4623,38.4062,35.1271,38.6548Q34.7919,38.903400000000005,34.444900000000004,39.1352Q34.097899999999996,39.3671,33.7399,39.5816Q33.382000000000005,39.7962,33.0139,39.9929Q32.6459,40.1896,32.2686,40.368Q31.8913,40.5465,31.5058,40.7062Q31.1202,40.8659,30.7273,41.0065Q30.3344,41.1471,29.935,41.2682Q29.5356,41.3894,29.1308,41.4908Q28.726,41.5922,28.3167,41.6736Q27.9074,41.755,27.4946,41.8162Q27.0818,41.8775,26.6665,41.9184Q26.2511,41.9593,25.8343,41.9798Q25.4175,42.0002,25.0002,42.0002Q24.5828,42.0002,24.166,41.9798Q23.749200000000002,41.9593,23.3339,41.9184Q22.918599999999998,41.8775,22.505699999999997,41.8162Q22.0929,41.755,21.6836,41.6736Q21.2743,41.5922,20.869500000000002,41.4908Q20.4647,41.3894,20.0653,41.2682Q19.666,41.1471,19.273,41.0065Q18.8801,40.8659,18.494500000000002,40.7062Q18.109,40.5465,17.73173,40.368Q17.35447,40.1896,16.986420000000003,39.9929Q16.61837,39.7962,16.26042,39.5816Q15.902470000000001,39.3671,15.55547,39.1352Q15.20848,38.903400000000005,14.873280000000001,38.6548Q14.53808,38.4062,14.21548,38.141400000000004Q13.89288,37.8767,13.58366,37.5964Q13.27445,37.3161,12.97935,37.021Q12.68426,36.726,12.404,36.4167Q12.12374,36.1075,11.85899,35.7849Q11.59424,35.4623,11.34564,35.1271Q11.09704,34.7919,10.86518,34.444900000000004Q10.63333,34.097899999999996,10.41878,33.739999999999995Q10.204229999999999,33.382000000000005,10.00751,33.013999999999996Q9.81078,32.6459,9.63235,32.268699999999995Q9.45392,31.8914,9.29422,31.5059Q9.13451,31.1203,8.993918,30.7274Q8.853325,30.3344,8.732182,29.9351Q8.611038,29.5357,8.509636,29.1309Q8.408234,28.7261,8.326817,28.3168Q8.245401,27.9075,8.184167,27.4946Q8.122932,27.0818,8.0820268,26.6665Q8.0411217,26.2512,8.0206444,25.8344Q8.000167192,25.4176,8.000167192,25.0002Q8.000167192,24.5829,8.0206444,24.1661Q8.0411217,23.749299999999998,8.0820268,23.3339Q8.122932,22.918599999999998,8.184167,22.5058Q8.245401,22.093,8.326817,21.6837Q8.408234,21.2744,8.509636,20.8696Q8.611038,20.4647,8.732181,20.0654Q8.853325,19.666,8.993918,19.2731Q9.13451,18.880200000000002,9.29422,18.4946Q9.45392,18.109099999999998,9.63235,17.7318Q9.81078,17.35454,10.00751,16.98649Q10.204229999999999,16.61844,10.41878,16.26048Q10.63333,15.902529999999999,10.86518,15.55554Q11.09704,15.20854,11.34564,14.873339999999999Q11.59424,14.53815,11.85899,14.21555Q12.12374,13.892949999999999,12.404,13.58373Q12.68426,13.27451,12.97935,12.979420000000001Q13.27445,12.68432,13.58366,12.404060000000001Q13.89288,12.1238,14.21548,11.85906Q14.53808,11.59431,14.873280000000001,11.3457Q15.20848,11.097100000000001,15.55547,10.86525Q15.902470000000001,10.63339,16.26042,10.418849999999999Q16.61837,10.2043,16.986420000000003,10.00757Q17.35447,9.81084,17.73173,9.63241Q18.109,9.45398,18.494500000000002,9.29428Q18.8801,9.13458,19.273,8.993983Q19.666,8.85339,20.0653,8.732247Q20.4647,8.611103,20.869500000000002,8.509701Q21.2743,8.408299,21.6836,8.326883Q22.0929,8.245466,22.505699999999997,8.184232Q22.918599999999998,8.122997,23.3339,8.0820921Q23.749200000000002,8.0411869,24.166,8.0207097Q24.5828,8.000232423,25.0002,8.000232423Q25.4175,8.000232423,25.8343,8.0207097Q26.2511,8.0411869,26.6665,8.0820921Q27.0818,8.122997,27.4946,8.184232Q27.9074,8.245466,28.3167,8.326883Q28.726,8.408299,29.1308,8.509701Q29.5356,8.611103,29.935,8.732247Q30.3344,8.85339,30.7273,8.993983Q31.1202,9.13458,31.5058,9.29428Q31.8913,9.45398,32.2686,9.63241Q32.6459,9.81084,33.0139,10.00757Q33.382000000000005,10.2043,33.7399,10.418849999999999Q34.097899999999996,10.63339,34.444900000000004,10.86525Q34.7919,11.097100000000001,35.1271,11.3457Q35.4623,11.59431,35.7849,11.85905Q36.1075,12.1238,36.4167,12.404060000000001Q36.725899999999996,12.68432,37.021,12.979420000000001Q37.3161,13.27451,37.5963,13.58373Q37.876599999999996,13.892949999999999,38.1413,14.21555Q38.406099999999995,14.53814,38.6547,14.873339999999999Q38.9033,15.20854,39.1351,15.55554Q39.367000000000004,15.902529999999999,39.5816,16.26048Q39.796099999999996,16.61844,39.9928,16.98649Q40.1896,17.35454,40.368,17.7318Q40.5464,18.109099999999998,40.7061,18.4946Q40.8658,18.880200000000002,41.0064,19.2731Q41.147,19.666,41.2682,20.0654Q41.3893,20.4647,41.4907,20.8696Q41.5921,21.2744,41.6735,21.6837Q41.7549,22.093,41.8162,22.5058Q41.8774,22.918599999999998,41.9183,23.3339Q41.9592,23.749299999999998,41.9797,24.1661Q42.0002,24.5829,42.0002,25.0002ZM32.4708,19.738799999999998C32.4708,22.9602,30.0911,24.4952,28.8387,26.0175C27.4754,27.674,27.8791,29.2133,25.0001,29.2133C22.121000000000002,29.2133,22.5248,27.674,21.1614,26.0175C19.909,24.4952,17.52936,22.9595,17.52936,19.738799999999998C17.52936,13.424900000000001,20.874200000000002,10.89648,25.0001,10.89648C29.1259,10.89648,32.4708,13.424900000000001,32.4708,19.738799999999998ZM20.9718,31.9724C20.9718,32.1151,21.028399999999998,32.2519,21.1293,32.3528C21.2302,32.4537,21.367,32.5103,21.5096,32.5103L28.4904,32.5103C28.7875,32.5103,29.0284,32.2695,29.0284,31.9724L29.0284,30.6785C29.0284,30.3815,28.7875,30.1407,28.4904,30.1406L21.5096,30.1406C21.212600000000002,30.1406,20.9718,30.3814,20.9718,30.6785L20.9718,31.9724ZM21.657899999999998,35.2693C21.657899999999998,35.412,21.7145,35.5488,21.8154,35.649699999999996C21.9163,35.7506,22.0531,35.8072,22.1958,35.8072L27.8044,35.8072C28.1014,35.8072,28.3423,35.5664,28.3423,35.2693L28.3423,33.9754C28.3423,33.678399999999996,28.1014,33.4375,27.8044,33.4375L22.1958,33.4375C21.898699999999998,33.4375,21.657899999999998,33.678399999999996,21.657899999999998,33.9754L21.657899999999998,35.2693ZM22.1152,37.4905C22.1152,37.9184,22.2853,38.328900000000004,22.587899999999998,38.6315C22.8905,38.9341,23.3009,39.1042,23.7289,39.1042L26.2712,39.1042C27.1624,39.1042,27.8848,38.381699999999995,27.8849,37.4905L27.8849,36.7345L22.1152,36.7345L22.1152,37.4905Z" fill-rule="evenodd" fill="#F0964A" fill-opacity="1"/></g><g><path d="M23.314564111328124,19.87255435546875L21.388214111328125,19.171404355468752L23.661404111328125,12.92596435546875L28.152714111328123,14.56068435546875L26.648054111328126,18.69467435546875L29.342524111328125,19.67539435546875L23.404144111328126,26.562664355468748L23.314564111328124,19.87255435546875Z" fill="#F0964A" fill-opacity="1"/></g></g></g></svg>