<svg xmlns="http://www.w3.org/2000/svg" xmlns:xlink="http://www.w3.org/1999/xlink" fill="none" version="1.1" width="50" height="50" viewBox="0 0 50 50"><rect x="9.571533203125" y="9.5999755859375" width="30.857141494750977" height="32.39999771118164" rx="2" fill-opacity="0" stroke-opacity="1" stroke="#AF8BF5" fill="none" stroke-width="3"/><ellipse cx="16.71435546875" cy="21.250146627426147" rx="2" ry="2.1000001430511475" fill="#AF8BF5" fill-opacity="1"/><ellipse cx="26.142787218093872" cy="31.800048828125" rx="2.857142686843872" ry="3" fill="#AF8BF5" fill-opacity="1"/><rect x="14.71435546875" y="24.550048828125" width="2.857142686843872" height="3.5999999046325684" rx="0" fill="#AF8BF5" fill-opacity="1"/><rect x="15.857177734375" y="24.550048828125" width="2.857142686843872" height="15.600000381469727" rx="0" fill="#AF8BF5" fill-opacity="1"/><rect x="20.428466796875" y="25.800048828125" width="1.7142857313156128" height="10.799999237060547" rx="0.8571428656578064" fill="#AF8BF5" fill-opacity="1"/><rect x="26.142822265625" y="24.5999755859375" width="1.2000000476837158" height="3.4285714626312256" rx="0.6000000238418579" fill="#AF8BF5" fill-opacity="1" transform="matrix(0,1,-1,0,50.7427978515625,-1.5428466796875)"/><rect x="26.8154296875" y="30.9710693359375" width="2.119987964630127" height="5.653301239013672" rx="0" fill="#AF8BF5" fill-opacity="1" transform="matrix(-0.6896553039550781,0.7241377830505371,0.6896550059318542,0.7241381406784058,23.949479992726992,-10.874329033264075)"/><rect x="34.71435546875" y="37.150146484375" width="3" height="17.142858505249023" rx="0" fill="#AF8BF5" fill-opacity="1" transform="matrix(0,1,-1,0,71.864501953125,2.435791015625)"/><rect x="30.142822265625" y="31.199951171875" width="2.857142686843872" height="3" rx="0" fill="#AF8BF5" fill-opacity="1" transform="matrix(1,-2.2348338291067193e-8,2.2348338291067193e-8,1,-6.972670618665688e-7,6.736419884134648e-7)"/><path d="M33,36.2715022421875C33,37.0999302421875,33.67157298,37.7715022421875,34.5,37.7715022421875C35.3284271,37.7715022421875,36,37.0999302421875,36,36.2715022421875L36,26.7000733421875C36,25.8716461021875,35.3284271,25.2000732421875,34.5,25.2000732421875C33.67157298,25.2000732421875,33,25.8716461021875,33,26.7000733421875L33,36.2715022421875Z" fill="#AF8BF5" fill-opacity="1" transform="matrix(0,1,-1,0,58.2000732421875,-7.7999267578125)"/><path d="M30.142822265625,32.1715025421875C30.142822265625,32.9604806421875,30.782415385625,33.6000738421875,31.571393565625,33.6000738421875C32.360371865625,33.6000738421875,32.999964965625,32.9604806421875,32.999964965625,32.1715021421875L32.999964965625,26.6286445421875C32.999964965625,25.8396663621875,32.360371865625,25.2000732421875,31.571393565625,25.2000732421875C30.782415385625,25.2000732421875,30.142822265625,25.8396663621875,30.142822265625,26.6286447421875L30.142822265625,32.1715025421875Z" fill="#AF8BF5" fill-opacity="1" transform="matrix(1,-2.2348338291067193e-8,2.2348338291067193e-8,1,-5.63179760604271e-7,6.736419884134648e-7)"/><rect x="31.28564453125" y="20.9500732421875" width="3" height="10.285714149475098" rx="0" fill="#AF8BF5" fill-opacity="1" transform="matrix(0,1,-1,0,52.2357177734375,-10.3355712890625)"/><path d="M27.24611195,26.863029021875C26.68407619,27.396853221875,26.9161607,28.331553921875,27.67855075,28.471603821875Q28.99352815,28.713162921875,30.24869585,28.734149421875Q31.42670155,28.753846121875,32.54044345,28.590260021875C33.28618045,28.480726221875,33.54113105,27.586985321874998,33.02074485,27.041714421875L30.87440535,24.792738731875C30.49374865,24.393879381875,29.86207725,24.378373321875,29.46230885,24.758075121875L27.24611195,26.863029021875Z" fill="#AF8BF5" fill-opacity="1" transform="matrix(0.6717212200164795,-0.7408040761947632,0.7072173357009888,0.7069962620735168,-8.497188350505894,26.293555757511058)"/><path d="M28.3385009765625,24.2577965578125Q29.0498433665625,23.8146397578125,29.5912246765625,23.8547242578125Q30.1326060765625,23.8948088578125,30.8059420765625,24.4301483578125L29.6493792765625,22.7999267578125L28.3385009765625,24.2577965578125Z" fill="#AF8BF5" fill-opacity="1" transform="matrix(0.7312911152839661,0.682065486907959,-0.6458624601364136,0.7634537816047668,22.340423778667173,-13.935477012571937)"/><rect x="9" y="9.5999755859375" width="32" height="8.40000057220459" rx="2" fill="#AF8BF5" fill-opacity="1"/><g transform="matrix(0,1,-1,0,23.572021484375,-11.572021484375)"><path d="M17.572021484375,7.5L22.372021684375,7.5L22.372021684375,7.4997001Q22.445697284375,7.4997001,22.519018184375,7.4924786Q22.592338584375,7.4852571,22.664598484375,7.4708836000000005Q22.736858384375,7.4565103,22.807361584375002,7.4351234Q22.877864384375002,7.4137366,22.945931484375002,7.3855422Q23.013998984375,7.3573478,23.078975184375,7.3226175Q23.143951384375,7.287887,23.205209684375,7.2469549Q23.266468984375,7.2060230999999995,23.323420484375,7.1592839Q23.380372984375,7.1125445,23.432469384375,7.0604481Q23.484566184374998,7.0083516,23.531305284375,6.95139962Q23.578044884375,6.89444768,23.618976084375,6.83318865Q23.659908784375,6.77192974,23.694639184375,6.7069537Q23.729369184375,6.64197773,23.757563084375,6.57391036Q23.785757984375,6.50584304,23.807145084375,6.43533996Q23.828532184375,6.3648368699999995,23.842905084375,6.29257697Q23.857278784374998,6.2203171,23.864500484375,6.14699632Q23.871722184375,6.073675543,23.871721784374998,6Q23.871722184375,5.926324457,23.864500484375,5.85300368Q23.857278784374998,5.7796829,23.842905084375,5.70742303Q23.828532184375,5.6351631300000005,23.807145084375,5.56466001Q23.785757984375,5.49415696,23.757563584375,5.42608964Q23.729369684375,5.35802227,23.694639184375,5.29304624Q23.659909284375,5.22807026,23.618976584374998,5.16681135Q23.578044884375,5.10555232,23.531305284375,5.04860032Q23.484566184374998,4.9916484,23.432469384375,4.9395519Q23.380372984375,4.8874555,23.323420984374998,4.8407161Q23.266468984375,4.7939769000000005,23.205209684375,4.7530451Q23.143951384375,4.712113,23.078974684374998,4.6773826Q23.013998984375,4.6426522,22.945931484375002,4.6144578Q22.877864384375002,4.5862634,22.807361584375002,4.5648766Q22.736858384375,4.5434897,22.664598484375,4.5291163999999995Q22.592338584375,4.5147429,22.519018184375,4.5075213000000005Q22.445697284375,4.5002999,22.372021684375,4.5002999L22.372021684375,4.5L17.572021484375,4.5L17.572021484375,4.5002999Q17.498345941375,4.5002999,17.425025164375,4.5075214Q17.351704384375,4.5147429,17.279444514375,4.5291163999999995Q17.207184614375,4.5434897,17.136681494375,4.5648766Q17.066178444375,4.5862634,16.998111124375,4.6144578Q16.930043754375,4.6426522,16.865067724375,4.6773825Q16.800091744375,4.712113,16.738832834375,4.7530451Q16.677573804375,4.7939769000000005,16.620621804375,4.8407161Q16.563669884375,4.8874555,16.511573384375,4.9395519Q16.459476984375,4.9916484,16.412737584375,5.04860038Q16.365998384375,5.10555232,16.325066584375,5.16681135Q16.284134484375,5.22807026,16.249404084375,5.2930463Q16.214673684375,5.35802227,16.186479284375,5.42608964Q16.158284884375,5.49415696,16.136898084375,5.56466004Q16.115511184375,5.6351631300000005,16.101137884375,5.70742303Q16.086764384375,5.7796829,16.079542784375,5.85300368Q16.072321284375,5.926324457,16.072321384375,6Q16.072321284375,6.073675543,16.079542884375,6.14699632Q16.086764384375,6.2203171,16.101137884375,6.29257697Q16.115511184375,6.3648368699999995,16.136898084375,6.43533999Q16.158284884375,6.50584304,16.186479284375,6.57391036Q16.214673684375,6.64197773,16.249403984375,6.70695376Q16.284134484375,6.77192974,16.325066584375,6.83318865Q16.365998384375,6.89444768,16.412737584375,6.95139968Q16.459476984375,7.0083516,16.511573384375,7.0604481Q16.563669884375,7.1125445,16.620621864375,7.1592839Q16.677573804375,7.2060230999999995,16.738832834375,7.2469549Q16.800091744375,7.287887,16.865067784375,7.3226174Q16.930043754375,7.3573478,16.998111124375,7.3855422Q17.066178444375,7.4137366,17.136681524375,7.4351234Q17.207184614375,7.4565103,17.279444514375,7.4708836000000005Q17.351704384375,7.4852571,17.425025164375,7.4924786999999995Q17.498345941375,7.4997001,17.572021484375,7.4997001L17.572021484375,7.5Z" fill-rule="evenodd" fill="#AF8BF5" fill-opacity="1"/></g><g transform="matrix(0,1,-1,0,38.42919921875,-26.42919921875)"><path d="M32.42919921875,7.5L37.22919941875,7.5L37.22919941875,7.4997001Q37.30287501875,7.4997001,37.37619591875,7.4924786Q37.44951631875,7.4852571,37.52177621875,7.4708836000000005Q37.59403611875,7.4565103,37.66453931875,7.4351234Q37.73504211875,7.4137366,37.80310921875,7.3855422Q37.87117671875,7.3573478,37.93615291875,7.3226175Q38.00112911875,7.287887,38.06238741875,7.2469549Q38.12364671875,7.2060230999999995,38.18059821875,7.1592839Q38.23755071875,7.1125445,38.28964711875,7.0604481Q38.34174391875,7.0083516,38.38848301875,6.95139962Q38.435222618750004,6.89444768,38.47615381875,6.83318865Q38.51708651875,6.77192974,38.55181691875,6.7069537Q38.58654691875,6.64197773,38.61474081875,6.57391036Q38.64293571875,6.50584304,38.66432281875,6.43533996Q38.68570991875,6.3648368699999995,38.70008281875,6.29257697Q38.71445651875,6.2203171,38.72167821875,6.14699632Q38.72889991875,6.073675543,38.72889951875,6Q38.72889991875,5.926324457,38.72167821875,5.85300368Q38.71445651875,5.7796829,38.70008281875,5.70742303Q38.68570991875,5.6351631300000005,38.66432281875,5.56466001Q38.64293571875,5.49415696,38.61474131875,5.42608964Q38.58654741875,5.35802227,38.55181691875,5.29304624Q38.51708701875,5.22807026,38.47615431875,5.16681135Q38.435222618750004,5.10555232,38.38848301875,5.04860032Q38.34174391875,4.9916484,38.28964711875,4.9395519Q38.23755071875,4.8874555,38.18059871875,4.8407161Q38.12364671875,4.7939769000000005,38.06238741875,4.7530451Q38.00112911875,4.712113,37.93615241875,4.6773826Q37.87117671875,4.6426522,37.80310921875,4.6144578Q37.73504211875,4.5862634,37.66453931875,4.5648766Q37.59403611875,4.5434897,37.52177621875,4.5291163999999995Q37.44951631875,4.5147429,37.37619591875,4.5075213000000005Q37.30287501875,4.5002999,37.22919941875,4.5002999L37.22919941875,4.5L32.42919921875,4.5L32.42919921875,4.5002999Q32.35552367575,4.5002999,32.28220289875,4.5075214Q32.20888211875,4.5147429,32.13662224875,4.5291163999999995Q32.06436234875,4.5434897,31.99385922875,4.5648766Q31.92335617875,4.5862634,31.85528885875,4.6144578Q31.78722148875,4.6426522,31.72224545875,4.6773825Q31.65726947875,4.712113,31.59601056875,4.7530451Q31.53475153875,4.7939769000000005,31.47779953875,4.8407161Q31.42084761875,4.8874555,31.36875111875,4.9395519Q31.31665471875,4.9916484,31.26991531875,5.04860038Q31.22317611875,5.10555232,31.18224431875,5.16681135Q31.14131221875,5.22807026,31.10658181875,5.2930463Q31.07185141875,5.35802227,31.04365701875,5.42608964Q31.01546261875,5.49415696,30.99407581875,5.56466004Q30.97268891875,5.6351631300000005,30.95831561875,5.70742303Q30.94394211875,5.7796829,30.93672051875,5.85300368Q30.92949901875,5.926324457,30.92949911875,6Q30.92949901875,6.073675543,30.93672061875,6.14699632Q30.94394211875,6.2203171,30.95831561875,6.29257697Q30.97268891875,6.3648368699999995,30.99407581875,6.43533999Q31.01546261875,6.50584304,31.04365701875,6.57391036Q31.07185141875,6.64197773,31.10658171875,6.70695376Q31.14131221875,6.77192974,31.18224431875,6.83318865Q31.22317611875,6.89444768,31.26991531875,6.95139968Q31.31665471875,7.0083516,31.36875111875,7.0604481Q31.42084761875,7.1125445,31.47779959875,7.1592839Q31.53475153875,7.2060230999999995,31.59601056875,7.2469549Q31.65726947875,7.287887,31.72224551875,7.3226174Q31.78722148875,7.3573478,31.85528885875,7.3855422Q31.92335617875,7.4137366,31.99385925875,7.4351234Q32.06436234875,7.4565103,32.13662224875,7.4708836000000005Q32.20888211875,7.4852571,32.28220289875,7.4924786999999995Q32.35552367575,7.4997001,32.42919921875,7.4997001L32.42919921875,7.5Z" fill-rule="evenodd" fill="#AF8BF5" fill-opacity="1"/></g><rect x="0" y="0" width="50" height="50" rx="0" fill="#FFFFFF" fill-opacity="1" style="opacity:0;"/></svg>