<svg xmlns="http://www.w3.org/2000/svg" xmlns:xlink="http://www.w3.org/1999/xlink" fill="none" version="1.1" width="50" height="50" viewBox="0 0 50 50"><g><g><path d="M39.6488,38.512299999999996L35.932,34.9644C38.3605,31.446,37.317499999999995,26.7303,33.6007,24.4314C29.884,22.1325,24.9023,23.119799999999998,22.4738,26.6382C20.0452,30.1566,21.0883,34.872299999999996,24.805,37.1712C26.1166,37.981700000000004,27.65,38.412800000000004,29.2184,38.409099999999995C30.7986,38.4054,32.343599999999995,37.959599999999995,33.6552,37.126999999999995L37.3759,40.6712C37.839,41.1096,38.594,41.1096,39.0572,40.6712L39.6526,40.1038C40.1158,39.658,40.1158,38.947,39.6526,38.5012L39.6488,38.512299999999996ZM33.561800000000005,32.7134C33.001400000000004,33.8334,31.9895,34.6918,30.7519,35.097C30.2576,35.2813,29.7322,35.3697,29.2029,35.351299999999995C26.4941,35.3881,24.2718,33.3397,24.2329,30.7755C24.194000000000003,28.2113,26.3618,26.1077,29.0706,26.0708C31.7793,26.034,34.001599999999996,28.0861,34.0366,30.6466C34.0483,31.365,33.881,32.0723,33.554,32.7171L33.561800000000005,32.7134ZM18.70252,32.1755L14.76391,32.1755C14.082830000000001,32.149699999999996,13.54964,31.6045,13.57688,30.9597C13.60412,30.3482,14.11786,29.8618,14.76391,29.8361L18.64025,29.8361C18.73755,28.7603,19.0217,27.7066,19.473100000000002,26.7193L14.767800000000001,26.7193C14.08672,26.6935,13.55353,26.1482,13.580770000000001,25.5035C13.60802,24.8919,14.121749999999999,24.4056,14.767800000000001,24.3798L20.967599999999997,24.3798C22.178,22.961399999999998,23.773699999999998,21.8819,25.5834,21.262999999999998L14.767800000000001,21.262999999999998C14.08672,21.262999999999998,13.53018,20.739800000000002,13.53407,20.0914C13.53407,19.4467,14.08672,18.9236,14.767800000000001,18.9236L33.663,18.9236C34.3441,18.9236,34.9006,19.4467,34.896699999999996,20.095100000000002C34.896699999999996,20.739800000000002,34.3441,21.262999999999998,33.663,21.262999999999998L32.7367,21.262999999999998C36.079899999999995,22.4161,38.5941,25.0798,39.4269,28.3587L39.4269,11.54785C39.430800000000005,9.59893,37.765100000000004,8.0110526,35.7063,8L12.71677,8C10.65795,8.0147367,9,9.59524,9,11.54417L9,36.8544C9,38.8033,10.66184,40.3875,12.72066,40.3986L26.2022,40.3986C22.2208,39.2823,19.2902,36.0697,18.70252,32.1755ZM14.76391,13.4673L33.663,13.4673C34.3441,13.493089999999999,34.877300000000005,14.038350000000001,34.85,14.68308C34.8228,15.29465,34.3091,15.78096,33.663,15.806750000000001L14.76391,15.806750000000001C14.082830000000001,15.78096,13.54964,15.2357,13.57688,14.59097C13.60412,13.9794,14.121749999999999,13.493089999999999,14.76391,13.4673Z" fill="#6DB3F7" fill-opacity="1"/></g></g></svg>