<svg xmlns="http://www.w3.org/2000/svg" xmlns:xlink="http://www.w3.org/1999/xlink" fill="none" version="1.1" width="50" height="50" viewBox="0 0 50 50"><g><g><path d="M34.5714,8L16.01361,8C13.482990000000001,8,11.58503,9.85625,11.58503,12.33125L11.58503,12.95C9.476189999999999,13.3625,8.000000125697,15.21875,8.000000125697,17.4875C8.000000125697,18.9312,8.632653,20.1687,9.68708,20.9938C8.632653,21.8187,8,23.0563,8,24.5C8,25.9438,8.632653,27.1812,9.68708,28.0062C8.632653,28.8312,8,30.0687,8,31.5125C8,33.7813,9.476189999999999,35.431200000000004,11.58503,36.05L11.58503,36.6687C11.58503,38.9375,13.482990000000001,41,16.01361,41L34.5714,41C36.8912,41,39,39.1438,39,36.6687L39,12.33125C38.789100000000005,9.85625,36.8912,8,34.5714,8ZM11.58503,33.7813C10.7415,33.368700000000004,10.10884,32.5437,10.10884,31.5125C10.10884,30.4812,10.7415,29.6562,11.58503,29.2437L11.58503,33.7813ZM11.58503,26.7688C10.7415,26.3562,10.10884,25.5312,10.10884,24.5C10.10884,23.4688,10.7415,22.643700000000003,11.58503,22.2312L11.58503,26.7688ZM11.58503,19.55C10.7415,19.3438,10.10884,18.3125,10.10884,17.4875C10.10884,16.45625,10.7415,15.63125,11.58503,15.21875L11.58503,19.55ZM33.3061,33.575L18.1224,33.575L18.1224,31.5125L33.3061,31.5125L33.3061,33.575ZM33.3061,26.15L18.1224,26.15L18.1224,24.0875L33.3061,24.0875L33.3061,26.15ZM33.3061,17.4875L18.1224,17.4875L18.1224,15.425L33.3061,15.425L33.3061,17.4875Z" fill="#F0964A" fill-opacity="1"/></g></g></svg>