<svg xmlns="http://www.w3.org/2000/svg" xmlns:xlink="http://www.w3.org/1999/xlink" fill="none" version="1.1" width="50" height="50" viewBox="0 0 50 50"><g><g><g><path d="M41.944414501953126,14.13181L41.944414501953126,19.53717C41.944414501953126,19.56844,41.936414501953124,19.59756,41.93481450195313,19.62844L41.93481450195313,21.157519999999998L41.94421450195313,21.157519999999998L41.94421450195313,35.0874L41.912914501953125,35.0874C41.76081450195313,36.1201,40.85761450195312,36.9167,39.75481450195313,36.9167L9.300304501953125,36.9167C8.197784501953125,36.9167,7.294567501953125,36.1201,7.142426001953125,35.0874L7.120548011953125,35.0874L7.120548011953125,34.8761C7.119143201953125,34.8452,7.111114501953125,34.8163,7.111114501953125,34.7851L7.111114501953125,23.1201C7.111114501953125,23.089,7.119142901953125,23.0599,7.120548011953125,23.029L7.120548011953125,21.49993L7.111114501953125,21.49993L7.111114501953125,13.82928L7.142426001953125,13.82928C7.294567501953125,12.796595,8.197784501953125,12,9.300504501953125,12L39.75521450195313,12C40.85781450195312,12,41.76101450195313,12.796595,41.913114501953125,13.82928L41.93501450195313,13.82928L41.93501450195313,14.04074C41.936414501953124,14.07162,41.944414501953126,14.10054,41.944414501953126,14.13181ZM19.993214501953126,17.9209L13.782304501953124,17.9209Q13.708434501953125,17.9209,13.635984501953125,17.93531Q13.563534501953125,17.94972,13.495294501953126,17.97799Q13.427044501953125,18.00626,13.365624501953125,18.0473Q13.304204501953125,18.08834,13.251974501953125,18.14057Q13.199734501953124,18.1928,13.158704501953125,18.25422Q13.117664501953126,18.315640000000002,13.089394501953125,18.38388Q13.061124501953124,18.45213,13.046714501953126,18.52458Q13.032304501953124,18.59703,13.032304501953124,18.6709Q13.032304501953124,18.74477,13.046714501953126,18.81722Q13.061124501953124,18.88966,13.089394501953125,18.95791Q13.117664501953126,19.02616,13.158704501953125,19.08758Q13.199734501953124,19.14899,13.251974501953125,19.20123Q13.304204501953125,19.25346,13.365624501953125,19.2945Q13.427044501953125,19.33554,13.495294501953126,19.36381Q13.563534501953125,19.39208,13.635984501953125,19.406489999999998Q13.708434501953125,19.4209,13.782304501953124,19.4209L19.993214501953126,19.4209Q20.067114501953125,19.4209,20.139514501953123,19.406489999999998Q20.212014501953124,19.39208,20.280214501953125,19.36381Q20.348414501953123,19.33554,20.409914501953125,19.2945Q20.471314501953124,19.25346,20.523514501953123,19.20123Q20.575814501953126,19.14899,20.616814501953122,19.08758Q20.657814501953126,19.02616,20.686114501953124,18.95791Q20.714414501953126,18.88966,20.728814501953124,18.81722Q20.743214501953126,18.74477,20.743214501953126,18.6709Q20.743214501953126,18.59703,20.728814501953124,18.52458Q20.714414501953126,18.45213,20.686114501953124,18.38388Q20.657814501953126,18.315640000000002,20.616814501953122,18.25422Q20.575814501953126,18.1928,20.523514501953123,18.14057Q20.471314501953124,18.08834,20.409914501953125,18.0473Q20.348414501953123,18.00626,20.280214501953125,17.97799Q20.212014501953124,17.94972,20.139514501953123,17.93531Q20.067114501953125,17.9209,19.993214501953126,17.9209ZM36.141514501953125,22.8933L13.782304501953124,22.8933Q13.708434501953125,22.8933,13.635984501953125,22.9077Q13.563534501953125,22.9221,13.495294501953126,22.950400000000002Q13.427044501953125,22.9787,13.365624501953125,23.0197Q13.304204501953125,23.0607,13.251974501953125,23.113Q13.199734501953124,23.1652,13.158704501953125,23.226599999999998Q13.117664501953126,23.2881,13.089394501953125,23.356299999999997Q13.061124501953124,23.424500000000002,13.046714501953126,23.497Q13.032304501953124,23.5694,13.032304501953124,23.6433Q13.032304501953124,23.7172,13.046714501953126,23.7896Q13.061124501953124,23.862099999999998,13.089394501953125,23.930300000000003Q13.117664501953126,23.9986,13.158704501953125,24.060000000000002Q13.199734501953124,24.1214,13.251974501953125,24.1736Q13.304204501953125,24.2259,13.365624501953125,24.2669Q13.427044501953125,24.308,13.495294501953126,24.336199999999998Q13.563534501953125,24.3645,13.635984501953125,24.3789Q13.708434501953125,24.3933,13.782304501953124,24.3933L36.141514501953125,24.3933Q36.21541450195312,24.3933,36.287914501953125,24.3789Q36.36031450195313,24.3645,36.42861450195312,24.336199999999998Q36.496814501953125,24.308,36.558214501953124,24.2669Q36.61961450195312,24.2259,36.671914501953125,24.1736Q36.724114501953125,24.1214,36.76511450195312,24.060000000000002Q36.80621450195312,23.9986,36.83451450195312,23.930300000000003Q36.86271450195312,23.862099999999998,36.87711450195312,23.7896Q36.891514501953125,23.7172,36.891514501953125,23.6433Q36.891514501953125,23.5694,36.87711450195312,23.497Q36.86271450195312,23.424500000000002,36.83451450195312,23.356299999999997Q36.80621450195312,23.2881,36.76511450195312,23.226599999999998Q36.724114501953125,23.1652,36.671914501953125,23.113Q36.61961450195312,23.0607,36.558214501953124,23.0197Q36.496814501953125,22.9787,36.42861450195312,22.950400000000002Q36.36031450195313,22.9221,36.287914501953125,22.9077Q36.21541450195312,22.8933,36.141514501953125,22.8933ZM13.782304501953124,27.8657L36.141514501953125,27.8657Q36.21541450195312,27.8657,36.287914501953125,27.8801Q36.36031450195313,27.8945,36.42861450195312,27.922800000000002Q36.496814501953125,27.9511,36.558214501953124,27.9921Q36.61961450195312,28.0332,36.671914501953125,28.0854Q36.724114501953125,28.1376,36.76511450195312,28.199Q36.80621450195312,28.2605,36.83451450195312,28.3287Q36.86271450195312,28.397,36.87711450195312,28.4694Q36.891514501953125,28.5419,36.891514501953125,28.6157Q36.891514501953125,28.6896,36.87711450195312,28.762Q36.86271450195312,28.8345,36.83451450195312,28.9027Q36.80621450195312,28.971,36.76511450195312,29.0324Q36.724114501953125,29.0938,36.671914501953125,29.1461Q36.61961450195312,29.1983,36.558214501953124,29.2393Q36.496814501953125,29.2804,36.42861450195312,29.3086Q36.36031450195313,29.3369,36.287914501953125,29.3513Q36.21541450195312,29.3657,36.141514501953125,29.3657L13.782304501953124,29.3657Q13.708434501953125,29.3657,13.635984501953125,29.3513Q13.563534501953125,29.3369,13.495294501953126,29.3086Q13.427044501953125,29.2804,13.365624501953125,29.2393Q13.304204501953125,29.1983,13.251974501953125,29.1461Q13.199734501953124,29.0938,13.158704501953125,29.0324Q13.117664501953126,28.971,13.089394501953125,28.9027Q13.061124501953124,28.8345,13.046714501953126,28.762Q13.032304501953124,28.6896,13.032304501953124,28.6157Q13.032304501953124,28.5419,13.046714501953126,28.4694Q13.061124501953124,28.397,13.089394501953125,28.3287Q13.117664501953126,28.2605,13.158704501953125,28.199Q13.199734501953124,28.1376,13.251974501953125,28.0854Q13.304204501953125,28.0332,13.365624501953125,27.9921Q13.427044501953125,27.9511,13.495294501953126,27.922800000000002Q13.563534501953125,27.8945,13.635984501953125,27.8801Q13.708434501953125,27.8657,13.782304501953124,27.8657Z" fill-rule="evenodd" fill="#64C494" fill-opacity="1"/></g><g><path d="M17.359177800750732,34.80630933166504C17.358577800750734,33.89278733166504,17.24648780075073,33.15329933166504,17.10834780075073,33.15329933166504L11.858398800750733,33.15329933166504C11.720069800750732,33.15329933166504,11.607975245750733,33.89298633166504,11.607577800750732,34.80630933166504L17.359177800750732,34.80630933166504Z" fill="#F7E395" fill-opacity="1"/></g><g><path d="M43,36.39325200439453C42.9966,35.47932900439453,42.2555,34.74024200439453,41.3424,34.74024200439453L6.65757,34.74024200439453C5.743917,34.74024200439453,5.0035776,35.479929004394535,5,36.39325200439453L43,36.39325200439453Z" fill="#F0D24C" fill-opacity="1"/></g><g><path d="M43,36.34690856933594C42.9966,37.260828569335935,42.2555,37.99991856933594,41.3424,37.99991856933594L6.65757,37.99991856933594C5.743917,37.99991856933594,5.0035776,37.260231569335936,5,36.34690856933594L43,36.34690856933594Z" fill="#F0D24C" fill-opacity="1"/></g></g></g></svg>