<svg xmlns="http://www.w3.org/2000/svg" xmlns:xlink="http://www.w3.org/1999/xlink" fill="none" version="1.1" width="33" height="33" viewBox="0 0 33 33"><defs><clipPath id="master_svg0_114_2078"><rect x="0" y="0" width="33" height="33" rx="0"/></clipPath></defs><g clip-path="url(#master_svg0_114_2078)"><g><path d="M25.818995532226563,15.584615L17.531295532226565,15.584615L17.531295532226565,7.296875C17.531295532226565,6.727335,17.06949553222656,6.265625,16.499995532226563,6.265625C15.930465532226563,6.265625,15.468745532226562,6.727335,15.468745532226562,7.296875L15.468745532226562,15.584615L7.1810455322265625,15.584615C6.611505532226563,15.584615,6.1497955322265625,16.046325,6.1497955322265625,16.615825C6.1497955322265625,17.185425000000002,6.611505532226563,17.647125000000003,7.1810455322265625,17.647125000000003L15.468745532226562,17.647125000000003L15.468745532226562,25.934825C15.468745532226562,26.504325,15.930465532226563,26.966025,16.499995532226563,26.966025C17.06949553222656,26.966025,17.531295532226565,26.504325,17.531295532226565,25.934825L17.531295532226565,17.647125000000003L25.818995532226563,17.647125000000003C26.388495532226564,17.647125000000003,26.85019553222656,17.185425000000002,26.85019553222656,16.615825C26.85019553222656,16.046325,26.388495532226564,15.584615,25.818995532226563,15.584615Z" fill="#969696" fill-opacity="1" style="mix-blend-mode:passthrough"/></g></g></svg>