<svg xmlns="http://www.w3.org/2000/svg" xmlns:xlink="http://www.w3.org/1999/xlink" fill="none" version="1.1" width="50" height="50" viewBox="0 0 50 50"><g><g><path d="M33.874700000000004,20.8545C33.874700000000004,18.89105,35.5761,17.29714,37.6747,17.29714L37.6756,17.29638C37.825500000000005,17.29638,37.9724,17.2813,38.1166,17.2665C38.4012,17.23729,38.6751,17.20917,38.9399,17.30019L38.9399,12.55733C38.9399,10.5939,37.2394,9,35.1391,9L14.86695,9C12.76659,9,11.06522,10.5939,11.063500000000001,12.55809L11.063500000000001,17.29638C11.32718,17.20827,11.60219,17.236620000000002,11.88701,17.26598C12.03317,17.28105,12.18191,17.29638,12.33304,17.29638C14.43168,17.29638,16.133,18.89029,16.133,20.8537L16.133,29.1509L33.874700000000004,29.1509L33.874700000000004,20.8545ZM33.6,14.760010000000001Q33.6,14.929,33.5445,15.08861Q33.4889,15.24822,33.384,15.38071L25.784,24.9807Q25.7229,25.0579,25.6479,25.1217Q25.5728,25.1856,25.4868,25.2335Q25.4008,25.2815,25.3071,25.3117Q25.2133,25.3419,25.1155,25.3533Q25.0177,25.3647,24.9195,25.3568Q24.8213,25.3488,24.7266,25.3219Q24.6318,25.295,24.5442,25.2501Q24.4565,25.2052,24.3793,25.1441Q24.3549,25.1247,24.3317,25.104L18.631999999999998,19.9842L18.631700000000002,19.984Q18.5534,19.913600000000002,18.491500000000002,19.8285Q18.4296,19.7434,18.386699999999998,19.6473Q18.3438,19.5512,18.3219,19.4482Q18.3,19.3453,18.3,19.240000000000002Q18.3,19.1415,18.319200000000002,19.0449Q18.3384,18.948320000000002,18.3761,18.85732Q18.413800000000002,18.76633,18.4685,18.684440000000002Q18.5232,18.602539999999998,18.5929,18.532899999999998Q18.6625,18.46326,18.7444,18.408540000000002Q18.8263,18.35382,18.917299999999997,18.31613Q19.0083,18.27844,19.1049,18.25922Q19.2015,18.240009999999998,19.3,18.240009999999998Q19.485,18.240009999999998,19.6578,18.30622Q19.8306,18.372419999999998,19.9682,18.49607L24.8765,22.904899999999998L31.8159,14.13931Q31.8862,14.050609999999999,31.9744,13.979849999999999Q32.0627,13.90908,32.164500000000004,13.85981Q32.2663,13.81055,32.376599999999996,13.78528Q32.4869,13.760010000000001,32.6,13.760010000000001Q32.698499999999996,13.760010000000001,32.795100000000005,13.779219999999999Q32.8917,13.79844,32.9827,13.83613Q33.0737,13.87382,33.1556,13.92854Q33.2374,13.98326,33.3071,14.052900000000001Q33.3767,14.12255,33.4315,14.20444Q33.4862,14.28633,33.5239,14.37733Q33.5616,14.46832,33.580799999999996,14.56492Q33.6,14.66152,33.6,14.760010000000001ZM36.4069,38.632000000000005L40.2078,38.632000000000005L40.2078,38.6328C41.6077,38.6328,44.0086,36.3874,44,35.08L44,22.0392C44,20.7272,42.8669,19.6682,41.4678,19.6682L38.9348,19.6682C37.534800000000004,19.6682,36.4026,20.7318,36.4026,22.0392L36.4026,31.5219L13.5974,31.5219L13.5974,22.0392C13.5974,20.7272,12.464310000000001,19.6682,11.06522,19.6682L8.53218,19.6682C7.13223,19.6682,6,20.7318,6,22.0392L6,35.0754C6,36.386700000000005,8.401769999999999,38.632000000000005,9.80086,38.632000000000005L13.60172,38.632000000000005L13.60172,39.2232C13.60172,40.203,14.45413,41,15.50258,41C16.5502,41,17.4026,40.206900000000005,17.4026,39.2232L17.4026,38.632000000000005L32.606,38.632000000000005L32.606,39.2232C32.606,40.203,33.4584,41,34.5069,41C35.554500000000004,41,36.4069,40.206900000000005,36.4069,39.2232L36.4069,38.632000000000005Z" fill-rule="evenodd" fill="#8CC63F" fill-opacity="1"/></g></g></svg>