<svg xmlns="http://www.w3.org/2000/svg" xmlns:xlink="http://www.w3.org/1999/xlink" fill="none" version="1.1" width="50" height="50" viewBox="0 0 50 50"><g><g><g><path d="M25,42Q25.4173,42,25.8342,41.9795Q26.251,41.959,26.6663,41.9181Q27.0816,41.8772,27.4944,41.816Q27.9072,41.7548,28.3165,41.6733Q28.7258,41.5919,29.1307,41.4905Q29.5355,41.3891,29.9348,41.268Q30.3342,41.1468,30.7271,41.0062Q31.1201,40.8657,31.5056,40.7059Q31.8912,40.5462,32.2684,40.3678Q32.645700000000005,40.1894,33.0137,39.9927Q33.3818,39.7959,33.7397,39.5814Q34.0977,39.3668,34.4447,39.135000000000005Q34.7917,38.903099999999995,35.1269,38.6545Q35.4621,38.4059,35.7847,38.1412Q36.107299999999995,37.876400000000004,36.4165,37.596199999999996Q36.7257,37.3159,37.0208,37.0208Q37.3159,36.7257,37.596199999999996,36.4165Q37.876400000000004,36.107299999999995,38.1412,35.7847Q38.4059,35.4621,38.6545,35.1269Q38.903099999999995,34.7917,39.135000000000005,34.4447Q39.3668,34.0977,39.5814,33.7397Q39.7959,33.3818,39.9927,33.0137Q40.1894,32.645700000000005,40.3678,32.2684Q40.5462,31.8912,40.7059,31.5056Q40.8657,31.1201,41.0062,30.7271Q41.1468,30.3342,41.268,29.9348Q41.3891,29.5355,41.4905,29.1307Q41.5919,28.7258,41.6733,28.3165Q41.7548,27.9072,41.816,27.4944Q41.8772,27.0816,41.9181,26.6663Q41.959,26.251,41.9795,25.8342Q42,25.4173,42,25Q42,24.5827,41.9795,24.1658Q41.959,23.749000000000002,41.9181,23.3337Q41.8772,22.9184,41.816,22.5056Q41.7548,22.0928,41.6733,21.683500000000002Q41.5919,21.2742,41.4905,20.869300000000003Q41.3891,20.4645,41.268,20.0652Q41.1468,19.6658,41.0062,19.2729Q40.8657,18.8799,40.7059,18.4944Q40.5462,18.108800000000002,40.3678,17.73156Q40.1894,17.354300000000002,39.9927,16.98625Q39.7959,16.618209999999998,39.5814,16.26025Q39.3668,15.9023,39.135000000000005,15.55531Q38.903099999999995,15.20831,38.6545,14.87311Q38.4059,14.53791,38.1412,14.215309999999999Q37.876400000000004,13.89272,37.596199999999996,13.5835Q37.3159,13.274280000000001,37.0208,12.97918Q36.7257,12.684090000000001,36.4165,12.40383Q36.107299999999995,12.12357,35.7847,11.85882Q35.4621,11.59407,35.1269,11.34547Q34.7917,11.09687,34.4447,10.86502Q34.0977,10.63316,33.7397,10.418610000000001Q33.3818,10.20406,33.0137,10.00734Q32.645700000000005,9.81061,32.2684,9.63218Q31.8912,9.45375,31.5056,9.29405Q31.1201,9.13434,30.7271,8.993751Q30.3342,8.853158,29.9348,8.732014Q29.5355,8.610871,29.1307,8.509469Q28.7258,8.408067,28.3165,8.32665Q27.9072,8.245234,27.4944,8.183999Q27.0816,8.122765,26.6663,8.0818596Q26.251,8.0409545,25.8342,8.0204772Q25.4173,8,25,8Q24.5827,8,24.1658,8.0204772Q23.749000000000002,8.0409545,23.3337,8.0818596Q22.9184,8.122765,22.5056,8.183999Q22.0928,8.245234,21.683500000000002,8.32665Q21.2742,8.408067,20.869300000000003,8.509469Q20.4645,8.610871,20.0652,8.732014Q19.6658,8.853158,19.2729,8.993751Q18.8799,9.13434,18.4944,9.29405Q18.108800000000002,9.45375,17.73156,9.63218Q17.354300000000002,9.81061,16.98625,10.00734Q16.618209999999998,10.20406,16.26025,10.418610000000001Q15.9023,10.63316,15.55531,10.86502Q15.20831,11.09687,14.87311,11.34547Q14.53791,11.59407,14.215309999999999,11.85882Q13.89272,12.12357,13.5835,12.40383Q13.274280000000001,12.684090000000001,12.97918,12.97918Q12.684090000000001,13.274280000000001,12.40383,13.5835Q12.12357,13.89272,11.85882,14.215309999999999Q11.59407,14.53791,11.34547,14.87311Q11.09687,15.20831,10.86502,15.55531Q10.63316,15.9023,10.418610000000001,16.26025Q10.20406,16.618209999999998,10.00734,16.98625Q9.81061,17.354300000000002,9.63218,17.73156Q9.45375,18.108800000000002,9.29405,18.4944Q9.13434,18.8799,8.993751,19.2729Q8.853158,19.6658,8.732014,20.0652Q8.610871,20.4645,8.509469,20.869300000000003Q8.408067,21.2742,8.32665,21.683500000000002Q8.245234,22.0928,8.183999,22.5056Q8.122765,22.9184,8.0818596,23.3337Q8.0409545,23.749000000000002,8.0204772,24.1658Q8,24.5827,8,25Q8,25.4173,8.0204772,25.8342Q8.0409545,26.251,8.0818596,26.6663Q8.122765,27.0816,8.183999,27.4944Q8.245234,27.9072,8.32665,28.3165Q8.408067,28.7258,8.509469,29.1307Q8.610871,29.5355,8.732014,29.9348Q8.853158,30.3342,8.993751,30.7271Q9.13434,31.1201,9.29405,31.5056Q9.45375,31.8912,9.63218,32.2684Q9.81061,32.645700000000005,10.00734,33.0137Q10.20406,33.3818,10.418610000000001,33.7397Q10.63316,34.0977,10.86502,34.4447Q11.09687,34.7917,11.34547,35.1269Q11.59407,35.4621,11.85882,35.7847Q12.12357,36.107299999999995,12.40383,36.4165Q12.684090000000001,36.7257,12.97918,37.0208Q13.274280000000001,37.3159,13.5835,37.596199999999996Q13.89272,37.876400000000004,14.215309999999999,38.1412Q14.53791,38.4059,14.87311,38.6545Q15.20831,38.903099999999995,15.55531,39.135000000000005Q15.9023,39.3668,16.26025,39.5814Q16.618209999999998,39.7959,16.98625,39.9927Q17.354300000000002,40.1894,17.73156,40.3678Q18.108800000000002,40.5462,18.4944,40.7059Q18.8799,40.8657,19.2729,41.0062Q19.6658,41.1468,20.0652,41.268Q20.4645,41.3891,20.869300000000003,41.4905Q21.2742,41.5919,21.683500000000002,41.6733Q22.0928,41.7548,22.5056,41.816Q22.9184,41.8772,23.3337,41.9181Q23.749000000000002,41.959,24.1658,41.9795Q24.5827,42,25,42ZM25.545,15.45309L25.5174,15.447569999999999C25.4534,15.43674,25.3883,15.43525,25.3239,15.44314C19.983,15.2614,15.530059999999999,19.4931,15.43892,24.837C15.34778,30.1808,19.6539,34.562,24.9978,34.5625L25.2852,34.558099999999996L25.3239,34.558099999999996C25.3977,34.566199999999995,25.4724,34.5625,25.545,34.547C30.6061,34.258700000000005,34.5625,30.07,34.5625,25.0001C34.5625,19.9301,30.6061,15.741430000000001,25.545,15.45309ZM23.680300000000003,16.98087L23.707900000000002,16.97535L23.7068,16.97645C22.633499999999998,18.3564,21.8493,19.938499999999998,21.401,21.6283L17.60306,21.6283C18.7287,19.163800000000002,21.007199999999997,17.421390000000002,23.680300000000003,16.98087ZM26.9001,17.28709L26.7332,17.060470000000002C29.2323,17.60907,31.3281,19.3009,32.3915,21.6283L28.945,21.6283C28.5357,20.067999999999998,27.8425,18.5963,26.9001,17.28709ZM25.0421,17.60879L25.1924,17.43081C26.2253,18.660600000000002,26.9944,20.0898,27.4517,21.6294L22.8955,21.6294C23.337699999999998,20.1603,24.0673,18.793599999999998,25.0421,17.60879ZM17.10454,23.0655L21.1059,23.0655C20.8711,24.6467,20.926099999999998,26.2575,21.2684,27.819L17.37536,27.819C17.05038,26.9402,16.873530000000002,25.9906,16.873530000000002,25.0001C16.87286,24.3483,16.95042,23.6988,17.10454,23.0655ZM29.238,23.0666L32.89,23.0666L32.89,23.0655C33.0415,23.6856,33.1222,24.3335,33.1222,25.0001C33.123400000000004,25.9621,32.9535,26.9166,32.6203,27.819L29.0766,27.819C29.4154,26.2574,29.4701,24.6476,29.238,23.0666ZM22.560499999999998,23.0666L27.7833,23.0666C28.0442,24.643,27.9834,26.2614,27.602,27.819L22.744,27.819C22.3587,26.2641,22.2962,24.6466,22.560499999999998,23.0666ZM18.0761,29.2562L21.6707,29.2551L21.6707,29.2562C22.1368,30.6158,22.8248,31.8889,23.7068,33.023700000000005C21.3712,32.647099999999995,19.3154,31.2716,18.0761,29.2562ZM23.201700000000002,29.2562L27.15,29.2562C26.6946,30.4357,26.0424,31.5578,25.1913,32.5693C24.3472,31.5841,23.6747,30.4642,23.201700000000002,29.2562ZM28.6787,29.2562L31.9195,29.2562C30.7623,31.1371,28.8902,32.4667,26.7332,32.9396C27.5735,31.8232,28.2303,30.5797,28.6787,29.2562Z" fill-rule="evenodd" fill="#6DB3F8" fill-opacity="1"/></g></g></g></svg>