<svg xmlns="http://www.w3.org/2000/svg" xmlns:xlink="http://www.w3.org/1999/xlink" fill="none" version="1.1" width="14.572860717773438" height="13.720000267028809" viewBox="0 0 14.572860717773438 13.720000267028809"><g><path d="M13.12,4.76L9.88,4.76C9.64,4.72,9.56,4.48,9.52,4.36L9.52,1.44C9.52,0.64,8.88,0,8.08,0C7.36,0,6.76,0.56,6.64,1.24C6.2,4,4.52,4.92,3.44,5.2C3.48,5.32,3.48,5.4,3.48,5.48L3.48,13.24C3.48,13.4,3.44,13.56,3.36,13.72L11.2,13.72C11.96,13.56,12.48,13.28,12.84,12.52L14.48,6.76C14.8,5.72,14.28,4.72,13.12,4.76ZM2.8,13.28L2.8,5.48C2.8,5.24,2.48,5.04,2.12,5.04L1.04,5.04C0.48,5.04,0,5.52,0,6.08L0,12.64C0,13.24,0.44,13.72,1.04,13.72L2.12,13.72C2.48,13.72,2.8,13.52,2.8,13.28Z" fill="#FFFFFF" fill-opacity="1" style="mix-blend-mode:passthrough"/></g></svg>