<svg xmlns="http://www.w3.org/2000/svg" xmlns:xlink="http://www.w3.org/1999/xlink" fill="none" version="1.1" width="16" height="16" viewBox="0 0 16 16"><g><path d="M14.9509,9.6L10.53,9.6C12.218,15.68,9.32424,16,9.32424,16C8.11852,16,8.35966,15.04,8.27928,14.88C8.27928,11.92,4.98364,9.6,4.98364,9.6L4.98364,1.12C4.98364,0.32,6.18936,0,6.59127,0L13.2629,0C13.906,0,14.3883,1.6,14.3883,1.6C15.9959,6.96,15.9959,8.56,15.9959,8.56C16.0763,9.68,14.9509,9.6,14.9509,9.6ZM3.21525,9.6L0.56267,9.6C0,9.6,0,9.04,0,9.04L0.56267,0.48C0.56267,0,1.12534,0,1.12534,0L3.37602,0C3.8583,0,3.8583,0.32,3.8583,0.32L3.8583,8.96C3.8583,9.6,3.21525,9.6,3.21525,9.6Z" fill="#FFFFFF" fill-opacity="1" style="mix-blend-mode:passthrough"/></g></svg>