<svg xmlns="http://www.w3.org/2000/svg" xmlns:xlink="http://www.w3.org/1999/xlink" fill="none" version="1.1" width="50" height="50" viewBox="0 0 50 50"><rect x="0" y="0" width="50" height="50" rx="0" fill="#FFFFFF" fill-opacity="1" style="opacity:0;"/><path d="M21,41C21,42.1045696,21.89543045,43,23,43L27,43C28.1045694,43,29,42.1045696,29,41L21,41Z" fill="#FFFFFF" fill-opacity="1"/><path d="M30,40L20,40L19.9999998,41Q19.9999998,41.60968429,20.23616523,42.1680421Q20.4639535,42.7065942,20.87867951,43.1213202Q21.29340523,43.536046,21.83195764,43.7638345Q22.3903155,44,23,44L27,44.0000002Q27.6096845,44.0000002,28.168042200000002,43.7638347Q28.7065954,43.5360458,29.1213207,43.1213205Q29.536046,42.7065947,29.763835,42.1680423Q30,41.60968542,30,41L30,40ZM23,42L27,42.0000002L27.0007472,42L23,42Z" fill-rule="evenodd" fill="#7B71F1" fill-opacity="1"/><path d="M20,38.9999998C20,40.1045694,20.89543056,41,22.0000005,41L28,41C29.104569400000003,41,30,40.1045694,30,38.9999998L30,37L20,37L20,38.9999998Z" fill="#FAB85C" fill-opacity="1"/><path d="M18.5,35.5L18.5,38.9999998Q18.5,40.4497476,19.52512646,41.474874Q20.55025244,42.5,22.0000005,42.5L28,42.5Q29.4497471,42.5,30.474874,41.4748735Q31.5,40.4497471,31.5,38.9999998L31.5,35.5L18.5,35.5ZM21.6464467,39.3535533Q21.5,39.2071066,21.5,39L21.5,38.5L28.5,38.5L28.5,38.9999998Q28.5,39.2071064,28.3535528,39.3535535Q28.2071066,39.5,28,39.5L22.0000005,39.5Q21.7928934,39.5,21.6464467,39.3535533Z" fill-rule="evenodd" fill="#FAB85C" fill-opacity="1"/><ellipse cx="25" cy="22" rx="15.75" ry="15.75" fill="#7B71F1" fill-opacity="1"/><ellipse cx="25" cy="22" rx="14.25" ry="14.25" fill-opacity="0" stroke-opacity="1" stroke="#7B71F1" fill="none" stroke-width="3"/><g style="opacity:0.6000000238418579;"><path d="M25,9.5Q23.428427,9.5,21.918829000000002,9.88273242L21.9188538,9.88282944Q21.8380108,9.903325781,21.7682018,9.948956251Q21.698391,9.9945867248,21.647174800000002,10.060408644Q21.5959587,10.12623057,21.5688839,10.2051141Q21.541809100000002,10.28399763,21.5418081,10.36739811Q21.5418072,10.41663396,21.5514126,10.46492374Q21.561018,10.51321352,21.5798597,10.55870152Q21.5987015,10.60418952,21.6260548,10.64512759Q21.65341,10.68606567,21.6882248,10.72088075Q21.7230396,10.7556957,21.763977099999998,10.7830497Q21.8049154,10.8104037,21.850403800000002,10.82924545Q21.8958912,10.84808719,21.944181399999998,10.8576926Q21.9924717,10.86729807,22.041708,10.86729813Q22.1040916,10.86729813,22.164561300000003,10.85196704L22.1645861,10.85206378Q23.553218,10.49999994,25,10.5L25,10.49990001Q25.049236,10.49989998,25.097526000000002,10.49029455Q25.145815,10.48068911,25.191302999999998,10.46184736Q25.236792,10.44300562,25.277729,10.41565165Q25.318666999999998,10.38829768,25.353482,10.35348266Q25.388297,10.31866765,25.415651,10.27772954Q25.443005,10.23679143,25.461846,10.19130343Q25.480688,10.14581545,25.490294,10.097525649Q25.499901,10.049235854,25.499901,10Q25.499901,9.950764146,25.490294,9.902474351Q25.480688999999998,9.85418455,25.461847,9.80869657Q25.443005,9.76320857,25.415651,9.72227046Q25.388298,9.68133235,25.353483,9.64651734Q25.318668000000002,9.61170232,25.27773,9.58434838Q25.236792,9.55699441,25.191302999999998,9.53815266Q25.145815,9.51931089,25.097527,9.50970545Q25.049236,9.50010002,25.000000999999997,9.50009999L25,9.5ZM27.83544,10.8519668Q27.754598,10.83147049,27.684787999999998,10.78584003Q27.614977,10.74020958,27.563761,10.67438763Q27.512545,10.60856569,27.48547,10.52968222Q27.458395,10.45079863,27.458394,10.36739814Q27.458393,10.31816226,27.467999,10.269872490000001Q27.477604,10.22158267,27.496445,10.17609468Q27.515286,10.13060668,27.542641,10.089668564Q27.569995,10.048730455,27.604810999999998,10.013915449Q27.639625000000002,9.979100443,27.680562000000002,9.951746471Q27.7215,9.924392499,27.766989000000002,9.905550756Q27.812477,9.88670901,27.860765999999998,9.87710357Q27.909058,9.86749813,27.958294000000002,9.86749813Q28.020678,9.86749813,28.081147,9.88282924L28.081172000000002,9.88273244Q29.54718,10.25441349,30.883284,10.96840608L30.883238,10.96849322Q30.943123,11.0004954,30.992304,11.0473123Q31.041485,11.094129,31.076395,11.1523678Q31.111307,11.2106068,31.129419,11.2760477Q31.147532,11.3414888,31.147532,11.4093899Q31.14753,11.4586257,31.137924,11.5069153Q31.128319,11.5552051,31.109478,11.600693Q31.090637,11.6461811,31.063282,11.6871192Q31.035927,11.7280574,31.001114,11.7628725Q30.966297,11.7976873,30.925358,11.8250413Q30.88442,11.8523951,30.838932,11.8712369Q30.793446,11.8900787,30.745155,11.8996842Q30.696865,11.9092897,30.647631,11.9092898Q30.522438,11.9092898,30.412022,11.8502849L30.411974,11.850374Q29.183325,11.193802999999999,27.835414999999998,10.85206383L27.83544,10.8519668ZM19.5879779,11.8502848Q19.647864300000002,11.8182826,19.6970453,11.771465899999999Q19.7462254,11.7246492,19.7811365,11.666410299999999Q19.8160477,11.6081716,19.8341589,11.5427307Q19.8522711,11.4772899,19.8522706,11.4093889Q19.8522701,11.360153,19.8426652,11.3118632Q19.833059300000002,11.263573300000001,19.8142176,11.2180853Q19.795375800000002,11.1725972,19.7680216,11.1316592Q19.7406678,11.0907211,19.705853,11.055906199999999Q19.671038199999998,11.0210911,19.6301003,10.99373722Q19.5891619,10.96638322,19.5436735,10.94754148Q19.4981856,10.92869973,19.4498959,10.91909432Q19.4016066,10.90948892,19.3523707,10.90948892Q19.2271791,10.90948892,19.1167636,10.96849298L19.1167164,10.96840471Q17.6416526,11.7566537,16.4218376,12.9079204L16.4219062,12.9079933Q16.3468571,12.9788251,16.3059919,13.073586Q16.2651267,13.1683466,16.2651265,13.2715433Q16.2651262,13.3207788,16.2747316,13.3690689Q16.284337,13.4173584,16.3031788,13.462846299999999Q16.3220203,13.5083342,16.3493743,13.5492725Q16.3767281,13.5902104,16.4115434,13.6250257Q16.4463582,13.659840599999999,16.4872966,13.6871948Q16.5282345,13.7145486,16.5737226,13.7333906Q16.6192107,13.7522321,16.6675005,13.761837700000001Q16.7157905,13.771443399999999,16.7650266,13.771443399999999Q16.8607132,13.771443399999999,16.949635999999998,13.7361069Q17.038559,13.7007706,17.1081467,13.6350935L17.1082149,13.6351659Q18.230835,12.5756319,19.5880251,11.850373L19.5879779,11.8502848ZM33.578092999999996,12.907991899999999L33.578161,12.9079196Q34.795471,14.0568128,35.667818,15.481523L35.667733999999996,15.4815745Q35.741304,15.601728399999999,35.741304,15.7426171Q35.741302000000005,15.791853,35.731697,15.8401423Q35.722092,15.888432,35.703247000000005,15.9339199Q35.684405999999996,15.9794083,35.657053000000005,16.0203462Q35.6297,16.0612845,35.594882999999996,16.0960999Q35.560068,16.130914699999998,35.519131,16.1582685Q35.478190999999995,16.1856222,35.432703000000004,16.204464Q35.387217,16.2233057,35.338927999999996,16.2329111Q35.290638,16.2425165,35.241404,16.242517Q35.177231,16.242517,35.115139,16.2263083Q35.053047,16.210099200000002,34.997061,16.1787333Q34.941075999999995,16.1473665,34.894830999999996,16.1028767Q34.848583000000005,16.0583868,34.815073,16.003658299999998L34.814987,16.0037107Q34.012209,14.6926212,32.891785,13.6351671L32.891853,13.635093900000001Q32.816805,13.5642622,32.77594,13.469501300000001Q32.735073,13.3747404,32.735073,13.2715433Q32.735073,13.2223072,32.744678,13.1740174Q32.754284,13.1257274,32.773125,13.0802393Q32.791965000000005,13.034751400000001,32.819321,12.9938135Q32.846674,12.9528751,32.881489,12.9180603Q32.916306,12.883245500000001,32.957243,12.8558915Q32.998180000000005,12.8285375,33.043669,12.809695699999999Q33.089157,12.790854,33.137447,12.7812486Q33.185738,12.7716432,33.234974,12.7716432Q33.33066,12.7716432,33.419582,12.8069792Q33.508505,12.8423152,33.578092999999996,12.907991899999999ZM15.1849279,16.0036573Q15.2584975,15.8835044,15.2584975,15.7426167Q15.2584972,15.693380399999999,15.248891799999999,15.6450906Q15.239286400000001,15.5968008,15.2204444,15.5513124Q15.2016027,15.5058246,15.1742487,15.464886700000001Q15.1468949,15.4239483,15.1120799,15.3891335Q15.0772648,15.3543186,15.0363269,15.3269649Q14.9953887,15.2996111,14.9499006,15.2807693Q14.9044127,15.2619276,14.856123,15.2523222Q14.8078332,15.2427168,14.7585974,15.2427168Q14.6944246,15.2427177,14.6323326,15.2589264Q14.5702406,15.275134999999999,14.5142558,15.3065014Q14.458271,15.337868199999999,14.412024,15.382358100000001Q14.365777,15.4268484,14.3322667,15.481576L14.3321816,15.481524Q13.44564679,16.9294081,12.980224796,18.5572824L12.980320914,18.557310100000002Q12.961062193,18.624670000000002,12.961062193,18.6947289Q12.961062193,18.7439651,12.970667634,18.7922535Q12.980273072,18.840543699999998,12.99911481515,18.886031199999998Q13.017956559,18.9315186,13.045310535,18.972456899999997Q13.072664507,19.0133953,13.10747951,19.0482101Q13.14229451,19.083025,13.18323264,19.1103783Q13.22417074,19.1377325,13.26965874,19.1565742Q13.31514674,19.175416900000002,13.36343652,19.1850224Q13.41172636,19.1946278,13.46096221,19.194628700000003Q13.54242575,19.194628700000003,13.61967456,19.1687641Q13.69692338,19.1429005,13.76196408,19.0938492Q13.82700479,19.0447979,13.87310725,18.9776354Q13.91920972,18.910472900000002,13.94160348,18.8321476L13.94169962,18.8321753Q14.3696533,17.3353515,15.1850133,16.0037098L15.1849279,16.0036573ZM36.058399,18.832145699999998Q36.039141,18.764786700000002,36.039141,18.6947289Q36.039139,18.6454926,36.048746,18.5972023Q36.058350000000004,18.548913,36.077192,18.503424600000002Q36.096035,18.4579372,36.123388,18.4169989Q36.150742,18.3760605,36.185558,18.3412457Q36.220371,18.3064308,36.261311,18.2790766Q36.302248,18.2517223,36.347736,18.232881499999998Q36.393223,18.214039800000002,36.441513,18.2044344Q36.489802999999995,18.194829,36.539041999999995,18.194829Q36.620506,18.194829,36.697756,18.2206936Q36.775005,18.246557199999998,36.840046,18.2956085Q36.905087,18.344659800000002,36.951187000000004,18.411823300000002Q36.997292,18.4789867,37.019684,18.557312L37.019779,18.5572844Q37.500001999999995,20.236947,37.500001999999995,22.000000999999997L37.499903,22.000000999999997Q37.499901,22.049236,37.490295,22.097526000000002Q37.480689999999996,22.145815,37.461847,22.191302999999998Q37.443007,22.236792,37.415653,22.277729Q37.3883,22.318666999999998,37.353485,22.353482Q37.318668,22.388297,37.277731,22.415651Q37.236792,22.443005,37.191303000000005,22.461846Q37.145815,22.480688,37.097527,22.490294Q37.049236,22.499901,37.000001999999995,22.499901Q36.950764,22.499901,36.902473,22.490294Q36.854183,22.480688999999998,36.808695,22.461847Q36.763206,22.443005,36.722269,22.415651Q36.681332,22.388298,36.646519,22.353483Q36.611702,22.318668000000002,36.584347,22.27773Q36.556992,22.236792,36.538151,22.191302999999998Q36.519310000000004,22.145815,36.509705,22.097527Q36.500099,22.049236,36.500101,22.000000999999997L36.500004000000004,22.000000999999997Q36.500004000000004,20.377091999999998,36.058304,18.8321733L36.058399,18.832145699999998ZM12.50009999,22.000000999999997Q12.50010002,21.950764,12.50970545,21.902473999999998Q12.51931089,21.854184,12.53815264,21.808697000000002Q12.55699438,21.763208,12.58434835,21.72227Q12.61170232,21.681331999999998,12.64651734,21.646518Q12.68133235,21.611702,12.72227046,21.584349Q12.76320857,21.556994,12.80869657,21.538153Q12.85418455,21.519312,12.902474351,21.509706Q12.950764146,21.500101,13,21.500101Q13.049235854,21.500101,13.097525649,21.509706Q13.14581545,21.519312,13.19130343,21.538153Q13.23679143,21.556994,13.27772954,21.584349Q13.31866765,21.611702,13.35348266,21.646518Q13.38829768,21.681331999999998,13.41565162,21.722271Q13.44300559,21.763208,13.46184734,21.808695999999998Q13.48068911,21.854183,13.49029455,21.902473Q13.49989998,21.950764,13.49990001,22.000000999999997L13.5,22.000000999999997Q13.5,23.489363,13.87283719,24.916114999999998L13.87274051,24.91614Q13.8889817,24.978292,13.8889817,25.042529000000002Q13.88898164,25.091763999999998,13.87937623,25.140054Q13.86977077,25.188343,13.85092902,25.233829999999998Q13.83208728,25.279318,13.80473328,25.320256Q13.77737927,25.361195000000002,13.74256432,25.39601Q13.707749249999999,25.430824,13.66681117,25.458179Q13.62587309,25.485533,13.58038509,25.504374Q13.53489709,25.523215999999998,13.48660731,25.532822Q13.43831751,25.542428,13.38908166,25.542429Q13.30615002,25.542429,13.22766094,25.51565Q13.14917186,25.488871,13.083534509,25.438181999999998Q13.017897146,25.387492,12.972143756,25.318324Q12.926390365,25.249155000000002,12.905422866,25.168917999999998L12.90532615,25.168943Q12.5,23.617864,12.5,22.000000999999997L12.50009999,22.000000999999997ZM37.094582,25.16892Q37.110822999999996,25.106768000000002,37.110822999999996,25.042529000000002Q37.110821,24.993293,37.101214999999996,24.945003Q37.09161,24.896712,37.072769,24.851224000000002Q37.053926000000004,24.805737,37.026573,24.764799Q36.999218,24.723862,36.964405,24.689047000000002Q36.929587999999995,24.654232,36.888650999999996,24.626877999999998Q36.847712,24.599524000000002,36.802223,24.580681Q36.756735,24.56184,36.708445,24.552235Q36.660156,24.542628999999998,36.610922,24.542628999999998Q36.527992,24.542628999999998,36.449503,24.569409Q36.371014,24.596189000000003,36.305374,24.646877Q36.239738,24.697567,36.193985,24.766735Q36.148232,24.835903000000002,36.127262,24.916139L36.127167,24.916114Q35.765429999999995,26.300365,35.071814,27.555141L35.071901,27.555189Q35.009506,27.668064,35.009506,27.797035Q35.009504,27.846272,35.019108,27.89456Q35.028712999999996,27.94285,35.047554000000005,27.988338Q35.066395,28.033825,35.09375,28.074764Q35.121105,28.115702,35.155922000000004,28.150518Q35.190735000000004,28.185333,35.231674,28.212687Q35.272614000000004,28.24004,35.318101999999996,28.258883Q35.36359,28.277725,35.41188,28.287331Q35.460171,28.296936,35.509406999999996,28.296936Q35.576405,28.296936,35.641037,28.279297Q35.705669,28.261654,35.763374,28.227615Q35.821083,28.193581,35.867792,28.145548Q35.914501,28.097517,35.946912999999995,28.038881L35.946999000000005,28.038929Q36.701254,26.674458,37.094677000000004,25.168944L37.094582,25.16892ZM14.9281011,27.555189L14.9281878,27.555141Q15.7196019,28.986835,16.8816831,30.145121L16.8816125,30.145191Q16.9521899,30.215538,16.9903989,30.307571Q17.028608300000002,30.399605,17.028608300000002,30.499252Q17.028608300000002,30.548489,17.0190029,30.596777Q17.0093975,30.645065,16.9905553,30.690554Q16.9717135,30.736042,16.9443598,30.776979Q16.917006,30.817917,16.8821909,30.852734Q16.8473759,30.887548,16.8064377,30.914902Q16.7654996,30.942257,16.7200115,30.961098Q16.674523399999998,30.97994,16.6262338,30.989546Q16.5779443,30.999153,16.5287085,30.999153Q16.4294848,30.999153,16.3377829,30.961258Q16.2460811,30.923363,16.1758044,30.853313L16.175734,30.853384Q14.913101900000001,29.594875,14.053002,28.038927L14.0530894,28.038879Q13.99069476,27.926004,13.99069476,27.797033Q13.9906947,27.747795,14.0003002,27.699507Q14.0099056,27.651217,14.0287473,27.605728Q14.0475891,27.560242,14.0749431,27.519302Q14.1022969,27.478365,14.137112,27.44355Q14.171927,27.408735,14.212865,27.381382Q14.2538031,27.354027,14.2992911,27.335184Q14.344779299999999,27.316343,14.393069,27.306738Q14.4413588,27.297132,14.490594699999999,27.297132Q14.5575922,27.297132,14.6222253,27.314774Q14.6868584,27.332415,14.7445655,27.366451Q14.8022726,27.40049,14.8489807,27.448521Q14.8956888,27.496553,14.9281011,27.555189ZM34.001078,30.673437Q34.068424,30.603565,34.104734,30.513569Q34.141045,30.423573,34.141042999999996,30.326527Q34.141041,30.27729,34.131434999999996,30.229Q34.12183,30.18071,34.102989,30.135221Q34.084146000000004,30.089733,34.056793,30.048794Q34.029438,30.007856,33.994625,29.973042Q33.959810000000004,29.938225,33.918873000000005,29.910872Q33.877933999999996,29.883518,33.832445,29.864677Q33.786957,29.845837,33.738667,29.836231Q33.690376,29.826626,33.641142,29.826626Q33.53931,29.826626,33.445591,29.866461Q33.351875,29.906296,33.281206,29.979616L33.281136000000004,29.979548Q32.22604,31.074257,30.926832,31.857187L30.926884,31.857271Q30.871536,31.890625,30.826488,31.936958Q30.781441,31.983292,30.749655,32.039555Q30.717871,32.095821,30.701439,32.158318Q30.685005,32.220816,30.685005,32.285437Q30.685005,32.334671,30.694609,32.382961Q30.704212,32.43125,30.723055,32.476738Q30.741898,32.522224,30.769251,32.563164Q30.796604,32.604102999999995,30.831421,32.638918000000004Q30.866236,32.673733,30.907173,32.701088Q30.948112,32.728441000000004,30.993601,32.747284Q31.039089,32.766125,31.087379,32.775729999999996Q31.13567,32.785336,31.184906,32.785337Q31.323889,32.785337,31.442926,32.713602L31.442978,32.713688000000005Q32.854799,31.862894,34.001148,30.673506L34.001078,30.673437ZM18.5570731,32.713602Q18.5017252,32.680248,18.4566774,32.633917Q18.4116306,32.587584,18.3798456,32.531318999999996Q18.3480611,32.475055999999995,18.3316283,32.412558000000004Q18.315196,32.35006,18.3151956,32.285437Q18.3151951,32.236198,18.324800500000002,32.187908Q18.3344059,32.139618,18.3532476,32.094131000000004Q18.3720894,32.048641,18.3994431,32.007704000000004Q18.426797399999998,31.966766,18.4616127,31.931953Q18.4964275,31.897137,18.537365,31.869781Q18.5783033,31.842426,18.623791699999998,31.823586Q18.6692796,31.804745,18.717569400000002,31.795139Q18.7658591,31.785536,18.8150954,31.785536Q18.954078199999998,31.785536,19.0731168,31.857271L19.0731688,31.857185Q20.3930955,32.652605,21.872127499999998,33.069645L21.8721008,33.069739999999996Q21.950732199999997,33.091910999999996,22.0182142,33.137962Q22.0856962,33.184013,22.1350069,33.249153Q22.184316600000002,33.314289,22.2103252,33.391735Q22.2363338,33.469184999999996,22.2363338,33.55088Q22.2363338,33.600115,22.226727500000003,33.648405Q22.217122099999997,33.696692999999996,22.1982803,33.742184Q22.1794376,33.78767,22.1520844,33.828609Q22.1247301,33.869547,22.089916199999998,33.904362Q22.055101399999998,33.939177,22.014163,33.96653Q21.9732246,33.993883,21.9277363,34.012724Q21.8822479,34.031566999999995,21.833958600000003,34.041174Q21.785669300000002,34.050779,21.736434,34.050781Q21.667303099999998,34.050781,21.600766200000002,34.032021L21.6007395,34.032114Q19.9921951,33.578554,18.5570221,32.713685999999996L18.5570731,32.713602ZM28.39924,34.032019Q28.477869,34.009845999999996,28.545351,33.963795000000005Q28.612831999999997,33.917744,28.662143,33.852608000000004Q28.711452,33.787468000000004,28.73746,33.710021999999995Q28.763469,33.632576,28.763469999999998,33.55088Q28.763469,33.501644,28.753861999999998,33.453354000000004Q28.744256999999998,33.405063999999996,28.725414,33.359575Q28.706573,33.314087,28.67922,33.273149000000004Q28.651867,33.232209999999995,28.617052,33.197395Q28.582236,33.16258,28.541297999999998,33.135227Q28.500359,33.107872,28.454871,33.089031Q28.409384,33.07019,28.361094,33.060585Q28.312805,33.050979999999996,28.26357,33.050979999999996Q28.194437,33.050979999999996,28.127899,33.069742000000005L28.127872,33.069647Q26.601666,33.500001999999995,25.000005,33.500001999999995L25.000005,33.500101Q24.950768,33.500101,24.902476999999998,33.509705Q24.854187,33.519310000000004,24.808699,33.538151Q24.76321,33.556992,24.722271,33.584347Q24.681334,33.611702,24.646518999999998,33.646519Q24.611703,33.681332,24.584349,33.722269Q24.556994,33.763206,24.538153,33.808695Q24.51931,33.854183,24.509705,33.902473Q24.5001,33.950764,24.500101,34.000001999999995Q24.5001,34.049236,24.509705,34.097525000000005Q24.51931,34.145815,24.538153,34.191303000000005Q24.556993,34.236792,24.584348,34.277731Q24.611702,34.318668,24.646518,34.353485Q24.681331999999998,34.3883,24.722271,34.415653Q24.763208,34.443008,24.808695999999998,34.461849Q24.854183,34.480689999999996,24.902473,34.490295Q24.950764,34.499901,25.000000999999997,34.499903L25.000005,34.500001999999995Q26.739963,34.500001999999995,28.399267000000002,34.032116L28.39924,34.032019Z" fill-rule="evenodd" fill="#CACCFF" fill-opacity="1"/></g><path d="M26.1250005,20L29.2388554,20C29.598560300000003,20,29.840583799999997,20.3684292,29.6977406,20.698555900000002L25.3338852,30.783911C25.1183476,31.28204,24.375,31.128117,24.375,30.585354L24.375,24.499999000000003C24.375,24.223857000000002,24.1511426,23.999999000000003,23.875,23.999999000000003L20.761145,23.999999000000003C20.40143952,23.999999000000003,20.15941651,23.63157,20.30225989,23.301443L24.6661148,13.2160904C24.8816528,12.7179587,25.6250005,12.8718836,25.6250005,13.4146464L25.6250005,19.5C25.6250005,19.7761421,25.8488579,20,26.1250005,20" fill="#FAB85C" fill-opacity="1"/></svg>