<svg xmlns="http://www.w3.org/2000/svg" xmlns:xlink="http://www.w3.org/1999/xlink" fill="none" version="1.1" width="50" height="50" viewBox="0 0 50 50"><rect x="0" y="0" width="50" height="50" rx="0" fill="#FFFFFF" fill-opacity="1" style="opacity:0;"/><rect x="9" y="12" width="32" height="27" rx="3" fill="#7B71F1" fill-opacity="1"/><rect x="7.5" y="10.5" width="35" height="30" rx="4.5" fill-opacity="0" stroke-opacity="1" stroke="#7B71F1" fill="none" stroke-width="3"/><path d="M18,27.5L33,27.5L33,27.4997001Q33.073676,27.4997001,33.146997,27.4924786Q33.220318,27.4852571,33.292576,27.4708836Q33.364837,27.4565103,33.435339,27.4351234Q33.505842,27.4137366,33.573909,27.3855422Q33.641977,27.3573478,33.706953,27.3226175Q33.771929,27.287887,33.833187,27.2469549Q33.894447,27.2060231,33.951399,27.1592839Q34.00835,27.1125445,34.060448,27.0604481Q34.112543,27.0083516,34.159283,26.95139962Q34.206019999999995,26.89444768,34.246952,26.83318865Q34.287884,26.77192974,34.322617,26.7069537Q34.357346,26.64197773,34.38554,26.57391036Q34.413736,26.50584304,34.435123000000004,26.43533996Q34.456511,26.36483687,34.470882,26.29257697Q34.485256,26.2203171,34.492479,26.14699632Q34.499701,26.073675543,34.499701,26Q34.499701,25.926324457,34.492479,25.85300368Q34.485256,25.7796829,34.470882,25.70742303Q34.456511,25.63516313,34.435123000000004,25.56466001Q34.413736,25.49415696,34.38554,25.42608964Q34.357346,25.35802227,34.322617,25.29304624Q34.287884,25.22807026,34.246952,25.16681135Q34.206019999999995,25.10555232,34.159283,25.04860032Q34.112543,24.9916484,34.060448,24.9395519Q34.00835,24.8874555,33.951399,24.8407161Q33.894447,24.7939769,33.833187,24.7530451Q33.771929,24.712113,33.706953,24.6773826Q33.641977,24.6426522,33.573909,24.6144578Q33.505842,24.5862634,33.435339,24.5648766Q33.364837,24.5434897,33.292576,24.5291164Q33.220318,24.5147429,33.146996,24.5075213Q33.073676,24.5002999,33,24.5002999L33,24.5L18,24.5L18,24.5002999Q17.926324457,24.5002999,17.85300368,24.5075214Q17.7796829,24.5147429,17.70742303,24.5291164Q17.63516313,24.5434897,17.56466001,24.5648766Q17.49415696,24.5862634,17.42608964,24.6144578Q17.35802227,24.6426522,17.29304624,24.6773825Q17.22807026,24.712113,17.16681135,24.7530451Q17.10555232,24.7939769,17.04860032,24.8407161Q16.9916484,24.8874555,16.9395519,24.9395519Q16.8874555,24.9916484,16.8407161,25.04860038Q16.7939769,25.10555232,16.7530451,25.16681135Q16.712113,25.22807026,16.6773826,25.2930463Q16.6426522,25.35802227,16.6144578,25.42608964Q16.5862634,25.49415696,16.5648766,25.56466004Q16.5434897,25.63516313,16.5291164,25.70742303Q16.5147429,25.7796829,16.5075213,25.85300368Q16.5002998,25.926324457,16.5002999,26Q16.5002998,26.073675543,16.5075214,26.14699632Q16.5147429,26.2203171,16.5291164,26.29257697Q16.5434897,26.36483687,16.5648766,26.43533999Q16.5862634,26.50584304,16.6144578,26.57391036Q16.6426522,26.64197773,16.6773825,26.70695376Q16.712113,26.77192974,16.7530451,26.83318865Q16.7939769,26.89444768,16.8407161,26.95139968Q16.8874555,27.0083516,16.9395519,27.0604481Q16.9916484,27.1125445,17.04860038,27.1592839Q17.10555232,27.2060231,17.16681135,27.2469549Q17.22807026,27.287887,17.2930463,27.3226174Q17.35802227,27.3573478,17.42608964,27.3855422Q17.49415696,27.4137366,17.56466004,27.4351234Q17.63516313,27.4565103,17.70742303,27.4708836Q17.7796829,27.4852571,17.85300368,27.4924787Q17.926324457,27.4997001,18,27.4997001L18,27.5Z" fill-rule="evenodd" fill="#FAB85C" fill-opacity="1"/><g transform="matrix(0,1,-1,0,44.5,-6.5)"><path d="M25.5,20.5L39.5,20.5L39.5,20.4997001Q39.573675,20.4997001,39.646996,20.4924786Q39.720316,20.4852571,39.792575,20.4708836Q39.864836,20.4565103,39.935339,20.4351234Q40.005842,20.4137366,40.073909,20.3855422Q40.141977,20.3573478,40.206953,20.3226175Q40.271929,20.287887,40.333187,20.2469549Q40.394447,20.2060231,40.451399,20.1592839Q40.508351,20.1125445,40.560448,20.0604481Q40.612545,20.0083516,40.659284,19.95139962Q40.706022000000004,19.89444768,40.746954,19.83318865Q40.787887,19.77192974,40.822617,19.7069537Q40.857347000000004,19.64197773,40.88554,19.57391036Q40.913736,19.50584304,40.935122,19.43533996Q40.956511,19.36483687,40.970882,19.29257697Q40.985257000000004,19.2203171,40.992479,19.14699632Q40.999701,19.073675543,40.999701,19Q40.999701,18.926324457,40.992479,18.85300368Q40.985258,18.7796829,40.970883,18.70742303Q40.956511,18.63516313,40.935123000000004,18.56466001Q40.913736,18.49415696,40.885541,18.42608964Q40.857347000000004,18.35802227,40.822617,18.29304624Q40.787887,18.22807026,40.746954,18.16681135Q40.706022000000004,18.10555232,40.659283,18.04860032Q40.612543,17.9916484,40.560446999999996,17.9395519Q40.50835,17.8874555,40.451399,17.8407161Q40.394446,17.7939769,40.333186,17.7530451Q40.271929,17.712113,40.206953,17.6773826Q40.141977,17.6426522,40.073909,17.6144578Q40.005842,17.5862634,39.935339,17.5648766Q39.864836,17.5434897,39.792576,17.5291164Q39.720317,17.5147429,39.646996,17.5075213Q39.573675,17.5002999,39.5,17.5002999L39.5,17.5L25.5,17.5L25.5,17.5002999Q25.426324457,17.5002999,25.35300368,17.5075214Q25.2796829,17.5147429,25.20742303,17.5291164Q25.13516313,17.5434897,25.06466001,17.5648766Q24.99415696,17.5862634,24.92608964,17.6144578Q24.85802227,17.6426522,24.79304624,17.6773825Q24.72807026,17.712113,24.66681135,17.7530451Q24.60555232,17.7939769,24.54860032,17.8407161Q24.4916484,17.8874555,24.4395519,17.9395519Q24.3874555,17.9916484,24.3407161,18.04860038Q24.2939769,18.10555232,24.2530451,18.16681135Q24.212113,18.22807026,24.1773826,18.2930463Q24.1426522,18.35802227,24.1144578,18.42608964Q24.0862634,18.49415696,24.0648766,18.56466004Q24.0434897,18.63516313,24.0291164,18.70742303Q24.0147429,18.7796829,24.0075213,18.85300368Q24.0002998,18.926324457,24.0002999,19Q24.0002998,19.073675543,24.0075214,19.14699632Q24.0147429,19.2203171,24.0291164,19.29257697Q24.0434897,19.36483687,24.0648766,19.43533999Q24.0862634,19.50584304,24.1144578,19.57391036Q24.1426522,19.64197773,24.1773825,19.70695376Q24.212113,19.77192974,24.2530451,19.83318865Q24.2939769,19.89444768,24.3407161,19.95139968Q24.3874555,20.0083516,24.4395519,20.0604481Q24.4916484,20.1125445,24.54860038,20.1592839Q24.60555232,20.2060231,24.66681135,20.2469549Q24.72807026,20.287887,24.7930463,20.3226174Q24.85802227,20.3573478,24.92608964,20.3855422Q24.99415696,20.4137366,25.06466004,20.4351234Q25.13516313,20.4565103,25.20742303,20.4708836Q25.2796829,20.4852571,25.35300368,20.4924787Q25.426324457,20.4997001,25.5,20.4997001L25.5,20.5Z" fill-rule="evenodd" fill="#FAB85C" fill-opacity="1"/></g></svg>