<svg xmlns="http://www.w3.org/2000/svg" xmlns:xlink="http://www.w3.org/1999/xlink" fill="none" version="1.1" width="50" height="50" viewBox="0 0 50 50"><g><g><g><rect x="9.745853960514069" y="35.88620567321777" width="30.51821517944336" height="4.838305950164795" rx="0" fill="#CACCFF" fill-opacity="1"/></g><g><path d="M15.519570350646973 10.081905484199524C15.519570350646973 10.081905484199524 15.519570350646973 10.081905484199524 15.519570350646973 10.081905484199524L34.49035167694092 10.081905484199524C34.49035167694092 10.081905484199524 34.49035167694092 10.081905484199524 34.49035167694092 10.081905484199524L34.49035167694092 17.98405373096466C34.49035167694092 20.745477480118627 32.25177542609489 22.98405373096466 29.490351676940918 22.98405373096466L20.519570350646973 22.98405373096466C17.758146601493007 22.98405373096466 15.519570350646973 20.745477480118627 15.519570350646973 17.98405373096466Z" fill="#CACCFF" fill-opacity="1"/></g><g><path d="M38.506,40.999997732543946L11.50391,40.999997732543946C10.12104,40.999997732543946,9.000000313413,39.90399773254394,9.000000626827,38.551997732543946L9.000000626827,24.050377732543947C9.000000626827,22.816607732543943,9.781219,21.259707732543944,10.77277,20.505747732543945L14.47855,17.685701732543944C14.698889999999999,17.519240832543947,15.00938,17.558408532543947,15.179649999999999,17.773827732543946C15.349910000000001,17.989247732543944,15.30985,18.292793732543945,15.08951,18.459254732543947L11.38372,21.279297732543945C10.63255,21.847217732543946,10.00156,23.120157732543944,10.00156,24.050377732543947L10.00156,38.551997732543946C10.00156,39.36479773254395,10.67261,40.02079773254394,11.50391,40.02079773254394L38.495999999999995,40.02079773254394C39.3273,40.02079773254394,39.998400000000004,39.36479773254395,39.998400000000004,38.551997732543946L39.998400000000004,24.050377732543947C39.998400000000004,23.120157732543944,39.3674,21.847217732543946,38.6162,21.279297732543945L34.910399999999996,18.459253732543946C34.6903,18.295213732543946,34.6498,17.986961732543946,34.8203,17.773826732543945C34.9906,17.558407332543947,35.301100000000005,17.519239532543946,35.5214,17.685700732543946L39.227199999999996,20.505737732543945C40.2187,21.259707732543944,40.9999,22.816607732543943,40.9999,24.050377732543947L40.9999,38.551997732543946C41.01,39.90329773254395,39.8782,40.999997732543946,38.506,40.999997732543946Z" fill="#6967FE" fill-opacity="1" style="mix-blend-mode:passthrough"/><path d="M41.2499,38.551997732543946L41.2499,38.551297732543944L41.2499,24.050377732543947Q41.2499,23.066857732543944,40.7089,21.986217732543945Q40.1691,20.907927732543946,39.3786,20.306797732543945L35.6721,17.486227332543944Q35.425799999999995,17.300143732543944,35.1209,17.338514732543945Q34.8153,17.376962732543944,34.6251,17.617660632543945Q34.4307,17.860678732543946,34.471000000000004,18.167544732543945Q34.5113,18.473545732543947,34.759,18.658197732543947L38.4655,21.478717732543945Q38.9809,21.868417732543946,39.3652,22.640387732543946Q39.748400000000004,23.410147732543944,39.748400000000004,24.050377732543947L39.748400000000004,38.551997732543946Q39.748400000000004,39.05639773254394,39.3842,39.412397732543944Q39.0176,39.77079773254394,38.495999999999995,39.77079773254394L11.50391,39.77079773254394Q10.98234,39.77079773254394,10.61577,39.412397732543944Q10.25156,39.05639773254394,10.25156,38.551997732543946L10.25156,24.050377732543947Q10.25156,23.410147732543944,10.63476,22.640387732543946Q11.01905,21.868417732543946,11.53512,21.478237732543946L15.2402,18.658727732543944Q15.488990000000001,18.470778732543945,15.52891,18.167532732543947Q15.56898,17.863238732543945,15.375779999999999,17.618805532543945Q15.18463,17.376963732543945,14.87909,17.338515732543947Q14.574169999999999,17.300145732543946,14.32716,17.486755932543947L10.62145,20.306737732543944Q9.830833,20.907917732543947,9.291003,21.986217732543945Q8.750001,23.066857732543944,8.750001,24.050377732543947L8.75,38.551997732543946Q8.75,39.671197732543945,9.55861,40.46179773254394Q10.36485,41.249997732543946,11.50391,41.249997732543946L38.506,41.249997732543946Q39.6396,41.249997732543946,40.4461,40.46149773254395Q41.2575,39.668197732543945,41.2499,38.551997732543946ZM40.7499,24.050377732543947L40.7499,38.551997732543946L40.7499,38.553897732543945Q40.756699999999995,39.45859773254395,40.0965,40.103997732543945Q39.4358,40.749997732543946,38.506,40.749997732543946L11.50391,40.749997732543946Q10.56866,40.749997732543946,9.908146,40.10429773254394Q9.25,39.460797732543945,9.25,38.551997732543946L9.250001,24.050377732543947Q9.250001,23.185027732543944,9.738104,22.210047732543945Q10.22593,21.235617732543947,10.92409,20.704747732543947L14.629950000000001,17.884648732543944Q14.82945,17.733931732543944,14.983509999999999,17.928850732543946Q15.045670000000001,18.007491732543944,15.033190000000001,18.102268732543944Q15.02059,18.197996732543945,14.93881,18.259779732543944L11.232330000000001,21.080347732543945Q10.62379,21.540427732543947,10.187149999999999,22.417567732543944Q9.751564,23.292577732543947,9.751564,24.050377732543947L9.751564,38.551997732543946Q9.751564,39.26679773254395,10.26623,39.76999773254394Q10.77853,40.27079773254394,11.50391,40.27079773254394L38.495999999999995,40.27079773254394Q39.2214,40.27079773254394,39.7337,39.76999773254394Q40.248400000000004,39.26679773254395,40.248400000000004,38.551997732543946L40.248400000000004,24.050377732543947Q40.248400000000004,23.292577732543947,39.812799999999996,22.417567732543944Q39.3762,21.540427732543947,38.766999999999996,21.079877732543945L35.061800000000005,18.260307732543946Q34.9795,18.198901732543945,34.9668,18.102356732543946Q34.9542,18.006675732543947,35.0155,17.929992732543944Q35.170500000000004,17.733929732543945,35.3707,17.885174732543945L39.0758,20.704687732543945Q39.774,21.235617732543947,40.2618,22.210047732543945Q40.7499,23.185037732543947,40.7499,24.050377732543947Z" fill-rule="evenodd" fill="#6967FE" fill-opacity="1"/></g><g><path d="M36.95363981018066,37.2298C36.84083981018067,37.2284,36.73163981018067,37.1905,36.643139810180664,37.1221L34.29953981018066,35.300799999999995C34.082639810180666,35.1338,34.046639810180665,34.825900000000004,34.219339810180664,34.6154C34.38963981018067,34.4,34.710139810180664,34.370599999999996,34.92043981018067,34.537L37.264139810180666,36.3583C37.48443981018066,36.5248,37.514539810180665,36.8381,37.34423981018067,37.0437C37.25413981018066,37.171,37.10383981018066,37.2298,36.95363981018066,37.2298ZM13.056345810180664,37.2298C12.906111810180665,37.2298,12.765892810180665,37.171,12.665736810180665,37.0437C12.492400610180663,36.8334,12.528442510180664,36.525,12.745860810180664,36.3583L18.234429810180664,32.0989C18.454769810180665,31.9324,18.765249810180663,31.9618,18.935519810180665,32.1772C19.105789810180664,32.3926,19.075739810180664,32.696200000000005,18.855399810180664,32.8626L13.366830810180664,37.1221C13.276689810180663,37.2004,13.166518810180664,37.2298,13.056345810180664,37.2298ZM35.22093981018067,23.6583C34.94053981018067,23.6583,34.72013981018067,23.4429,34.72013981018067,23.168799999999997L34.72013981018067,11.44795C34.72013981018067,10.63523,34.04913981018066,9.979181,33.217839810180664,9.979181L16.792179810180663,9.979181C15.960879810180664,9.979181,15.289829810180663,10.63523,15.289829810180663,11.44795L15.289829810180663,23.168799999999997C15.289829810180663,23.4429,15.069489810180665,23.6583,14.789049810180664,23.6583C14.508609810180664,23.6583,14.288269810180664,23.4429,14.288269810180664,23.168799999999997L14.288269810180664,11.44795C14.288269810180664,10.09599,15.409309810180664,8.99999969359,16.792179810180663,9L33.217839810180664,9C34.60063981018067,8.99999877436,35.721739810180665,10.09598,35.721739810180665,11.44795L35.721739810180665,23.168799999999997C35.721739810180665,23.4331,35.49133981018066,23.6583,35.22093981018067,23.6583Z" fill="#6967FE" fill-opacity="1" style="mix-blend-mode:passthrough"/><path d="M35.74753981018067,23.691499999999998Q35.971739810180665,23.4722,35.971739810180665,23.168799999999997L35.971739810180665,11.44795Q35.971739810180665,10.32877,35.16313981018067,9.538225Q34.35683981018066,8.749999,33.217839810180664,8.75L16.792179810180663,8.75Q15.653119810180664,8.75,14.846879810180663,9.538226Q14.038269810180664,10.32877,14.038269810180664,11.44795L14.038269810180664,23.168799999999997Q14.038269810180664,23.479599999999998,14.258729810180665,23.6951Q14.476819810180665,23.9083,14.789049810180664,23.9083Q15.101279810180664,23.9083,15.319369810180664,23.6951Q15.539829810180663,23.479599999999998,15.539829810180663,23.168799999999997L15.539829810180663,11.44795Q15.539829810180663,10.94362,15.904039810180663,10.58756Q16.270609810180666,10.22918,16.792179810180663,10.22918L33.217839810180664,10.22918Q33.73933981018067,10.22918,34.105939810180665,10.58756Q34.47013981018067,10.94363,34.47013981018067,11.44795L34.47013981018067,23.168799999999997Q34.47013981018067,23.479599999999998,34.69063981018066,23.6951Q34.90873981018066,23.9083,35.22093981018067,23.9083Q35.525639810180664,23.9083,35.74753981018067,23.691499999999998ZM35.471739810180665,11.44795L35.471739810180665,23.168799999999997Q35.471739810180665,23.4083,35.22093981018067,23.4083Q34.97013981018067,23.4083,34.97013981018067,23.168799999999997L34.97013981018067,11.44795Q34.97013981018067,10.7332,34.455439810180664,10.23003Q33.94313981018067,9.729181,33.217839810180664,9.729181L16.792179810180663,9.729181Q16.066799810180665,9.729181,15.554499810180664,10.23003Q15.039829810180663,10.7332,15.039829810180663,11.44795L15.039829810180663,23.168799999999997Q15.039829810180663,23.4083,14.789049810180664,23.4083Q14.538269810180664,23.4083,14.538269810180664,23.168799999999997L14.538269810180664,11.44795Q14.538269810180664,10.53919,15.196409810180665,9.895751Q15.856929810180663,9.25,16.792179810180663,9.25L33.217839810180664,9.25Q34.153039810180665,9.249999,34.813539810180664,9.895751Q35.471739810180665,10.53919,35.471739810180665,11.44795ZM13.525012810180664,37.315799999999996L19.006089810180665,33.0621Q19.256179810180665,32.8732,19.290399810180663,32.566Q19.323879810180664,32.2654,19.131649810180665,32.0222Q18.939589810180664,31.7792,18.630219810180662,31.7463Q18.328929810180664,31.7142,18.081149810180662,31.9014L12.593731810180664,36.1599Q12.346764810180664,36.3493,12.310956810180665,36.6556Q12.275219810180664,36.9613,12.471011210180665,37.200500000000005Q12.692153810180663,37.4798,13.056345810180664,37.4798Q13.332179810180664,37.4798,13.525012810180664,37.315799999999996ZM18.704699810180664,32.6632L13.208076810180664,36.928799999999995L13.202839810180665,36.9334Q13.149440810180664,36.9798,13.056345810180664,36.9798Q12.933519810180664,36.9798,12.862213810180664,36.8892L12.860472810180664,36.8869L12.858682810180664,36.8848Q12.796410810180664,36.809200000000004,12.807574810180665,36.7137Q12.818829810180665,36.6174,12.897990810180664,36.5567L18.387699810180663,32.2964Q18.590169810180665,32.1434,18.739389810180665,32.3322Q18.804209810180666,32.4143,18.793469810180664,32.5106Q18.783079810180663,32.604,18.704699810180664,32.6632ZM37.54273981018066,37.1959Q37.336639810180664,37.4798,36.95363981018066,37.4798Q36.692839810180665,37.476600000000005,36.49023981018067,37.3198L34.146139810180664,35.4982Q33.90073981018067,35.3093,33.86503981018066,35.0034Q33.82913981018066,34.696799999999996,34.026139810180666,34.4568Q34.21523981018066,34.2174,34.528639810180664,34.1844Q34.836639810180664,34.1519,35.07563981018066,34.341L37.41753981018066,36.1609Q37.664839810180666,36.3477,37.69913981018067,36.6589Q37.73253981018067,36.9615,37.54273981018066,37.1959ZM37.14563981018067,36.8916L37.14023981018066,36.8993Q37.083239810180665,36.9798,36.95363981018066,36.9798Q36.866439810180665,36.9787,36.79613981018066,36.9243L34.452939810180666,35.1034Q34.37293981018067,35.041799999999995,34.36163981018066,34.9454Q34.35043981018066,34.8498,34.412639810180664,34.7739Q34.47703981018066,34.6926,34.58113981018066,34.6816Q34.68633981018066,34.670500000000004,34.76533981018066,34.7331L37.11073981018066,36.5557Q37.19143981018067,36.6168,37.20213981018067,36.7138Q37.21283981018067,36.810500000000005,37.151739810180665,36.884299999999996L37.14563981018067,36.8916Z" fill-rule="evenodd" fill="#6967FE" fill-opacity="1"/></g><g><path d="M31.475073951721193,23.218008288116454L23.26226395172119,23.218008288116454C22.98182395172119,23.218008288116454,22.761483951721193,23.002588288116456,22.761483951721193,22.728408288116455C22.761483951721193,22.454238288116457,22.98182395172119,22.238818288116455,23.26226395172119,22.238818288116455L31.475073951721193,22.238818288116455C31.755473951721193,22.238818288116455,31.97587395172119,22.454238288116457,31.97587395172119,22.728408288116455C31.97587395172119,23.002588288116456,31.74547395172119,23.218008288116454,31.475073951721193,23.218008288116454ZM31.475073951721193,19.262108288116455L23.26226395172119,19.262108288116455C22.98182395172119,19.262108288116455,22.761483951721193,19.046688288116457,22.761483951721193,18.772518288116455C22.761483951721193,18.498348288116453,22.98182395172119,18.282928288116455,23.26226395172119,18.282928288116455L31.475073951721193,18.282928288116455C31.755473951721193,18.282928288116455,31.97587395172119,18.498348288116453,31.97587395172119,18.772518288116455C31.97587395172119,19.046688288116457,31.74547395172119,19.262108288116455,31.475073951721193,19.262108288116455ZM31.475073951721193,15.306220288116455L23.26226395172119,15.306220288116455C22.98182395172119,15.306220288116455,22.761483951721193,15.090800288116455,22.761483951721193,14.816628288116455C22.761483951721193,14.542457288116456,22.98182395172119,14.327038288116455,23.26226395172119,14.327038288116455L31.475073951721193,14.327038288116455C31.755473951721193,14.327038288116455,31.97587395172119,14.542458288116455,31.97587395172119,14.816628288116455C31.97587395172119,15.090799288116456,31.74547395172119,15.306220288116455,31.475073951721193,15.306220288116455ZM19.55648395172119,23.218008288116454L18.194355951721192,23.218008288116454C17.913918951721193,23.218008288116454,17.69357395172119,23.002588288116456,17.69357395172119,22.728408288116455C17.69357395172119,22.454238288116457,17.91391695172119,22.238818288116455,18.194355951721192,22.238818288116455L19.55648395172119,22.238818288116455C19.83691395172119,22.238818288116455,20.05726395172119,22.454238288116457,20.05726395172119,22.728408288116455C20.05726395172119,23.002588288116456,19.83692395172119,23.218008288116454,19.55648395172119,23.218008288116454ZM29.34177395172119,27.173938288116453L23.26226395172119,27.173938288116453C22.98182395172119,27.173938288116453,22.761483951721193,26.958438288116454,22.761483951721193,26.684338288116457C22.761483951721193,26.410138288116457,22.98182395172119,26.194738288116454,23.26226395172119,26.194738288116454L29.34177395172119,26.194738288116454C29.62217395172119,26.194738288116454,29.842573951721192,26.410138288116457,29.842573951721192,26.684338288116457C29.842573951721192,26.958438288116454,29.62217395172119,27.173938288116453,29.34177395172119,27.173938288116453ZM19.55648395172119,19.262108288116455L18.194355951721192,19.262108288116455C17.913918951721193,19.262108288116455,17.69357395172119,19.046688288116457,17.69357395172119,18.772518288116455C17.69357395172119,18.498348288116453,17.91391695172119,18.282928288116455,18.194355951721192,18.282928288116455L19.55648395172119,18.282928288116455C19.83691395172119,18.282928288116455,20.05726395172119,18.498348288116453,20.05726395172119,18.772518288116455C20.05726395172119,19.046688288116457,19.83692395172119,19.262108288116455,19.55648395172119,19.262108288116455ZM19.55648395172119,15.306220288116455L18.194355951721192,15.306220288116455C17.913918951721193,15.306220288116455,17.69357395172119,15.090800288116455,17.69357395172119,14.816628288116455C17.69357395172119,14.542457288116456,17.91391695172119,14.327038288116455,18.194355951721192,14.327038288116455L19.55648395172119,14.327038288116455C19.83691395172119,14.327038288116455,20.05726395172119,14.542458288116455,20.05726395172119,14.816628288116455C20.05726395172119,15.090799288116456,19.83692395172119,15.306220288116455,19.55648395172119,15.306220288116455Z" fill="#6967FE" fill-opacity="1" style="mix-blend-mode:passthrough"/><path d="M20.08680395172119,15.342998288116455Q20.30726395172119,15.127468288116455,20.30726395172119,14.816628288116455Q20.30726395172119,14.505789288116455,20.08680395172119,14.290256588116454Q19.86871395172119,14.077038288116455,19.55648395172119,14.077038288116455L18.194355951721192,14.077038288116455Q17.88212495172119,14.077038288116455,17.66403275172119,14.290256188116455Q17.44357395172119,14.505788288116456,17.44357395172119,14.816628288116455Q17.44357395172119,15.127469288116455,17.664033151721192,15.342998288116455Q17.88212495172119,15.556218288116455,18.194355951721192,15.556218288116455L19.55648395172119,15.556218288116455Q19.86871395172119,15.556218288116455,20.08680395172119,15.342998288116455ZM32.000373951721194,15.344198288116456Q32.22587395172119,15.126807288116455,32.22587395172119,14.816628288116455Q32.22587395172119,14.505788288116456,32.00537395172119,14.290256688116456Q31.78727395172119,14.077038288116455,31.475073951721193,14.077038288116455L23.26226395172119,14.077038288116455Q22.950033951721192,14.077038288116455,22.731943951721192,14.290256188116455Q22.511483951721193,14.505787288116455,22.511483951721193,14.816628288116455Q22.511483951721193,15.127469288116455,22.731943951721192,15.342998288116455Q22.950033951721192,15.556218288116455,23.26226395172119,15.556218288116455L31.475073951721193,15.556218288116455Q31.78057395172119,15.556218288116455,32.000373951721194,15.344198288116456ZM19.55648395172119,14.577038288116455Q19.80726395172119,14.577038288116455,19.80726395172119,14.816628288116455Q19.80726395172119,15.056220288116455,19.55648395172119,15.056220288116455L18.194355951721192,15.056220288116455Q18.08592995172119,15.056220288116455,18.01356895172119,14.985475288116454Q17.94357395172119,14.917045288116455,17.94357395172119,14.816628288116455Q17.94357395172119,14.702299288116455,18.00067895172119,14.642526288116455Q18.06324395172119,14.577038288116455,18.194355951721192,14.577038288116455L19.55648395172119,14.577038288116455ZM31.475073951721193,14.577038288116455Q31.72587395172119,14.577038288116455,31.72587395172119,14.816628288116455Q31.72587395172119,15.056220288116455,31.475073951721193,15.056220288116455L23.26226395172119,15.056220288116455Q23.011483951721193,15.056220288116455,23.011483951721193,14.816628288116455Q23.011483951721193,14.577038288116455,23.26226395172119,14.577038288116455L31.475073951721193,14.577038288116455ZM20.08680395172119,19.298888288116455Q20.30726395172119,19.083358288116454,20.30726395172119,18.772518288116455Q20.30726395172119,18.461678288116456,20.08680395172119,18.246148288116455Q19.86871395172119,18.032928288116455,19.55648395172119,18.032928288116455L18.194355951721192,18.032928288116455Q17.88212495172119,18.032928288116455,17.66403275172119,18.246148288116455Q17.44357395172119,18.461678288116456,17.44357395172119,18.772518288116455Q17.44357395172119,19.083358288116454,17.664032951721193,19.298888288116455Q17.88212495172119,19.512108288116455,18.194355951721192,19.512108288116455L19.55648395172119,19.512108288116455Q19.86871395172119,19.512108288116455,20.08680395172119,19.298888288116455ZM32.000373951721194,19.300088288116456Q32.22587395172119,19.082698288116454,32.22587395172119,18.772518288116455Q32.22587395172119,18.461678288116456,32.00537395172119,18.246148288116455Q31.78727395172119,18.032928288116455,31.475073951721193,18.032928288116455L23.26226395172119,18.032928288116455Q22.950033951721192,18.032928288116455,22.731943951721192,18.246148288116455Q22.511483951721193,18.461678288116456,22.511483951721193,18.772518288116455Q22.511483951721193,19.083358288116454,22.731943951721192,19.298888288116455Q22.950033951721192,19.512108288116455,23.26226395172119,19.512108288116455L31.475073951721193,19.512108288116455Q31.78057395172119,19.512108288116455,32.000373951721194,19.300088288116456ZM19.55648395172119,18.532928288116455Q19.80726395172119,18.532928288116455,19.80726395172119,18.772518288116455Q19.80726395172119,19.012108288116455,19.55648395172119,19.012108288116455L18.194355951721192,19.012108288116455Q18.08592995172119,19.012108288116455,18.01356895172119,18.941368288116454Q17.94357395172119,18.872938288116455,17.94357395172119,18.772518288116455Q17.94357395172119,18.658188288116456,18.00067895172119,18.598418288116456Q18.06324395172119,18.532928288116455,18.194355951721192,18.532928288116455L19.55648395172119,18.532928288116455ZM31.475073951721193,18.532928288116455Q31.72587395172119,18.532928288116455,31.72587395172119,18.772518288116455Q31.72587395172119,19.012108288116455,31.475073951721193,19.012108288116455L23.26226395172119,19.012108288116455Q23.011483951721193,19.012108288116455,23.011483951721193,18.772518288116455Q23.011483951721193,18.532928288116455,23.26226395172119,18.532928288116455L31.475073951721193,18.532928288116455ZM20.08680395172119,23.254788288116455Q20.30726395172119,23.039248288116454,20.30726395172119,22.728408288116455Q20.30726395172119,22.417568288116456,20.08680395172119,22.202038288116455Q19.86871395172119,21.988818288116455,19.55648395172119,21.988818288116455L18.194355951721192,21.988818288116455Q17.88212495172119,21.988818288116455,17.664032551721192,22.202038288116455Q17.44357395172119,22.417568288116456,17.44357395172119,22.728408288116455Q17.44357395172119,23.039248288116454,17.664032851721192,23.254788288116455Q17.882125951721193,23.468008288116454,18.194355951721192,23.468008288116454L19.55648395172119,23.468008288116454Q19.86871395172119,23.468008288116454,20.08680395172119,23.254788288116455ZM32.000373951721194,23.255988288116455Q32.22587395172119,23.038588288116458,32.22587395172119,22.728408288116455Q32.22587395172119,22.417568288116456,32.00537395172119,22.202038288116455Q31.78727395172119,21.988818288116455,31.475073951721193,21.988818288116455L23.26226395172119,21.988818288116455Q22.950033951721192,21.988818288116455,22.731943951721192,22.202038288116455Q22.511483951721193,22.417568288116456,22.511483951721193,22.728408288116455Q22.511483951721193,23.039248288116454,22.731943951721192,23.254788288116455Q22.950033951721192,23.468008288116454,23.26226395172119,23.468008288116454L31.475073951721193,23.468008288116454Q31.78057395172119,23.468008288116454,32.000373951721194,23.255988288116455ZM19.55648395172119,22.488818288116455Q19.80726395172119,22.488818288116455,19.80726395172119,22.728408288116455Q19.80726395172119,22.968008288116454,19.55648395172119,22.968008288116454L18.194355951721192,22.968008288116454Q18.08592995172119,22.968008288116454,18.01356895172119,22.897258288116454Q17.94357395172119,22.828828288116455,17.94357395172119,22.728408288116455Q17.94357395172119,22.614078288116453,18.00067895172119,22.554308288116456Q18.06324395172119,22.488818288116455,18.194355951721192,22.488818288116455L19.55648395172119,22.488818288116455ZM31.475073951721193,22.488818288116455Q31.72587395172119,22.488818288116455,31.72587395172119,22.728408288116455Q31.72587395172119,22.968008288116454,31.475073951721193,22.968008288116454L23.26226395172119,22.968008288116454Q23.011483951721193,22.968008288116454,23.011483951721193,22.728408288116455Q23.011483951721193,22.488818288116455,23.26226395172119,22.488818288116455L31.475073951721193,22.488818288116455ZM29.87207395172119,27.210638288116456Q30.092573951721192,26.995138288116458,30.092573951721192,26.684338288116457Q30.092573951721192,26.373438288116454,29.87207395172119,26.157938288116455Q29.65397395172119,25.944738288116454,29.34177395172119,25.944738288116454L23.26226395172119,25.944738288116454Q22.950033951721192,25.944738288116454,22.731943951721192,26.157938288116455Q22.511483951721193,26.373438288116454,22.511483951721193,26.684338288116457Q22.511483951721193,26.995138288116458,22.731943951721192,27.210638288116456Q22.950033951721192,27.423938288116453,23.26226395172119,27.423938288116453L29.34177395172119,27.423938288116453Q29.65397395172119,27.423938288116453,29.87207395172119,27.210638288116456ZM29.34177395172119,26.444738288116454Q29.592573951721192,26.444738288116454,29.592573951721192,26.684338288116457Q29.592573951721192,26.923938288116453,29.34177395172119,26.923938288116453L23.26226395172119,26.923938288116453Q23.011483951721193,26.923938288116453,23.011483951721193,26.684338288116457Q23.011483951721193,26.444738288116454,23.26226395172119,26.444738288116454L29.34177395172119,26.444738288116454Z" fill-rule="evenodd" fill="#6967FE" fill-opacity="1"/></g><g><path d="M25.00491794204712,34.84094656066895C24.89211794204712,34.83954656066894,24.78291794204712,34.80164656066894,24.69451794204712,34.733246560668945L12.74582594204712,25.440791560668945C12.52894034204712,25.273778560668944,12.492951742047119,24.965913560668945,12.66570194204712,24.755363560668947C12.835966942047119,24.539944360668944,13.156467942047119,24.510568260668947,13.36679594204712,24.677029560668945L25.00491794204712,33.72466656066894L26.91791794204712,32.23630656066894C27.138317942047117,32.06984656066894,27.44881794204712,32.099226560668946,27.61901794204712,32.31464656066895C27.78931794204712,32.53006656066894,27.75921794204712,32.83360656066895,27.53891794204712,33.00006656066894L25.30541794204712,34.733246560668945C25.22531794204712,34.801746560668946,25.11511794204712,34.84094656066895,25.00491794204712,34.84094656066895Z" fill="#6967FE" fill-opacity="1" style="mix-blend-mode:passthrough"/><path d="M25.46291794204712,34.92744656066895L27.68961794204712,33.19954656066895Q27.939717942047118,33.01061656066894,27.97391794204712,32.70339656066895Q28.00741794204712,32.40282656066894,27.81521794204712,32.15962656066895Q27.62311794204712,31.916616560668945,27.31371794204712,31.883676560668945Q27.01241794204712,31.851596560668945,26.764417942047118,32.03899656066895L25.00491794204712,33.40795656066894L13.52194394204712,24.480996160668944Q13.283010942047119,24.291895560668944,12.97501194204712,24.324369560668945Q12.66157494204712,24.357416560668945,12.472428942047118,24.596789760668944Q12.275497942047119,24.836811560668945,12.311340942047119,25.143430560668946Q12.34709494204712,25.449280560668946,12.592351042047119,25.638136560668947L24.54151794204712,34.93094656066894Q24.74421794204712,35.08774656066895,25.00491794204712,35.09094656066895Q25.26841794204712,35.09094656066895,25.46291794204712,34.92744656066895ZM27.38821794204712,32.80059656066894L25.14741794204712,34.539366560668945L25.14291794204712,34.54324656066895Q25.08721794204712,34.59094656066895,25.00491794204712,34.59094656066895Q24.91771794204712,34.589846560668946,24.84741794204712,34.535466560668944L12.899301942047119,25.243445560668945Q12.819228942047118,25.181782560668946,12.80795994204712,25.085377560668945Q12.796779942047118,24.989740560668945,12.858973942047118,24.913937560668945Q12.923322942047118,24.832590560668944,13.027437942047118,24.821613560668947Q13.13262694204712,24.810522560668947,13.211647942047119,24.873062560668945L25.005017942047118,34.04136656066895L27.07141794204712,32.43362656066895Q27.27371794204712,32.28087656066894,27.42291794204712,32.46966656066895Q27.48771794204712,32.551676560668945,27.47701794204712,32.64803656066894Q27.46661794204712,32.74138656066894,27.38821794204712,32.80059656066894Z" fill-rule="evenodd" fill="#6967FE" fill-opacity="1"/></g><g><path d="M34.3195370333252,27.6044355657959C34.1693010333252,27.6044355657959,34.02908303332519,27.5456855657959,33.92892803332519,27.418395565795898C33.7555930333252,27.208005565795897,33.79163563332519,26.8996855657959,34.00905403332519,26.732965565795897L36.6531810333252,24.6864785657959C36.87353103332519,24.5200172657959,37.1840110333252,24.549393365795897,37.3542710333252,24.7648125657959C37.52454103332519,24.980232565795898,37.4944910333252,25.2837785657959,37.2741510333252,25.450239565795897L34.6300220333252,27.4967255657959C34.54153403332519,27.565165565795898,34.432358033325194,27.6030455657959,34.3195370333252,27.6044355657959Z" fill="#6967FE" fill-opacity="1" style="mix-blend-mode:passthrough"/><path d="M34.3226270333252,27.854415565795897Q34.580311033325195,27.8512355657959,34.782975033325194,27.694475565795898L34.7830380333252,27.6944255657959L37.424841033325194,25.649715565795898Q37.674931033325194,25.460788565795898,37.7091510333252,25.153564565795897Q37.74264103332519,24.8529975657959,37.5504110333252,24.6097903657959Q37.358341033325196,24.366785565795897,37.0489810333252,24.333845565795897Q36.74768103332519,24.3017645657959,36.5001610333252,24.4887766657959L33.8569257333252,26.534575565795897Q33.60995803332519,26.723965565795897,33.5741490333252,27.030275565795897Q33.538414033325196,27.3359755657959,33.734189233325196,27.5751755657959Q33.95534603332519,27.8544355657959,34.3226270333252,27.854415565795897ZM34.477068033325196,27.2989755657959L34.4770050333252,27.299025565795898Q34.4067440333252,27.3533355657959,34.31644603332519,27.3544555657959Q34.196713033325196,27.3544355657959,34.125405033325194,27.2638055657959L34.123665033325196,27.261595565795897L34.121876033325194,27.259425565795897Q34.059603033325196,27.1838355657959,34.070768033325194,27.088335565795898Q34.08202303332519,26.992055565795898,34.161183033325194,26.931355565795897L36.806201033325195,24.884180565795898Q36.891331033325194,24.819886565795898,36.9960410333252,24.831035565795897Q37.09640103332519,24.841721565795897,37.158141033325194,24.9198355657959Q37.2229610333252,25.001845565795897,37.212231033325196,25.0982065657959Q37.20183103332519,25.191554565795897,37.123451033325196,25.2507635657959L34.477068033325196,27.2989755657959Z" fill-rule="evenodd" fill="#6967FE" fill-opacity="1"/></g><g><path d="M34.47850900024414,30.268080992431642C34.449539000244144,30.18388099243164,34.37191900024414,30.12474099243164,34.28133900024414,30.11788099243164L32.19538900024414,29.95974099243164L31.40221900024414,27.96364799243164C31.36837900024414,27.87847269243164,31.284519000244142,27.82236099243164,31.19108900024414,27.82236099243164C31.09764900024414,27.82236099243164,31.01379900024414,27.87847269243164,30.97994900024414,27.96364799243164L30.18679900024414,29.95974099243164L28.10083900024414,30.11788099243164C28.01025600024414,30.12474099243164,27.932637300244142,30.18388099243164,27.90365870024414,30.268080992431642C27.87468010024414,30.35229099243164,27.89995897024414,30.44529099243164,27.967860100244142,30.50432099243164L29.57302900024414,31.89958099243164L29.07143900024414,34.00157099243164C29.05041900024414,34.08965099243164,29.08626900024414,34.18138099243164,29.16199900024414,34.23330099243164C29.23773900024414,34.28523099243164,29.33814900024414,34.28690099243164,29.41563900024414,34.237530992431644L31.19108900024414,33.10673099243164L32.96653900024414,34.237530992431644C33.004159000244144,34.26149099243164,33.04717900024414,34.27343099243164,33.09014900024414,34.27343099243164C33.13569900024414,34.27343099243164,33.18120900024414,34.26002099243164,33.220179000244144,34.23329099243164C33.29590900024414,34.18138099243164,33.33175900024414,34.08964099243164,33.31073900024414,34.00156099243164L32.80914900024414,31.899560992431642L34.41430900024414,30.50432099243164C34.48221900024414,30.44529099243164,34.50748900024414,30.35229099243164,34.47850900024414,30.268080992431642Z" fill="#FAB85C" fill-opacity="1" style="mix-blend-mode:passthrough"/></g></g></g></svg>