<svg xmlns="http://www.w3.org/2000/svg" xmlns:xlink="http://www.w3.org/1999/xlink" fill="none" version="1.1" width="50" height="50" viewBox="0 0 50 50"><g><g><g><g><path d="M16.809443062286377,21.195664436950683C16.809443062286377,22.647044436950683,17.912193062286377,23.746564436950685,19.411923062286377,23.746564436950685C20.867543062286376,23.746564436950685,22.014403062286377,22.647044436950683,22.014403062286377,21.195664436950683C22.014403062286377,19.744294436950682,20.911663062286376,18.644774436950684,19.411923062286377,18.644774436950684C17.956303062286377,18.644774436950684,16.809443062286377,19.744294436950682,16.809443062286377,21.195664436950683ZM14.206963062286377,29.332174436950684C14.206963062286377,30.91547443695068,24.660963062286378,30.827474436950684,24.616863062286377,29.332174436950684C24.616863062286377,27.309014436950683,23.117153062286377,25.241914436950683,21.132203062286376,24.582204436950683C20.948213062286378,24.515494436950682,20.884733062286376,24.619534436950683,20.790233062286376,24.774434436950685C20.635533062286378,25.028004436950685,20.397703062286375,25.417844436950684,19.411923062286377,25.417844436950684C18.122453062286375,25.417844436950684,18.00572306228638,24.990954436950684,17.93711306228638,24.740034436950683C17.900113062286376,24.604704436950684,17.877103062286377,24.520564436950686,17.691643062286378,24.582204436950683C15.706693062286377,25.197934436950682,14.206963062286377,27.221054436950684,14.206963062286377,29.332174436950684Z" fill="#CACCFF" fill-opacity="1" style="mix-blend-mode:passthrough"/></g><g><g><path d="M36.926239454956054,18.930418968200684L27.668947454956054,18.930418968200684C27.285072454956055,18.930418968200684,26.975019454956055,19.227861968200685,26.975019454956055,19.596124968200684C26.975019454956055,19.964388968200684,27.285076454956055,20.261828968200682,27.668947454956054,20.261828968200682L36.93361945495606,20.261828968200682C37.317519454956056,20.261828968200682,37.62751945495606,19.964388968200684,37.62751945495606,19.596124968200684C37.62751945495606,19.227861968200685,37.317519454956056,18.930418968200684,36.926239454956054,18.930418968200684ZM36.926239454956054,22.251868968200682L27.668947454956054,22.251868968200682C27.285072454956055,22.251868968200682,26.975019454956055,22.549318968200684,26.975019454956055,22.917578968200683C26.975019454956055,23.285838968200682,27.285076454956055,23.583288968200684,27.668947454956054,23.583288968200684L36.93361945495606,23.583288968200684C37.317519454956056,23.583288968200684,37.62751945495606,23.285838968200682,37.62751945495606,22.917578968200683C37.62751945495606,22.549318968200684,37.317519454956056,22.251868968200682,36.926239454956054,22.251868968200682ZM30.858059454956056,26.246108968200684C30.858059454956056,25.877848968200684,30.548009454956055,25.580398968200683,30.164139454956054,25.580398968200683L27.668949454956056,25.580398968200683C27.285076454956055,25.580398968200683,26.975022376856053,25.877848968200684,26.975022376856053,26.246108968200684C26.975022376856053,26.614378968200683,27.285077454956056,26.911818968200684,27.668949454956056,26.911818968200684L30.164139454956054,26.911818968200684C30.548009454956055,26.911818968200684,30.858059454956056,26.614378968200683,30.858059454956056,26.246108968200684Z" fill="#6967FE" fill-opacity="1" style="mix-blend-mode:passthrough"/></g><g><path d="M35.977003443603515,40.000016101074216Q36.12379344360352,40.000016101074216,36.27040344360351,39.992916101074215Q36.417013443603516,39.98571610107422,36.56308344360352,39.971516101074215Q36.709163443603515,39.95731610107422,36.85436344360352,39.936016101074216Q36.99956344360351,39.91471610107422,37.14352344360351,39.88641610107422Q37.287493443603516,39.858116101074216,37.42987344360351,39.82291610107422Q37.57226344360352,39.78761610107422,37.71273344360352,39.745516101074216Q37.853193443603516,39.70341610107422,37.99140344360352,39.65461610107422Q38.129603443603514,39.60571610107422,38.265213443603514,39.55021610107422Q38.400823443603514,39.49471610107422,38.533523443603514,39.43261610107422Q38.66621344360352,39.37061610107422,38.795663443603516,39.30221610107422Q38.92512344360352,39.233916101074215,39.05102344360351,39.15931610107422Q39.17692344360351,39.08471610107422,39.298973443603515,39.00411610107422Q39.42102344360352,38.92351610107422,39.538923443603515,38.837116101074216Q39.656823443603514,38.75071610107422,39.77028344360352,38.65871610107422Q39.88375344360352,38.56671610107422,39.992513443603514,38.46921610107422Q40.10132344360352,38.37181610107422,40.205023443603515,38.26921610107422Q40.308823443603515,38.16668610107422,40.40742344360352,38.05920610107422Q40.50602344360352,37.951726101074215,40.59912344360352,37.83959610107422Q40.69222344360352,37.72745610107422,40.779723443603515,37.61094610107422Q40.86712344360352,37.49443610107422,40.94872344360351,37.37381610107422Q41.03022344360352,37.25320610107422,41.105723443603516,37.12878610107422Q41.18112344360352,37.00436610107422,41.25032344360352,36.87643610107422Q41.319523443603515,36.74849610107422,41.38232344360352,36.61736610107422Q41.44502344360352,36.48623610107422,41.501223443603514,36.35221610107422Q41.55742344360351,36.21819610107422,41.60682344360352,36.08161610107422Q41.65632344360351,35.945036101074216,41.69892344360352,35.806226101074216Q41.74152344360351,35.66740610107422,41.77722344360352,35.52669610107422Q41.81282344360352,35.38598610107422,41.84152344360351,35.24371610107422Q41.87012344360352,35.10143610107422,41.891623443603514,34.95794610107422Q41.91322344360351,34.81445610107422,41.927623443603515,34.67009610107422Q41.94202344360352,34.525736101074216,41.949223443603515,34.380856101074215Q41.95642344360351,34.23596610107422,41.95642344360351,34.09090610107422Q41.95642344360351,33.94584610107422,41.949223443603515,33.80095610107422Q41.94202344360352,33.65607610107422,41.927623443603515,33.51171610107422Q41.91322344360351,33.36735610107422,41.891623443603514,33.22386610107422Q41.87012344360352,33.08037610107422,41.84152344360351,32.93809610107422Q41.81282344360352,32.79582610107422,41.77722344360352,32.65511610107422Q41.74152344360351,32.514406101074215,41.69892344360352,32.37558610107422Q41.65632344360351,32.23677610107422,41.60682344360352,32.10019610107422Q41.55742344360351,31.96361610107422,41.501223443603514,31.82959610107422Q41.44502344360352,31.69557610107422,41.38232344360352,31.564446101074218Q41.319523443603515,31.43331610107422,41.25032344360352,31.30537610107422Q41.18112344360352,31.177446101074217,41.105723443603516,31.05302610107422Q41.03022344360352,30.92860610107422,40.94872344360351,30.80799610107422Q40.86712344360352,30.687376101074218,40.779723443603515,30.57086610107422Q40.69222344360352,30.454356101074218,40.59912344360352,30.342216101074218Q40.50602344360352,30.230086101074217,40.40742344360352,30.12260610107422Q40.308823443603515,30.01512610107422,40.205023443603515,29.91254610107422Q40.10132344360352,29.80997610107422,39.992513443603514,29.71255610107422Q39.88375344360352,29.61514610107422,39.77028344360352,29.52311610107422Q39.656823443603514,29.431096101074218,39.538923443603515,29.344676101074217Q39.42102344360352,29.25826610107422,39.298973443603515,29.17767710107422Q39.17692344360351,29.09708610107422,39.05102344360351,29.022510101074218Q38.92512344360352,28.94793510107422,38.795663443603516,28.87955410107422Q38.66621344360352,28.811173101074218,38.533523443603514,28.74915210107422Q38.400823443603514,28.68713110107422,38.265213443603514,28.631619101074218Q38.129603443603514,28.576107101074218,37.99139344360351,28.52723710107422Q37.853193443603516,28.478368101074217,37.71273344360352,28.436259101074217Q37.57226344360352,28.39415110107422,37.42987344360351,28.35890410107422Q37.287493443603516,28.323657101074218,37.14352344360351,28.29535710107422Q36.99956344360351,28.26705780107422,36.85436344360352,28.245773101074217Q36.709163443603515,28.22448840107422,36.56308344360352,28.210270001074218Q36.417013443603516,28.19605160107422,36.27040344360351,28.18893386107422Q36.12379344360352,28.18181610107422,35.977003443603515,28.18181610107422Q35.830223443603515,28.18181610107422,35.68361344360352,28.18893386107422Q35.53700344360352,28.19605160107422,35.39092344360351,28.210270001074218Q35.244843443603514,28.22448840107422,35.09964344360352,28.245773101074217Q34.95445344360351,28.26705780107422,34.810483443603516,28.29535710107422Q34.666523443603516,28.323657101074218,34.52413344360352,28.35890410107422Q34.38174344360352,28.39415110107422,34.241283443603514,28.436259101074217Q34.10081344360351,28.478368101074217,33.962613443603516,28.52723710107422Q33.824403443603515,28.576107101074218,33.688793443603515,28.631619101074218Q33.553183443603515,28.68713110107422,33.42049344360352,28.74915210107422Q33.28779344360352,28.811173101074218,33.15834344360351,28.87955410107422Q33.028893443603515,28.94793510107422,32.90299344360351,29.022510101074218Q32.777083443603516,29.09708610107422,32.65504344360352,29.17767710107422Q32.532993443603516,29.25826610107422,32.41509344360352,29.344676101074217Q32.29719344360352,29.431096101074218,32.18372344360352,29.52311610107422Q32.070263443603515,29.61514610107422,31.961493443603516,29.71255610107422Q31.852733443603515,29.80997610107422,31.748943443603515,29.91254610107422Q31.645153443603515,30.01512610107422,31.546573443603517,30.12260610107422Q31.448003443603515,30.230086101074217,31.354883443603516,30.342216101074218Q31.261763443603517,30.454356101074218,31.174323443603516,30.57086610107422Q31.086883443603515,30.687376101074218,31.005333443603515,30.80799610107422Q30.923781443603517,30.92860610107422,30.848318443603517,31.05302610107422Q30.772855443603515,31.177446101074217,30.703661443603515,31.30537610107422Q30.634467443603516,31.43331610107422,30.571708443603516,31.564446101074218Q30.508949443603516,31.69557610107422,30.452776443603515,31.82959610107422Q30.396604443603515,31.96361610107422,30.347153443603517,32.10019610107422Q30.297703443603517,32.23677610107422,30.255093443603517,32.37558610107422Q30.212484443603515,32.514406101074215,30.176818443603516,32.65511610107422Q30.141152443603517,32.79582610107422,30.112515443603517,32.93809610107422Q30.083879143603514,33.08037610107422,30.062341243603516,33.22386610107422Q30.040803343603514,33.36735610107422,30.026415843603516,33.51171610107422Q30.012028343603514,33.65607610107422,30.004825873603515,33.80095610107422Q29.997623443603516,33.94584610107422,29.997623443603516,34.09090610107422Q29.997623443603516,34.23596610107422,30.004825873603515,34.380856101074215Q30.012028343603514,34.525736101074216,30.026415843603516,34.67009610107422Q30.040803343603514,34.81445610107422,30.062341243603516,34.95794610107422Q30.083879143603514,35.10143610107422,30.112515443603517,35.24371610107422Q30.141152443603517,35.38598610107422,30.176818443603516,35.52669610107422Q30.212484443603515,35.66740610107422,30.255093443603517,35.806226101074216Q30.297703443603517,35.945036101074216,30.347153443603517,36.08161610107422Q30.396604443603515,36.21819610107422,30.452776443603515,36.35221610107422Q30.508949443603516,36.48623610107422,30.571708443603516,36.61736610107422Q30.634467443603516,36.74849610107422,30.703661443603515,36.87643610107422Q30.772855443603515,37.00436610107422,30.848318443603517,37.12878610107422Q30.923781443603517,37.25320610107422,31.005333443603515,37.37381610107422Q31.086883443603515,37.49443610107422,31.174323443603516,37.61094610107422Q31.261763443603517,37.72745610107422,31.354883443603516,37.83959610107422Q31.448003443603515,37.951726101074215,31.546573443603517,38.05920610107422Q31.645153443603515,38.16668610107422,31.748943443603515,38.26921610107422Q31.852733443603515,38.37181610107422,31.961493443603516,38.46921610107422Q32.070263443603515,38.56671610107422,32.18372344360352,38.65871610107422Q32.29719344360352,38.75071610107422,32.41509344360352,38.837116101074216Q32.532993443603516,38.92351610107422,32.65504344360352,39.00411610107422Q32.777083443603516,39.08471610107422,32.90299344360351,39.15931610107422Q33.028893443603515,39.233916101074215,33.15834344360351,39.30221610107422Q33.28779344360352,39.37061610107422,33.42049344360352,39.43261610107422Q33.553183443603515,39.49471610107422,33.688793443603515,39.55021610107422Q33.824403443603515,39.60571610107422,33.962613443603516,39.65461610107422Q34.10081344360351,39.70341610107422,34.241283443603514,39.745516101074216Q34.38174344360352,39.78761610107422,34.52413344360352,39.82291610107422Q34.666523443603516,39.858116101074216,34.810483443603516,39.88641610107422Q34.95445344360351,39.91471610107422,35.09964344360352,39.936016101074216Q35.244843443603514,39.95731610107422,35.39092344360351,39.971516101074215Q35.53700344360352,39.98571610107422,35.68361344360352,39.992916101074215Q35.830223443603515,40.000016101074216,35.977003443603515,40.000016101074216ZM38.799243443603515,31.335096101074218Q39.95639344360352,32.47864610107422,39.95639344360352,34.09090610107422Q39.95639344360352,35.70316610107422,38.799243443603515,36.84671610107422Q37.63223344360352,37.99999610107422,35.977003443603515,37.99999610107422Q34.32177344360352,37.99999610107422,33.15477344360352,36.84671610107422Q31.997623443603516,35.70316610107422,31.997623443603516,34.09090610107422Q31.997623443603516,32.47864610107422,33.15477344360352,31.335096101074218Q34.32177344360352,30.18181610107422,35.977003443603515,30.18181610107422Q37.63223344360352,30.18181610107422,38.799243443603515,31.335096101074218Z" fill-rule="evenodd" fill="#6967FE" fill-opacity="1"/></g><g><path d="M35.977010059814454,39.09090805053711Q36.101210059814456,39.09090805053711,36.22526005981445,39.08488805053711Q36.34932005981445,39.07885805053711,36.472920059814456,39.06682805053711Q36.596530059814455,39.05479805053711,36.71939005981445,39.03678805053711Q36.842250059814454,39.01877805053711,36.96406005981445,38.99482805053711Q37.08588005981446,38.97088805053711,37.20636005981445,38.94105805053711Q37.32684005981445,38.91123805053711,37.445700059814456,38.87560805053711Q37.56455005981445,38.83997805053711,37.68149005981445,38.79862805053711Q37.79844005981445,38.75727805053711,37.913190059814454,38.71030805053711Q38.02793005981445,38.66332805053711,38.14021005981445,38.61085805053711Q38.252490059814455,38.55837805053711,38.36203005981445,38.50051805053711Q38.471570059814454,38.44264805053711,38.57810005981445,38.37954805053711Q38.68463005981445,38.31644805053711,38.787900059814454,38.24825805053711Q38.891170059814456,38.18005805053711,38.99093005981445,38.10694805053711Q39.09070005981445,38.03382805053711,39.18671005981445,37.955958050537106Q39.28272005981445,37.87808805053711,39.37475005981445,37.795658050537114Q39.46677005981445,37.71322805053711,39.554600059814454,37.62643805053711Q39.642420059814455,37.53964805053711,39.725830059814456,37.44869805053711Q39.80924005981446,37.35775805053711,39.88804005981446,37.26286805053711Q39.966830059814455,37.16798805053711,40.04082005981445,37.06939805053711Q40.11481005981445,36.97081805053711,40.183810059814455,36.86875805053711Q40.25281005981445,36.76669805053711,40.316670059814456,36.66141805053711Q40.38052005981445,36.55613805053711,40.439070059814455,36.44788805053711Q40.49762005981445,36.33963805053711,40.55072005981445,36.22867805053711Q40.60382005981445,36.11771805053711,40.651350059814455,36.00431805053711Q40.69889005981445,35.89091805053711,40.74073005981445,35.77535805053711Q40.782570059814454,35.65978805053711,40.81863005981445,35.54232805053711Q40.854680059814456,35.42486805053711,40.88486005981446,35.30580805053711Q40.91504005981445,35.18674805053711,40.93923005981445,35.06635805053711Q40.96353005981445,34.94597805053711,40.98173005981445,34.82455805053711Q40.99993005981445,34.70314805053711,41.01213005981445,34.58099805053711Q41.02433005981445,34.45883805053711,41.03043005981445,34.33624805053711Q41.03653005981445,34.21364805053711,41.03653005981445,34.09090805053711Q41.03653005981445,33.96816805053711,41.03043005981445,33.84556805053711Q41.02433005981445,33.72297805053711,41.01213005981445,33.60081805053711Q40.99993005981445,33.47866805053711,40.98173005981445,33.35725805053711Q40.96353005981445,33.23583805053711,40.93923005981445,33.11545805053711Q40.91504005981445,32.99506805053711,40.88486005981446,32.87600805053711Q40.854680059814456,32.75693805053711,40.81863005981445,32.63948805053711Q40.782570059814454,32.52202805053711,40.74073005981445,32.40645805053711Q40.69889005981445,32.290888050537106,40.651350059814455,32.17748805053711Q40.60382005981445,32.06408805053711,40.55072005981445,31.95312805053711Q40.49762005981445,31.842178050537107,40.439070059814455,31.73392805053711Q40.38052005981445,31.62567805053711,40.316670059814456,31.52039805053711Q40.25281005981445,31.41511805053711,40.183810059814455,31.31305805053711Q40.11481005981445,31.21099805053711,40.04082005981445,31.11240805053711Q39.966830059814455,31.01381805053711,39.88804005981446,30.918938050537108Q39.80924005981446,30.824058050537108,39.725830059814456,30.73310805053711Q39.642420059814455,30.64216805053711,39.554600059814454,30.555378050537108Q39.46677005981445,30.468578050537108,39.37474005981446,30.38614805053711Q39.28272005981445,30.30371805053711,39.18671005981445,30.22585805053711Q39.09070005981445,30.14798805053711,38.99093005981445,30.074870050537108Q38.891170059814456,30.00175205053711,38.787900059814454,29.93356005053711Q38.68463005981445,29.86536705053711,38.57810005981445,29.80226505053711Q38.471570059814454,29.73916205053711,38.36203005981445,29.68130205053711Q38.252490059814455,29.62344105053711,38.14021005981445,29.57096105053711Q38.02793005981445,29.51848205053711,37.913190059814454,29.47151005053711Q37.79844005981445,29.42453905053711,37.68149005981445,29.38318805053711Q37.56455005981445,29.34183705053711,37.445700059814456,29.30620605053711Q37.32684005981445,29.27057605053711,37.20636005981445,29.24075205053711Q37.08588005981446,29.21092805053711,36.96406005981445,29.18698165053711Q36.842250059814454,29.16303565053711,36.71939005981445,29.14502545053711Q36.596530059814455,29.12701535053711,36.472920059814456,29.114984450537108Q36.34932005981445,29.10295345053711,36.22526005981445,29.09693077053711Q36.101210059814456,29.09090805053711,35.977010059814454,29.09090805053711Q35.852800059814456,29.09090805053711,35.72875005981445,29.09693077053711Q35.604700059814455,29.10295345053711,35.481090059814456,29.114984450537108Q35.35749005981445,29.12701535053711,35.23463005981445,29.14502545053711Q35.111770059814454,29.16303565053711,34.989950059814454,29.18698165053711Q34.86814005981445,29.21092805053711,34.747650059814454,29.24075205053711Q34.62717005981445,29.27057605053711,34.50832005981445,29.30620605053711Q34.38946005981445,29.34183705053711,34.272520059814454,29.38318805053711Q34.155580059814454,29.42453905053711,34.04083005981445,29.47151005053711Q33.92608005981445,29.51848205053711,33.813800059814454,29.57096105053711Q33.701520059814456,29.62344105053711,33.59199005981445,29.68130205053711Q33.482450059814454,29.73916205053711,33.375920059814455,29.80226505053711Q33.26938005981445,29.86536705053711,33.16611005981445,29.93356005053711Q33.062840059814455,30.00175205053711,32.96308005981445,30.074870050537108Q32.863320059814455,30.14798805053711,32.767310059814456,30.22585805053711Q32.671300059814456,30.30371805053711,32.579270059814455,30.38614805053711Q32.487240059814454,30.468578050537108,32.39942005981445,30.555378050537108Q32.311590059814456,30.64216805053711,32.228180059814456,30.73310805053711Q32.144770059814455,30.824058050537108,32.06598005981445,30.918938050537108Q31.987180059814452,31.01381805053711,31.913197059814454,31.11240805053711Q31.839209059814454,31.21099805053711,31.770206059814452,31.31305805053711Q31.701202059814452,31.41511805053711,31.637349059814454,31.52039805053711Q31.573496059814453,31.62567805053711,31.514947059814453,31.73392805053711Q31.456398059814454,31.842178050537107,31.403294059814453,31.95312805053711Q31.35019005981445,32.06408805053711,31.302660059814453,32.17748805053711Q31.255129059814454,32.290888050537106,31.213286059814454,32.40645805053711Q31.171444059814455,32.52202805053711,31.135389059814454,32.63948805053711Q31.099335059814454,32.75693805053711,31.069156059814453,32.87600805053711Q31.038977059814453,32.99506805053711,31.014746459814454,33.11545805053711Q30.990515659814452,33.23583805053711,30.972291259814455,33.35725805053711Q30.954066859814453,33.47866805053711,30.941892859814452,33.60081805053711Q30.929718759814453,33.72297805053711,30.923624419814452,33.84556805053711Q30.917530059814453,33.96816805053711,30.917530059814453,34.09090805053711Q30.917530059814453,34.21364805053711,30.923624419814452,34.33624805053711Q30.929718759814453,34.45883805053711,30.941892859814452,34.58098805053711Q30.954066859814453,34.70314805053711,30.972291259814455,34.82455805053711Q30.990515659814452,34.94597805053711,31.014746459814454,35.06635805053711Q31.038977059814453,35.18674805053711,31.069156059814453,35.30580805053711Q31.099335059814454,35.42486805053711,31.135389059814454,35.54232805053711Q31.171444059814455,35.65978805053711,31.213286059814454,35.77535805053711Q31.255129059814454,35.89091805053711,31.302660059814453,36.00431805053711Q31.35019005981445,36.11771805053711,31.403294059814453,36.22867805053711Q31.456398059814454,36.33963805053711,31.514947059814453,36.44788805053711Q31.573496059814453,36.55613805053711,31.637349059814454,36.66141805053711Q31.701202059814452,36.76669805053711,31.770206059814452,36.86875805053711Q31.839209059814454,36.97081805053711,31.913197059814454,37.06939805053711Q31.987180059814452,37.16798805053711,32.06598005981445,37.26286805053711Q32.144770059814455,37.35775805053711,32.228180059814456,37.44869805053711Q32.311590059814456,37.53964805053711,32.39942005981445,37.62643805053711Q32.487240059814454,37.71322805053711,32.579270059814455,37.795658050537114Q32.671300059814456,37.87808805053711,32.767310059814456,37.955958050537106Q32.863320059814455,38.03382805053711,32.96308005981445,38.10694805053711Q33.062840059814455,38.18005805053711,33.16611005981445,38.24825805053711Q33.26938005981445,38.31644805053711,33.375920059814455,38.37954805053711Q33.482450059814454,38.44264805053711,33.59199005981445,38.50051805053711Q33.701520059814456,38.55837805053711,33.813800059814454,38.61084805053711Q33.92608005981445,38.66332805053711,34.04083005981445,38.71030805053711Q34.155580059814454,38.75727805053711,34.272520059814454,38.79862805053711Q34.38946005981445,38.83997805053711,34.50832005981445,38.87560805053711Q34.62717005981445,38.91123805053711,34.747650059814454,38.94105805053711Q34.86814005981445,38.97088805053711,34.989950059814454,38.99482805053711Q35.111770059814454,39.01877805053711,35.23463005981445,39.03678805053711Q35.35749005981445,39.05479805053711,35.481090059814456,39.06682805053711Q35.604700059814455,39.07885805053711,35.72875005981445,39.08488805053711Q35.852800059814456,39.09090805053711,35.977010059814454,39.09090805053711ZM38.85169005981445,31.26664805053711Q40.036490059814454,32.43751805053711,40.036490059814454,34.09090805053711Q40.036490059814454,35.74429805053711,38.85169005981445,36.91516805053711Q37.661960059814454,38.09090805053711,35.977010059814454,38.09090805053711Q34.29206005981445,38.09090805053711,33.102330059814456,36.91516805053711Q31.917530059814453,35.74429805053711,31.917530059814453,34.09090805053711Q31.917530059814453,32.43751805053711,33.102330059814456,31.26664805053711Q34.29206005981445,30.09090805053711,35.977010059814454,30.09090805053711Q37.661960059814454,30.09090805053711,38.85169005981445,31.26664805053711Z" fill-rule="evenodd" fill="#CACCFF" fill-opacity="1"/></g><g transform="matrix(0.8264024257659912,0.5630800127983093,-0.5721790194511414,0.8201287388801575,23.873001245481078,-14.509977080746808)"><path d="M37.68673719848633,35.95167004211426C37.96928719848633,35.95167004211426,38.19739719848633,35.74824004211426,38.19739719848633,35.49756004211426L38.19739719848633,34.59062004211426L39.22560719848633,34.59062004211426C39.51023719848633,34.59062004211426,39.739027198486326,34.38720004211426,39.739027198486326,34.135310042114256C39.739027198486326,33.88467004211426,39.51023719848633,33.68004004211426,39.22560719848633,33.68004004211426L38.19739719848633,33.68004004211426L38.19739719848633,33.22472004211426L39.22560719848633,33.22472004211426C39.51023719848633,33.22472004211426,39.739027198486326,33.02190004211426,39.739027198486326,32.77001004211426C39.739027198486326,32.518770042114255,39.51023719848633,32.31534004211426,39.22560719848633,32.31534004211426L38.452737198486325,32.31534004211426L39.15884719848633,31.686240042114257C39.35838719848633,31.508859042114256,39.35838719848633,31.220666042114257,39.15884719848633,31.042046042114258C38.95935719848633,30.86466394211426,38.63456719848633,30.86466394211426,38.43501719848633,31.042692042114258L37.75754719848633,31.645680042114257L37.079327198486325,31.042692042114258C36.87983719848633,30.86466394211426,36.55572319848633,30.86466394211426,36.355503198486325,31.042046042114258C36.15533419848633,31.220666042114257,36.15533419848633,31.508859042114256,36.355503198486325,31.686240042114257L37.06228719848633,32.31534004211426L36.15461719848633,32.31534004211426C35.87272519848633,32.31534004211426,35.64259719848633,32.518770042114255,35.64259719848633,32.77001004211426C35.64259719848633,33.02190004211426,35.87272519848633,33.22472004211426,36.15461719848633,33.22472004211426L37.17397719848633,33.22472004211426L37.17397719848633,33.68004004211426L36.15461719848633,33.68004004211426C35.87272519848633,33.68004004211426,35.64259719848633,33.884680042114255,35.64259719848633,34.135310042114256C35.64259719848633,34.38720004211426,35.87272519848633,34.59062004211426,36.15461719848633,34.59062004211426L37.17397719848633,34.59062004211426L37.17397719848633,35.49756004211426C37.17465719848633,35.74824004211426,37.40412719848633,35.95167004211426,37.68673719848633,35.95167004211426Z" fill="#FAB85C" fill-opacity="1" style="mix-blend-mode:passthrough"/></g><g><path d="M11,11.25L40.1166,11.25Q40.178,11.25,40.2391,11.24398Q40.3002,11.23796,40.3604,11.22598Q40.4207,11.214,40.4794,11.19618Q40.5382,11.17835,40.5949,11.15485Q40.6517,11.13135,40.7058,11.1024Q40.76,11.07345,40.811,11.03934Q40.8621,11.00522,40.9096,10.966263Q40.957,10.927306,41.0005,10.883883Q41.0439,10.840461,41.0828,10.792992Q41.1218,10.745522,41.1559,10.694463Q41.19,10.643403,41.219,10.589246Q41.2479,10.535088,41.2714,10.478354Q41.2949,10.42162,41.3127,10.362856Q41.3306,10.304091,41.3426,10.243863Q41.3545,10.183634,41.3606,10.122521Q41.3666,10.0614086,41.3666,10Q41.3666,9.9385914,41.3606,9.877479Q41.3545,9.816366,41.3426,9.756137Q41.3306,9.695909,41.3127,9.637144Q41.2949,9.57838,41.2714,9.521646Q41.2479,9.464912,41.219,9.410754Q41.19,9.356597,41.1559,9.305537Q41.1218,9.254478,41.0828,9.207008Q41.0439,9.159539,41.0005,9.116117Q40.957,9.072694,40.9096,9.033737Q40.8621,8.99478,40.811,8.96066Q40.76,8.92655,40.7058,8.8976Q40.6517,8.86865,40.5949,8.84515Q40.5382,8.82165,40.4794,8.80382Q40.4207,8.786,40.3604,8.77402Q40.3002,8.76204,40.2391,8.75602Q40.178,8.75,40.1166,8.75L11,8.75Q8.82538,8.75,7.28769,10.287689Q5.75,11.82538,5.75,14L5.75,29.5455Q5.75,29.6069,5.7560199999999995,29.668Q5.76204,29.7291,5.77402,29.7893Q5.786,29.8495,5.80382,29.9083Q5.82165,29.9671,5.84515,30.0238Q5.86865,30.0805,5.8976,30.1347Q5.92655,30.1889,5.96066,30.2399Q5.99478,30.291,6.033737,30.3384Q6.072694,30.3859,6.116117,30.4293Q6.159539,30.4728,6.207008,30.5117Q6.254478,30.5507,6.305537,30.5848Q6.356597,30.6189,6.410754,30.6479Q6.464912,30.6768,6.521646,30.7003Q6.57838,30.7238,6.637144,30.7416Q6.695909,30.7595,6.756137,30.7714Q6.816366,30.7834,6.877479,30.7894Q6.9385914,30.7955,7,30.7955Q7.0614086,30.7955,7.122521,30.7894Q7.183634,30.7834,7.243863,30.7714Q7.304091,30.7595,7.362856,30.7416Q7.42162,30.7238,7.478354,30.7003Q7.535088,30.6768,7.589246,30.6479Q7.643403,30.6189,7.694463,30.5848Q7.745522,30.5507,7.792992,30.5117Q7.840461,30.4728,7.883883,30.4293Q7.927306,30.3859,7.966263,30.3384Q8.00522,30.291,8.03934,30.2399Q8.07345,30.1889,8.1024,30.1347Q8.13135,30.0805,8.15485,30.0238Q8.17835,29.9671,8.19618,29.9083Q8.214,29.8495,8.22598,29.7893Q8.23796,29.7291,8.24398,29.668Q8.25,29.6069,8.25,29.5455L8.25,14Q8.25,12.86091,9.05546,12.05546Q9.86091,11.25,11,11.25Z" fill-rule="evenodd" fill="#6967FE" fill-opacity="1"/></g></g></g><g><path d="M41.74998701591492,17.731180000000002L41.74998701591492,29.875Q41.74998701591492,29.9364,41.75598701591492,29.9975Q41.762087015914915,30.0586,41.77398701591491,30.1189Q41.78598701591491,30.1791,41.80378701591492,30.2379Q41.82168701591492,30.2966,41.84518701591492,30.3533Q41.868687015914915,30.4101,41.897587015914915,30.4642Q41.92658701591492,30.5184,41.960687015914914,30.5695Q41.994787015914916,30.6205,42.03378701591492,30.668Q42.072687015914916,30.7155,42.116087015914914,30.7589Q42.159587015914916,30.8023,42.20698701591492,30.8413Q42.25448701591492,30.8802,42.30548701591492,30.9143Q42.35658701591492,30.9485,42.41078701591492,30.9774Q42.46488701591492,31.0063,42.52168701591492,31.0298Q42.57838701591491,31.0533,42.63718701591492,31.0712Q42.69588701591492,31.089,42.756087015914915,31.101Q42.81638701591491,31.113,42.877487015914916,31.119Q42.93858701591492,31.125,42.99998701591492,31.125Q43.06138701591492,31.125,43.12248701591492,31.119Q43.18358701591492,31.113,43.243887015914915,31.101Q43.30408701591492,31.089,43.362887015914914,31.0712Q43.421587015914916,31.0533,43.47838701591492,31.0298Q43.53508701591492,31.0063,43.58928701591492,30.9774Q43.64338701591492,30.9485,43.694487015914916,30.9143Q43.74548701591492,30.8802,43.79298701591492,30.8413Q43.84048701591492,30.8023,43.883887015914915,30.7589Q43.927287015914914,30.7155,43.966287015914915,30.668Q44.00518701591492,30.6205,44.039287015914915,30.5695Q44.073487015914914,30.5184,44.102387015914914,30.4642Q44.13138701591492,30.4101,44.154887015914916,30.3533Q44.178387015914915,30.2966,44.196187015914916,30.2379Q44.21398701591492,30.1791,44.22598701591492,30.1189Q44.23798701591492,30.0586,44.24398701591492,29.9975Q44.24998701591492,29.9364,44.24998701591492,29.875L44.24998701591492,17.731180000000002Q44.24998701591492,15.55596,42.70938701591491,14.025402Q41.17408701591492,12.5,38.99998701591492,12.5L14.829787015914917,12.5Q12.655167015914916,12.5,11.117477015914917,14.03769Q9.579787015914917,15.57538,9.579787015914917,17.75L9.579787015914917,32.25Q9.579787015914917,34.4246,11.117476015914917,35.9623Q12.655167015914916,37.5,14.829787015914917,37.5L28.06378701591492,37.5Q28.125287015914918,37.5,28.186387015914917,37.494Q28.247487015914917,37.488,28.30768701591492,37.476Q28.367887015914917,37.464,28.42668701591492,37.446200000000005Q28.485487015914916,37.4283,28.542187015914916,37.4048Q28.59888701591492,37.381299999999996,28.653087015914917,37.3524Q28.70718701591492,37.323499999999996,28.758287015914917,37.2893Q28.80938701591492,37.2552,28.856787015914918,37.216300000000004Q28.904287015914917,37.1773,28.947687015914916,37.1339Q28.991187015914917,37.0905,29.030087015914916,37.043Q29.069087015914917,36.9955,29.103187015914916,36.944500000000005Q29.137287015914918,36.8934,29.166187015914918,36.839200000000005Q29.195187015914918,36.7851,29.218687015914917,36.728300000000004Q29.24218701591492,36.6716,29.259987015914916,36.612899999999996Q29.277787015914917,36.5541,29.289787015914918,36.4939Q29.30178701591492,36.4336,29.30778701591492,36.3725Q29.31378701591492,36.3114,29.31378701591492,36.25Q29.31378701591492,36.1886,29.30778701591492,36.1275Q29.30178701591492,36.0664,29.289787015914918,36.0061Q29.277787015914917,35.9459,29.259987015914916,35.887100000000004Q29.24218701591492,35.8284,29.218687015914917,35.7716Q29.195187015914918,35.7149,29.166187015914918,35.660799999999995Q29.137287015914918,35.6066,29.103187015914916,35.555499999999995Q29.069087015914917,35.5045,29.030087015914916,35.457Q28.991187015914917,35.4095,28.947687015914916,35.3661Q28.904287015914917,35.3227,28.856787015914918,35.283699999999996Q28.80938701591492,35.2448,28.758287015914917,35.2107Q28.70718701591492,35.176500000000004,28.653087015914917,35.1476Q28.59888701591492,35.1186,28.542187015914916,35.0951Q28.485487015914916,35.071600000000004,28.42668701591492,35.053799999999995Q28.367887015914917,35.036,28.30768701591492,35.024Q28.247487015914917,35.012,28.186387015914917,35.006Q28.125287015914918,35,28.06378701591492,35L28.061687015914917,35L14.829787015914917,35Q12.079787015914917,35,12.079787015914917,32.25L12.079787015914917,17.75Q12.079787015914917,15,14.829787015914917,15L38.99998701591492,15Q41.74998701591492,15,41.74998701591492,17.731180000000002Z" fill-rule="evenodd" fill="#6967FE" fill-opacity="1"/></g></g></g></svg>