<svg xmlns="http://www.w3.org/2000/svg" xmlns:xlink="http://www.w3.org/1999/xlink" fill="none" version="1.1" width="50" height="50" viewBox="0 0 50 50"><g><g><g><g><path d="M21.800800167480467,25.094266192779543C22.21841216748047,26.36579619277954,23.37811916748047,26.364636192779543,23.794579167480467,25.094266192779543C23.93107916748047,25.02278619277954,24.07220916748047,24.80718619277954,24.094769167480468,24.629936192779542C24.11906916748047,24.44513619277954,24.10517916748047,24.19641619277954,23.918939167480467,24.19641619277954C23.87786916748047,23.60074519277954,23.55279916748047,23.09515619277954,22.81301916748047,23.09515619277954C22.090003167480468,23.09515619277954,21.72155716748047,23.53333419277954,21.676440167480468,24.19641619277954C21.489614327480467,24.19641619277954,21.475732367480468,24.44513619277954,21.50002549748047,24.629936192779542C21.52374046748047,24.80718619277954,21.66429416748047,25.02278619277954,21.800800167480467,25.094266192779543Z" fill="#FAB85C" fill-opacity="1" style="mix-blend-mode:passthrough"/></g><g><path d="M24.480678663482667,32.38833960632324L24.480678663482667,31.944939606323242C24.964808663482664,31.944939606323242,25.357548663482667,31.55033960632324,25.357548663482667,31.063929606323242L25.357548663482667,31.033719606323242L28.767848663482667,27.60732960632324C28.860268663482664,27.51506960632324,28.860268663482664,27.364859606323243,28.767848663482667,27.272589606323244C28.676358663482667,27.17947960632324,28.526758663482667,27.17947960632324,28.435268663482667,27.272589606323244L25.358128663482667,30.363079606323243L25.358128663482667,27.445189606323243C25.358128663482667,26.810010606323242,24.897138663482664,26.26141660632324,24.252208663482666,26.12543020632324L23.781378663482666,26.027799606323242L22.799238663482665,27.99262960632324L21.817108663482667,26.027799606323242L21.346278663482664,26.12543020632324C20.701352663482666,26.260253606323243,20.240938663482666,26.810591606323243,20.240938663482666,27.445189606323243L20.240938663482666,31.065099606323244C20.240938663482666,31.551509606323243,20.633099663482668,31.946099606323244,21.117228663482667,31.946099606323244L21.117228663482667,32.390089606323244L24.481258663482667,32.390089606323244L24.481258663482667,32.388349606323246L24.480678663482667,32.38833960632324Z" fill="#FAB85C" fill-opacity="1" style="mix-blend-mode:passthrough"/></g><g><path d="M17.459884643554688,29.340278158569333C17.461159973554686,30.692428158569335,18.551494643554687,31.788428158569335,19.897304643554687,31.790328158569338L19.925644643554687,31.790328158569338C19.79159464355469,31.571928158569335,19.720514643554687,31.32052815856934,19.720314643554687,31.063928158569336L19.720314643554687,30.728628158569336C19.023494643554688,30.639528158569334,18.500654643554686,30.044848158569337,18.49870464355469,29.339118158569335L18.49870464355469,22.679288158569335C18.499664643554688,21.903528158569337,19.125184643554686,21.274798158569336,19.897304643554687,21.273518158569335L31.536684643554686,21.273518158569335C32.30918464355469,21.274158158569335,32.935384643554684,21.903078158569336,32.93638464355469,22.679288158569335L32.93638464355469,29.340278158569333C32.93548464355469,30.116588158569336,32.30928464355469,30.745628158569335,31.536684643554686,30.746628158569337L26.376064643554688,30.746628158569337L25.857234643554687,31.267928158569337C25.824854643554687,31.453328158569335,25.756244643554687,31.630528158569334,25.655374643554687,31.789228158569337L31.536684643554686,31.789228158569337C32.88268464355469,31.786928158569335,33.97328464355469,30.690928158569335,33.975184643554684,29.338538158569335L33.975184643554684,22.678698158569336C33.97358464355469,21.326228158569336,32.882784643554686,20.230228728569337,31.536684643554686,20.228628158569336L19.898454643554686,20.228628158569336C18.552424643554687,20.230229838569336,17.461738063554687,21.326318158569336,17.46046273555469,22.678698158569336L17.459884643554688,29.340278158569333ZM20.874814643554686,33.247828158569334L19.055714643554687,33.247828158569334C18.174456643554688,33.24752815856934,17.459884643554688,33.96522815856933,17.459884643554688,34.850628158569336L17.459884643554688,36.968328158569335L22.470064643554686,36.968328158569335L22.470064643554686,34.850628158569336C22.470704643554686,33.965128158569335,21.75611464355469,33.247228158569335,20.874814643554686,33.247828158569334ZM26.65543464355469,33.247828158569334L24.83634464355469,33.247828158569334C23.954944643554686,33.247228158569335,23.240184643554688,33.96502815856934,23.240504643554686,34.850628158569336L23.240504643554686,36.968328158569335L28.251284643554687,36.968328158569335L28.251284643554687,34.850628158569336C28.251284643554687,33.96522815856933,27.536684643554686,33.24752815856934,26.65543464355469,33.247828158569334ZM32.436684643554685,33.247828158569334L30.617584643554686,33.247828158569334C29.736084643554687,33.247228158569335,29.021184643554687,33.96502815856934,29.021184643554687,34.850628158569336L29.021184643554687,36.968328158569335L34.03018464355469,36.968328158569335L34.03018464355469,34.850628158569336C34.03208464355468,33.965328158569335,33.31778464355469,33.246828158569336,32.436684643554685,33.247828158569334Z" fill="#CACCFF" fill-opacity="1" style="mix-blend-mode:passthrough"/></g></g><g><path d="M9.931817770004272,23.813904762268066Q9.931817770004272,23.752496162268066,9.937837770004272,23.691383762268067Q9.943857770004273,23.630270762268065,9.955837770004273,23.570041762268065Q9.967817770004272,23.509813762268067,9.985637770004272,23.451048762268066Q10.003467770004272,23.392284762268066,10.026967770004273,23.335550762268067Q10.050467770004273,23.278816762268065,10.079417770004273,23.224658762268067Q10.108367770004273,23.170501762268067,10.142477770004273,23.119441762268067Q10.176597770004273,23.068382762268065,10.215554770004273,23.020912762268065Q10.254511770004273,22.973443762268065,10.297934770004272,22.930021762268066Q10.341356770004273,22.886598762268065,10.388825770004273,22.847641762268065Q10.436295770004273,22.808684762268065,10.487354770004272,22.774564762268067Q10.538414770004273,22.740454762268065,10.592571770004273,22.711504762268067Q10.646729770004272,22.682554762268065,10.703463770004273,22.659054762268067Q10.760197770004272,22.635554762268065,10.818961770004272,22.617724762268068Q10.877726770004273,22.599904762268068,10.937954770004273,22.587924762268067Q10.998183770004273,22.575944762268065,11.059296770004272,22.569924762268066Q11.120409170004272,22.563904762268066,11.181817770004272,22.563904762268066Q11.243226370004272,22.563904762268066,11.304338770004273,22.569924762268066Q11.365451770004272,22.575944762268065,11.425680770004272,22.587924762268067Q11.485908770004272,22.599904762268068,11.544673770004273,22.617724762268068Q11.603437770004273,22.635554762268065,11.660171770004272,22.659054762268067Q11.716905770004272,22.682554762268065,11.771063770004272,22.711504762268067Q11.825220770004272,22.740454762268065,11.876280770004273,22.774564762268067Q11.927339770004272,22.808684762268065,11.974809770004272,22.847641762268065Q12.022278770004272,22.886598762268065,12.065700770004273,22.930021762268066Q12.109123770004272,22.973443762268065,12.148080770004272,23.020912762268065Q12.187037770004272,23.068382762268065,12.221157770004272,23.119441762268067Q12.255267770004272,23.170501762268067,12.284217770004272,23.224658762268067Q12.313167770004272,23.278816762268065,12.336667770004272,23.335550762268067Q12.360167770004272,23.392284762268066,12.377997770004272,23.451048762268066Q12.395817770004273,23.509813762268067,12.407797770004272,23.570041762268065Q12.419777770004272,23.630270762268065,12.425797770004273,23.691383762268067Q12.431817770004272,23.752496162268066,12.431817770004272,23.813904762268066L12.431817770004272,36.00000476226806Q12.431817770004272,37.967504762268064,13.823057770004272,39.358804762268065Q15.214307770004272,40.75000476226806,17.181817770004272,40.75000476226806L33.02271777000428,40.75000476226806Q34.99021777000427,40.75000476226806,36.38151777000427,39.358804762268065Q37.77271777000428,37.967504762268064,37.77271777000428,36.00000476226806L37.77271777000428,23.813904762268066Q37.77271777000428,23.752496162268066,37.77871777000428,23.691383762268067Q37.784817770004274,23.630270762268065,37.79671777000427,23.570041762268065Q37.80871777000427,23.509813762268067,37.82651777000427,23.451048762268066Q37.84441777000427,23.392284762268066,37.86791777000427,23.335550762268067Q37.89141777000427,23.278816762268065,37.920317770004274,23.224658762268067Q37.94931777000427,23.170501762268067,37.98341777000427,23.119441762268067Q38.017517770004275,23.068382762268065,38.05641777000427,23.020912762268065Q38.095417770004275,22.973443762268065,38.13881777000427,22.930021762268066Q38.18221777000427,22.886598762268065,38.22971777000427,22.847641762268065Q38.27721777000427,22.808684762268065,38.32821777000427,22.774564762268067Q38.37931777000428,22.740454762268065,38.43351777000427,22.711504762268067Q38.48761777000428,22.682554762268065,38.54431777000427,22.659054762268067Q38.60111777000427,22.635554762268065,38.65991777000427,22.617724762268068Q38.71861777000427,22.599904762268068,38.778817770004274,22.587924762268067Q38.83911777000427,22.575944762268065,38.900217770004275,22.569924762268066Q38.96131777000427,22.563904762268066,39.02271777000428,22.563904762268066Q39.08411777000427,22.563904762268066,39.14521777000427,22.569924762268066Q39.206317770004276,22.575944762268065,39.266617770004274,22.587924762268067Q39.32681777000427,22.599904762268068,39.38561777000427,22.617724762268068Q39.444317770004275,22.635554762268065,39.50111777000427,22.659054762268067Q39.55781777000428,22.682554762268065,39.61201777000427,22.711504762268067Q39.66611777000428,22.740454762268065,39.71721777000427,22.774564762268067Q39.76821777000427,22.808684762268065,39.81571777000427,22.847641762268065Q39.86321777000427,22.886598762268065,39.906617770004274,22.930021762268066Q39.95001777000427,22.973443762268065,39.989017770004274,23.020912762268065Q40.02791777000427,23.068382762268065,40.062017770004275,23.119441762268067Q40.09621777000427,23.170501762268067,40.12511777000427,23.224658762268067Q40.15411777000428,23.278816762268065,40.177617770004275,23.335550762268067Q40.201117770004274,23.392284762268066,40.21891777000427,23.451048762268066Q40.236717770004276,23.509813762268067,40.248717770004276,23.570041762268065Q40.26071777000428,23.630270762268065,40.26671777000428,23.691383762268067Q40.27271777000428,23.752496162268066,40.27271777000428,23.813904762268066L40.27271777000428,36.00000476226806Q40.27271777000428,39.00300476226806,38.14921777000427,41.12650476226807Q36.025817770004274,43.25000476226806,33.02271777000428,43.25000476226806L17.181817770004272,43.25000476226806Q14.178767770004272,43.25000476226806,12.055293770004273,41.12650476226807Q9.931817770004272,39.00300476226806,9.931817770004272,36.00000476226806L9.931817770004272,23.813904762268066Z" fill-rule="evenodd" fill="#6967FE" fill-opacity="1"/></g><g><path d="M42.2208,23.21L42.222,23.211Q42.3879,23.3429,42.588,23.4127Q42.7881,23.482599999999998,43,23.482599999999998Q43.0614,23.482599999999998,43.1225,23.476599999999998Q43.1836,23.470599999999997,43.2439,23.4586Q43.3041,23.4466,43.3629,23.428800000000003Q43.4216,23.410899999999998,43.4783,23.3874Q43.5351,23.3639,43.5892,23.335Q43.6434,23.3061,43.6945,23.271900000000002Q43.7455,23.2378,43.793,23.198900000000002Q43.8405,23.1599,43.8839,23.116500000000002Q43.9273,23.0731,43.9663,23.0256Q44.0052,22.978099999999998,44.0393,22.9271Q44.0735,22.875999999999998,44.1024,22.8218Q44.1314,22.767699999999998,44.1548,22.710900000000002Q44.1783,22.6542,44.1962,22.5955Q44.214,22.5367,44.226,22.4765Q44.238,22.4162,44.244,22.3551Q44.25,22.294,44.25,22.232599999999998Q44.25,22.0915,44.2186,21.954Q44.1871,21.816499999999998,44.1258,21.689500000000002Q44.0645,21.5624,43.9765,21.452199999999998Q43.8884,21.342,43.778,21.2542L43.7768,21.2533L27.7905,8.54071Q26.6083,7.600605,25.098,7.617411Q23.587699999999998,7.634217,22.4267,8.600395L7.201357,21.271L7.200409,21.2718Q7.09469,21.3598,7.01063,21.468600000000002Q6.92657,21.5775,6.86819,21.701999999999998Q6.80981,21.8266,6.77991,21.9608Q6.75,22.095100000000002,6.75,22.232599999999998Q6.75,22.294,6.7560199999999995,22.3551Q6.76204,22.4162,6.77402,22.4765Q6.786,22.5367,6.80382,22.5955Q6.82165,22.6542,6.84515,22.710900000000002Q6.86865,22.767699999999998,6.8976,22.8218Q6.92655,22.875999999999998,6.96066,22.9271Q6.99478,22.978099999999998,7.033737,23.0256Q7.072694,23.0731,7.116117,23.116500000000002Q7.159539,23.1599,7.207008,23.198900000000002Q7.254478,23.2378,7.305537,23.271900000000002Q7.356597,23.3061,7.410754,23.335Q7.464912,23.3639,7.521646,23.3874Q7.57838,23.410899999999998,7.637144,23.428800000000003Q7.695909,23.4466,7.756137,23.4586Q7.816366,23.470599999999997,7.877479,23.476599999999998Q7.9385914,23.482599999999998,8,23.482599999999998Q8.219101,23.482599999999998,8.42514,23.408099999999997Q8.631179,23.3336,8.79959,23.1934L24.0259,10.52202Q24.5039,10.124179999999999,25.1258,10.11726Q25.7477,10.11034,26.2345,10.497440000000001L42.2208,23.21Z" fill-rule="evenodd" fill="#6967FE" fill-opacity="1"/></g></g></g></svg>