<svg xmlns="http://www.w3.org/2000/svg" xmlns:xlink="http://www.w3.org/1999/xlink" fill="none" version="1.1" width="50" height="50" viewBox="0 0 50 50"><path d="M21.80079987748047,25.094267092779543C22.21841168748047,26.365795392779543,23.37812216748047,26.36463329277954,23.79457806748047,25.094267092779543C23.93108276748047,25.022786892779543,24.072214167480467,24.80718589277954,24.09477206748047,24.62993879277954C24.11906506748047,24.44513659277954,24.105183367480468,24.19641149277954,23.91893506748047,24.19641149277954C23.877868367480467,23.600744902779542,23.552802067480467,23.09515619277954,22.81301546748047,23.09515619277954C22.090003547480467,23.09515619277954,21.72155713748047,23.53333455277954,21.676440627480467,24.19641149277954C21.489614331480468,24.19641149277954,21.475732404480468,24.44513889277954,21.50002550058047,24.62993879277954C21.523740503480468,24.80718589277954,21.66429406748047,25.022786892779543,21.80079987748047,25.094267092779543Z" fill="#FFCE8A" fill-opacity="1" style="mix-blend-mode:passthrough"/><path d="M24.480680463482667,32.38834430632324L24.480680463482667,31.944935806323244C24.964808963482668,31.944935806323244,25.357549163482666,31.55034260632324,25.357549163482666,31.06393290632324L25.357549163482666,31.033714806323243L28.767850363482665,27.60732960632324C28.860267163482668,27.515068306323244,28.860267163482668,27.364855906323243,28.767850363482665,27.272594606323242C28.676355863482666,27.179481906323243,28.526757763482664,27.179481906323243,28.435265063482667,27.272594606323242L25.358126663482665,30.363082406323244L25.358126663482665,27.44519280632324C25.358126663482665,26.81001067632324,24.897133863482665,26.261417026323244,24.252207263482667,26.125430241323244L23.781382063482667,26.027799606323242L22.799242963482666,27.992624806323242L21.817103763482667,26.027799606323242L21.346278863482667,26.125430241323244C20.701352323482666,26.260253176323243,20.240938663482666,26.81059145632324,20.240938663482666,27.44519280632324L20.240938663482666,31.065095906323243C20.240938663482666,31.551509906323243,20.633100033482666,31.946099806323243,21.117228743482666,31.946099806323243L21.117228743482666,32.39008860632324L24.481258363482667,32.39008860632324L24.481258363482667,32.38834620632324L24.480680463482667,32.38834430632324Z" fill="#FFCE8A" fill-opacity="1" style="mix-blend-mode:passthrough"/><path d="M17.459884643554688,29.340278658569336C17.461159976054688,30.692432158569336,18.55149634355469,31.788431158569338,19.897303143554687,31.790354158569336L19.925644843554686,31.790354158569336C19.79159924355469,31.571972158569338,19.720515043554688,31.320496158569334,19.72030994355469,31.063930158569335L19.72030994355469,30.728616158569338C19.023498543554688,30.639561158569336,18.500649643554688,30.044852258569335,18.498709043554687,29.339117958569336L18.498709043554687,22.679285558569337C18.499664543554687,21.903524158569336,19.125183243554687,21.274795458569336,19.897303143554687,21.273514158569334L31.536639643554686,21.273514158569334C32.30921164355469,21.274156958569336,32.935434643554686,21.903073358569337,32.936388643554686,22.679285558569337L32.936388643554686,29.340278658569336C32.935437643554685,30.116587658569337,32.30930664355469,30.745671158569337,31.536639643554686,30.746630158569335L26.37606814355469,30.746630158569335L25.857234943554687,31.267910158569336C25.824853943554686,31.453355158569337,25.756247543554686,31.630521158569337,25.655370743554688,31.789187158569334L31.536639643554686,31.789187158569334C32.88272964355469,31.786950158569336,33.973304643554684,30.690971158569337,33.97521364355469,29.338534358569333L33.97521364355469,22.678702158569337C33.97362164355469,21.326226758569337,32.88276564355469,20.230228733169337,31.536639643554686,20.228628158569336L19.898458943554687,20.228628158569336C18.552426443554687,20.230229841769336,17.461738067654686,21.326320858569336,17.460462735444686,22.678702158569337L17.459884643554688,29.340278658569336ZM20.874815743554688,33.24784515856933L19.05571724355469,33.24784515856933C18.174456893554687,33.24752315856934,17.459884643554688,33.96520515856933,17.459884643554688,34.850620158569335L17.459884643554688,36.96828415856933L22.47006794355469,36.96828415856933L22.47006794355469,34.850620158569335C22.47070784355469,33.96516615856933,21.756113543554687,33.247203158569334,20.874815743554688,33.24784515856933ZM26.65543934355469,33.24784515856933L24.83634094355469,33.24784515856933C23.954948943554687,33.247203158569334,23.24018864355469,33.96507415856934,23.24050854355469,34.850620158569335L23.24050854355469,36.96828415856933L28.251270643554687,36.96828415856933L28.251270643554687,34.850620158569335C28.251270643554687,33.96520515856933,27.536699643554687,33.24752315856934,26.65543934355469,33.24784515856933ZM32.436644643554686,33.24784515856933L30.617545643554685,33.24784515856933C29.73605964355469,33.24720415856933,29.021135643554686,33.964979158569335,29.021137643554688,34.850620158569335L29.021137643554688,36.96828415856933L34.03016264355469,36.96828415856933L34.03016264355469,34.850620158569335C34.032089643554684,33.965314158569335,33.317796643554686,33.24687715856933,32.436644643554686,33.24784515856933Z" fill="#7B7FE5" fill-opacity="1" style="mix-blend-mode:passthrough"/><path d="M9.932067770004272,23.813904762268066Q9.932067770004272,23.752508484268066,9.938085570004272,23.691407842268067Q9.944103470004272,23.630307212268065,9.956081370004272,23.570090662268065Q9.968059170004272,23.509874072268065,9.985881570004272,23.451121512268067Q10.003704070004272,23.392368942268067,10.027199370004272,23.335646212268067Q10.050694670004273,23.278923452268067,10.079636770004273,23.224776742268066Q10.108578770004272,23.170630102268067,10.142688770004273,23.119580982268065Q10.176798570004273,23.068531752268065,10.215748010004273,23.021071792268067Q10.254697380004272,22.973611832268066,10.298111140004272,22.930198132268067Q10.341524840004272,22.886784372268068,10.388984800004273,22.847835002268067Q10.436444760004273,22.808885562268067,10.487493930004273,22.774775762268067Q10.538543050004272,22.740665762268065,10.592689750004272,22.711723762268065Q10.646836460004273,22.682781862268065,10.703559220004273,22.659286462268067Q10.760281950004272,22.635791062268066,10.819034520004273,22.617968662268066Q10.877787080004273,22.600146262268066,10.938003670004273,22.588168362268068Q10.998220220004272,22.576190462268066,11.059320850004273,22.570172662268067Q11.120421492004272,22.564154762268068,11.181817770004272,22.564154762268068Q11.243214048004273,22.564154762268068,11.304314690004272,22.570172562268066Q11.365415320004272,22.576190462268066,11.425631870004272,22.588168362268068Q11.485848460004272,22.600146162268068,11.544601020004272,22.617968562268068Q11.603353590004273,22.635791062268066,11.660076320004272,22.659286362268066Q11.716799080004272,22.682781662268066,11.770945790004273,22.711723762268065Q11.825092430004272,22.740665762268065,11.876141550004272,22.774775762268067Q11.927190780004272,22.808885562268067,11.974650740004272,22.847835002268067Q12.022110700004273,22.886784372268068,12.065524400004273,22.930198132268067Q12.108938160004273,22.973611832268066,12.147887530004272,23.021071792268067Q12.186836970004272,23.068531752268065,12.220946770004272,23.119580922268067Q12.255056770004273,23.170630042268066,12.283998770004272,23.224776742268066Q12.312940670004272,23.278923452268067,12.336436070004272,23.335646212268067Q12.359931470004273,23.392368942268067,12.377753870004273,23.451121512268067Q12.395576270004273,23.509874072268065,12.407554170004273,23.570090662268065Q12.419532070004273,23.630307212268065,12.425549870004271,23.691407842268067Q12.431567770004273,23.752508484268066,12.431567770004273,23.813904762268066L12.431817770004272,23.813904762268066L12.431817770004272,35.999997762268066Q12.431817670004273,37.96751376226807,13.823060770004272,39.35875776226807Q15.214303270004272,40.74999876226806,17.181818770004273,40.74999876226806L33.022723770004276,40.74999876226806Q34.990241770004275,40.74999876226806,36.38148277000427,39.35875776226807Q37.77272777000427,37.96751376226807,37.77272777000427,35.99999876226806L37.77272777000427,23.813904762268066L37.77297577000427,23.813904762268066Q37.772977770004275,23.752508484268066,37.77899377000428,23.691407842268067Q37.78501077000428,23.630307212268065,37.79698777000427,23.570090662268065Q37.80896577000427,23.509874072268065,37.82678977000427,23.451121512268067Q37.84460977000427,23.392368942268067,37.86810477000427,23.335646212268067Q37.89160177000427,23.278923452268067,37.92054377000427,23.224776742268066Q37.94948377000427,23.170630102268067,37.98359277000427,23.119580982268065Q38.01770577000427,23.068531752268065,38.05665577000427,23.021071792268067Q38.09560577000427,22.973611832268066,38.139016770004275,22.930198132268067Q38.18243177000427,22.886784372268068,38.229890770004275,22.847835002268067Q38.277350770004276,22.808885562268067,38.32839777000427,22.774775762268067Q38.37944977000427,22.740665762268065,38.433595770004274,22.711723762268065Q38.48774077000427,22.682781862268065,38.544461770004276,22.659286462268067Q38.601186770004276,22.635791062268066,38.65994077000427,22.617968662268066Q38.71869477000428,22.600146262268066,38.778909770004276,22.588168362268068Q38.83912777000427,22.576190462268066,38.90022977000427,22.570172662268067Q38.96132977000427,22.564154762268068,39.02272577000427,22.564154762268068Q39.08412377000427,22.564154762268068,39.14522377000427,22.570172562268066Q39.206323770004275,22.576190462268066,39.266538770004274,22.588168362268068Q39.32675677000427,22.600146162268068,39.385507770004274,22.617968562268068Q39.444261770004275,22.635791062268066,39.50098177000427,22.659286362268066Q39.55770677000427,22.682781662268066,39.61185477000427,22.711723762268065Q39.66600177000427,22.740665762268065,39.71704877000427,22.774775762268067Q39.76809877000427,22.808885562268067,39.81555877000427,22.847835002268067Q39.86301977000427,22.886784372268068,39.90643077000428,22.930198132268067Q39.94984577000427,22.973611832268066,39.98879377000427,23.021071792268067Q40.02774177000427,23.068531752268065,40.06185077000427,23.119580922268067Q40.09596277000428,23.170630042268066,40.12490477000427,23.224776742268066Q40.15384677000427,23.278923452268067,40.17734077000427,23.335646212268067Q40.20083777000427,23.392368942268067,40.218661770004275,23.451121512268067Q40.23648477000427,23.509874072268065,40.24846077000427,23.570090662268065Q40.26043877000427,23.630307212268065,40.26645877000428,23.691407842268067Q40.27247777000427,23.752508484268066,40.27247577000428,23.813904762268066L40.27272777000427,23.813904762268066L40.27272777000427,35.99999876226806Q40.27272777000427,39.00304776226807,38.149249770004275,41.12652276226807Q36.02577177000427,43.24999876226806,33.022723770004276,43.24999876226806L17.181818770004273,43.24999876226806Q14.178770270004271,43.24999876226806,12.055293740004272,41.12652276226807Q9.931817870004272,39.00304676226807,9.931817770004272,35.999997762268066L9.931817770004272,23.813904762268066L9.932067770004272,23.813904762268066Z" fill-rule="evenodd" fill="#6967FE" fill-opacity="1"/><path d="M26.23452,10.4974382L42.221989,23.21096L42.222145,23.210765000000002Q42.387993,23.342651,42.588051,23.412498Q42.788101,23.482346,43,23.482347Q43.061398,23.482347,43.122498,23.476329Q43.183598,23.470309999999998,43.243813,23.458332Q43.304031,23.446355,43.362782,23.428533Q43.421535,23.410709,43.478256,23.387213Q43.534981,23.363718,43.58913,23.334777000000003Q43.643272,23.305836,43.694321,23.271725Q43.745373,23.237616,43.792831,23.198667Q43.840294,23.159717999999998,43.883705,23.116301999999997Q43.92712,23.072889,43.966072,23.025429000000003Q44.00502,22.977969,44.039124,22.926918999999998Q44.073235,22.875871,44.10218,22.821724Q44.131119,22.767577,44.154613,22.710853999999998Q44.178112,22.654131,44.195934,22.595379Q44.213757,22.536627,44.225731,22.476409Q44.237713,22.416193,44.243732,22.355093Q44.249748,22.293993,44.249748,22.232596Q44.249748,22.091563999999998,44.218315,21.954079999999998Q44.186886,21.816595,44.12561,21.689573Q44.064331,21.56255,43.976284,21.452378Q43.888237,21.342207000000002,43.777855,21.254428L43.778011,21.254232000000002L27.790546,8.54071039Q26.608345,7.60060537,25.098015,7.61741126Q23.587684,7.63421717,22.426696,8.60039473L7.20040947,21.271788L7.20056897,21.271979Q7.09487092,21.359941,7.01082742,21.468781999999997Q6.9267838,21.577621,6.8684162,21.702131Q6.8100483,21.826641000000002,6.7801492,21.960863Q6.75025,22.095084999999997,6.75025,22.232596Q6.75025,22.293993,6.7562678,22.355094Q6.7622857,22.416194,6.7742636,22.47641Q6.7862414,22.536627,6.8040638,22.595379Q6.8218863,22.654131,6.8453816,22.710853999999998Q6.8688769,22.767577,6.897819,22.821724Q6.926761,22.875871,6.960871,22.926918999999998Q6.9949808,22.977969,7.03393024,23.02543Q7.07287961,23.072889,7.11629337,23.116301999999997Q7.15970707,23.159717999999998,7.20716703,23.198667Q7.25462699,23.237616,7.30567616,23.271725Q7.35672528,23.305836,7.41087198,23.334777000000003Q7.46501869,23.363719,7.52174145,23.387214Q7.57846418,23.41071,7.63721675,23.428533Q7.69596931,23.446356,7.7561859,23.458332Q7.81640245,23.470309999999998,7.87750308,23.476329Q7.938603722,23.482347,8,23.482347Q8.21905702,23.482347,8.42505497,23.407843Q8.63105291,23.333339000000002,8.79943061,23.193213L8.79959053,23.193406L24.025875,10.5220151Q24.503929,10.1241765,25.125832,10.1172564Q25.747734,10.1103363,26.23452,10.4974382Z" fill-rule="evenodd" fill="#6967FE" fill-opacity="1"/></svg>