<svg xmlns="http://www.w3.org/2000/svg" xmlns:xlink="http://www.w3.org/1999/xlink" fill="none" version="1.1" width="50" height="50" viewBox="0 0 50 50"><g><g><g><rect x="8" y="12.108108043670654" width="33" height="6.486485958099365" rx="0" fill="#CACCFF" fill-opacity="1"/></g><g><path d="M39.058800000000005,39.999964826202394L9.94118,39.999964826202394C8.776471,39.999964826202394,8,39.31896482620239,8,38.05406482620239L8,12.756754826202393C8,11.881084826202393,8.679412,10.810814826202392,9.94118,10.810814826202392L14.79412,10.810814826202392L14.79412,8.864864826202393L16.735300000000002,8.864864826202393L16.735300000000002,10.810814826202392L32.264700000000005,10.810814826202392L32.264700000000005,8.864864826202393L34.2059,8.864864826202393L34.2059,10.810814826202392L39.058800000000005,10.810814826202392C40.3206,10.810814826202392,41,11.589184826202393,41,12.756754826202393L41,38.05406482620239C41,39.31896482620239,40.4176,39.999964826202394,39.058800000000005,39.999964826202394ZM39.058800000000005,12.756754826202393L34.2059,12.756754826202393L34.2059,15.675674826202393L32.264700000000005,15.675674826202393L32.264700000000005,12.756754826202393L16.735300000000002,12.756754826202393L16.735300000000002,15.675674826202393L14.79412,15.675674826202393L14.79412,12.756754826202393L9.94118,12.756754826202393L9.94118,17.621624826202392L39.058800000000005,17.621624826202392L39.058800000000005,12.756754826202393ZM39.058800000000005,19.567564826202393L9.94118,19.567564826202393L9.94118,38.05406482620239L39.058800000000005,38.05406482620239L39.058800000000005,19.567564826202393Z" fill="#6967FE" fill-opacity="1" style="mix-blend-mode:passthrough"/></g><g><path d="M14.147058486938477,28.54729652404785L35.17645848693847,28.54729652404785Q35.25035848693848,28.54729652404785,35.322758486938476,28.56170752404785Q35.395258486938474,28.576118524047853,35.46345848693848,28.60438652404785Q35.53175848693847,28.632655524047852,35.59315848693848,28.673694524047853Q35.65455848693848,28.71473352404785,35.706758486938476,28.766966524047852Q35.75905848693847,28.819199524047853,35.800058486938475,28.88061852404785Q35.841158486938475,28.942038524047852,35.86935848693848,29.01028352404785Q35.897658486938475,29.078529524047852,35.91205848693848,29.15097852404785Q35.92645848693847,29.223428024047852,35.92645848693847,29.29729652404785Q35.92645848693847,29.37116502404785,35.91205848693848,29.443614524047852Q35.897658486938475,29.51606352404785,35.86935848693848,29.584309524047853Q35.841158486938475,29.65255452404785,35.800058486938475,29.713974524047853Q35.75905848693847,29.77539352404785,35.706758486938476,29.82762652404785Q35.65455848693848,29.879859524047852,35.59315848693848,29.92089852404785Q35.53175848693847,29.96193752404785,35.46345848693848,29.990206524047853Q35.395258486938474,30.01847452404785,35.322758486938476,30.032885524047852Q35.25035848693848,30.04729652404785,35.17645848693847,30.04729652404785L14.147058486938477,30.04729652404785Q14.073189986938477,30.04729652404785,14.000740486938476,30.032885524047852Q13.928291486938477,30.01847452404785,13.860045486938477,29.990206524047853Q13.791800486938477,29.96193752404785,13.730380486938477,29.92089852404785Q13.668961486938477,29.879859524047852,13.616728486938477,29.82762652404785Q13.564495486938476,29.77539352404785,13.523456486938477,29.713974524047853Q13.482417486938477,29.65255452404785,13.454148486938477,29.584309524047853Q13.425880486938476,29.51606352404785,13.411469486938476,29.443614524047852Q13.397058486938477,29.37116502404785,13.397058486938477,29.29729652404785Q13.397058486938477,29.223428024047852,13.411469486938476,29.15097852404785Q13.425880486938476,29.078529524047852,13.454148486938477,29.01028352404785Q13.482417486938477,28.942038524047852,13.523456486938477,28.88061852404785Q13.564495486938476,28.819199524047853,13.616728486938477,28.766966524047852Q13.668961486938477,28.71473352404785,13.730380486938477,28.673694524047853Q13.791800486938477,28.632655524047852,13.860045486938477,28.60438652404785Q13.928291486938477,28.576118524047853,14.000740486938476,28.56170752404785Q14.073189986938477,28.54729652404785,14.147058486938477,28.54729652404785Z" fill-rule="evenodd" fill="#6967FE" fill-opacity="1"/></g><g><path d="M18.897058486938477,23.459458351135254Q18.897058486938477,23.385589851135254,18.911469486938476,23.313140351135253Q18.92588048693848,23.240691351135254,18.954148486938475,23.172445351135252Q18.982417486938477,23.104200351135255,19.02345648693848,23.042780351135253Q19.064495486938476,22.981361351135256,19.116728486938477,22.929128351135255Q19.16896148693848,22.876895351135254,19.230380486938476,22.835856351135256Q19.291800486938477,22.794817351135254,19.360045486938475,22.766548351135253Q19.428291486938477,22.738280351135256,19.500740486938476,22.723869351135253Q19.573189986938477,22.709458351135254,19.647058486938477,22.709458351135254Q19.720926986938476,22.709458351135254,19.793376486938477,22.723869351135253Q19.865825486938476,22.738280351135256,19.93407148693848,22.766548351135253Q20.002316486938476,22.794817351135254,20.063736486938478,22.835856351135256Q20.125155486938475,22.876895351135254,20.177388486938476,22.929128351135255Q20.229621486938477,22.981361351135256,20.270660486938475,23.042780351135253Q20.311699486938476,23.104200351135255,20.339968486938478,23.172445351135252Q20.368236486938475,23.240691351135254,20.382647486938477,23.313140351135253Q20.397058486938477,23.385589851135254,20.397058486938477,23.459458351135254L20.397058486938477,35.459458351135254Q20.397058486938477,35.533358351135256,20.382647486938477,35.60575835113525Q20.368236486938475,35.678258351135256,20.339968486938478,35.74645835113525Q20.311699486938476,35.814758351135254,20.270660486938475,35.87615835113525Q20.229621486938477,35.93755835113525,20.177388486938476,35.98975835113525Q20.125155486938475,36.04205835113525,20.063736486938478,36.08305835113525Q20.002316486938476,36.124058351135254,19.93407148693848,36.152358351135256Q19.865825486938476,36.18065835113525,19.793376486938477,36.19505835113525Q19.720926986938476,36.209458351135254,19.647058486938477,36.209458351135254Q19.573189986938477,36.209458351135254,19.500740486938476,36.19505835113525Q19.428291486938477,36.18065835113525,19.360045486938475,36.152358351135256Q19.291800486938477,36.124058351135254,19.230380486938476,36.08305835113525Q19.16896148693848,36.04205835113525,19.116728486938477,35.98975835113525Q19.064495486938476,35.93755835113525,19.02345648693848,35.87615835113525Q18.982417486938477,35.814758351135254,18.954148486938475,35.74645835113525Q18.92588048693848,35.678258351135256,18.911469486938476,35.60575835113525Q18.897058486938477,35.533358351135256,18.897058486938477,35.459458351135254L18.897058486938477,23.459458351135254Z" fill-rule="evenodd" fill="#6967FE" fill-opacity="1"/></g><g><rect x="24.823530197143555" y="29.621618270874023" width="5.176470756530762" height="5.8378376960754395" rx="0" fill="#FAB85C" fill-opacity="1"/></g><g><g><path d="M13.073529243469238,25.135133743286133L13.073529243469238,33.459433743286134Q13.073529243469238,34.59853374328613,13.878985743469238,35.404033743286135Q14.684442243469238,36.209433743286134,15.823529243469238,36.209433743286134L33.176429243469244,36.209433743286134Q34.31552924346924,36.209433743286134,35.12102924346924,35.404033743286135Q35.926429243469244,34.59853374328613,35.926429243469244,33.459433743286134L35.926429243469244,25.135133743286133Q35.926429243469244,23.996044743286134,35.12102924346924,23.19059024328613Q34.31552924346924,22.385133743286133,33.176429243469244,22.385133743286133L15.823529243469238,22.385133743286133Q14.684442243469238,22.385133743286133,13.878985643469239,23.190590143286133Q13.073529243469238,23.996046743286133,13.073529243469238,25.135133743286133ZM14.939649243469239,34.34333374328613Q14.573529243469238,33.977233743286135,14.573529243469238,33.459433743286134L14.573529243469238,25.135133743286133Q14.573529243469238,24.617363743286134,14.939649243469239,24.25125374328613Q15.305759243469238,23.885133743286133,15.823529243469238,23.885133743286133L33.176429243469244,23.885133743286133Q33.69422924346924,23.885133743286133,34.06032924346924,24.25125374328613Q34.426429243469244,24.617363743286134,34.426429243469244,25.135133743286133L34.426429243469244,33.459433743286134Q34.426429243469244,33.977233743286135,34.06032924346924,34.34333374328613Q33.69422924346924,34.709433743286134,33.176429243469244,34.709433743286134L15.823529243469238,34.709433743286134Q15.305759243469238,34.709433743286134,14.939649243469239,34.34333374328613Z" fill-rule="evenodd" fill="#6967FE" fill-opacity="1"/></g></g><g><path d="M24.073530197143555,23.135133743286133Q24.073530197143555,23.061265243286133,24.087941197143554,22.988815743286132Q24.102352197143556,22.916366743286133,24.130620197143553,22.84812074328613Q24.158889197143555,22.779875743286134,24.199928197143556,22.718455743286132Q24.240967197143554,22.657036743286135,24.293200197143555,22.604803743286134Q24.345433197143556,22.552570743286132,24.406852197143554,22.511531743286135Q24.468272197143556,22.470492743286133,24.536517197143553,22.44222374328613Q24.604763197143555,22.413955743286134,24.677212197143554,22.399544743286132Q24.749661697143555,22.385133743286133,24.823530197143555,22.385133743286133Q24.897398697143554,22.385133743286133,24.969848197143556,22.399544743286132Q25.042297197143554,22.413955743286134,25.110543197143556,22.44222374328613Q25.178788197143554,22.470492743286133,25.240208197143556,22.511531743286135Q25.301627197143553,22.552570743286132,25.353860197143554,22.604803743286134Q25.406093197143555,22.657036743286135,25.447132197143553,22.718455743286132Q25.488171197143554,22.779875743286134,25.516440197143556,22.84812074328613Q25.544708197143553,22.916366743286133,25.559119197143556,22.988815743286132Q25.573530197143555,23.061265243286133,25.573530197143555,23.135133743286133L25.573530197143555,35.13513374328613Q25.573530197143555,35.209033743286135,25.559119197143556,35.28143374328613Q25.544708197143553,35.353933743286134,25.516440197143556,35.42213374328613Q25.488171197143554,35.49043374328613,25.447132197143553,35.55183374328613Q25.406093197143555,35.61323374328613,25.353860197143554,35.66543374328613Q25.301627197143553,35.71773374328613,25.240208197143556,35.75873374328613Q25.178788197143554,35.79973374328613,25.110543197143556,35.828033743286134Q25.042297197143554,35.85633374328613,24.969848197143556,35.87073374328613Q24.897398697143554,35.88513374328613,24.823530197143555,35.88513374328613Q24.749661697143555,35.88513374328613,24.677212197143554,35.87073374328613Q24.604763197143555,35.85633374328613,24.536517197143553,35.828033743286134Q24.468272197143556,35.79973374328613,24.406852197143554,35.75873374328613Q24.345433197143556,35.71773374328613,24.293200197143555,35.66543374328613Q24.240967197143554,35.61323374328613,24.199928197143556,35.55183374328613Q24.158889197143555,35.49043374328613,24.130620197143553,35.42213374328613Q24.102352197143556,35.353933743286134,24.087941197143554,35.28143374328613Q24.073530197143555,35.209033743286135,24.073530197143555,35.13513374328613L24.073530197143555,23.135133743286133Z" fill-rule="evenodd" fill="#6967FE" fill-opacity="1"/></g><g><path d="M29.25,23.135133743286133Q29.25,23.061265243286133,29.264411,22.988815743286132Q29.278822,22.916366743286133,29.30709,22.84812074328613Q29.335359,22.779875743286134,29.376398000000002,22.718455743286132Q29.417437,22.657036743286135,29.46967,22.604803743286134Q29.521903000000002,22.552570743286132,29.583322,22.511531743286135Q29.644742,22.470492743286133,29.712987,22.44222374328613Q29.781233,22.413955743286134,29.853682,22.399544743286132Q29.9261315,22.385133743286133,30,22.385133743286133Q30.0738685,22.385133743286133,30.146318,22.399544743286132Q30.218767,22.413955743286134,30.287013,22.44222374328613Q30.355258,22.470492743286133,30.416678,22.511531743286135Q30.478096999999998,22.552570743286132,30.53033,22.604803743286134Q30.582563,22.657036743286135,30.623601999999998,22.718455743286132Q30.664641,22.779875743286134,30.69291,22.84812074328613Q30.721178,22.916366743286133,30.735589,22.988815743286132Q30.75,23.061265243286133,30.75,23.135133743286133L30.75,35.13513374328613Q30.75,35.209033743286135,30.735589,35.28143374328613Q30.721178,35.353933743286134,30.69291,35.42213374328613Q30.664641,35.49043374328613,30.623601999999998,35.55183374328613Q30.582563,35.61323374328613,30.53033,35.66543374328613Q30.478096999999998,35.71773374328613,30.416678,35.75873374328613Q30.355258,35.79973374328613,30.287013,35.828033743286134Q30.218767,35.85633374328613,30.146318,35.87073374328613Q30.0738685,35.88513374328613,30,35.88513374328613Q29.9261315,35.88513374328613,29.853682,35.87073374328613Q29.781233,35.85633374328613,29.712987,35.828033743286134Q29.644742,35.79973374328613,29.583322,35.75873374328613Q29.521903000000002,35.71773374328613,29.46967,35.66543374328613Q29.417437,35.61323374328613,29.376398000000002,35.55183374328613Q29.335359,35.49043374328613,29.30709,35.42213374328613Q29.278822,35.353933743286134,29.264411,35.28143374328613Q29.25,35.209033743286135,29.25,35.13513374328613L29.25,23.135133743286133Z" fill-rule="evenodd" fill="#6967FE" fill-opacity="1"/></g><g><rect x="14.947368621826172" y="8" width="1.736842155456543" height="8.648648262023926" rx="0.8684210777282715" fill="#6967FE" fill-opacity="1"/></g><g><rect x="32.3157901763916" y="8" width="1.736842155456543" height="8.648648262023926" rx="0.8684210777282715" fill="#6967FE" fill-opacity="1"/></g></g></g></svg>