<svg xmlns="http://www.w3.org/2000/svg" xmlns:xlink="http://www.w3.org/1999/xlink" fill="none" version="1.1" width="50" height="50" viewBox="0 0 50 50"><g><g><g><ellipse cx="25.000000953674316" cy="38.1191463470459" rx="6.176470756530762" ry="4.976190567016602" fill="#CACCFF" fill-opacity="1"/></g><g><g><path d="M37.8548,30.5049C36.519800000000004,32.7869,34.6492,34.655100000000004,32.428,35.9247L32.428,39.1991C32.428,41.2601,30.6668,42.9997,28.585,42.9997L21.208399999999997,42.9997C19.25488,43.0238,17.65585,41.3605,17.63323,39.2794L17.63323,35.8966C15.38932,34.5185,13.49613,32.574,12.1347,30.2277C10.739329,27.8171,10.000158249,25.1213,10.000158249,22.4375C9.9813021,18.1909,11.64821,14.13306,14.597349999999999,11.276530000000001C17.62568,8.31553,21.5893,6.796868,25.7716,7.0218552C29.6259,7.226754,33.2576,8.99049,35.9315,11.95149C38.6279,14.928550000000001,40.0761,18.7654,39.9969,22.7509C39.9517,25.4909,39.2125,28.1666,37.8548,30.5049ZM20.043100000000003,39.1991C20.043100000000003,39.9745,20.5258,40.5209,21.215899999999998,40.5209L28.5963,40.5209C29.3619,40.5209,30.037,39.9022,30.037,39.1991L30.037,38.9781L20.043100000000003,38.9781L20.043100000000003,39.1991ZM25.6585,9.51681C22.2078,9.31592,18.83249,10.60157,16.29065,13.09651C13.77898,15.55932,12.39869,18.8739,12.39869,22.4455C12.39869,27.2024,15.129100000000001,31.7584,19.349159999999998,34.060500000000005C19.775309999999998,34.2976,20.0506,34.7315,20.0506,35.1573L20.0506,36.4751L30.0257,36.4751L30.0257,35.1573C30.0257,34.643100000000004,30.2444,34.241299999999995,30.6328,34.044399999999996C34.8114,31.9312,37.4664,27.5881,37.5569,22.698700000000002C37.6813,15.78431,32.345,9.874369999999999,25.6585,9.51681Z" fill="#6967FE" fill-opacity="1" style="mix-blend-mode:passthrough"/></g><g transform="matrix(0.9725421071052551,0.23272719979286194,-0.21478301286697388,0.9766618013381958,3.3407219254446545,-4.8882264954088726)"><path d="M28.1794178604126,29.59958207244873L33.3404678604126,20.474892072448732C33.5610678604126,20.10990207244873,33.4728678604126,19.64063207244873,33.1640678604126,19.37993207244873C33.0758678604126,19.27565207244873,32.943467860412596,19.22350207244873,32.811167860412596,19.22350207244873L28.752877860412596,19.22350207244873L28.752877860412596,13.48799707244873C28.752877860412596,13.07086907244873,28.444097860412597,12.70588207244873,28.0911978604126,12.70588207244873C27.870637860412597,12.70588207244873,27.650077860412598,12.86230507244873,27.561857860412598,13.07086907244873L22.400786860412598,22.19554207244873C22.180227860412597,22.56053207244873,22.268451510412596,23.029782072448732,22.577232860412597,23.290482072448732C22.665456860412597,23.39478207244873,22.797791860412598,23.44688207244873,22.9301268604126,23.44688207244873L26.988407860412597,23.44688207244873L26.988407860412597,29.18248207244873C26.988407860412597,29.59958207244873,27.2971878604126,29.96458207244873,27.650077860412598,29.96458207244873C27.870637860412597,29.96458207244873,28.0911978604126,29.80808207244873,28.1794178604126,29.59958207244873Z" fill="#FAB85C" fill-opacity="1" style="mix-blend-mode:passthrough"/></g></g></g></g></svg>