<svg xmlns="http://www.w3.org/2000/svg" xmlns:xlink="http://www.w3.org/1999/xlink" fill="none" version="1.1" width="50" height="50" viewBox="0 0 50 50"><rect x="9" y="9.60009765625" width="32" height="5.999999523162842" rx="0" fill="#CACCFF" fill-opacity="1"/><rect x="9" y="9.60009765625" width="32" height="32.399993896484375" rx="2" fill-opacity="0" stroke-opacity="1" stroke="#7B71F1" fill="none" stroke-width="3"/><g transform="matrix(0,1,-1,0,24.04248046875,-11.142578125)"><path d="M17.592529296875,7.949951171875L22.992528896875,7.949951171875L22.992528896875,7.949651271875Q23.066204596875,7.949651271875,23.139525396875,7.942429771875Q23.212845796875,7.935208271875,23.285105696875,7.9208347718750005Q23.357365596875,7.906461471875,23.427868396875,7.885074571875Q23.498371596875,7.863687771875,23.566438696875,7.835493371875Q23.634506196875,7.807298971875,23.699482396875,7.772568671875Q23.764458696875,7.737838171875,23.825716996875002,7.696906071875Q23.886976196875,7.6559742718749995,23.943928196875,7.609235071875Q24.000880196875002,7.562495671875,24.052976596875,7.510399271875Q24.105072996875002,7.458302771875,24.151812096875,7.401350791875Q24.198551196875002,7.344398851875,24.239482896875,7.283139821875Q24.280415496875,7.221880911875,24.315145996875,7.156904871875Q24.349876396875,7.091928901875,24.378070396875,7.023861531875Q24.406265296875,6.955794211875,24.427652396875,6.885291131875Q24.449039496875,6.8147880418749995,24.463412296875,6.742528141875Q24.477786096875,6.670268271875,24.485007296875,6.596947491875Q24.492229496874998,6.523626714875,24.492228996875,6.449951171875Q24.492229496874998,6.376275628875,24.485007796875,6.302954851875Q24.477786096875,6.229634071875,24.463412296875,6.157374201875Q24.449039496875,6.0851143018750005,24.427652396875,6.014611181875Q24.406265296875,5.944108131875,24.378069896875,5.876040811875Q24.349875896874998,5.807973441875,24.315145496875,5.742997411875Q24.280415496875,5.678021431875,24.239482896875,5.616762521875Q24.198551196875002,5.555503491875,24.151812596875,5.498551491875Q24.105072996875002,5.441599571875,24.052976596875,5.389503071875Q24.000880196875002,5.337406671875,23.943928196875,5.290667271875Q23.886976196875,5.2439280718750005,23.825716996875002,5.202996271875Q23.764458696875,5.162064171875,23.699482396875,5.127333771875Q23.634506196875,5.092603371875,23.566438696875,5.064408971875Q23.498371596875,5.036214571875,23.427868796875,5.014827771875Q23.357365596875,4.993440871875,23.285105196875,4.9790675718749995Q23.212845796875,4.964694071875,23.139525396875,4.9574724718750005Q23.066204596875,4.950251071875,22.992528896875,4.950251071875L22.992528896875,4.949951171875L17.592529296875,4.949951171875L17.592529296875,4.950251071875Q17.518853753875,4.950251071875,17.445532976875,4.957472571875Q17.372212196875,4.964694071875,17.299952326875,4.9790675718749995Q17.227692426875,4.993440871875,17.157189306875,5.014827771875Q17.086686256875,5.036214571875,17.018618936875,5.064408971875Q16.950551566875,5.092603371875,16.885575536875,5.127333671875Q16.820599556875,5.162064171875,16.759340646875,5.202996271875Q16.698081616875,5.2439280718750005,16.641129616875,5.290667271875Q16.584177696875,5.337406671875,16.532081196875,5.389503071875Q16.479984796875,5.441599571875,16.433245396875,5.498551551875Q16.386506196875,5.555503491875,16.345574396875,5.616762521875Q16.304642296875,5.678021431875,16.269911896875,5.742997471875Q16.235181496875,5.807973441875,16.206987096875,5.876040811875Q16.178792696875,5.944108131875,16.157405896875,6.014611211875Q16.136018996875,6.0851143018750005,16.121645696875,6.157374201875Q16.107272196875,6.229634071875,16.100050596875,6.302954851875Q16.092829096875,6.376275628875,16.092829196875,6.449951171875Q16.092829096875,6.523626714875,16.100050696875,6.596947491875Q16.107272196875,6.670268271875,16.121645696875,6.742528141875Q16.136018996875,6.8147880418749995,16.157405896875,6.885291161875Q16.178792696875,6.955794211875,16.206987096875,7.023861531875Q16.235181496875,7.091928901875,16.269911796875,7.156904931875Q16.304642296875,7.221880911875,16.345574396875,7.283139821875Q16.386506196875,7.344398851875,16.433245396875,7.401350851875Q16.479984796875,7.458302771875,16.532081196875,7.510399271875Q16.584177696875,7.562495671875,16.641129676875,7.609235071875Q16.698081616875,7.6559742718749995,16.759340646875,7.696906071875Q16.820599556875,7.737838171875,16.885575596875,7.772568571875Q16.950551566875,7.807298971875,17.018618936875,7.835493371875Q17.086686256875,7.863687771875,17.157189336875,7.885074571875Q17.227692426875,7.906461471875,17.299952326875,7.9208347718750005Q17.372212196875,7.935208271875,17.445532976875,7.9424298718749995Q17.518853753875,7.949651271875,17.592529296875,7.949651271875L17.592529296875,7.949951171875Z" fill-rule="evenodd" fill="#7B71F1" fill-opacity="1"/></g><g transform="matrix(0,1,-1,0,39.449951171875,-26.550048828125)"><path d="M33,7.949951171875L38.3999996,7.949951171875L38.3999996,7.949651271875Q38.4736753,7.949651271875,38.5469961,7.942429771875Q38.6203165,7.935208271875,38.6925764,7.9208347718750005Q38.7648363,7.906461471875,38.8353391,7.885074571875Q38.9058423,7.863687771875,38.9739094,7.835493371875Q39.0419769,7.807298971875,39.1069531,7.772568671875Q39.171929399999996,7.737838171875,39.2331877,7.696906071875Q39.2944469,7.6559742718749995,39.3513989,7.609235071875Q39.4083509,7.562495671875,39.4604473,7.510399271875Q39.5125437,7.458302771875,39.5592828,7.401350791875Q39.6060219,7.344398851875,39.6469536,7.283139821875Q39.6878862,7.221880911875,39.7226167,7.156904871875Q39.7573471,7.091928901875,39.7855411,7.023861531875Q39.813736,6.955794211875,39.8351231,6.885291131875Q39.8565102,6.8147880418749995,39.870883,6.742528141875Q39.8852568,6.670268271875,39.892478,6.596947491875Q39.8997002,6.523626714875,39.8996997,6.449951171875Q39.8997002,6.376275628875,39.8924785,6.302954851875Q39.8852568,6.229634071875,39.870883,6.157374201875Q39.8565102,6.0851143018750005,39.8351231,6.014611181875Q39.813736,5.944108131875,39.7855406,5.876040811875Q39.7573466,5.807973441875,39.7226162,5.742997411875Q39.6878862,5.678021431875,39.6469536,5.616762521875Q39.6060219,5.555503491875,39.5592833,5.498551491875Q39.5125437,5.441599571875,39.4604473,5.389503071875Q39.4083509,5.337406671875,39.3513989,5.290667271875Q39.2944469,5.2439280718750005,39.2331877,5.202996271875Q39.171929399999996,5.162064171875,39.1069531,5.127333771875Q39.0419769,5.092603371875,38.9739094,5.064408971875Q38.9058423,5.036214571875,38.8353395,5.014827771875Q38.7648363,4.993440871875,38.6925759,4.9790675718749995Q38.6203165,4.964694071875,38.5469961,4.9574724718750005Q38.4736753,4.950251071875,38.3999996,4.950251071875L38.3999996,4.949951171875L33,4.949951171875L33,4.950251071875Q32.926324457,4.950251071875,32.85300368,4.957472571875Q32.7796829,4.964694071875,32.70742303,4.9790675718749995Q32.63516313,4.993440871875,32.56466001,5.014827771875Q32.49415696,5.036214571875,32.42608964,5.064408971875Q32.35802227,5.092603371875,32.29304624,5.127333671875Q32.22807026,5.162064171875,32.16681135,5.202996271875Q32.10555232,5.2439280718750005,32.04860032,5.290667271875Q31.9916484,5.337406671875,31.9395519,5.389503071875Q31.8874555,5.441599571875,31.8407161,5.498551551875Q31.7939769,5.555503491875,31.7530451,5.616762521875Q31.712113,5.678021431875,31.6773826,5.742997471875Q31.6426522,5.807973441875,31.6144578,5.876040811875Q31.5862634,5.944108131875,31.5648766,6.014611211875Q31.5434897,6.0851143018750005,31.5291164,6.157374201875Q31.5147429,6.229634071875,31.5075213,6.302954851875Q31.5002998,6.376275628875,31.5002999,6.449951171875Q31.5002998,6.523626714875,31.5075214,6.596947491875Q31.5147429,6.670268271875,31.5291164,6.742528141875Q31.5434897,6.8147880418749995,31.5648766,6.885291161875Q31.5862634,6.955794211875,31.6144578,7.023861531875Q31.6426522,7.091928901875,31.6773825,7.156904931875Q31.712113,7.221880911875,31.7530451,7.283139821875Q31.7939769,7.344398851875,31.8407161,7.401350851875Q31.8874555,7.458302771875,31.9395519,7.510399271875Q31.9916484,7.562495671875,32.04860038,7.609235071875Q32.10555232,7.6559742718749995,32.16681135,7.696906071875Q32.22807026,7.737838171875,32.2930463,7.772568571875Q32.35802227,7.807298971875,32.42608964,7.835493371875Q32.49415696,7.863687771875,32.56466004,7.885074571875Q32.63516313,7.906461471875,32.70742303,7.9208347718750005Q32.7796829,7.935208271875,32.85300368,7.9424298718749995Q32.926324457,7.949651271875,33,7.949651271875L33,7.949951171875Z" fill-rule="evenodd" fill="#7B71F1" fill-opacity="1"/></g><line x1="9" y1="15.900146484375" x2="41" y2="15.900146484375" fill-opacity="0" stroke-opacity="1" stroke="#7B71F1" fill="none" stroke-width="3"/><ellipse cx="16.407448291778564" cy="20.65004873275757" rx="2.0740742683410645" ry="2.0999999046325684" fill="#7B71F1" fill-opacity="1"/><ellipse cx="26.185131072998047" cy="31.20019507408142" rx="2.962963104248047" ry="2.999999761581421" fill="#FAB85C" fill-opacity="1"/><rect x="14.3333740234375" y="23.9501953125" width="2.962963104248047" height="3.5999996662139893" rx="0" fill="#7B71F1" fill-opacity="1"/><rect x="15.5184326171875" y="23.9501953125" width="2.962963104248047" height="15.599998474121094" rx="0" fill="#7B71F1" fill-opacity="1"/><rect x="20.25927734375" y="25.199951171875" width="1.7777777910232544" height="10.799999237060547" rx="0.8888888955116272" fill="#7B71F1" fill-opacity="1"/><rect x="26.1851806640625" y="24" width="1.1999999284744263" height="3.555555582046509" rx="0.5999999642372131" fill="#7B71F1" fill-opacity="1" transform="matrix(0,1,-1,0,50.1851806640625,-2.1851806640625)"/><rect x="26.882568359375" y="30.37109375" width="2.157689094543457" height="5.753838062286377" rx="0" fill="#FAB85C" fill-opacity="1" transform="matrix(-0.7027015089988708,0.7114848494529724,0.7027011513710022,0.7114852070808411,24.431187164751464,-10.36403027806955)"/><rect x="35.0740966796875" y="36.550048828125" width="2.999999761581421" height="17.77777862548828" rx="0" fill="#7B71F1" fill-opacity="1" transform="matrix(0,1,-1,0,71.6241455078125,1.4759521484375)"/><rect x="30.3333740234375" y="30.599853515625" width="2.962963104248047" height="2.999999761581421" rx="0" fill="#7B71F1" fill-opacity="1" transform="matrix(1,-2.2348338291067193e-8,2.2348338291067193e-8,1,-6.83855876815187e-7,6.779005055079779e-7)"/><path d="M33.29638671875,36.13713565625C33.29638671875,36.96556265625,33.96795951875,37.63713565625,34.79638661875,37.63713565625C35.62481351875,37.63713565625,36.29638651875,36.96556265625,36.29638651875,36.13713565625L36.29638651875,26.10009755625C36.29638651875,25.27167045625,35.62481351875,24.60009765625,34.79638661875,24.60009765625C33.96795951875,24.60009765625,33.29638671875,25.27167045625,33.29638671875,26.10009765625L33.29638671875,36.13713565625Z" fill="#7B71F1" fill-opacity="1" transform="matrix(0,1,-1,0,57.896484375,-8.6962890625)"/><path d="M30.3333740234375,26.08157925625L30.3333740234375,31.51861575625C30.3333740234375,32.33681535625,30.9818410834375,33.00009725625,31.8000407234375,33.00009725625L31.8148556234375,33.00009725625L31.8296704234375,33.00009725625C32.6478700234375,33.00009725625,33.2963371234375,32.33681535625,33.2963371234375,31.51861575625L33.2963371234375,26.08157905625C33.2963371234375,25.26337945625,32.6330552234375,24.60009765625,31.8148554234375,24.60009765625C30.9966558234375,24.60009765625,30.3333740234375,25.26337945625,30.3333740234375,26.08157925625Z" fill="#7B71F1" fill-opacity="1" transform="matrix(1,-2.2348338291067193e-8,2.2348338291067193e-8,1,-5.497713040369945e-7,6.779005055079779e-7)"/><rect x="31.5184326171875" y="20.35009765625" width="2.999999761581421" height="10.666666984558105" rx="0" fill="#7B71F1" fill-opacity="1" transform="matrix(0,1,-1,0,51.8685302734375,-11.1683349609375)"/><path d="M27.2790401921875,26.33875040625C26.7179181021875,26.87265750625,26.9489805121875,27.80629680625,27.7104637921875,27.947923706250002Q29.0648335921875,28.19982050625,30.3568796921875,28.22146220625Q31.5704617921875,28.24178980625,32.7169718921875,28.07048560625C33.4618453921875,27.95919080625,33.7173962921875,27.06598570625,33.1979064921875,26.52068380625L30.9821085921875,24.19478523625C30.6013278921875,23.79508399625,29.9686863921875,23.77955415625,29.5687527921875,24.16009068625L27.2790401921875,26.33875040625Z" fill="#7B71F1" fill-opacity="1" transform="matrix(0.68503737449646,-0.7285078763961792,0.7199527621269226,0.694023072719574,-8.706391041632742,26.129161784469034)"/><path d="M28.4622802734375,23.680583871875Q29.1878311034375,23.230507771875,29.7400258734375,23.271218171875Q30.2922208734375,23.311928671875002,30.979006573437502,23.855626671875L29.7993418734375,22.199951171875L28.4622802734375,23.680583871875Z" fill="#7B71F1" fill-opacity="1" transform="matrix(0.7435246706008911,0.6687085628509521,-0.6594862341880798,0.751716673374176,21.940434906078735,-13.521092809227412)"/><rect x="0" y="0" width="50" height="50" rx="0" fill="#D8D8D8" fill-opacity="1" style="opacity:0;"/></svg>