<svg xmlns="http://www.w3.org/2000/svg" xmlns:xlink="http://www.w3.org/1999/xlink" fill="none" version="1.1" width="50" height="50" viewBox="0 0 50 50"><g><g><g><path d="M9.015146114863455,14.26861047744751Q9.015146114863455,14.17011907744751,9.034361114863454,14.07352047744751Q9.053576114863455,13.97692147744751,9.091267114863456,13.88592747744751Q9.128958114863455,13.79493247744751,9.183676114863456,13.71304047744751Q9.238395114863454,13.63114747744751,9.308039114863455,13.56150347744751Q9.377683114863455,13.491859477447509,9.459576114863456,13.43714047744751Q9.541468114863456,13.38242247744751,9.632463114863455,13.34473147744751Q9.723457114863455,13.30704047744751,9.820056114863455,13.287825477447509Q9.916654714863455,13.26861047744751,10.015146114863455,13.26861047744751Q10.113637514863456,13.26861047744751,10.210236114863456,13.287825477447509Q10.306835114863455,13.30704047744751,10.397829114863455,13.34473147744751Q10.488824114863455,13.38242247744751,10.570716114863455,13.43714047744751Q10.652609114863456,13.491859477447509,10.722253114863456,13.56150347744751Q10.791897114863456,13.63114747744751,10.846616114863455,13.71304047744751Q10.901334114863456,13.79493247744751,10.939025114863455,13.88592747744751Q10.976716114863455,13.97692147744751,10.995931114863456,14.07352047744751Q11.015146114863455,14.17011907744751,11.015146114863455,14.26861047744751L11.015146114863455,40.44031047744751Q11.018206114863455,41.996910477447514,12.487536114863456,42.00001047744751L33.00394611486345,42.00001047744751Q34.471246114863455,41.996910477447514,34.474246114863455,40.43831047744751L34.474246114863455,37.553410477447514L34.474246114863455,37.55151047744751Q34.474246114863455,37.453010477447506,34.49344611486346,37.35641047744751Q34.512746114863454,37.25981047744751,34.55034611486346,37.16881047744751Q34.58804611486346,37.077810477447514,34.64284611486346,36.99591047744751Q34.69754611486346,36.914010477447505,34.76714611486345,36.84441047744751Q34.836846114863455,36.77471047744751,34.91874611486345,36.72001047744751Q35.000546114863454,36.665310477447505,35.091546114863455,36.62761047744751Q35.182546114863456,36.58991047744751,35.27914611486345,36.570710477447506Q35.37574611486346,36.55151047744751,35.474246114863455,36.55151047744751Q35.572746114863456,36.55151047744751,35.66934611486346,36.570710477447506Q35.76594611486345,36.58991047744751,35.856946114863455,36.62761047744751Q35.947946114863456,36.665310477447505,36.02984611486346,36.72001047744751Q36.11174611486345,36.77471047744751,36.18134611486346,36.84441047744751Q36.251046114863456,36.914010477447505,36.30574611486345,36.99591047744751Q36.36044611486346,37.077810477447514,36.39814611486345,37.16881047744751Q36.43584611486345,37.25981047744751,36.45504611486346,37.35641047744751Q36.474246114863455,37.453010477447506,36.474246114863455,37.55151047744751L36.474246114863455,40.44221047744751Q36.471446114863454,41.90431047744751,35.46884611486345,42.94321047744751Q34.45184611486346,43.996910477447514,33.00394611486345,44.00001047744751L12.483336114863455,44.00001047744751Q11.037546114863455,43.996910477447514,10.020588094863456,42.94321047744751Q9.018022114863456,41.90431047744751,9.015146114863455,40.44031047744751L9.015146114863455,14.26861047744751Z" fill-rule="evenodd" fill="#6967FE" fill-opacity="1" style="mix-blend-mode:passthrough"/></g><g><path d="M16.815985202789307,7L33.00608520278931,7.000002Q34.451885202789306,7.00305,35.468785202789306,8.056819Q36.47138520278931,9.09568,36.474285202789304,10.559709999999999L36.474285202789304,21.112000000000002Q36.474285202789304,21.2105,36.4549852027893,21.3071Q36.435785202789305,21.4037,36.398085202789304,21.4946Q36.3603852027893,21.5856,36.305685202789306,21.6675Q36.25098520278931,21.7494,36.18138520278931,21.8191Q36.1116852027893,21.8887,36.029785202789306,21.9434Q35.94788520278931,21.9982,35.85688520278931,22.035800000000002Q35.765885202789306,22.0735,35.66928520278931,22.0927Q35.572785202789305,22.112000000000002,35.474285202789304,22.112000000000002Q35.3757852027893,22.112000000000002,35.27918520278931,22.0927Q35.182585202789305,22.0735,35.091585202789304,22.035800000000002Q35.00058520278931,21.9982,34.918685202789305,21.9434Q34.83678520278931,21.8887,34.76718520278931,21.8191Q34.69748520278931,21.7494,34.642785202789305,21.6675Q34.5880852027893,21.5856,34.55038520278931,21.4946Q34.51268520278931,21.4037,34.4934852027893,21.3071Q34.474285202789304,21.2105,34.474285202789304,21.112000000000002L34.474285202789304,10.559709999999999Q34.4729852027893,9.90499,34.02968520278931,9.44567Q33.60078520278931,9.00126,33.00188520278931,8.999998L16.815985202789307,9Q16.717493802789306,9,16.620895202789306,8.980785000000001Q16.524296202789305,8.96157,16.433302202789307,8.923879Q16.342307202789307,8.886188,16.260415202789307,8.83147Q16.178522202789306,8.776751,16.108878202789306,8.707107Q16.039234202789306,8.637463,15.984515202789307,8.55557Q15.929797202789306,8.473678,15.892106202789307,8.382683Q15.854415202789307,8.291689,15.835200202789306,8.19509Q15.815985202789307,8.0984914,15.815985202789307,8Q15.815985202789307,7.9015086,15.835200202789306,7.80491Q15.854415202789307,7.708311,15.892106202789307,7.617317Q15.929797202789306,7.526322,15.984515202789307,7.44443Q16.039234202789306,7.362537,16.108878202789306,7.292893Q16.178522202789306,7.223249,16.260415202789307,7.16853Q16.342307202789307,7.113812,16.433302202789307,7.076121Q16.524296202789305,7.03843,16.620895202789306,7.019215Q16.717493802789306,7,16.815985202789307,7Z" fill-rule="evenodd" fill="#6967FE" fill-opacity="1" style="mix-blend-mode:passthrough"/></g><g><path d="M9.111829114863456,15.13268Q9.154275114863456,15.17706,9.200866114863455,15.21706Q9.247458114863456,15.25706,9.297746114863456,15.29231Q9.348034114863456,15.327549999999999,9.401535114863455,15.357700000000001Q9.455035114863456,15.38784,9.511233114863455,15.412600000000001Q9.567431114863455,15.43735,9.625784114863455,15.456479999999999Q9.684138114863455,15.47561,9.744085114863456,15.48892Q9.804032114863455,15.50224,9.864996114863455,15.50962Q9.925960114863456,15.51699,9.987353514863456,15.518360000000001Q10.048746914863456,15.51972,10.109978514863455,15.51507Q10.171210114863456,15.51041,10.231690114863456,15.49977Q10.292170114863456,15.48913,10.351316114863454,15.47262Q10.410462114863455,15.4561,10.467705114863456,15.433869999999999Q10.524948114863456,15.411629999999999,10.579735114863455,15.3839Q10.634523114863455,15.35616,10.686328114863455,15.32319Q10.738134114863456,15.29022,10.786458114863455,15.252320000000001Q10.834782114863454,15.21443,10.879159114863455,15.171990000000001L17.432996114863457,8.903317Q17.477366114863457,8.860871,17.517376114863456,8.81428Q17.557376114863455,8.767688,17.592616114863453,8.7174Q17.627866114863455,8.667112,17.658006114863454,8.613611Q17.688156114863453,8.560111,17.712906114863454,8.503913Q17.737666114863455,8.447715,17.756796114863455,8.389362Q17.775916114863456,8.331008,17.789236114863456,8.271061Q17.802556114863457,8.211114,17.809926114863455,8.15015Q17.817306114863456,8.089186,17.818666114863454,8.0277926Q17.820036114863456,7.9663992,17.815376114863454,7.9051676Q17.810716114863453,7.843936,17.800076114863455,7.783456Q17.789446114863456,7.722976,17.772926114863456,7.66383Q17.756416114863455,7.604684,17.734176114863455,7.547441Q17.711946114863455,7.490198,17.684206114863457,7.435411Q17.656476114863455,7.380623,17.623506114863456,7.328818Q17.590526114863454,7.277012,17.552636114863454,7.228688Q17.514746114863456,7.180364,17.472296114863454,7.135987Q17.387196114863457,7.047018,17.286376114863454,6.97636Q17.185556114863456,6.9056999999999995,17.072896114863454,6.85607Q16.960226114863456,6.80644,16.840046114863455,6.77974Q16.719856114863454,6.75305,16.596776114863456,6.75031Q16.473686114863455,6.74757,16.352436114863455,6.7689Q16.231186114863455,6.79023,16.116426114863454,6.8347999999999995Q16.001656114863454,6.87937,15.897796114863455,6.94548Q15.793936114863456,7.011585,15.704966114863456,7.096683L9.151133114863455,13.36535Q9.106756114863455,13.4078,9.066753114863456,13.45439Q9.026750114863455,13.50098,8.991506114863455,13.551269999999999Q8.956266114863455,13.60156,8.926116114863456,13.655059999999999Q8.895976114863455,13.70856,8.871216114863456,13.76475Q8.846466114863455,13.82095,8.827336114863455,13.87931Q8.808206114863456,13.937660000000001,8.794886114863456,13.99761Q8.781576114863455,14.057549999999999,8.774196114863456,14.11852Q8.766816114863456,14.17948,8.765456114863456,14.240870000000001Q8.764086114863455,14.30227,8.768746114863456,14.3635Q8.773406114863455,14.42473,8.784046114863456,14.48521Q8.794686114863456,14.54569,8.811196114863455,14.60484Q8.827716114863456,14.663979999999999,8.849946114863455,14.72123Q8.872176114863455,14.77847,8.899916114863455,14.83326Q8.927656114863455,14.88804,8.960626114863455,14.93985Q8.993596114863456,14.99166,9.031490114863455,15.03998Q9.069382114863455,15.0883,9.111829114863456,15.13268Z" fill-rule="evenodd" fill="#6967FE" fill-opacity="1" style="mix-blend-mode:passthrough"/></g><g><path d="M17.82104,8.262151689628036L17.82103,12.219315006628037Q17.82268,13.263375006628037,17.22127,14.108235006628036Q16.72307,14.805465006628037,15.964649999999999,15.182685006628036Q15.20026,15.562875006628037,14.3661,15.529535006628038L9.9750251,15.419835006628038Q9.87814,15.417415006628037,9.783523,15.396435006628035Q9.688905,15.375455006628037,9.600078,15.336695006628037Q9.51125,15.297935006628038,9.431518,15.242835006628036Q9.351786,15.187745006628036,9.284118,15.118365006628036Q9.216449,15.048985006628037,9.163363,14.967905006628037Q9.110277,14.886815006628037,9.073749,14.797045006628036Q9.037221,14.707285006628037,9.01861,14.612175006628036Q9,14.517055006628038,9,14.420145006628037Q9,14.321655006628037,9.019214999999999,14.225055006628036Q9.03843,14.128455006628037,9.076121,14.037455006628036Q9.113812,13.946465006628037,9.16853,13.864575006628037Q9.223249,13.782675006628036,9.292893,13.713035006628036Q9.362537,13.643395006628037,9.44443,13.588675006628037Q9.526322,13.533955006628037,9.617317,13.496265006628036Q9.708311,13.458575006628037,9.80491,13.439355006628038Q9.9015086,13.420145006628037,10,13.420145006628037Q10.0124894,13.420145006628037,10.0249749,13.420455006628035L14.41605,13.530155006628036Q15.15526,13.559495006628037,15.594000000000001,12.945485006628036Q15.821670000000001,12.625645006628037,15.82104,12.222455006628037L15.82104,8.261175006628036Q15.82104,8.162683606628036,15.840250000000001,8.066085006628036Q15.85946,7.969486006628037,15.89716,7.878492006628036Q15.93485,7.787497006628037,15.98956,7.705605006628036Q16.04428,7.623712006628036,16.11393,7.554068006628037Q16.18357,7.4844240066280365,16.26547,7.429705006628036Q16.347360000000002,7.374987006628037,16.43835,7.337296006628036Q16.52935,7.2996050066280365,16.62594,7.2803900066280365Q16.722540000000002,7.2611750066280365,16.82104,7.2611750066280365Q16.91953,7.2611750066280365,17.01613,7.2803900066280365Q17.11272,7.2996050066280365,17.20372,7.337296006628036Q17.294710000000002,7.374987006628037,17.37661,7.429705006628036Q17.4585,7.4844240066280365,17.52814,7.554068006628037Q17.59779,7.623712006628036,17.6525,7.705605006628036Q17.70722,7.787497006628037,17.74491,7.878492006628036Q17.78261,7.969486006628037,17.80182,8.066085006628036Q17.82104,8.162683606628036,17.82104,8.261175006628036L17.82104,8.262151689628036Z" fill-rule="evenodd" fill="#6967FE" fill-opacity="1" style="mix-blend-mode:passthrough"/></g><g><path d="M38.95012912292481,24.12536829925537Q36.7905991229248,22.085358299255372,33.86369912292481,22.22974829925537L33.86132912292481,22.229868299255372L33.85919912292481,22.229968299255372Q30.931999122924804,22.367078299255372,28.962153122924803,24.601378299255373Q27.007899122924805,26.817998299255372,27.139799122924806,29.80918829925537Q27.271799122924804,32.80264829925537,29.415839122924805,34.828058299255375Q31.578829122924805,36.87135829925537,34.511209122924804,36.72935829925537Q37.441059122924806,36.58755829925537,39.407929122924806,34.34735829925537Q41.35772912292481,32.12665829925537,41.22002912292481,29.14000829925537Q41.0923291229248,26.14899829925537,38.95012912292481,24.12536829925537ZM30.837409122924804,26.25467829925537Q32.1078391229248,24.81368829925537,33.97927912292481,24.72707829925537L33.9837791229248,24.726868299255372Q35.84782912292481,24.633858299255373,37.233339122924804,25.942698299255373Q38.637829122924806,27.26949829925537,38.722329122924805,29.24669829925537Q38.813929122924804,31.23473829925537,37.529259122924806,32.69792829925537Q36.2616291229248,34.14165829925537,34.390309122924805,34.23225829925537Q32.521529122924804,34.32275829925537,31.132609122924805,33.01071829925537Q29.724759122924805,31.68076829925537,29.637369122924806,29.69905829925537Q29.549879122924803,27.71505829925537,30.837409122924804,26.25467829925537Z" fill-rule="evenodd" fill="#6967FE" fill-opacity="1" style="mix-blend-mode:passthrough"/></g><g transform="matrix(-0.7749390006065369,-0.632036030292511,0.6048864126205444,-0.7963117361068726,54.292500361987095,92.59896590418293)"><line x1="43" y1="35.419857025146484" x2="48.34756898880005" y2="35.419857025146484" fill-opacity="0" stroke-opacity="1" stroke="#6967FE" fill="none" stroke-width="2" stroke-linecap="ROUND" stroke-linejoin="round" style="mix-blend-mode:passthrough"/></g><g><path d="M30.09504561743164,29.41800127758789C30.241020117431642,30.19266327758789,30.55094611743164,30.92415327758789,31.002501117431642,31.55980327758789C31.22491411743164,31.87362327758789,31.47835411743164,32.16250327758789,31.75871411743164,32.42174327758789C32.05547411743164,32.72459327758789,32.424164117431644,32.94083327758789,32.82749411743164,33.04860327758789C32.99544411743164,33.09235327758789,33.16677411743164,32.99091327758789,33.21568411743164,32.81875327758789C33.25759411743164,32.646023277587894,33.15929411743164,32.47007327758789,32.99385411743164,32.42174327758789C32.671834117431644,32.32850327758789,32.37952411743164,32.14820327758789,32.14690411743164,31.899353277587892C31.898414117431642,31.67310327758789,31.67672411743164,31.417083277587892,31.48648411743164,31.13665327758789C31.09806411743164,30.56978327758789,30.831587117431642,29.92312527758789,30.70506011743164,29.240383277587892C30.67328911743164,29.04897507758789,30.48929811743164,28.92756047758789,30.308476117431642,28.97866267758789C30.12765451743164,29.02976497758789,30.028635517431642,29.23116127758789,30.09504561743164,29.41277227758789L30.09504561743164,29.41800127758789Z" fill="#6967FE" fill-opacity="1" style="mix-blend-mode:passthrough"/></g><g><path d="M35.06084514770508,33.16347641748047Q35.06084514770508,33.22779041748047,35.04873514770508,33.29086741748047Q35.03663514770508,33.35394541748047,35.01287514770508,33.41336341748047Q34.98912514770508,33.47278141748047,34.95464514770508,33.52626041748047Q34.92016514770508,33.57973041748047,34.87627514770508,33.62521041748047Q34.832385147705075,33.67068041748047,34.78077814770508,33.70641041748047Q34.72917214770508,33.74215041748047,34.671829147705076,33.76676041748047Q34.61448714770508,33.79137041748047,34.55361314770508,33.80392041748047Q34.492738147705076,33.81646041748047,34.43067114770508,33.81646041748047Q34.36860414770508,33.81646041748047,34.30773014770508,33.80392041748047Q34.24685614770508,33.79137041748047,34.18951314770508,33.76676041748047Q34.13217114770508,33.74214041748047,34.080564147705076,33.70641041748047Q34.02895714770508,33.67068041748047,33.985069147705076,33.62521041748047Q33.94118114770508,33.57973041748047,33.906699147705076,33.52626041748047Q33.87221644770508,33.47278141748047,33.84846444770508,33.41336341748047Q33.824712447705075,33.35394541748047,33.81260384770508,33.29086841748047Q33.80049514770508,33.22779041748047,33.80049514770508,33.16347641748047Q33.80049514770508,33.09916341748047,33.81260384770508,33.03608541748047Q33.824712447705075,32.97300741748047,33.84846444770508,32.913589417480466Q33.87221644770508,32.854171417480465,33.906699147705076,32.80069641748047Q33.94118114770508,32.74722241748047,33.985069147705076,32.70174541748047Q34.02895714770508,32.656269417480466,34.080564147705076,32.62053841748047Q34.13217114770508,32.584807717480466,34.18951314770508,32.56019601748047Q34.24685614770508,32.53558431748047,34.30773014770508,32.523037317480465Q34.36860414770508,32.51049041748047,34.43067114770508,32.51049041748047Q34.492738147705076,32.51049041748047,34.55361314770508,32.523037317480465Q34.61448714770508,32.53558431748047,34.671829147705076,32.56019601748047Q34.72917214770508,32.584807717480466,34.78077814770508,32.62053841748047Q34.832385147705075,32.656269417480466,34.87627514770508,32.70174541748047Q34.92016514770508,32.74722241748047,34.95464514770508,32.80069641748047Q34.98912514770508,32.854171417480465,35.01287514770508,32.913589417480466Q35.03663514770508,32.97300741748047,35.04873514770508,33.03608541748047Q35.06084514770508,33.09916341748047,35.06084514770508,33.16347641748047Z" fill="#6967FE" fill-opacity="1" style="mix-blend-mode:passthrough"/></g><g><path d="M19.557668212890626,19.44189453125L22.773668212890627,19.44189453125L22.773668212890627,18.83389453125L21.597668212890625,18.83389453125L21.597668212890625,13.57789453125L21.037668212890626,13.57789453125C20.717668212890626,13.76189453125,20.341668212890625,13.89789453125,19.821668212890625,13.99389453125L19.821668212890625,14.45789453125L20.869668212890623,14.45789453125L20.869668212890623,18.83389453125L19.557668212890626,18.83389453125L19.557668212890626,19.44189453125ZM25.517668212890626,19.54589453125C26.629668212890625,19.54589453125,27.341668212890625,18.53789453125,27.341668212890625,16.489894531250002C27.341668212890625,14.45789453125,26.629668212890625,13.47389453125,25.517668212890626,13.47389453125C24.397668212890625,13.47389453125,23.693668212890625,14.45789453125,23.693668212890625,16.489894531250002C23.693668212890625,18.53789453125,24.397668212890625,19.54589453125,25.517668212890626,19.54589453125ZM25.517668212890626,18.95389453125C24.853668212890625,18.95389453125,24.397668212890625,18.20989453125,24.397668212890625,16.489894531250002C24.397668212890625,14.77789453125,24.853668212890625,14.04989453125,25.517668212890626,14.04989453125C26.181668212890624,14.04989453125,26.637668212890624,14.77789453125,26.637668212890624,16.489894531250002C26.637668212890624,18.20989453125,26.181668212890624,18.95389453125,25.517668212890626,18.95389453125ZM29.957668212890624,19.54589453125C31.069668212890626,19.54589453125,31.781668212890626,18.53789453125,31.781668212890626,16.489894531250002C31.781668212890626,14.45789453125,31.069668212890626,13.47389453125,29.957668212890624,13.47389453125C28.837668212890627,13.47389453125,28.133668212890626,14.45789453125,28.133668212890626,16.489894531250002C28.133668212890626,18.53789453125,28.837668212890627,19.54589453125,29.957668212890624,19.54589453125ZM29.957668212890624,18.95389453125C29.293668212890623,18.95389453125,28.837668212890627,18.20989453125,28.837668212890627,16.489894531250002C28.837668212890627,14.77789453125,29.293668212890623,14.04989453125,29.957668212890624,14.04989453125C30.621668212890626,14.04989453125,31.077668212890625,14.77789453125,31.077668212890625,16.489894531250002C31.077668212890625,18.20989453125,30.621668212890626,18.95389453125,29.957668212890624,18.95389453125Z" fill="#FAB85C" fill-opacity="1"/></g><g><path d="M13.083329200744629,23.566925048828125L25.75782920074463,23.566925048828125Q25.81922920074463,23.566925048828125,25.88032920074463,23.572945048828124Q25.94142920074463,23.578965048828124,26.001729200744627,23.590945048828125Q26.06192920074463,23.602925048828126,26.120729200744627,23.620745048828127Q26.17942920074463,23.638575048828123,26.23622920074463,23.662075048828125Q26.29292920074463,23.685575048828124,26.34712920074463,23.714525048828126Q26.40122920074463,23.743475048828124,26.45232920074463,23.777585048828126Q26.50332920074463,23.811705048828124,26.55082920074463,23.850662048828124Q26.59832920074463,23.889619048828123,26.641729200744628,23.933042048828124Q26.68512920074463,23.976464048828124,26.724129200744628,24.023933048828123Q26.76302920074463,24.071403048828124,26.797129200744628,24.122462048828126Q26.831329200744626,24.173522048828126,26.860229200744627,24.227679048828126Q26.88922920074463,24.281837048828123,26.91272920074463,24.338571048828125Q26.936229200744627,24.395305048828124,26.95402920074463,24.454069048828124Q26.97182920074463,24.512834048828125,26.98382920074463,24.573062048828124Q26.99582920074463,24.633291048828124,27.00182920074463,24.694404048828126Q27.00782920074463,24.755516448828125,27.00782920074463,24.816925048828125Q27.00782920074463,24.878333648828125,27.00182920074463,24.939446048828124Q26.99582920074463,25.000559048828126,26.98382920074463,25.060788048828126Q26.97182920074463,25.121016048828125,26.95402920074463,25.179781048828126Q26.936229200744627,25.238545048828126,26.91272920074463,25.295279048828125Q26.88922920074463,25.352013048828127,26.860229200744627,25.406171048828124Q26.831329200744626,25.460328048828124,26.797129200744628,25.511388048828124Q26.76302920074463,25.562447048828126,26.724129200744628,25.609917048828127Q26.68512920074463,25.657386048828126,26.641729200744628,25.700808048828126Q26.59832920074463,25.744231048828127,26.55082920074463,25.783188048828126Q26.50332920074463,25.822145048828126,26.45232920074463,25.856265048828124Q26.40122920074463,25.890375048828126,26.34712920074463,25.919325048828124Q26.29292920074463,25.948275048828126,26.23622920074463,25.971775048828125Q26.17942920074463,25.995275048828127,26.120729200744627,26.013105048828123Q26.06192920074463,26.030925048828124,26.001729200744627,26.042905048828125Q25.94142920074463,26.054885048828126,25.88032920074463,26.060905048828126Q25.81922920074463,26.066925048828125,25.75782920074463,26.066925048828125L13.083329200744629,26.066925048828125Q13.021920600744629,26.066925048828125,12.960808200744628,26.060905048828126Q12.89969520074463,26.054885048828126,12.83946620074463,26.042905048828125Q12.77923820074463,26.030925048828124,12.720473200744628,26.013105048828123Q12.661709200744628,25.995275048828127,12.60497520074463,25.971775048828125Q12.548241200744629,25.948275048828126,12.49408320074463,25.919325048828124Q12.43992620074463,25.890375048828126,12.388866200744628,25.856265048828124Q12.33780720074463,25.822145048828126,12.290337200744629,25.783188048828126Q12.24286820074463,25.744231048828127,12.199446200744628,25.700808048828126Q12.15602320074463,25.657386048828126,12.11706620074463,25.609917048828127Q12.07810920074463,25.562447048828126,12.04398920074463,25.511388048828124Q12.00987920074463,25.460328048828124,11.98092920074463,25.406171048828124Q11.95197920074463,25.352013048828127,11.92847920074463,25.295279048828125Q11.904979200744629,25.238545048828126,11.887149200744629,25.179781048828126Q11.869329200744628,25.121016048828125,11.857349200744629,25.060788048828126Q11.84536920074463,25.000559048828126,11.839349200744628,24.939446048828124Q11.833329200744629,24.878333648828125,11.833329200744629,24.816925048828125Q11.833329200744629,24.755516448828125,11.839349200744628,24.694404048828126Q11.84536920074463,24.633291048828124,11.857349200744629,24.573062048828124Q11.869329200744628,24.512834048828125,11.887149200744629,24.454069048828124Q11.904979200744629,24.395305048828124,11.92847920074463,24.338571048828125Q11.95197920074463,24.281837048828123,11.98092920074463,24.227679048828126Q12.00987920074463,24.173522048828126,12.04398920074463,24.122462048828126Q12.07810920074463,24.071403048828124,12.11706620074463,24.023933048828123Q12.15602320074463,23.976464048828124,12.199446200744628,23.933042048828124Q12.24286820074463,23.889619048828123,12.290337200744629,23.850662048828124Q12.33780720074463,23.811705048828124,12.388866200744628,23.777585048828126Q12.43992620074463,23.743475048828124,12.49408320074463,23.714525048828126Q12.548241200744629,23.685575048828124,12.60497520074463,23.662075048828125Q12.661709200744628,23.638575048828123,12.720473200744628,23.620745048828127Q12.77923820074463,23.602925048828126,12.83946620074463,23.590945048828125Q12.89969520074463,23.578965048828124,12.960808200744628,23.572945048828124Q13.021920600744629,23.566925048828125,13.083329200744629,23.566925048828125ZM13.083329200744629,28.358745048828126L25.75782920074463,28.358745048828126Q25.81922920074463,28.358745048828126,25.88032920074463,28.364765048828126Q25.94142920074463,28.370785048828125,26.001729200744627,28.382765048828126Q26.06192920074463,28.394745048828124,26.120729200744627,28.412575048828124Q26.17942920074463,28.430395048828125,26.23622920074463,28.453895048828123Q26.29292920074463,28.477395048828125,26.34712920074463,28.506345048828123Q26.40122920074463,28.535295048828125,26.45232920074463,28.569405048828123Q26.50332920074463,28.603525048828125,26.55082920074463,28.642485048828124Q26.59832920074463,28.681445048828124,26.641729200744628,28.724865048828125Q26.68512920074463,28.768285048828126,26.724129200744628,28.815755048828123Q26.76302920074463,28.863225048828124,26.797129200744628,28.914285048828127Q26.831329200744626,28.965345048828127,26.860229200744627,29.019505048828126Q26.88922920074463,29.073655048828126,26.91272920074463,29.130395048828124Q26.936229200744627,29.187125048828126,26.95402920074463,29.245895048828125Q26.97182920074463,29.304655048828124,26.98382920074463,29.364885048828125Q26.99582920074463,29.425115048828125,27.00182920074463,29.486225048828125Q27.00782920074463,29.547335048828124,27.00782920074463,29.608745048828126Q27.00782920074463,29.670155048828125,27.00182920074463,29.731265048828124Q26.99582920074463,29.792385048828123,26.98382920074463,29.852605048828124Q26.97182920074463,29.912835048828125,26.95402920074463,29.971605048828124Q26.936229200744627,30.030365048828124,26.91272920074463,30.087105048828125Q26.88922920074463,30.143835048828123,26.860229200744627,30.197995048828126Q26.831329200744626,30.252155048828126,26.797129200744628,30.303205048828126Q26.76302920074463,30.354265048828125,26.724129200744628,30.401735048828126Q26.68512920074463,30.449205048828127,26.641729200744628,30.492635048828124Q26.59832920074463,30.536055048828125,26.55082920074463,30.575005048828125Q26.50332920074463,30.613965048828124,26.45232920074463,30.648085048828126Q26.40122920074463,30.682205048828123,26.34712920074463,30.711145048828126Q26.29292920074463,30.740095048828124,26.23622920074463,30.763595048828126Q26.17942920074463,30.787095048828125,26.120729200744627,30.804925048828125Q26.06192920074463,30.822745048828125,26.001729200744627,30.834725048828126Q25.94142920074463,30.846705048828124,25.88032920074463,30.852725048828127Q25.81922920074463,30.858745048828126,25.75782920074463,30.858745048828126L13.083329200744629,30.858745048828126Q13.021920600744629,30.858745048828126,12.960808200744628,30.852725048828127Q12.89969520074463,30.846705048828124,12.83946620074463,30.834725048828126Q12.77923820074463,30.822745048828125,12.720473200744628,30.804925048828125Q12.661709200744628,30.787095048828125,12.60497520074463,30.763595048828126Q12.548241200744629,30.740095048828124,12.49408320074463,30.711145048828126Q12.43992620074463,30.682205048828123,12.388866200744628,30.648085048828126Q12.33780720074463,30.613965048828124,12.290337200744629,30.575005048828125Q12.24286820074463,30.536055048828125,12.199446200744628,30.492635048828124Q12.15602320074463,30.449205048828127,12.11706620074463,30.401735048828126Q12.07810920074463,30.354265048828125,12.04398920074463,30.303205048828126Q12.00987920074463,30.252155048828126,11.98092920074463,30.197995048828126Q11.95197920074463,30.143835048828123,11.92847920074463,30.087105048828125Q11.904979200744629,30.030365048828124,11.887149200744629,29.971605048828124Q11.869329200744628,29.912835048828125,11.857349200744629,29.852605048828124Q11.84536920074463,29.792385048828123,11.839349200744628,29.731265048828124Q11.833329200744629,29.670155048828125,11.833329200744629,29.608745048828126Q11.833329200744629,29.547335048828124,11.839349200744628,29.486225048828125Q11.84536920074463,29.425115048828125,11.857349200744629,29.364885048828125Q11.869329200744628,29.304655048828124,11.887149200744629,29.245895048828125Q11.904979200744629,29.187125048828126,11.92847920074463,29.130395048828124Q11.95197920074463,29.073655048828126,11.98092920074463,29.019505048828126Q12.00987920074463,28.965345048828127,12.04398920074463,28.914285048828127Q12.07810920074463,28.863225048828124,12.11706620074463,28.815755048828123Q12.15602320074463,28.768285048828126,12.199446200744628,28.724865048828125Q12.24286820074463,28.681445048828124,12.290337200744629,28.642485048828124Q12.33780720074463,28.603525048828125,12.388866200744628,28.569405048828123Q12.43992620074463,28.535295048828125,12.49408320074463,28.506345048828123Q12.548241200744629,28.477395048828125,12.60497520074463,28.453895048828123Q12.661709200744628,28.430395048828125,12.720473200744628,28.412575048828124Q12.77923820074463,28.394745048828124,12.83946620074463,28.382765048828126Q12.89969520074463,28.370785048828125,12.960808200744628,28.364765048828126Q13.021920600744629,28.358745048828126,13.083329200744629,28.358745048828126ZM13.083329200744629,33.13066504882812L25.75782920074463,33.13066504882812Q25.81922920074463,33.13066504882812,25.88032920074463,33.13668504882813Q25.94142920074463,33.14270504882813,26.001729200744627,33.154675048828125Q26.06192920074463,33.16666504882812,26.120729200744627,33.18448504882812Q26.17942920074463,33.202315048828126,26.23622920074463,33.225815048828125Q26.29292920074463,33.24931504882812,26.34712920074463,33.27825504882813Q26.40122920074463,33.30720504882812,26.45232920074463,33.341325048828125Q26.50332920074463,33.37543504882812,26.55082920074463,33.414395048828126Q26.59832920074463,33.45335504882813,26.641729200744628,33.49677504882813Q26.68512920074463,33.540195048828124,26.724129200744628,33.58766504882813Q26.76302920074463,33.635135048828126,26.797129200744628,33.686195048828125Q26.831329200744626,33.737255048828125,26.860229200744627,33.79141504882813Q26.88922920074463,33.845575048828124,26.91272920074463,33.902305048828126Q26.936229200744627,33.95904504882812,26.95402920074463,34.01780504882812Q26.97182920074463,34.07656504882812,26.98382920074463,34.13679504882813Q26.99582920074463,34.197025048828124,27.00182920074463,34.258145048828126Q27.00782920074463,34.319255048828126,27.00782920074463,34.38066504882812Q27.00782920074463,34.44206504882813,27.00182920074463,34.50318504882813Q26.99582920074463,34.56429504882813,26.98382920074463,34.624525048828126Q26.97182920074463,34.68475504882812,26.95402920074463,34.74351504882812Q26.936229200744627,34.802285048828125,26.91272920074463,34.85902504882812Q26.88922920074463,34.91572504882812,26.860229200744627,34.969925048828124Q26.831329200744626,35.02402504882812,26.797129200744628,35.07512504882813Q26.76302920074463,35.126225048828125,26.724129200744628,35.17362504882813Q26.68512920074463,35.22112504882813,26.641729200744628,35.264525048828126Q26.59832920074463,35.307925048828125,26.55082920074463,35.346925048828126Q26.50332920074463,35.38592504882813,26.45232920074463,35.42002504882812Q26.40122920074463,35.454125048828125,26.34712920074463,35.483025048828125Q26.29292920074463,35.51202504882812,26.23622920074463,35.53552504882813Q26.17942920074463,35.559025048828126,26.120729200744627,35.57682504882813Q26.06192920074463,35.59462504882812,26.001729200744627,35.60662504882812Q25.94142920074463,35.61862504882812,25.88032920074463,35.62462504882812Q25.81922920074463,35.63062504882812,25.75782920074463,35.63062504882812L13.083329200744629,35.63062504882812Q13.021920600744629,35.63062504882812,12.960808200744628,35.62462504882812Q12.89969520074463,35.61862504882812,12.83946620074463,35.60662504882812Q12.77923820074463,35.59462504882812,12.720473200744628,35.57682504882813Q12.661709200744628,35.559025048828126,12.60497520074463,35.53552504882813Q12.548241200744629,35.51202504882812,12.49408320074463,35.483025048828125Q12.43992620074463,35.454125048828125,12.388866200744628,35.42002504882812Q12.33780720074463,35.38592504882813,12.290337200744629,35.346925048828126Q12.24286820074463,35.307925048828125,12.199446200744628,35.264525048828126Q12.15602320074463,35.22112504882813,12.11706620074463,35.17362504882813Q12.07810920074463,35.126225048828125,12.04398920074463,35.07512504882813Q12.00987920074463,35.02402504882812,11.98092920074463,34.969925048828124Q11.95197920074463,34.91572504882812,11.92847920074463,34.85902504882812Q11.904979200744629,34.802285048828125,11.887149200744629,34.74351504882812Q11.869329200744628,34.68475504882812,11.857349200744629,34.624525048828126Q11.84536920074463,34.56429504882813,11.839349200744628,34.50318504882813Q11.833329200744629,34.44206504882813,11.833329200744629,34.38066504882812Q11.833329200744629,34.319255048828126,11.839349200744628,34.258145048828126Q11.84536920074463,34.197025048828124,11.857349200744629,34.13679504882813Q11.869329200744628,34.07656504882812,11.887149200744629,34.01780504882812Q11.904979200744629,33.95904504882812,11.92847920074463,33.902305048828126Q11.95197920074463,33.845575048828124,11.98092920074463,33.79141504882813Q12.00987920074463,33.737255048828125,12.04398920074463,33.686195048828125Q12.07810920074463,33.635135048828126,12.11706620074463,33.58766504882813Q12.15602320074463,33.540195048828124,12.199446200744628,33.49677504882813Q12.24286820074463,33.45335504882813,12.290337200744629,33.414395048828126Q12.33780720074463,33.37543504882812,12.388866200744628,33.341325048828125Q12.43992620074463,33.30720504882812,12.49408320074463,33.27825504882813Q12.548241200744629,33.24931504882812,12.60497520074463,33.225815048828125Q12.661709200744628,33.202315048828126,12.720473200744628,33.18448504882812Q12.77923820074463,33.16666504882812,12.83946620074463,33.154675048828125Q12.89969520074463,33.14270504882813,12.960808200744628,33.13668504882813Q13.021920600744629,33.13066504882812,13.083329200744629,33.13066504882812Z" fill-rule="evenodd" fill="#CACCFF" fill-opacity="1"/></g></g></g></svg>