<svg xmlns="http://www.w3.org/2000/svg" xmlns:xlink="http://www.w3.org/1999/xlink" fill="none" version="1.1" width="50" height="50" viewBox="0 0 50 50"><g><g><g><path d="M33.443285093688964,27.743531770324708C33.31648509368897,27.953211770324707,33.04228509368897,28.021171770324706,32.830985093688966,27.895321770324706C32.61958509368897,27.769471770324706,32.55108509368897,27.497481770324708,32.67798509368897,27.287801770324705C33.14908509368897,26.509201770324708,33.397285093688964,25.61784177032471,33.39568509368897,24.709691770324707C33.39568509368897,21.938411770324706,31.131365093688963,19.691921770324708,28.338055093688965,19.691921770324708C25.544745093688967,19.691921770324708,23.280411093688965,21.938411770324706,23.280411093688965,24.709691770324707C23.280411093688965,27.480981770324707,25.544745093688967,29.727431770324706,28.338055093688965,29.727431770324706C29.253285093688966,29.729031770324706,30.151625093688963,29.483031770324708,30.936345093688963,29.015731770324706C31.147675093688967,28.890131770324707,31.421565093688965,28.95823177032471,31.548295093688964,29.167731770324707C31.675025093688966,29.37733177032471,31.606665093688967,29.649131770324708,31.395555093688962,29.77503177032471C30.472115093688963,30.324831770324707,29.415055093688963,30.614531770324707,28.338055093688965,30.612931770324707C25.051925093688965,30.612931770324707,22.387885093688965,27.969921770324707,22.387885093688965,24.709691770324707C22.387885093688965,21.449471770324706,25.051925093688965,18.806431770324707,28.338055093688965,18.806431770324707C31.624185093688965,18.806431770324707,34.288185093688966,21.449471770324706,34.288185093688966,24.709691770324707C34.288185093688966,25.792941770324706,33.99328509368897,26.834431770324706,33.443285093688964,27.743531770324708ZM25.791235093688964,26.610401770324707L27.891795093688966,24.526251770324706L27.891795093688966,22.053231770324707C27.891795093688966,21.808701770324706,28.091595093688966,21.610481770324707,28.338055093688965,21.610481770324707C28.584525093688967,21.610481770324707,28.784315093688964,21.808701770324706,28.784315093688964,22.053231770324707L28.784315093688964,24.709691770324707C28.784295093688964,24.827111770324706,28.737265093688965,24.939701770324707,28.653565093688965,25.022711770324708L26.422255093688964,27.236441770324706C26.248925093688964,27.41449177032471,25.962125093688964,27.416971770324707,25.785695093688965,27.241931770324705C25.609275093688964,27.066901770324705,25.611765093688966,26.782361770324705,25.791235093688964,26.610401770324707Z" fill="#FAB85C" fill-opacity="1" style="mix-blend-mode:passthrough"/><path d="M33.742785093688966,27.924691770324706Q34.63818509368896,26.444431770324705,34.63818509368896,24.709691770324707Q34.63818509368896,22.118741770324707,32.791985093688965,20.287011770324707Q30.946815093688965,18.456431770324706,28.338055093688965,18.456430770324708Q25.729295093688965,18.456430770324708,23.884165093688964,20.287011770324707Q22.037885093688963,22.118741770324707,22.037885093688963,24.709691770324707Q22.037885093688963,27.300651770324706,23.884165093688964,29.132331770324708Q25.729295093688965,30.96293177032471,28.337535093688963,30.96293177032471Q30.080235093688966,30.96553177032471,31.574835093688964,30.075631770324705Q31.857885093688964,29.906731770324708,31.938045093688963,29.588131770324708Q32.01838509368896,29.268731770324706,31.847785093688962,28.986631770324706Q31.677935093688966,28.705761770324706,31.358445093688964,28.62637177032471Q31.039695093688962,28.54717177032471,30.757275093688964,28.714961770324706Q29.640895093688965,29.379731770324707,28.338055093688965,29.377431770324705Q26.387235093688965,29.377431770324705,25.008245093688963,28.009351770324706Q23.630415093688963,26.642371770324708,23.630415093688963,24.709691770324707Q23.630415093688963,22.77702177032471,25.008245093688963,21.410041770324707Q26.387235093688965,20.041921770324706,28.338055093688965,20.041921770324706Q30.288875093688965,20.041921770324706,31.667865093688967,21.410041770324707Q33.04568509368897,22.77702177032471,33.04568509368897,24.71030177032471Q33.047985093688965,26.000371770324705,32.37849509368897,27.106631770324707Q32.20775509368897,27.38888177032471,32.28823509368897,27.708471770324707Q32.36853509368896,28.027311770324708,32.65188509368896,28.196041770324705Q32.93398509368896,28.364041770324707,33.25298509368896,28.284961770324706Q33.572785093688964,28.205711770324704,33.742785093688966,27.924691770324706ZM32.29893509368897,20.783941770324706Q33.938185093688965,22.410311770324707,33.938185093688965,24.709691770324707Q33.938185093688965,26.249181770324707,33.14378509368896,27.56237177032471Q33.09408509368897,27.644641770324707,33.00998509368897,27.594591770324705Q32.97638509368896,27.574551770324707,32.967085093688965,27.53752177032471Q32.957885093688965,27.501241770324707,32.977385093688966,27.468961770324707Q33.74828509368896,26.195121770324707,33.74568509368896,24.70908177032471Q33.74568509368896,22.485441770324705,32.160875093688965,20.913111770324708Q30.577195093688964,19.341920770324705,28.338055093688965,19.341921770324706Q26.098915093688966,19.341921770324706,24.515235093688965,20.913111770324708Q22.930411093688964,22.485441770324705,22.930411093688964,24.709691770324707Q22.930411093688964,26.933951770324708,24.515235093688965,28.506281770324705Q26.098915093688966,30.077431770324708,28.338055093688965,30.077431770324708Q29.832975093688965,30.080131770324705,31.115425093688962,29.316431770324705Q31.199105093688964,29.266731770324707,31.248805093688965,29.348831770324708Q31.268305093688966,29.381131770324707,31.259185093688963,29.417331770324708Q31.249885093688967,29.454331770324707,31.216275093688964,29.474431770324706Q29.888095093688964,30.265331770324707,28.338585093688966,30.262931770324705Q26.017625093688963,30.262931770324705,24.377175093688965,28.635451770324707Q22.737885093688966,27.009081770324705,22.737885093688966,24.709691770324707Q22.737885093688966,22.410311770324707,24.377175093688965,20.783941770324706Q26.017625093688963,19.15643177032471,28.338055093688965,19.156430770324707Q30.658495093688963,19.15643177032471,32.29893509368897,20.783941770324706ZM25.305025093688965,26.921941770324707Q25.302095093688965,27.255171770324708,25.539195093688964,27.49040177032471Q25.775105093688964,27.724451770324706,26.108155093688964,27.721581770324708Q26.441235093688967,27.718701770324707,26.668755093688965,27.484901770324708L28.900035093688963,25.271221770324708Q29.134255093688964,25.038911770324706,29.134315093688965,24.709691770324707L29.134315093688965,22.053221770324708Q29.134315093688965,21.724051770324706,28.900115093688964,21.491691770324707Q28.667065093688965,21.260481770324706,28.338055093688965,21.260481770324706Q28.009045093688965,21.260481770324706,27.775995093688966,21.491691770324707Q27.541795093688965,21.724051770324706,27.541795093688965,22.053221770324708L27.541795093688965,24.380471770324707L25.549085093688966,26.357681770324707Q25.307945093688964,26.588751770324706,25.305025093688965,26.921941770324707ZM26.102115093688965,27.021611770324707Q26.060925093688965,27.021961770324708,26.032205093688965,26.993471770324707Q26.004665093688963,26.966141770324707,26.004995093688965,26.92808177032471Q26.005325093688967,26.889991770324706,26.033385093688963,26.863111770324707L28.241795093688964,24.672031770324708L28.241795093688964,22.053221770324708Q28.241795093688964,21.960481770324705,28.338055093688965,21.960481770324705Q28.434315093688966,21.960481770324705,28.434315093688966,22.053221770324708L28.434315093688966,24.709691770324707Q28.434315093688966,24.747221770324707,28.407095093688966,24.77421177032471L26.175745093688963,26.987971770324705Q26.143275093688963,27.021251770324707,26.102115093688965,27.021611770324707Z" fill-rule="evenodd" fill="#FAB85C" fill-opacity="1"/></g><g><rect x="13.462628364562988" y="8.475725412368774" width="5.95017147064209" height="33.20587921142578" rx="0" fill="#CACCFF" fill-opacity="1"/></g><g><rect x="37.263315200805664" y="11.42745065689087" width="4.462628364562988" height="30.25424575805664" rx="2" fill="#CACCFF" fill-opacity="1"/></g><g><path d="M38.5503,10.16049C38.197500000000005,8.40686,36.735,7,34.865300000000005,7L16.33498,7C14.20642,7,12.27032,8.87996,12.27032,10.99174L12.27032,13.50467L11.31631,13.50467C10.03901,13.50467,9,14.53651,9,15.80374C9,17.070999999999998,10.03901,18.102800000000002,11.31631,18.102800000000002L12.27032,18.102800000000002L12.27032,19.6729L11.31631,19.6729C10.03901,19.6729,9,20.704700000000003,9,21.972C9,23.2392,10.03901,24.271,11.31631,24.271L12.27032,24.271L12.27032,25.729L11.31631,25.729C10.03901,25.729,9,26.7888,9,28.0561C9,29.3233,10.03901,30.3832,11.31631,30.3832L12.27032,30.3832L12.27032,31.9533L11.31631,31.9533C10.03901,31.9533,9,32.9571,9,34.2243C9,35.4915,10.03901,36.4953,11.31631,36.4953L12.27032,36.4953L12.27032,39.3342C12.27032,41.4459,14.20642,43,16.33498,43L38.3397,43C40.4683,43,42,41.4459,42,39.3342L42,14.05578C42,12.048020000000001,40.533699999999996,10.31839,38.5503,10.16049ZM38.4957,21.1869L40.5305,21.1869L40.5305,23.4859L38.4957,23.4859L38.4957,21.1869ZM38.4957,28.813L40.5305,28.813L40.5305,31.1682L38.4957,31.1682L38.4957,28.813ZM11.31631,16.588729999999998C10.89066,16.588729999999998,10.54419,16.282049999999998,10.54419,15.85976C10.54419,15.43746,10.89066,15.13078,11.31631,15.13078L12.27032,15.13078L12.27032,16.588729999999998L11.31631,16.588729999999998ZM11.31631,22.756999999999998C10.89066,22.756999999999998,10.54419,22.394199999999998,10.54419,21.971899999999998C10.54419,21.549599999999998,10.89066,21.1869,11.31631,21.1869L12.27032,21.1869L12.27032,22.756999999999998L11.31631,22.756999999999998ZM11.31631,28.813C10.89066,28.813,10.54419,28.4783,10.54419,28.056C10.54419,27.6337,10.89066,27.299,11.31631,27.299L12.27032,27.299L12.27032,28.813L11.31631,28.813ZM11.31631,34.925200000000004C10.89066,34.925200000000004,10.54419,34.6465,10.54419,34.224199999999996C10.54419,33.8019,10.89066,33.5233,11.31631,33.5233L12.27032,33.5233L12.27032,34.925200000000004L11.31631,34.925200000000004ZM33.3211,41.4859L16.33498,41.4859C15.057680000000001,41.4859,13.79637,40.6013,13.79637,39.3341L13.79637,33.5233L14.98329,33.5233L14.98329,31.9532L13.79637,31.9532L13.79637,27.299L14.98329,27.299L14.98329,25.7289L13.79637,25.7289L13.79637,21.1869L14.98329,21.1869L14.98329,19.672800000000002L13.79637,19.672800000000002L13.79637,15.13079L14.98329,15.13079L14.98329,13.50462L13.79637,13.50462L13.79637,10.99168C13.79637,9.724450000000001,15.057680000000001,8.51396,16.33498,8.51396L34.865300000000005,8.51396C36.1426,8.51396,37.0263,9.724499999999999,37.0263,10.99168L37.0263,39.3341C37.0263,40.6013,36.1426,41.4859,34.865300000000005,41.4859L33.3211,41.4859ZM40.5305,39.3341C40.5305,40.6013,39.617000000000004,41.4859,38.3397,41.4859L37.946200000000005,41.4859C38.4333,41.0934,38.4957,40.1968,38.4957,39.3341L38.4957,32.6822L40.5305,32.6822L40.5305,39.3341ZM40.5305,27.299L38.4957,27.299L38.4957,24.9999L40.5305,24.9999L40.5305,27.299ZM38.4957,19.672800000000002L38.4957,11.79232C39.6827,11.97551,40.5305,12.91925,40.5305,14.05578L40.5305,19.6729L38.4957,19.672800000000002L38.4957,19.672800000000002Z" fill="#6967FE" fill-opacity="1" style="mix-blend-mode:passthrough"/></g><g><rect x="38.007083892822266" y="19.54444408416748" width="2.975085735321045" height="1.4758169651031494" rx="0.7379084825515747" fill="#FAB85C" fill-opacity="1"/></g><g><rect x="38.007083892822266" y="23.23398780822754" width="2.975085735321045" height="1.4758169651031494" rx="0.7379084825515747" fill="#FAB85C" fill-opacity="1"/></g><g><rect x="38.007083892822266" y="26.92352867126465" width="2.975085735321045" height="1.4758169651031494" rx="0.7379084825515747" fill="#FAB85C" fill-opacity="1"/></g><g><rect x="38.007083892822266" y="31.35097885131836" width="2.975085735321045" height="1.4758169651031494" rx="0.7379084825515747" fill="#FAB85C" fill-opacity="1"/></g></g></g></svg>