<svg xmlns="http://www.w3.org/2000/svg" xmlns:xlink="http://www.w3.org/1999/xlink" fill="none" version="1.1" width="50" height="50" viewBox="-8 -8 50 50"><defs><clipPath id="master_svg0_40_2708"><rect x="0" y="0" width="36" height="36" rx="0"/></clipPath></defs><g clip-path="url(#master_svg0_40_2708)"><g><g><ellipse cx="4.093792915344238" cy="7.609057188034058" rx="3.0937929153442383" ry="3.0228755474090576" fill="#8583FF" fill-opacity="1" style="mix-blend-mode:passthrough"/></g><g><rect x="1.442230224609375" y="13.65478515625" width="4.861807346343994" height="19.432641983032227" rx="2.430903673171997" fill="#8583FF" fill-opacity="1" style="mix-blend-mode:passthrough"/></g><g><path d="M28.402863037109373,17.5419L15.143193037109375,17.5419C12.947283037109376,17.5394,11.167921607109376,15.8004,11.165863037109375,13.6548L11.165863037109375,5.88616C11.167920177109375,3.74073,12.947433037109375,2.00201138,15.143193037109375,2L28.402863037109373,2C30.598263037109376,2.00250936,32.377163037109376,3.74108,32.379263037109375,5.88616L32.379263037109375,13.6594C32.37466303710937,15.8029,30.596563037109377,17.538899999999998,28.402863037109373,17.5419ZM15.143193037109375,5.44951C14.899323037109376,5.45001,14.701893037109375,5.64332,14.701893037109375,5.881600000000001L14.701893037109375,13.6548C14.701893037109375,13.8931,14.899323037109376,14.0864,15.143193037109375,14.0869L28.402863037109373,14.0869C28.646863037109377,14.0864,28.844563037109374,13.8933,28.845063037109377,13.6548L28.845063037109377,5.88616C28.844563037109374,5.64773,28.646863037109377,5.45457,28.402863037109373,5.45407L15.143193037109375,5.44951Z" fill="#8583FF" fill-opacity="1" style="mix-blend-mode:passthrough"/></g><g><path d="M25.06646078125,9.076820078125L22.65748078125,9.076820078125L22.65748078125,6.743115078125C22.67372078125,6.255081078125,22.27322078125,5.850830078125,21.77347078125,5.850830078125C21.27372078125,5.850830078125,20.87322078125,6.255081078125,20.88946078125,6.743115078125L20.88946078125,9.076820078125L18.33214078125,9.076820078125C17.84262878125,9.076820078125,17.44580078125,9.464550078125,17.44580078125,9.942840078125C17.44580078125,10.421130078125,17.84262878125,10.808860078125,18.33214078125,10.808860078125L20.88946078125,10.808860078125L20.88946078125,12.896440078125C20.90495078125,13.362560078125,21.29616078125,13.732600078125,21.77347078125,13.732600078125C22.25078078125,13.732600078125,22.64199078125,13.362560078125,22.65748078125,12.896440078125L22.65748078125,10.808860078125L25.06646078125,10.808860078125C25.55597078125,10.808860078125,25.952800781249998,10.421130078125,25.952800781249998,9.942840078125C25.952800781249998,9.464550078125,25.55597078125,9.076820078125,25.06646078125,9.076820078125Z" fill="#FAB85C" fill-opacity="1" style="mix-blend-mode:passthrough"/></g><g><path d="M33.34118569335938,19.6787109375L10.190905693359374,19.6787109375C9.323224693359375,19.6787109375,8.492864393359374,20.4234889375,8.532982273359375,21.2977209375C8.573100093359376,22.1719509375,9.261646693359374,22.9176409375,10.190905693359374,22.9176409375L17.065175693359375,22.9176409375C16.956945693359373,23.0088009375,16.848715693359374,23.0926609375,16.742355693359375,23.1820009375Q15.488415693359375,24.2403709375,14.298855693359375,25.3698509375Q13.141955693359375,26.4692409375,12.050355693359375,27.6324509375C11.687415693359375,28.0189709375,11.331945693359375,28.4109609375,10.960625693359376,28.7892709375C10.766555693359376,28.9880009375,10.567835693359374,29.183090937499998,10.361645693359375,29.3699709375Q10.238485693359376,29.483920937500002,10.112535693359375,29.591480937500002Q9.720675693359375,29.907810937500003,9.925935693359374,29.7537109375C9.241122693359374,30.267910937499998,8.806348693359375,31.1713109375,9.331622693359375,31.9698109375C9.768265693359375,32.6317109375,10.863595693359375,33.1021109375,11.599715693359375,32.5505109375C13.437705693359375,31.1731109375,14.865185693359376,29.3599409375,16.518435693359375,27.7792209375Q17.703335693359374,26.6470109375,18.955385693359375,25.584080937499998C19.336085693359376,25.2604609375,19.734485693359375,24.9459509375,20.120685693359377,24.6268909375Q20.012485693359373,28.4993809375,20.080585693359374,32.375510937499996C20.096485693359377,33.2224109375,20.832585693359377,34.0346109375,21.738485693359372,33.9954109375C22.622985693359375,33.9562109375,23.412285693359372,33.2835109375,23.395485693359376,32.375510937499996Q23.309685693359377,27.6470309375,23.488785693359375,22.9185509375L33.34118569335938,22.9185509375C34.20888569335938,22.9185509375,35.03918569335937,22.1737709375,34.999085693359376,21.2986309375C34.958985693359374,20.4234889375,34.27038569335937,19.6787109375,33.34118569335938,19.6787109375Z" fill="#8583FF" fill-opacity="1" style="mix-blend-mode:passthrough"/></g><g><path d="M25.7662148671875,27.490919765625L31.0077538671875,31.852929765625C31.3482938671875,32.135529765625,31.7196238671875,32.326969765625,32.1795838671875,32.326969765625C32.5863638671875,32.326969765625,33.0715238671875,32.151029765625,33.3514138671875,31.852929765625C33.919603867187504,31.248539765625,34.0567638671875,30.149149765625,33.3514138671875,29.562989765624998L28.1108138671875,25.202794765625C27.7702738671875,24.920199765625,27.3989438671875,24.728759765625,26.9389838671875,24.728759765625C26.5322038671875,24.728759765625,26.0461118671875,24.905610765625,25.7662148671875,25.202794765625C25.1989585671875,25.807189765625,25.0618088671875,26.906579765625,25.7662148671875,27.493649765625L25.7662148671875,27.490919765625Z" fill="#8583FF" fill-opacity="1" style="mix-blend-mode:passthrough"/></g></g></g></svg>