<svg xmlns="http://www.w3.org/2000/svg" xmlns:xlink="http://www.w3.org/1999/xlink" fill="none" version="1.1" width="50" height="50" viewBox="0 0 50 50"><g><g><g><path d="M43.9429,35.0987L42.5053,35.0987L42.5053,13.88432C42.5053,11.75008,40.7717,10,38.6575,10L11.59619,10C9.48203,10,7.74841,11.75008,7.74841,13.88432L7.74841,35.0987L6.05708,35.0987C5.465116,35.0987,5,35.568200000000004,5,36.165800000000004C5,36.763400000000004,5.465116,37.2329,6.05708,37.2329L43.9429,37.2329C44.5349,37.2329,45,36.763400000000004,45,36.165800000000004C45,35.568200000000004,44.5349,35.0987,43.9429,35.0987ZM9.82029,13.88432C9.82029,12.90257,10.62368,12.13424,11.55391,12.13424L38.6575,12.13424C39.63,12.13424,40.3911,12.945260000000001,40.3911,13.88432L40.3911,35.0987L19.3763,35.0987L19.3763,34.5011C19.3763,34.0743,19.0381,33.7328,18.6152,33.7328L14.26004,33.7328C13.83721,33.7328,13.49894,34.0743,13.49894,34.5011L13.49894,35.0987L9.862580000000001,35.0987L9.862580000000001,13.88432L9.82029,13.88432Z" fill="#6967FE" fill-opacity="1" style="mix-blend-mode:passthrough"/></g><g><path d="M14.598311155395507,18.238268224945067L31.84993115539551,18.238268224945067C32.441831155395505,18.238268224945067,32.90693115539551,17.768738224945068,32.90693115539551,17.171148224945068C32.90693115539551,16.573561224945067,32.441831155395505,16.10402822494507,31.84993115539551,16.10402822494507L14.598311155395507,16.10402822494507C14.006348155395507,16.10402822494507,13.541231155395508,16.573562224945068,13.541231155395508,17.171148224945068C13.541231155395508,17.768738224945068,14.006347155395508,18.238268224945067,14.598311155395507,18.238268224945067ZM14.598311155395507,24.38488822494507L25.08453115539551,24.38488822494507C25.67653115539551,24.38488822494507,26.14163115539551,23.915358224945066,26.14163115539551,23.31776822494507C26.14163115539551,22.72018822494507,25.67653115539551,22.250648224945067,25.08453115539551,22.250648224945067L14.598311155395507,22.250648224945067C14.006348155395507,22.250648224945067,13.541231155395508,22.72018822494507,13.541231155395508,23.31776822494507C13.541231155395508,23.87267822494507,14.006348155395507,24.38488822494507,14.598311155395507,24.38488822494507Z" fill="#CACCFF" fill-opacity="1" style="mix-blend-mode:passthrough"/></g><g><path d="M34.65359317016602,32.12828885498047C35.638493170166015,31.23944885498047,36.26679317016602,29.88961885498047,36.26679317016602,28.377258854980468C36.26679317016602,25.69582885498047,34.29054317016602,23.52513885498047,31.855163170166016,23.52513885498047C29.418173170166014,23.52513885498047,27.441873170166016,25.69582885498047,27.441873170166016,28.37558885498047C27.441873170166016,29.72047885498047,27.940023170166015,30.939288854980468,28.745833170166016,31.81652885498047C28.845133170166015,31.91437885498047,31.651693170166016,34.55933885498047,34.65359317016602,32.12828885498047ZM37.61309317016602,35.48293885498047L35.21519317016602,33.257578854980466C34.31496317016602,34.008738854980464,31.764003170166013,35.59403885498047,28.237913170166017,33.20118885498047C27.174893170166015,34.03363885498047,24.339049170166014,36.42323885498047,24.653247870166016,38.03503885498047Q24.708594670166015,39.71653885498047,27.708853170166016,39.79783885498047Q36.649393170166014,40.47103885498047,38.135693170166014,38.90233885498047C38.13409317016602,38.90233885498047,39.75869317016601,37.83773885498047,37.61309317016602,35.48293885498047Z" fill="#CACCFF" fill-opacity="1" style="mix-blend-mode:passthrough"/></g><g><rect x="12.760096549987793" y="32.51131629943848" width="7.4181227684021" height="2.995429277420044" rx="1" fill="#FAB85C" fill-opacity="1"/></g></g></g></svg>