<svg xmlns="http://www.w3.org/2000/svg" xmlns:xlink="http://www.w3.org/1999/xlink" fill="none" version="1.1" width="50" height="50" viewBox="0 0 50 50"><g><g><g><path d="M18.992417805290223,41.065149504089355L6.919817805290222,38.23544950408936L6.919817805290222,10.051249504089355L18.992417805290223,12.880989504089357L18.992417805290223,41.065149504089355Z" fill="#CACCFF" fill-opacity="1" style="mix-blend-mode:passthrough"/></g><g><path d="M18.9924,41.9702446521759L18.7625,41.9702446521759L6.689863,39.140544652175905C6.287443,39.0273446521759,6,38.68774465217591,6,38.2350446521759L6,10.050828652175904C6,9.767854652175902,6.114977,9.541475652175903,6.344932,9.371690652175904C6.574886,9.201906452175903,6.862329,9.088716952175904,7.14977,9.201906452175903L19.2224,11.975054652175903C19.6248,12.088244652175904,19.9122,12.484404652175904,19.9122,12.880564652175902L19.9122,41.064744652175904C19.9122,41.5648446521759,19.5004,41.9702446521759,18.9924,41.9702446521759ZM7.83964,37.5559446521759L18.0726,39.9328446521759L18.0726,13.616304652175902L7.83964,11.182724652175903L7.83964,37.5559446521759Z" fill="#6967FE" fill-opacity="1" style="mix-blend-mode:passthrough"/></g><g><path d="M43.25266751098633,11.975373873901367L37.61876751098633,10.673697873901368C37.10136751098633,10.560508373901367,36.58396751098633,10.843481873901368,36.46896751098633,11.352834873901367C36.35396751098633,11.805593873901367,36.69896751098633,12.314943873901367,37.158867510986326,12.428133873901366L42.16036751098633,13.560033873901368L42.16036751098633,39.93322387390137L31.92736751098633,37.55622387390137L31.92736751098633,32.68902387390136C31.92736751098633,32.17972387390137,31.52496751098633,31.783523873901366,31.007567510986327,31.783523873901366C30.49016751098633,31.783523873901366,30.08776751098633,32.17972387390137,30.08776751098633,32.68902387390136L30.08776751098633,37.55622387390137L19.854787510986327,39.93322387390137L19.854787510986327,13.560033873901368L24.79880751098633,12.428133873901366C25.23861751098633,12.275333873901367,25.492647510986327,11.822653873901366,25.38991751098633,11.374788873901368C25.287187510986328,10.926919873901367,24.860217510986327,10.625628273901366,24.39638751098633,10.673697873901368L18.70501651098633,11.975373873901367C18.302596510986326,12.088563873901368,18.015153482986328,12.428133873901366,18.015153482986328,12.880893873901368L18.015153482986328,41.06512387390137C17.995583010986326,41.66892387390136,18.570783510986328,42.121923873901366,19.164927510986328,41.97062387390137L31.007567510986327,39.19742387390137L42.85026751098633,41.97062387390137L43.08016751098633,41.97062387390137C43.588167510986324,41.97062387390137,43.99996751098632,41.56522387390137,43.99996751098632,41.06512387390137L43.99996751098632,12.880893873901368C43.99996751098632,12.428133873901366,43.71256751098633,12.088563873901368,43.25266751098633,11.975373873901367Z" fill="#6967FE" fill-opacity="1" style="mix-blend-mode:passthrough"/></g><g><path d="M35.44999885559082,11.40704C35.43475885559082,9.02483,33.40526885559082,7.0796959,30.85429885559082,7.00237695C28.30332885559082,6.9250574,26.14290385559082,8.74319,25.96211195559082,11.11947C25.781318855590822,13.49574,27.64479885559082,15.58058,30.18186885559082,15.84051L30.18186885559082,27.166C30.18186885559082,27.5287,30.48413885559082,27.8109,30.87277885559082,27.8109C31.261408855590822,27.8109,31.56367885559082,27.5287,31.56367885559082,27.166L31.56367885559082,15.80021C33.76592885559082,15.39716,35.44999885559082,13.58347,35.44999885559082,11.40704ZM30.700048855590822,14.55077C28.839868855590822,14.53964,27.341568855590822,13.12312,27.35348885559082,11.386890000000001C27.36541885559082,9.65065,28.88305885559082,8.25218,30.74322885559082,8.26331C32.60340885559082,8.27444,34.10170885559082,9.69096,34.08978885559082,11.42719C34.07785885559082,13.16343,32.56022885559082,14.5619,30.700048855590822,14.55077Z" fill="#FAB85C" fill-opacity="1" style="mix-blend-mode:passthrough"/></g></g></g></svg>