<svg xmlns="http://www.w3.org/2000/svg" xmlns:xlink="http://www.w3.org/1999/xlink" fill="none" version="1.1" width="50" height="50" viewBox="0 0 50 50"><g><g><g><g><g><path d="M24.294897276763916,24.38281861038208C26.591757276763914,24.38281861038208,28.453727276763914,22.51763861038208,28.453727276763914,20.21677861038208C28.453727276763914,17.91591861038208,26.591757276763914,16.05070861038208,24.294897276763916,16.05070861038208C21.998027276763917,16.05070861038208,20.136057276763918,17.91591861038208,20.136057276763918,20.21677861038208C20.136057276763918,22.51763861038208,21.998027276763917,24.38281861038208,24.294897276763916,24.38281861038208ZM24.294897276763916,25.153918610382078C21.572247276763918,25.15491861038208,19.364617276763916,22.944158610382082,19.364617276763916,20.21677861038208C19.364617276763916,17.48939861038208,21.572247276763918,15.27868461038208,24.294897276763916,15.27962661038208C27.016207276763915,15.28056761038208,29.221767276763916,17.49072861038208,29.221767276763916,20.21677861038208C29.221767276763916,22.94282861038208,27.016207276763915,25.15301861038208,24.294897276763916,25.153918610382078ZM29.902667276763914,16.83162861038208C30.012567276763917,17.01406861038208,29.954067276763915,17.25116861038208,29.772067276763917,17.36135861038208C29.589967276763915,17.47154861038208,29.353267276763916,17.41313861038208,29.243067276763917,17.230868610382082C28.691807276763917,16.316358610382082,27.899627276763916,15.57168861038208,26.953547276763913,15.07859761038208C26.751667276763918,14.98775361038208,26.667537276763916,14.74559561038208,26.76948727676392,14.548826610382081C26.871437276763913,14.35205781038208,27.117537276763915,14.28159641038208,27.307887276763914,14.39467761038208C28.379997276763916,14.95293961038208,29.277767276763917,15.79636861038208,29.902667276763914,16.83232861038208L29.902667276763914,16.83162861038208ZM18.791644776763917,16.83162861038208C19.416639276763917,15.79591861038208,20.314427276763915,14.95274761038208,21.386447276763917,14.39467811038208C21.576497276763916,14.28616291038208,21.818497276763917,14.35776941038208,21.919187276763918,14.55231061038208C22.019877276763914,14.74685261038208,21.938837276763916,14.98624361038208,21.740787276763918,15.07930061038208C20.794797276763916,15.57219861038208,20.002637276763917,16.31661861038208,19.451220276763916,17.230868610382082C19.339249276763915,17.40841861038208,19.106096276763918,17.46367861038208,18.926577276763915,17.35519861038208C18.747058586763917,17.24672861038208,18.687094176763917,17.01435861038208,18.791644976763916,16.83232861038208L18.791644776763917,16.83162861038208ZM20.942987276763915,25.32681861038208C20.843617276763915,25.50811861038208,20.619287276763917,25.57871861038208,20.434317276763917,25.48691861038208C20.249337276763917,25.39511861038208,20.169477276763917,25.173518610382082,20.253237276763915,24.984518610382082L20.590747276763917,24.30272861038208C20.686597276763916,24.114518610382078,20.915717276763917,24.03851861038208,21.104757276763916,24.132238610382082C21.293797276763915,24.22595861038208,21.372447276763914,24.45451861038208,21.281197276763915,24.64501861038208L20.942987276763915,25.32681861038208ZM27.675567276763914,25.32681861038208L27.338767276763917,24.64501861038208C27.252097276763916,24.45551861038208,27.331317276763915,24.231348610382078,27.517687276763915,24.13866861038208C27.704057276763915,24.04597861038208,27.930227276763915,24.11830861038208,28.028517276763914,24.30202861038208L28.365317276763918,24.98381861038208C28.451997276763915,25.173318610382083,28.372777276763916,25.39751861038208,28.186397276763916,25.49021861038208C28.000027276763916,25.58291861038208,27.773857276763916,25.510618610382082,27.675567276763914,25.32681861038208Z" fill="#6967FE" fill-opacity="1" style="mix-blend-mode:passthrough"/></g><g><path d="M27.352479720458984,18.787736966674803Q27.425759720458984,18.690273966674805,27.464389720458986,18.574615966674806Q27.503019720458983,18.458957966674806,27.503019720458983,18.337018966674805Q27.503019720458983,18.263150466674805,27.488609720458985,18.190700966674804Q27.474199720458984,18.118251966674805,27.445929720458984,18.050005966674803Q27.417659720458985,17.981760966674806,27.376619720458983,17.920340966674804Q27.335579720458984,17.858921966674806,27.283349720458986,17.806688966674805Q27.231119720458985,17.754455966674804,27.169699720458986,17.713416966674806Q27.108279720458984,17.672377966674805,27.040029720458985,17.644108966674803Q26.971789720458986,17.615840966674806,26.899339720458983,17.601429966674804Q26.826889720458986,17.587018966674805,26.753019720458983,17.587018966674805Q26.665809720458984,17.587018966674805,26.580929720458983,17.607030966674806Q26.496039720458985,17.627041966674806,26.418009720458983,17.665997966674805Q26.339989720458984,17.704952966674803,26.272979720458984,17.760773966674805Q26.205969720458985,17.816593966674805,26.153559720458986,17.886300966674806L26.153259720458983,17.886703966674805L24.196709720458983,20.488938966674805L22.391071720458985,19.154761966674805Q22.294290720458985,19.083250966674804,22.179997720458985,19.045605966674806Q22.065703720458984,19.007960966674805,21.945369720458984,19.007960966674805Q21.871501220458985,19.007960966674805,21.799051720458984,19.022371966674804Q21.726602720458985,19.036782966674807,21.658356720458983,19.065051966674805Q21.590111720458985,19.093319966674805,21.528691720458983,19.134358966674803Q21.467272720458986,19.175397966674804,21.415039720458985,19.227630966674806Q21.362806720458984,19.279863966674803,21.321767720458986,19.341278966674803Q21.280728720458985,19.402698966674805,21.252459720458983,19.470948966674804Q21.224191720458986,19.539198966674803,21.209780720458983,19.611638966674803Q21.195369720458984,19.684088966674803,21.195369720458984,19.757958966674806Q21.195369720458984,19.845968966674803,21.215741720458983,19.931578966674806Q21.236113720458984,20.017188966674805,21.275751720458985,20.095768966674804Q21.315389720458985,20.174338966674803,21.372138720458985,20.241598966674804Q21.428888720458986,20.308858966674805,21.499667720458984,20.361158966674804L23.903489720458985,22.137338966674804Q23.962589720458986,22.180998966674807,24.029029720458986,22.212368966674806Q24.095469720458986,22.243728966674805,24.166739720458985,22.261608966674803Q24.237999720458983,22.279478966674805,24.311389720458983,22.283188966674803Q24.384769720458983,22.286888966674805,24.457469720458985,22.276278966674806Q24.530169720458986,22.265678966674805,24.599439720458985,22.241158966674803Q24.668699720458985,22.216648966674803,24.731889720458984,22.179158966674805Q24.795079720458986,22.141668966674803,24.849789720458986,22.092618966674806Q24.904499720458986,22.043578966674804,24.948659720458984,21.984858966674803L27.352479720458984,18.787736966674803L27.352479720458984,18.787736966674803Z" fill-rule="evenodd" fill="#FAB85C" fill-opacity="1"/></g></g><g transform="matrix(-0.7620067000389099,-0.6475691795349121,-0.6494430303573608,0.7604103088378906,93.47268790065027,34.375179885759735)"><ellipse cx="48.458486557006836" cy="34.34076929092407" rx="4.458487510681152" ry="9.789894104003906" fill="#CACCFF" fill-opacity="1"/></g><g><rect x="16.92478847503662" y="28.847492694854736" width="21.012451171875" height="7.553196430206299" rx="3.7765982151031494" fill="#CACCFF" fill-opacity="1"/></g></g><g><path d="M36.790800000000004,20.081L36.790800000000004,14.35736C36.790800000000004,11.95712,34.875299999999996,10,32.5261,10L14.63608,10C12.28689,10,10.37139,11.95712,10.37139,14.35736L10.37139,20.0256C7.24516,20.081,5.275454,22.9428,6.251272,25.9708C6.341626,26.2662,7.85956,28.168,8.09448,28.4634C8.60046,29.165,8.97995,29.8112,9.25101,30.4205C9.34136,30.642,9.43172,30.8451,9.52207,31.0667C9.97384,32.193,10.33525,33.448499999999996,10.588239999999999,34.667100000000005C10.6786,35.0917,10.76895,35.4979,10.82316,35.8487C10.859300000000001,36.0703,10.877369999999999,36.218,10.877369999999999,36.273399999999995C10.91352,36.513400000000004,11.02194,36.735,11.20265,36.8457L11.20265,40.1138C11.20265,40.5938,11.58213,41,12.070039999999999,41C12.53988,41,12.937429999999999,40.612300000000005,12.937429999999999,40.1138L12.937429999999999,37.492000000000004L35.5078,37.492000000000004L35.5078,40.1138C35.5078,40.5938,35.8872,41,36.3751,41C36.845,41,37.2425,40.612300000000005,37.2425,40.1138L37.2425,36.6057C37.2425,36.513400000000004,37.2425,36.458,37.2064,36.3842C37.2064,36.3472,37.2425,36.3288,37.2425,36.291799999999995C37.2425,36.2365,37.2787,36.0703,37.296800000000005,35.8672C37.351,35.4795,37.4413,35.0733,37.5317,34.685500000000005C37.8027,33.466899999999995,38.1641,32.2114,38.5978,31.0852C38.6882,30.8636,38.7785,30.6605,38.8689,30.439C39.14,29.8297,39.5194,29.1834,40.0254,28.4818C40.2603,28.1864,41.7602,26.2847,41.8686,25.9893C42.9348,22.647399999999998,40.423,19.5271,36.790800000000004,20.081ZM40.2061,25.4169C40.2423,25.3615,40.0616,25.6015,39.7905,25.9339C39.1942,26.6724,38.9773,26.9678,38.634,27.4294C38.0738,28.2233,37.585899999999995,28.9803,37.296800000000005,29.682C37.2064,29.922,37.079899999999995,30.1435,37.0076,30.3836C36.501599999999996,31.6391,36.1222,32.95,35.8511,34.2793C35.7607,34.704,35.6704,35.1286,35.6162,35.5533C35.6162,35.6087,35.58,35.682500000000005,35.58,35.737899999999996L12.53988,35.737899999999996C12.53988,35.682500000000005,12.50374,35.6087,12.50374,35.5533C12.44953,35.1656,12.359169999999999,34.7225,12.26882,34.2793C11.97969,32.9684,11.618269999999999,31.6206,11.11229,30.3836C11.02194,30.1435,10.93158,29.922,10.82316,29.682C10.49789,28.9434,10.04612,28.2233,9.48593,27.4294C9.16066,26.9678,8.92574,26.6724,8.3294,25.9339C8.05834,25.6015,7.87763,25.3615,7.91378,25.4169C7.13674,23.0351,9.10644,20.9672,12.12425,22.075L15.70225,26.7278C15.99138,27.0971,16.5335,27.1894,16.8949,26.8755C17.2563,26.5801,17.310499999999998,26.0262,17.0395,25.6569L13.28078,20.782600000000002C13.19042,20.653399999999998,13.06393,20.561,12.919360000000001,20.505699999999997C12.648299999999999,20.3764,12.359169999999999,20.284100000000002,12.08811,20.2287L12.08811,14.35736C12.08811,12.89875,13.226569999999999,11.73556,14.65415,11.73556L32.507999999999996,11.73556C33.917500000000004,11.73556,35.0741,12.91721,35.0741,14.35736L35.0741,20.4503L35.3451,20.4503C35.2909,20.4872,35.218599999999995,20.4872,35.1644,20.505699999999997C35.019800000000004,20.561,34.893299999999996,20.653399999999998,34.803,20.782600000000002L28.6589,28.7403L18.9008,28.7403C18.4309,28.7403,18.0334,29.1281,18.0334,29.6266C18.0334,30.1066,18.4129,30.5128,18.9008,30.5128L29.1288,30.5128C29.3998,30.5128,29.6348,30.3836,29.7793,30.1805L36.0137,22.075C39.0135,20.9672,40.9832,23.0351,40.2061,25.4169Z" fill="#6967FE" fill-opacity="1" style="mix-blend-mode:passthrough"/></g></g></g></svg>