<svg xmlns="http://www.w3.org/2000/svg" xmlns:xlink="http://www.w3.org/1999/xlink" fill="none" version="1.1" width="50" height="50" viewBox="0 0 50 50"><g><g><g><path d="M19.53591004211426,16.250182328186035C18.363010042114258,16.614812328186034,18.148140042114257,17.648642328186035,18.22372004211426,18.305412328186037C17.38700004211426,17.232862328186034,17.42125004211426,15.999332328186036,17.42125004211426,14.222222328186035C14.737550042114258,15.325382328186034,15.361690042114258,18.506292328186035,15.281520042114257,19.472172328186033Q14.606480042114258,18.869732328186036,14.478860042114258,17.430582328186034C13.766317042114258,17.830362328186034,13.409090042114258,18.897972328186036,13.409090042114258,19.763912328186034C13.409090042114258,21.858052328186034,14.965810042114258,23.555552328186035,16.88646004211426,23.555552328186035C18.806910042114257,23.555552328186035,20.36363004211426,21.858052328186034,20.36363004211426,19.763912328186034C20.36363004211426,18.519522328186035,19.525580042114257,17.945322328186034,19.53591004211426,16.249992328186035L19.53591004211426,16.250182328186035Z" fill="#FAB85C" fill-opacity="1" style="mix-blend-mode:passthrough"/></g><g><rect x="22.681817054748535" y="15.000000953674316" width="13.909089088439941" height="4.6666669845581055" rx="1" fill="#CACCFF" fill-opacity="1"/></g><g><rect x="22.681817054748535" y="20.44453239440918" width="13.909089088439941" height="2.3333334922790527" rx="1" fill="#CACCFF" fill-opacity="1"/></g><g><rect x="9.545454502105713" y="28.22222328186035" width="30.909086227416992" height="6.222222328186035" rx="0" fill="#CACCFF" fill-opacity="1"/></g><g><path d="M37.6112,36.4367L29.9346,36.4367L29.9346,40.8116L32.128,40.8116C32.7348,40.8104,33.2274,41.3007,33.2274,41.9058C33.2274,42.5109,32.7348,43.0012,32.128,43L18.9673,43C18.360500000000002,43.0012,17.86793,42.5109,17.86793,41.9058C17.86793,41.3007,18.360500000000002,40.8104,18.9673,40.8116L21.1607,40.8116L21.1607,36.4367L12.38691,36.4367C9.96424,36.4373,8,34.4788,8.000000714583,32.062799999999996L8.000000714583,12.374880000000001C8,9.9587,9.96409,8.000000712623,12.38691,8.00000142525L37.6121,8.00000142525C40.0356,8.000528767,42,9.95907,42,12.374880000000001L42,32.062799999999996C41.9995,34.4786,40.0347,36.4367,37.6112,36.4367ZM27.7411,40.8126L27.7411,36.4377L23.3542,36.4377L23.3542,40.8126L27.7411,40.8126ZM39.8046,12.374880000000001C39.8052,11.16657,38.8228,10.186910000000001,37.6112,10.18744L12.385950000000001,10.18744C11.17432,10.186910000000001,10.19197,11.16657,10.192499999999999,12.374880000000001L10.192499999999999,27.6879L39.8046,27.6879L39.8046,12.374880000000001ZM39.8046,29.8754L10.192499999999999,29.8754L10.192499999999999,32.062799999999996C10.192499999999999,33.270700000000005,11.17469,34.2498,12.385950000000001,34.249300000000005L37.6112,34.249300000000005C38.8224,34.2498,39.8046,33.270700000000005,39.8046,32.062799999999996L39.8046,29.8754Z" fill="#6967FE" fill-opacity="1" style="mix-blend-mode:passthrough"/></g><g><ellipse cx="25.38636291027069" cy="32.499998807907104" rx="1.1590908765792847" ry="1.1666667461395264" fill="#6967FE" fill-opacity="1"/></g></g></g></svg>