<svg xmlns="http://www.w3.org/2000/svg" xmlns:xlink="http://www.w3.org/1999/xlink" width="20" height="20"
	viewBox="0 0 20 20">
	<g transform="translate(-202 -138)">
		<g transform="translate(203.728 138)" fill="currentColor">
			<path
				d="M20.963,7.826V3.6a1.6,1.6,0,0,0-1.6-1.6H6.021a1.6,1.6,0,0,0-1.6,1.6V20.4a1.6,1.6,0,0,0,1.6,1.6H19.358a1.6,1.6,0,0,0,1.6-1.6V16.174a.835.835,0,1,0-1.67,0v4.154H10.55V3.67h8.741V7.826a.836.836,0,0,0,1.672,0ZM8.881,20.33H6.091V3.67H8.883V20.33Z"
				transform="translate(-4.419 -2)" />
			<path
				d="M19.267,18.487a.834.834,0,0,0,.835-.835V15.177h2.475a.835.835,0,0,0,0-1.67H20.1V11.032a.835.835,0,1,0-1.67,0v2.475H15.957a.835.835,0,1,0,0,1.67h2.475v2.475a.832.832,0,0,0,.835.835Z"
				transform="translate(-7.477 -4.342)" />
		</g>
	</g>
</svg>