<svg xmlns="http://www.w3.org/2000/svg" width="14.886" height="15.262" viewBox="0 0 14.886 15.262" fill="currentColor">
	<defs>
		<style>
			.b {
				fill: none;
				stroke: currentColor;
				stroke-linecap: round;
			}
		</style>
	</defs>
	<g transform="translate(-303.034 -50)">
		<g transform="translate(303.034 50)">
			<path
				d="M15.872,20.726H8.993a.954.954,0,0,1-.953-.952L6.43,10.089a.56.56,0,0,1,.461-.644.553.553,0,0,1,.645.461l1.6,9.7h6.587L17,9.924a.561.561,0,0,1,1.112.147l-1.295,9.777a.935.935,0,0,1-.949.879Z"
				transform="translate(-4.665 -5.464)" />
			<path
				d="M15.049,18.236a.2.2,0,0,0-.005.044Zm-6.557-.05v0S8.493,18.188,8.492,18.186Zm10.165-12.4H15.544L13.758,4.121a.559.559,0,0,0-.382-.15H9.926a.557.557,0,0,0-.386.155L7.8,5.786H4.564a.56.56,0,1,0,0,1.121H8.036l.035,0,.025,0,.027,0,.052-.012.034-.011.017-.006.049-.022.037-.021.01-.006.045-.032q.02-.016.039-.033l0,0L8.42,6.74l1.73-1.649h3c1.838,1.742,2,1.816,2.162,1.815h3.34c.31,0,.309-1.121,0-1.121Z"
				transform="translate(-4.004 -3.97)" />
		</g>
		<path class="b" d="M0,0V5.5" transform="translate(309.052 55.249)" />
		<path class="b" d="M0,0V5.5" transform="translate(312.686 55.249)" />
	</g>
</svg>