<svg xmlns="http://www.w3.org/2000/svg" width="24" height="24" viewBox="0 0 198 198" fill="none">
	<rect width="6" height="4" x="93" y="73" fill="#C8D7F9" rx="0" />
	<rect width="5" height="21" x="94" y="43" fill="#C8D7F9" rx="0" />
	<path stroke="#787AE8" strokeWidth="4"
		d="M32 25a8 8 0 0 1 8-8h111a8 8 0 0 1 8 8v111c0 24.3-19.7 44-44 44H40a8 8 0 0 1-8-8Z" />
	<path fill="#787AE8" fillRule="evenodd"
		d="M152.835 139.796q.165-.38.165-.796 0-.098-.01-.196t-.028-.194q-.02-.097-.048-.19-.029-.095-.066-.185-.038-.091-.084-.178-.046-.086-.101-.168-.055-.082-.117-.158-.062-.076-.132-.145-.07-.07-.145-.132-.076-.062-.158-.117-.082-.055-.168-.1-.087-.047-.178-.085-.09-.037-.184-.066-.094-.028-.19-.048-.097-.019-.195-.028-.098-.01-.196-.01-.145 0-.29.021-.143.021-.282.063-.14.041-.272.103-.131.061-.253.14-.122.08-.23.177-.11.097-.203.208-.093.111-.17.235-.077.123-.135.257-4.669 10.755-17.33 11.803-.093.007-.184.024-.092.016-.182.04-.09.025-.177.058t-.17.074q-.084.041-.163.09-.08.048-.154.104-.075.055-.144.118-.07.062-.132.13-.063.069-.12.143-.056.074-.106.153-.049.079-.09.162-.042.083-.076.17-.034.087-.06.176-.025.09-.042.181-.018.092-.026.184-.009.093-.009.186 0 .098.01.196t.028.194q.02.097.048.19.029.095.066.185.038.091.084.178.046.086.101.168.055.082.117.158.062.076.132.145.07.07.145.132.076.062.158.117.082.055.168.1.087.047.178.085.09.037.184.066.094.028.19.048.097.019.195.028.098.01.196.01.083 0 .165-.007h.003q15.045-1.247 20.667-14.197Z" />
	<path fill="#787AE8" fillRule="evenodd"
		d="M133.492 152.463q.017-.434-.147-.836-.037-.09-.083-.177-.046-.087-.1-.17-.054-.081-.116-.158-.062-.076-.13-.146-.07-.07-.146-.132-.075-.063-.157-.118-.081-.055-.167-.102-.087-.047-.177-.085-.09-.038-.185-.067-.094-.029-.19-.048-.096-.02-.194-.03-.098-.01-.196-.011-.098 0-.196.009t-.194.027q-.097.019-.19.047-.095.028-.186.065-.133.054-.256.127-.124.072-.236.161-.111.09-.21.194-.098.104-.18.221-.082.118-.147.245-.064.128-.11.264-.046.135-.072.276-.026.14-.032.284v.007q-.521 12.93-11.262 17.779-.088.04-.17.087-.084.048-.162.103-.079.056-.151.118-.073.063-.14.132-.066.07-.125.145-.06.075-.111.156-.052.08-.096.166-.044.086-.08.175-.035.089-.062.18-.027.093-.045.187-.018.095-.027.19-.009.096-.008.192 0 .096.01.191.01.096.028.19.019.094.046.186.028.092.064.18.037.091.083.178.046.087.1.17.054.081.116.157.062.077.131.147.07.07.145.132.075.063.157.118.081.055.168.102.086.046.177.085.09.038.184.067.094.029.19.048.097.02.194.03.098.01.196.01.098.001.196-.008.098-.009.195-.028.096-.018.19-.046t.185-.065l.068-.03q12.995-5.866 13.613-21.27ZM50 101h57q.098 0 .196.01t.194.028q.097.02.19.048.095.029.185.066.091.038.178.084.086.046.168.101.082.055.158.117.076.062.145.132.07.07.132.145.062.076.117.158.055.082.1.168.047.087.085.178.037.09.066.184.028.094.048.19.019.097.028.195.01.098.01.196t-.01.196q-.01.098-.028.194-.02.097-.048.19-.029.095-.066.185-.038.091-.084.178-.046.086-.101.168-.055.082-.117.158-.062.076-.132.145-.07.07-.145.132-.076.062-.158.117-.082.055-.168.1-.087.047-.178.085-.09.037-.184.066-.094.028-.19.048-.097.019-.195.028-.098.01-.196.01H50q-.098 0-.196-.01t-.194-.028q-.097-.02-.19-.048-.095-.029-.185-.066-.091-.038-.178-.084-.086-.046-.168-.101-.082-.055-.158-.117-.076-.062-.145-.132-.07-.07-.132-.145-.062-.076-.117-.158-.055-.082-.1-.168-.047-.087-.085-.178-.037-.09-.066-.184-.028-.094-.048-.19-.019-.097-.028-.195-.01-.098-.01-.196t.01-.196q.01-.098.028-.194.02-.097.048-.19.029-.095.066-.185.038-.091.084-.178.046-.086.101-.168.055-.082.117-.158.062-.076.132-.145.07-.07.145-.132.076-.062.158-.117.082-.055.168-.1.087-.047.178-.085.09-.037.184-.066.094-.028.19-.048.097-.019.195-.028.098-.01.196-.01ZM50 146h57q.098 0 .196.01t.194.028q.097.02.19.048.095.029.185.066.091.038.178.084.086.046.168.101.082.055.158.117.076.062.145.132.07.07.132.145.062.076.117.158.055.082.1.168.047.087.085.178.037.09.066.184.028.094.048.19.019.097.028.195.01.098.01.196t-.01.196q-.01.098-.028.194-.02.097-.048.19-.029.095-.066.185-.038.091-.084.178-.046.086-.101.168-.055.082-.117.158-.062.076-.132.145-.07.07-.145.132-.076.062-.158.117-.082.055-.168.1-.087.047-.178.085-.09.037-.184.066-.094.028-.19.048-.097.019-.195.028-.098.01-.196.01H50q-.098 0-.196-.01t-.194-.028q-.097-.02-.19-.048-.095-.029-.185-.066-.091-.038-.178-.084-.086-.046-.168-.101-.082-.055-.158-.117-.076-.062-.145-.132-.07-.07-.132-.145-.062-.076-.117-.158-.055-.082-.1-.168-.047-.087-.085-.178-.037-.09-.066-.184-.028-.094-.048-.19-.019-.097-.028-.195-.01-.098-.01-.196t.01-.196q.01-.098.028-.194.02-.097.048-.19.029-.095.066-.185.038-.091.084-.178.046-.086.101-.168.055-.082.117-.158.062-.076.132-.145.07-.07.145-.132.076-.062.158-.117.082-.055.168-.1.087-.047.178-.085.09-.037.184-.066.094-.028.19-.048.097-.019.195-.028.098-.01.196-.01ZM50 116h92q.098 0 .196.01t.194.028q.097.02.19.048.095.029.185.066.091.038.178.084.086.046.168.101.082.055.158.117.076.062.145.132.07.07.132.145.062.076.117.158.055.082.1.168.047.087.085.178.037.09.066.184.028.094.048.19.019.097.028.195.01.098.01.196t-.01.196q-.01.098-.028.194-.02.097-.048.19-.029.095-.066.185-.038.091-.084.178-.046.086-.101.168-.055.082-.117.158-.062.076-.132.145-.07.07-.145.132-.076.062-.158.117-.082.055-.168.1-.087.047-.178.085-.09.037-.184.066-.094.028-.19.048-.097.019-.195.028-.098.01-.196.01H50q-.098 0-.196-.01t-.194-.028q-.097-.02-.19-.048-.095-.029-.185-.066-.091-.038-.178-.084-.086-.046-.168-.101-.082-.055-.158-.117-.076-.062-.145-.132-.07-.07-.132-.145-.062-.076-.117-.158-.055-.082-.1-.168-.047-.087-.085-.178-.037-.09-.066-.184-.028-.094-.048-.19-.019-.097-.028-.195-.01-.098-.01-.196t.01-.196q.01-.098.028-.194.02-.097.048-.19.029-.095.066-.185.038-.091.084-.178.046-.086.101-.168.055-.082.117-.158.062-.076.132-.145.07-.07.145-.132.076-.062.158-.117.082-.055.168-.1.087-.047.178-.085.09-.037.184-.066.094-.028.19-.048.097-.019.195-.028.098-.01.196-.01ZM50 131h85q.098 0 .196.01t.194.028q.097.02.19.048.095.029.185.066.091.038.178.084.086.046.168.101.082.055.158.117.076.062.145.132.07.07.132.145.062.076.117.158.055.082.1.168.047.087.085.178.037.09.066.184.028.094.048.19.019.097.028.195.01.098.01.196t-.01.196q-.01.098-.028.194-.02.097-.048.19-.029.095-.066.185-.038.091-.084.178-.046.086-.101.168-.055.082-.117.158-.062.076-.132.145-.07.07-.145.132-.076.062-.158.117-.082.055-.168.1-.087.047-.178.085-.09.037-.184.066-.094.028-.19.048-.097.019-.195.028-.098.01-.196.01H50q-.098 0-.196-.01t-.194-.028q-.097-.02-.19-.048-.095-.029-.185-.066-.091-.038-.178-.084-.086-.046-.168-.101-.082-.055-.158-.117-.076-.062-.145-.132-.07-.07-.132-.145-.062-.076-.117-.158-.055-.082-.1-.168-.047-.087-.085-.178-.037-.09-.066-.184-.028-.094-.048-.19-.019-.097-.028-.195-.01-.098-.01-.196t.01-.196q.01-.098.028-.194.02-.097.048-.19.029-.095.066-.185.038-.091.084-.178.046-.086.101-.168.055-.082.117-.158.062-.076.132-.145.07-.07.145-.132.076-.062.158-.117.082-.055.168-.1.087-.047.178-.085.09-.037.184-.066.094-.028.19-.048.097-.019.195-.028.098-.01.196-.01Z" />
	<g fillRule="evenodd">
		<path fill="#FFF"
			d="M130.406 81.106q.13.227.23.47.1.242.168.495.067.253.1.513.035.26.034.521 0 .262-.035.522-.034.26-.102.512-.068.253-.169.495-.1.242-.232.469-.13.226-.29.434-.16.208-.345.393-.186.185-.394.344-.208.16-.434.29-.227.131-.47.231-.241.1-.494.168t-.513.102q-.26.034-.522.034h-62.15q-.261 0-.52-.034-.26-.034-.513-.102-.253-.068-.495-.168-.243-.1-.47-.23-.226-.132-.434-.29-.208-.16-.393-.345-.186-.185-.345-.393-.16-.208-.291-.434-.131-.227-.232-.469-.1-.242-.169-.495-.068-.253-.102-.512-.035-.26-.035-.522t.033-.521q.034-.26.101-.513.068-.253.168-.496.1-.242.23-.469l31.075-54.071q.13-.228.29-.437.16-.208.345-.394.185-.186.394-.347.208-.16.435-.291.227-.132.47-.233.243-.1.496-.168.254-.069.514-.103.26-.034.524-.034.262 0 .523.034.26.034.514.103.253.068.496.168.243.101.47.233.227.131.436.291.208.16.393.347.186.186.345.394.16.209.29.437l31.075 54.071Zm-32.33-34.529L98 62.01q0 .098-.01.196t-.03.194q-.02.096-.049.19t-.067.185q-.038.09-.085.177-.046.086-.101.167-.055.082-.118.158-.063.075-.133.144-.07.07-.146.131-.076.062-.158.117-.082.054-.169.1-.087.046-.178.083-.09.037-.185.065-.094.028-.19.047-.097.018-.195.028-.097.009-.196.008-.098 0-.196-.01-.097-.01-.194-.03-.096-.02-.19-.049t-.184-.067q-.09-.038-.177-.085-.087-.046-.168-.101-.082-.055-.157-.118-.076-.063-.145-.133-.07-.07-.131-.146-.062-.076-.116-.158-.054-.082-.1-.169-.046-.087-.083-.178-.038-.09-.066-.185-.028-.094-.046-.19-.02-.097-.028-.195-.01-.097-.009-.196l.076-15.432q0-.099.01-.196.01-.098.03-.194.02-.097.049-.19.029-.095.067-.185.038-.09.085-.177.046-.087.101-.168.055-.081.118-.157t.132-.145q.07-.069.147-.13.076-.063.158-.117.082-.054.169-.1.087-.046.177-.083.091-.037.186-.065.094-.028.19-.047.097-.019.194-.028.098-.01.197-.009.098 0 .196.01.097.011.194.03.096.02.19.05.094.028.184.066.09.038.177.085.087.047.168.102.081.055.157.118.076.062.145.132.07.07.131.146.062.076.116.158.054.082.1.17.046.086.083.177.037.091.065.185.029.094.047.19.019.097.028.195.01.098.009.196ZM96 73H96q-.098 0-.196.01t-.194.028q-.097.02-.19.048-.095.029-.185.066-.091.038-.178.084-.086.046-.168.101-.082.055-.158.117-.076.062-.145.132-.07.07-.132.145-.062.076-.117.158-.055.082-.1.168-.047.087-.085.178-.037.09-.066.184-.028.094-.048.19-.019.097-.028.195-.01.098-.01.196t.01.196q.01.098.028.194.02.097.048.19.029.095.066.185.038.091.084.178.046.086.101.168.055.082.117.158.062.076.132.145.07.07.145.132.076.062.158.117.082.055.168.1.087.047.178.085.09.037.184.066.094.028.19.048.097.019.195.028.098.01.196.01.1 0 .197-.01.098-.01.194-.028.096-.02.19-.048.095-.029.185-.066.091-.038.178-.084.086-.046.168-.101.082-.055.158-.117.076-.062.145-.132.07-.07.132-.145.062-.076.117-.158.054-.082.1-.168.047-.087.085-.178.037-.09.066-.184.028-.094.048-.19.019-.097.028-.195.01-.098.01-.196t-.01-.196q-.01-.098-.028-.194-.02-.097-.048-.19-.029-.095-.066-.185-.038-.091-.084-.178-.047-.086-.101-.168-.055-.082-.117-.158-.062-.076-.132-.145-.07-.07-.145-.132-.076-.062-.158-.117-.082-.055-.168-.1-.087-.047-.178-.085-.09-.037-.184-.066-.095-.028-.19-.048-.097-.019-.195-.028-.098-.01-.196-.01Z" />
		<path fill="#787AE8"
			d="M130.4 85.103q.132-.227.232-.469.1-.242.169-.495.068-.253.102-.512.035-.26.035-.522t-.033-.521q-.034-.26-.101-.513-.068-.253-.167-.496-.1-.242-.23-.469L99.331 27.035q-.131-.228-.29-.437-.16-.208-.346-.394-.185-.186-.393-.347-.209-.16-.436-.291-.227-.132-.47-.233-.243-.1-.496-.168-.254-.069-.514-.103-.26-.034-.523-.034t-.524.034q-.26.034-.514.103-.253.068-.496.168-.243.101-.47.233-.227.131-.435.291-.209.16-.394.347-.186.186-.345.394-.16.209-.29.437L61.32 81.106q-.13.227-.23.47-.1.242-.168.495-.067.253-.1.513-.035.26-.034.521 0 .262.035.522.034.26.102.512.069.253.17.495.1.242.23.469.132.226.292.434.16.208.345.393.185.185.393.344.208.16.435.29.226.131.469.231.242.1.495.168t.512.102q.26.034.522.034h62.15q.261 0 .52-.034.26-.034.514-.102.253-.068.495-.168t.469-.23q.226-.132.434-.29.208-.16.394-.345.185-.185.345-.393.16-.208.29-.434ZM95.864 29.028l31.074 54.071h-62.15l31.076-54.071ZM102 62.03l.076-15.433q.012-2.486-1.737-4.251-1.749-1.766-4.234-1.779-2.485-.012-4.251 1.737-1.766 1.749-1.778 4.234L90 61.97q-.012 2.485 1.737 4.251Q93.485 67.988 95.97 68q2.485.012 4.25-1.736 1.767-1.75 1.779-4.234ZM95.99 64q.099 0 .196-.008.098-.01.195-.028.096-.019.19-.047t.185-.065q.091-.037.178-.083.087-.046.17-.1.081-.055.157-.117.077-.062.146-.13.07-.07.133-.145.063-.076.118-.158.055-.08.101-.167.047-.087.085-.177.038-.091.067-.185.03-.094.049-.19.02-.096.03-.194.01-.098.01-.196l.076-15.433q0-.098-.009-.196-.01-.098-.028-.194-.018-.097-.047-.19-.028-.095-.065-.186-.037-.09-.083-.178-.046-.087-.1-.169-.054-.082-.116-.158-.062-.076-.131-.146-.07-.07-.145-.132-.076-.063-.157-.118-.081-.055-.168-.102-.086-.047-.177-.085-.09-.038-.184-.067-.094-.029-.19-.048-.097-.02-.194-.03-.098-.01-.196-.01-.099-.001-.196.008-.098.01-.195.028-.096.019-.19.047-.095.028-.186.065-.09.037-.177.083-.087.046-.17.1-.081.054-.157.116-.077.062-.147.131-.07.07-.132.145-.063.076-.118.157-.055.081-.101.168-.047.086-.085.177-.038.09-.067.184-.03.094-.049.19-.02.097-.03.195-.01.097-.01.196L94 61.99q0 .099.009.196.009.098.028.195.018.096.046.19.028.095.066.185.037.091.083.178.046.087.1.17.054.081.116.157.062.077.13.146.07.07.146.133.075.063.157.118.081.055.168.101.086.047.177.085.09.038.184.067.094.03.19.049.097.02.194.03.098.01.196.01Zm4.254 6.757Q98.486 69 96 69H96q-2.485 0-4.243 1.757Q90 72.515 90 75q0 2.485 1.757 4.243Q93.515 81 96 81q2.486 0 4.244-1.757Q102 77.485 102 75q0-2.485-1.757-4.243ZM96 73q1.955 0 1.999 1.91L98 75l-.002.09q-.044 1.908-1.995 1.91H96q-1.954 0-1.998-1.91L94 75l.002-.09q.044-1.908 1.995-1.91H96Z" />
	</g>
</svg>