<svg xmlns="http://www.w3.org/2000/svg" width="14" height="16" viewBox="0 0 14 16"><defs><style>.a{fill:#4ea8ff;}</style></defs><g transform="translate(-6 -2)"><g transform="translate(6 2)"><path class="a" d="M13,212c-3.864,0-7,2.861-7,6.394q0,3.532,5.486,8.936a2.047,2.047,0,0,0,3.033,0Q20,221.926,20,218.394a6.132,6.132,0,0,0-2.052-4.523A7.344,7.344,0,0,0,13,212Zm0,9.147a3.254,3.254,0,0,1-2.992-1.827,2.778,2.778,0,0,1,.7-3.226,3.462,3.462,0,0,1,3.529-.64,2.971,2.971,0,0,1,2,2.736A3.107,3.107,0,0,1,13,221.147Z" transform="translate(-6 -212)"/></g></g></svg>