<svg xmlns="http://www.w3.org/2000/svg" xmlns:xlink="http://www.w3.org/1999/xlink" fill="none" version="1.1" width="19" height="19" viewBox="0 0 19 19"><g><g><path d="M9.5013638,14.491364L8.5609093,14.553184L8.6227274,13.612729L15.835456,6.4000001L16.713636,7.2790914L9.5013638,14.491364ZM12.727273,15.810454C12.726771,16.3668,12.27589,16.81768,11.719545,16.818182L2.3709092,16.818182C1.8147422,16.81743,1.3641371,16.366623,1.3636364,15.810454L1.3636364,2.3713636C1.3643869,1.8152999,1.8148457,1.3646377,2.3709092,1.3636364L11.719545,1.3636364C12.275787,1.3643881,12.726521,1.8151227,12.727273,2.3713636L12.727273,7.5795455L7.2954555,13.011364L7.1286373,15.554091C7.1162086,15.787288,7.3005776,15.983851,7.5340919,15.986365C7.542273,15.986365,7.5509095,15.986365,7.5600009,15.985455L10.102728,15.818181L12.727273,13.194091L12.727273,15.810454ZM16.396364,5.0331807C16.245041,4.8799815,16.038971,4.7933002,15.823638,4.7922726C15.63182,4.7922726,15.443639,4.8627267,15.301365,5.0054541L14.09091,6.2159085L14.09091,2.3713636C14.089657,1.062215,13.028695,0.0012529643,11.719545,0L2.3709092,0C1.0619378,0.0015031548,0.0012522937,1.062392,0,2.3713636L0,15.810455C0.0012538583,17.119427,1.0619389,18.180317,2.3709092,18.181818L11.719545,18.181818C13.028694,18.180565,14.089655,17.119602,14.09091,15.810454L14.09091,11.905455L14.016364,11.905455L18.109091,7.8127284C18.403639,7.5177283,18.391367,7.0277276,18.08091,6.7172732L16.396364,5.0331807ZM3.409091,4.9999995L10.681819,4.9999995C11.058376,4.9999995,11.363637,4.6947398,11.363637,4.318182C11.363637,3.9416242,11.058376,3.6363635,10.681819,3.6363635L3.4090917,3.6363635C3.0325336,3.6363635,2.7272732,3.9416242,2.7272732,4.318182C2.7272732,4.6947398,3.0325336,4.9999995,3.409091,4.9999995ZM3.4090917,8.181818L7.9545465,8.181818C8.3311052,8.181818,8.6363649,7.8765578,8.6363649,7.4999995C8.6363649,7.1234422,8.3311052,6.8181815,7.9545465,6.8181815L3.4090919,6.8181815C3.0325344,6.8181815,2.7272739,7.1234422,2.7272739,7.4999995C2.7272739,7.8765578,3.0325344,8.181818,3.4090917,8.181818ZM6.1363654,9.999999L3.4090919,9.999999C3.0325344,9.999999,2.7272739,10.30526,2.7272739,10.681817C2.7272739,11.058375,3.0325344,11.363636,3.4090919,11.363636L6.1363654,11.363636C6.5129223,11.363636,6.8181825,11.058375,6.8181825,10.681817C6.8181825,10.30526,6.5129223,9.999999,6.1363654,9.999999Z" fill="#6867F1" fill-opacity="1" style="mix-blend-mode:passthrough"/></g></g></svg>