<svg xmlns="http://www.w3.org/2000/svg" xmlns:xlink="http://www.w3.org/1999/xlink" width="22" height="20" viewBox="0 0 22 20"><defs><style>.a{fill:#fff;stroke:#2c2c2c;}.b{clip-path:url(#a);}.c{fill:#2c2c2c;}</style><clipPath id="a"><rect class="a" width="22" height="20" transform="translate(202 260)"/></clipPath></defs><g class="b" transform="translate(-202 -260)"><g transform="translate(202 260.908)"><path class="c" d="M18.862,1.367H16.774V.895a.988.988,0,0,0-1.967,0v.473H11.983V.895a.991.991,0,0,0-1.967,0v.473H7.193V.895A.946.946,0,0,0,6.209.029a.946.946,0,0,0-.983.866v.473H3.138A2.994,2.994,0,0,0,0,4.185V15.367a2.994,2.994,0,0,0,3.138,2.818H18.862A2.992,2.992,0,0,0,22,15.367V4.185a2.993,2.993,0,0,0-3.138-2.818Zm1.569,14a1.358,1.358,0,0,1-.463,1,1.644,1.644,0,0,1-1.107.41H3.14a1.5,1.5,0,0,1-1.57-1.411V5.549H20.432v9.818Z" transform="translate(0 -0.001)"/><path class="c" d="M12.909,18.752a3.812,3.812,0,0,1-3.98-3.618,3.812,3.812,0,0,1,3.98-3.618v1.313a2.427,2.427,0,0,0-2.533,2.3,2.427,2.427,0,0,0,2.533,2.3,2.427,2.427,0,0,0,2.535-2.3h1.445a3.816,3.816,0,0,1-3.98,3.618Z" transform="translate(-1.913 -3.291)"/><path class="c" d="M12.906,14.374l-1.31-.555.919-1.791-2-.848.61-1.191,3.313,1.4-1.532,2.982Z" transform="translate(-2.253 -2.855)"/></g></g></svg>