<svg xmlns="http://www.w3.org/2000/svg" width="24" height="24" viewBox="0 0 198 198" fill="none">
	<rect width="6.032" height="22.291" x="79.568" y="60.548" fill="#C8D7F9" rx="0"
		transform="rotate(-44.19 79.568 60.548)" />
	<rect width="6.032" height="38.776" x="122.943" y="41.571" fill="#C8D7F9" rx="0"
		transform="rotate(46.107 122.943 41.57)" />
	<path stroke="#787AE8" strokeWidth="4"
		d="M37 25a8 8 0 0 1 8-8h111a8 8 0 0 1 8 8v111c0 24.3-19.7 44-44 44H45a8 8 0 0 1-8-8Z" />
	<path fill="#787AE8" fillRule="evenodd"
		d="M157.835 139.796q.165-.38.165-.796 0-.098-.01-.196t-.028-.194q-.02-.097-.048-.19-.029-.095-.066-.185-.038-.091-.084-.178-.046-.086-.101-.168-.055-.082-.117-.158-.062-.076-.132-.145-.07-.07-.145-.132-.076-.062-.158-.117-.082-.055-.168-.1-.087-.047-.178-.085-.09-.037-.184-.066-.094-.028-.19-.048-.097-.019-.195-.028-.098-.01-.196-.01-.145 0-.29.021-.143.021-.282.063-.14.041-.272.103-.131.061-.253.14-.122.08-.23.177-.11.097-.203.208-.093.111-.17.235-.077.123-.135.257-4.669 10.755-17.33 11.803-.093.007-.184.024-.092.016-.182.04-.09.025-.177.058t-.17.074q-.084.041-.163.09-.08.048-.154.104-.075.055-.144.118-.07.062-.132.13-.063.069-.12.143-.056.074-.106.153-.049.079-.09.162-.042.083-.076.17-.034.087-.06.176-.025.09-.042.181-.018.092-.026.184-.009.093-.009.186 0 .098.01.196t.028.194q.02.097.048.19.029.095.066.185.038.091.084.178.046.086.101.168.055.082.117.158.062.076.132.145.07.07.145.132.076.062.158.117.082.055.168.1.087.047.178.085.09.037.184.066.094.028.19.048.097.019.195.028.098.01.196.01.083 0 .165-.007h.003q15.045-1.247 20.667-14.197Z" />
	<path fill="#787AE8" fillRule="evenodd"
		d="M138.492 152.463q.017-.434-.147-.836-.037-.09-.083-.177-.046-.087-.1-.17-.054-.081-.116-.158-.062-.076-.13-.146-.07-.07-.146-.132-.075-.063-.157-.118-.081-.055-.167-.102-.087-.047-.177-.085-.09-.038-.185-.067-.094-.029-.19-.048-.096-.02-.194-.03-.098-.01-.196-.011-.098 0-.196.009t-.194.027q-.097.019-.19.047-.095.028-.186.065-.133.054-.256.127-.124.072-.236.161-.111.09-.21.194-.098.104-.18.221-.082.118-.147.245-.064.128-.11.264-.046.135-.072.276-.026.14-.032.284v.007q-.521 12.93-11.262 17.779-.088.04-.17.087-.084.048-.162.103-.079.056-.151.118-.073.063-.14.132-.066.07-.125.145-.06.075-.111.156-.052.08-.096.166-.044.086-.08.175-.035.089-.062.18-.027.093-.045.187-.018.095-.027.19-.009.096-.008.192 0 .096.01.191.01.096.028.19.019.094.046.186.028.092.064.18.037.091.083.178.046.087.1.17.054.081.116.157.062.077.131.147.07.07.145.132.075.063.157.118.081.055.168.102.086.046.177.085.09.038.184.067.094.029.19.048.097.02.194.03.098.01.196.01.098.001.196-.008.098-.009.195-.028.096-.018.19-.046t.185-.065l.068-.03q12.995-5.866 13.613-21.27ZM54 101h57q.098 0 .196.01t.194.028q.097.02.19.048.095.029.185.066.091.038.178.084.086.046.168.101.082.055.158.117.076.062.145.132.07.07.132.145.062.076.117.158.055.082.1.168.047.087.085.178.037.09.066.184.028.094.048.19.019.097.028.195.01.098.01.196t-.01.196q-.01.098-.028.194-.02.097-.048.19-.029.095-.066.185-.038.091-.084.178-.046.086-.101.168-.055.082-.117.158-.062.076-.132.145-.07.07-.145.132-.076.062-.158.117-.082.055-.168.1-.087.047-.178.085-.09.037-.184.066-.094.028-.19.048-.097.019-.195.028-.098.01-.196.01H54q-.098 0-.196-.01t-.194-.028q-.097-.02-.19-.048-.095-.029-.185-.066-.091-.038-.178-.084-.086-.046-.168-.101-.082-.055-.158-.117-.076-.062-.145-.132-.07-.07-.132-.145-.062-.076-.117-.158-.055-.082-.1-.168-.047-.087-.085-.178-.037-.09-.066-.184-.028-.094-.048-.19-.019-.097-.028-.195-.01-.098-.01-.196t.01-.196q.01-.098.028-.194.02-.097.048-.19.029-.095.066-.185.038-.091.084-.178.046-.086.101-.168.055-.082.117-.158.062-.076.132-.145.07-.07.145-.132.076-.062.158-.117.082-.055.168-.1.087-.047.178-.085.09-.037.184-.066.094-.028.19-.048.097-.019.195-.028.098-.01.196-.01ZM54 146h57q.098 0 .196.01t.194.028q.097.02.19.048.095.029.185.066.091.038.178.084.086.046.168.101.082.055.158.117.076.062.145.132.07.07.132.145.062.076.117.158.055.082.1.168.047.087.085.178.037.09.066.184.028.094.048.19.019.097.028.195.01.098.01.196t-.01.196q-.01.098-.028.194-.02.097-.048.19-.029.095-.066.185-.038.091-.084.178-.046.086-.101.168-.055.082-.117.158-.062.076-.132.145-.07.07-.145.132-.076.062-.158.117-.082.055-.168.1-.087.047-.178.085-.09.037-.184.066-.094.028-.19.048-.097.019-.195.028-.098.01-.196.01H54q-.098 0-.196-.01t-.194-.028q-.097-.02-.19-.048-.095-.029-.185-.066-.091-.038-.178-.084-.086-.046-.168-.101-.082-.055-.158-.117-.076-.062-.145-.132-.07-.07-.132-.145-.062-.076-.117-.158-.055-.082-.1-.168-.047-.087-.085-.178-.037-.09-.066-.184-.028-.094-.048-.19-.019-.097-.028-.195-.01-.098-.01-.196t.01-.196q.01-.098.028-.194.02-.097.048-.19.029-.095.066-.185.038-.091.084-.178.046-.086.101-.168.055-.082.117-.158.062-.076.132-.145.07-.07.145-.132.076-.062.158-.117.082-.055.168-.1.087-.047.178-.085.09-.037.184-.066.094-.028.19-.048.097-.019.195-.028.098-.01.196-.01ZM54 116h92q.098 0 .196.01t.194.028q.097.02.19.048.095.029.185.066.091.038.178.084.086.046.168.101.082.055.158.117.076.062.145.132.07.07.132.145.062.076.117.158.055.082.1.168.047.087.085.178.037.09.066.184.028.094.048.19.019.097.028.195.01.098.01.196t-.01.196q-.01.098-.028.194-.02.097-.048.19-.029.095-.066.185-.038.091-.084.178-.046.086-.101.168-.055.082-.117.158-.062.076-.132.145-.07.07-.145.132-.076.062-.158.117-.082.055-.168.1-.087.047-.178.085-.09.037-.184.066-.094.028-.19.048-.097.019-.195.028-.098.01-.196.01H54q-.098 0-.196-.01t-.194-.028q-.097-.02-.19-.048-.095-.029-.185-.066-.091-.038-.178-.084-.086-.046-.168-.101-.082-.055-.158-.117-.076-.062-.145-.132-.07-.07-.132-.145-.062-.076-.117-.158-.055-.082-.1-.168-.047-.087-.085-.178-.037-.09-.066-.184-.028-.094-.048-.19-.019-.097-.028-.195-.01-.098-.01-.196t.01-.196q.01-.098.028-.194.02-.097.048-.19.029-.095.066-.185.038-.091.084-.178.046-.086.101-.168.055-.082.117-.158.062-.076.132-.145.07-.07.145-.132.076-.062.158-.117.082-.055.168-.1.087-.047.178-.085.09-.037.184-.066.094-.028.19-.048.097-.019.195-.028.098-.01.196-.01ZM54 131h85q.098 0 .196.01t.194.028q.097.02.19.048.095.029.185.066.091.038.178.084.086.046.168.101.082.055.158.117.076.062.145.132.07.07.132.145.062.076.117.158.055.082.1.168.047.087.085.178.037.09.066.184.028.094.048.19.019.097.028.195.01.098.01.196t-.01.196q-.01.098-.028.194-.02.097-.048.19-.029.095-.066.185-.038.091-.084.178-.046.086-.101.168-.055.082-.117.158-.062.076-.132.145-.07.07-.145.132-.076.062-.158.117-.082.055-.168.1-.087.047-.178.085-.09.037-.184.066-.094.028-.19.048-.097.019-.195.028-.098.01-.196.01H54q-.098 0-.196-.01t-.194-.028q-.097-.02-.19-.048-.095-.029-.185-.066-.091-.038-.178-.084-.086-.046-.168-.101-.082-.055-.158-.117-.076-.062-.145-.132-.07-.07-.132-.145-.062-.076-.117-.158-.055-.082-.1-.168-.047-.087-.085-.178-.037-.09-.066-.184-.028-.094-.048-.19-.019-.097-.028-.195-.01-.098-.01-.196t.01-.196q.01-.098.028-.194.02-.097.048-.19.029-.095.066-.185.038-.091.084-.178.046-.086.101-.168.055-.082.117-.158.062-.076.132-.145.07-.07.145-.132.076-.062.158-.117.082-.055.168-.1.087-.047.178-.085.09-.037.184-.066.094-.028.19-.048.097-.019.195-.028.098-.01.196-.01Z" />
	<g fillRule="evenodd">
		<path fill="#FFF"
			d="M131 58.5q0 .749-.037 1.497-.036.747-.11 1.493-.073.745-.183 1.485-.11.74-.256 1.475-.146.735-.328 1.46-.182.727-.4 1.444-.217.716-.469 1.421-.252.705-.539 1.397-.286.692-.606 1.368-.32.677-.673 1.338-.353.66-.738 1.302t-.801 1.265q-.416.622-.862 1.224-.446.601-.921 1.18-.475.579-.978 1.134-.503.554-1.032 1.084-.53.53-1.084 1.032-.555.503-1.134.978-.579.475-1.18.92-.602.447-1.224.863-.623.416-1.265.8-.642.386-1.302.739t-1.338.673q-.676.32-1.368.606-.692.287-1.397.54-.705.251-1.421.469-.717.217-1.443.399-.726.182-1.46.328-.735.146-1.476.256-.74.11-1.485.183-.746.074-1.493.11-.748.037-1.497.037-.749 0-1.497-.037-.747-.036-1.493-.11-.745-.073-1.485-.183-.74-.11-1.475-.256-.735-.146-1.46-.328-.727-.182-1.444-.4-.716-.217-1.421-.469-.705-.252-1.397-.539-.692-.286-1.368-.606-.677-.32-1.338-.673-.66-.353-1.302-.738t-1.265-.801q-.622-.416-1.224-.862-.601-.446-1.18-.921-.579-.475-1.134-.978-.554-.503-1.084-1.032-.53-.53-1.032-1.084-.503-.555-.978-1.134-.475-.579-.92-1.18-.447-.602-.863-1.224-.416-.623-.8-1.265-.386-.642-.739-1.302t-.673-1.338q-.32-.676-.606-1.368-.287-.692-.54-1.397-.251-.705-.469-1.421-.217-.717-.399-1.443-.182-.726-.328-1.46-.146-.735-.256-1.476-.11-.74-.183-1.485-.074-.746-.11-1.493Q70 59.249 70 58.5q0-.749.037-1.497.036-.747.11-1.493.073-.745.183-1.485.11-.74.256-1.475.146-.735.328-1.46.182-.727.4-1.444.217-.716.469-1.421.252-.705.539-1.397.286-.692.606-1.368.32-.677.673-1.338.353-.66.738-1.302t.801-1.265q.416-.622.862-1.224.446-.601.921-1.18.475-.579.978-1.134.503-.554 1.032-1.084.53-.53 1.084-1.032.555-.503 1.134-.978.579-.475 1.18-.92.602-.447 1.224-.863.623-.416 1.265-.8.642-.386 1.302-.739t1.338-.673q.676-.32 1.368-.606.692-.287 1.397-.54.705-.251 1.421-.469.717-.217 1.443-.399.726-.182 1.46-.328.735-.146 1.476-.256.74-.11 1.485-.183.746-.074 1.493-.11Q99.751 28 100.5 28q.749 0 1.497.037.747.036 1.493.11.745.073 1.485.183.74.11 1.475.256.735.146 1.46.328.727.182 1.444.4.716.217 1.421.469.705.252 1.397.539.692.286 1.368.606.677.32 1.338.673.66.353 1.302.738t1.265.801q.622.416 1.224.862.601.446 1.18.921.579.475 1.134.978.554.503 1.084 1.032.53.53 1.032 1.084.503.555.978 1.134.475.579.92 1.18.447.602.863 1.224.416.623.8 1.265.386.642.739 1.302t.673 1.338q.32.676.606 1.368.287.692.54 1.397.251.705.469 1.421.217.717.399 1.443.182.726.328 1.46.146.735.256 1.476.11.74.183 1.485.074.746.11 1.493.037.748.037 1.497ZM94.433 73.262 82.586 61.414q-.139-.14-.248-.303-.11-.164-.185-.346-.075-.182-.114-.375-.038-.193-.038-.39t.038-.39q.039-.193.114-.375.075-.182.185-.346.11-.164.249-.303.069-.07.145-.132.076-.062.158-.117.081-.055.168-.1.087-.047.177-.085.091-.037.185-.066.094-.028.19-.048.097-.019.195-.028.098-.01.196-.01t.196.01q.098.01.194.028.096.02.19.048.094.029.185.066.09.038.178.084.086.047.168.101.082.055.158.117.076.062.145.132L96.009 69.18l25.595-25.595q.07-.07.146-.132.076-.062.157-.117.082-.055.169-.1.086-.047.177-.085.09-.037.185-.066.094-.028.19-.048.097-.019.194-.028.098-.01.197-.01.098 0 .196.01.097.01.194.028.096.02.19.048.094.029.185.066.09.038.177.084.087.046.169.101.081.055.157.117.076.062.146.132.07.07.132.145.062.076.116.158.055.082.101.168.047.087.084.178.038.09.066.184.029.094.048.19.02.097.029.195.01.098.01.196t-.01.196q-.01.098-.029.194-.02.097-.048.19-.028.095-.066.185-.037.091-.084.178-.046.086-.1.168-.055.082-.117.158-.063.076-.132.145L97.414 73.433q-.07.07-.145.132-.076.062-.158.116-.082.055-.168.101-.087.047-.178.084-.09.038-.184.066-.094.029-.19.048-.097.02-.195.029-.098.01-.196.01t-.196-.01q-.098-.01-.194-.029-.097-.02-.19-.048-.095-.028-.185-.066-.091-.037-.178-.084-.086-.046-.168-.1-.082-.055-.158-.117-.076-.063-.145-.132-.081-.081-.153-.171Z" />
		<path fill="#787AE8"
			d="M100.5 89q.749 0 1.497-.037.747-.036 1.493-.11.745-.073 1.485-.183.74-.11 1.475-.256.735-.146 1.46-.328.727-.182 1.444-.4.716-.217 1.421-.469.705-.252 1.397-.539.692-.286 1.368-.606.677-.32 1.338-.673.66-.353 1.302-.738t1.265-.801q.622-.416 1.224-.862.601-.446 1.18-.921.579-.475 1.134-.978.554-.503 1.084-1.032.53-.53 1.032-1.084.503-.555.978-1.134.475-.579.92-1.18.447-.602.863-1.224.416-.623.8-1.265.386-.642.739-1.302t.673-1.338q.32-.676.606-1.368.287-.692.54-1.397.251-.705.469-1.421.217-.717.399-1.443.182-.726.328-1.46.146-.735.256-1.476.11-.74.183-1.485.074-.746.11-1.493.037-.748.037-1.497 0-1.485-.144-2.963t-.432-2.935q-.287-1.457-.714-2.879t-.99-2.796q-.874-2.13-2.057-4.103-1.183-1.975-2.649-3.749-.534-.647-1.104-1.264-.569-.616-1.171-1.2-.603-.585-1.236-1.136-.634-.55-1.297-1.065-.663-.515-1.353-.992-.69-.478-1.405-.917-.716-.438-1.454-.837-.739-.4-1.498-.757-.76-.357-1.537-.673-.778-.315-1.572-.587-.794-.272-1.602-.5-.807-.228-1.626-.411-.82-.184-1.647-.321-.828-.138-1.662-.23-.835-.093-1.673-.139Q101.34 28 100.5 28q-.749 0-1.497.037-.747.036-1.493.11-.745.073-1.485.183-.74.11-1.475.256-.735.146-1.46.328-.727.182-1.444.4-.716.217-1.421.469-.705.252-1.397.539-.692.286-1.368.606-.677.32-1.338.673-.66.353-1.302.738t-1.265.801q-.622.416-1.224.862-.601.446-1.18.921-.579.475-1.134.978-.554.503-1.084 1.032-.53.53-1.032 1.084-.503.555-.978 1.134-.475.579-.92 1.18-.447.602-.863 1.224-.416.623-.8 1.265-.386.642-.739 1.302t-.673 1.338q-.32.676-.606 1.368-.287.692-.54 1.397-.251.705-.469 1.421-.217.717-.399 1.443-.182.726-.328 1.46-.146.735-.256 1.476-.11.74-.183 1.485-.074.746-.11 1.493Q70 57.751 70 58.5q0 .749.037 1.497.036.747.11 1.493.073.745.183 1.485.11.74.256 1.475.146.735.328 1.46.182.727.4 1.444.217.716.469 1.421.252.705.539 1.397.286.692.606 1.368.32.677.673 1.338.353.66.738 1.302t.801 1.265q.416.622.862 1.224.446.601.921 1.18.475.579.978 1.134.503.554 1.032 1.084.53.53 1.084 1.032.555.503 1.134.978.579.475 1.18.92.602.447 1.224.863.623.416 1.265.8.642.386 1.302.739t1.338.673q.676.32 1.368.606.692.287 1.397.54.705.251 1.421.469.717.217 1.443.399.726.182 1.46.328.735.146 1.476.256.74.11 1.485.183.746.074 1.493.11.748.037 1.497.037Zm19.06-48.913q-.16-.163-.322-.325Q111.477 32 100.5 32t-18.738 7.762Q74 47.523 74 58.5t7.762 18.738Q89.523 85 100.5 85t18.738-7.762Q127 69.477 127 58.5q0-4.17-1.12-7.876l-25.637 25.637Q98.485 78.02 96 78.02q-2.485 0-4.243-1.758-.14-.14-.27-.29L79.757 64.244Q78.001 62.485 78.001 60q0-2.485 1.757-4.243Q81.516 54 84.001 54q2.485 0 4.243 1.757l7.765 7.767 22.767-22.767q.375-.375.783-.67Zm2.613 3.1q-.32.15-.569.399L98.838 66.352l-2.829 2.829-2.828-2.829-7.766-7.766q-.07-.07-.145-.132-.076-.062-.158-.117-.082-.054-.168-.1-.087-.047-.178-.085-.09-.037-.185-.066-.094-.028-.19-.048-.096-.019-.194-.028Q84.099 58 84 58t-.196.01q-.098.01-.194.028-.097.02-.19.048-.095.029-.186.066-.09.038-.177.084-.087.046-.168.101-.082.055-.158.117-.076.062-.145.132-.14.139-.25.303-.109.164-.184.346-.075.182-.114.375-.038.193-.038.39t.038.39q.039.193.114.375.075.182.185.346.11.164.248.303l.002.002 11.845 11.846q.072.09.153.17.08.082.17.153.072.057.148.106.076.05.156.093t.165.078q.084.035.17.063.087.027.176.047t.18.03q.09.012.18.015.091.003.182-.002t.181-.018q.09-.014.178-.035.089-.022.175-.051.086-.03.17-.067.082-.037.162-.081.079-.045.154-.096.075-.052.145-.11.07-.058.134-.123l.002-.001 26.845-26.845.174-.174q.07-.07.132-.145.062-.076.116-.158.055-.082.101-.168.047-.087.084-.178.038-.09.066-.184.029-.094.048-.19.02-.097.029-.195.01-.098.01-.196t-.01-.196q-.01-.098-.029-.194-.02-.097-.048-.19-.028-.095-.066-.185-.037-.091-.084-.178-.046-.086-.1-.168-.055-.082-.117-.158-.063-.076-.132-.145-.108-.108-.232-.199-.123-.09-.259-.161-.136-.07-.28-.12-.145-.049-.296-.076-.15-.026-.304-.03-.153-.003-.304.017-.152.02-.3.063-.146.043-.285.107Z" />
	</g>
</svg>