<svg xmlns="http://www.w3.org/2000/svg" xmlns:xlink="http://www.w3.org/1999/xlink" width="20" height="20" viewBox="0 0 20 20"><defs><style>.a{fill:#fff;stroke:#707070;}.b{clip-path:url(#a);}.c{fill:#333;}</style><clipPath id="a"><rect class="a" width="20" height="20" transform="translate(202 321)"/></clipPath></defs><g class="b" transform="translate(-202 -321)"><path class="c" d="M15.836,4.012A4.167,4.167,0,0,1,20,8.178v2.5H18.336v-2.5a2.5,2.5,0,0,0-2.5-2.5h-15A.833.833,0,0,1,.352,4.167L6.184,0l.967,1.357L3.434,4.012h12.4ZM4.169,15.678A4.167,4.167,0,0,1,0,11.512v-2.5H1.669v2.5a2.5,2.5,0,0,0,2.5,2.5h15a.833.833,0,0,1,.483,1.512L13.819,19.69l-.967-1.357,3.717-2.655H4.167Z" transform="translate(201.998 321.155)"/></g></svg>