<svg xmlns="http://www.w3.org/2000/svg" width="16" height="16" viewBox="0 0 16 16"><defs><style>.a{fill:#3bd49b;}</style></defs><path class="a" d="M19.92,282.385l-2.526-.92a1.2,1.2,0,0,1-.421-.764l.019-.306a3.284,3.284,0,0,0,1.321-1.48c.85-.018.867-1.786.446-1.974.147-1.438.145-3.91-3.721-3.942h-.075c-3.864.032-3.868,2.5-3.721,3.942-.421.189-.407,1.956.446,1.974a3.284,3.284,0,0,0,1.321,1.48l.019.306a1.188,1.188,0,0,1-.421.764l-2.526.92q-3.412,1.668-3.045,4.935,1.753,1.673,7.944,1.681h.041q6.191-.007,7.944-1.681Q23.331,284.053,19.92,282.385Z" transform="translate(-7 -273)"/></svg>