<svg xmlns="http://www.w3.org/2000/svg" width="16" height="16" viewBox="0 0 16 16"><defs><style>.a{fill:#f2c963;}</style></defs><path class="a" d="M15.429,70.615a.573.573,0,1,0-1.143,0v.615h1.143Zm-5.714,0a.573.573,0,1,0-1.143,0v.615H9.714Zm8,.615H15.429v1.846a.573.573,0,1,1-1.143,0V71.231H9.714v1.846a.573.573,0,1,1-1.143,0V71.231H6.286A2.386,2.386,0,0,0,4,73.692v9.846A2.386,2.386,0,0,0,6.286,86H17.714A2.386,2.386,0,0,0,20,83.538V73.692A2.386,2.386,0,0,0,17.714,71.231ZM9.143,82.308H8a.617.617,0,0,1,0-1.231H9.143a.617.617,0,0,1,0,1.231Zm0-2.462H8a.617.617,0,0,1,0-1.231H9.143a.617.617,0,0,1,0,1.231Zm3.429,2.462H11.429a.617.617,0,0,1,0-1.231h1.143a.617.617,0,0,1,0,1.231Zm0-2.462H11.429a.617.617,0,0,1,0-1.231h1.143a.617.617,0,0,1,0,1.231ZM16,82.308H14.857a.617.617,0,0,1,0-1.231H16a.617.617,0,0,1,0,1.231Zm0-2.462H14.857a.617.617,0,0,1,0-1.231H16a.617.617,0,0,1,0,1.231Zm2.286-3.692H5.714a.617.617,0,0,1,0-1.231H18.286a.617.617,0,0,1,0,1.231Z" transform="translate(-4 -70)"/></svg>