<svg xmlns="http://www.w3.org/2000/svg" xmlns:xlink="http://www.w3.org/1999/xlink" fill="none" version="1.1" width="21" height="21" viewBox="0 0 21 21"><defs><clipPath id="master_svg0_6_5319"><rect x="0" y="0" width="21" height="21" rx="0"/></clipPath></defs><g clip-path="url(#master_svg0_6_5319)"><g><path d="M19.3576683125,17.736847935546876C19.3576683125,18.799546935546875,18.4960973125,19.661096935546876,17.4333983125,19.661096935546876L3.5150896124999997,19.661096935546876C2.4523702825,19.661096935546876,1.5908203125,18.799524935546877,1.5908203125,17.736847935546876L1.5908203125,5.484053235546875C1.5908203125,4.421333905546875,2.4523912625,3.559783935546875,3.5150896124999997,3.559783935546875L17.4333993125,3.559784248471265C18.4961203125,3.559784248471265,19.3576703125,4.421334265546875,19.3576703125,5.484053235546875L19.3576683125,17.736847935546876ZM18.2472263125,5.484053235546875C18.2472263125,5.034580035546875,17.8828923125,4.6702039355468745,17.4333983125,4.6702039355468745L3.5150896124999997,4.6702042355468745C3.0656164125,4.6702042355468745,2.7012406125,5.034559335546875,2.7012406125,5.484053235546875L2.7012406125,17.736847935546876C2.7012406125,18.186320935546874,3.0655957125,18.550696935546874,3.5150900125,18.550696935546874L17.4333993125,18.550696935546874C17.8828943125,18.550696935546874,18.2472283125,18.186320935546874,18.2472283125,17.736847935546876L18.2472263125,5.484053235546875Z" fill="#8D40FF" fill-opacity="1" style="mix-blend-mode:passthrough"/></g><g><path d="M16.3329291375,17.717858786328126L14.5813311975,17.717858786328126C14.4279043675,17.717858786328126,14.3037109375,17.593706586328125,14.3037109375,17.440238486328123C14.3037109375,17.286770386328126,14.4279043675,17.162618276328125,14.5813311975,17.162618276328125L16.3329291375,17.162618276328125C16.6078219375,17.162618276328125,16.8021917375,17.115441796328124,16.8021917375,16.507631246328124C16.8021917375,16.354204416328123,16.9548001375,16.230010986328125,17.1082694375,16.230010986328125C17.2617175375,16.230010986328125,17.414347137500002,16.354204416328123,17.414347137500002,16.507631246328124L17.414347137500002,16.607397796328126C17.414347137500002,16.623662356328126,17.3845267375,16.639401196328127,17.3818192375,16.655098736328124C17.3408749375,17.360512986328125,16.9697415375,17.717858786328126,16.3329291375,17.717858786328126Z" fill="#8D40FF" fill-opacity="1" style="mix-blend-mode:passthrough"/></g><g><path d="M17.10232854125,15.610848908515624C17.02724171125,15.610848908515624,16.95782006125,15.579936978515626,16.90520870725,15.530053078515625C16.85507321325,15.477420448515625,16.82470703125,15.408041358515625,16.82470703125,15.333227398515625C16.82470703125,15.260553838515625,16.85507321325,15.188467328515625,16.90520870725,15.135877251515625C17.00795555125,15.033361971515625,17.19395155125,15.033361971515625,17.29938453125,15.135877251515625C17.34928846125,15.188467328515625,17.37992751125,15.260553838515625,17.37992751125,15.333227398515625C17.37992751125,15.405333938515625,17.34928846125,15.477420448515625,17.29938453125,15.530053078515625C17.24656415125,15.579936978515626,17.17443633125,15.610848908515624,17.10232854125,15.610848908515624Z" fill="#8D40FF" fill-opacity="1" style="mix-blend-mode:passthrough"/></g><g><path d="M5.69828688625,11.33288943578125L5.42068728625,11.33288943578125C5.26723918625,11.33288943578125,5.14306640625,11.20871603578125,5.14306640625,11.05526918578125C5.14306640625,10.90182107578125,5.26723918625,10.77764892578125,5.42068728625,10.77764892578125L5.69828688625,10.77764892578125C5.85173499625,10.77764892578125,5.9759078062499995,10.90180104578125,5.9759078062499995,11.05526918578125C5.9758864662499995,11.20871603578125,5.85173439625,11.33288943578125,5.69828688625,11.33288943578125Z" fill="#8D40FF" fill-opacity="1" style="mix-blend-mode:passthrough"/></g><g><path d="M7.64117926,11.33288943578125L7.36355838,11.33288943578125C7.21011028,11.33288943578125,7.0859375,11.20871603578125,7.0859375,11.05526918578125C7.0859375,10.90182107578125,7.21011028,10.77764892578125,7.36355838,10.77764892578125L7.64117926,10.77764892578125C7.79462737,10.77764892578125,7.9187788999999995,10.90180104578125,7.9187788999999995,11.05526918578125C7.9187788999999995,11.20871603578125,7.79462737,11.33288943578125,7.64117926,11.33288943578125Z" fill="#8D40FF" fill-opacity="1" style="mix-blend-mode:passthrough"/></g><g><path d="M9.584517355,11.33288943578125L9.306917755,11.33288943578125C9.153469655,11.33288943578125,9.029296875,11.20871603578125,9.029296875,11.05526918578125C9.029296875,10.90182107578125,9.153469655,10.77764892578125,9.306917755,10.77764892578125L9.584517355,10.77764892578125C9.737965465,10.77764892578125,9.862138275,10.90180104578125,9.862138275,11.05526918578125C9.862138275,11.20871603578125,9.737965465,11.33288943578125,9.584517355,11.33288943578125Z" fill="#8D40FF" fill-opacity="1" style="mix-blend-mode:passthrough"/></g><g><path d="M11.25004344875,11.33288943578125L10.97244447875,11.33288943578125C10.81899636875,11.33288943578125,10.69482421875,11.20871603578125,10.69482421875,11.05526918578125C10.69482421875,10.90182107578125,10.81899761875,10.77764892578125,10.97244447875,10.77764892578125L11.25004469875,10.77764892578125C11.40349280875,10.77764892578125,11.52766495875,10.90180104578125,11.52766495875,11.05526918578125C11.52766495875,11.20871603578125,11.40351283875,11.33288943578125,11.25004344875,11.33288943578125Z" fill="#8D40FF" fill-opacity="1" style="mix-blend-mode:passthrough"/></g><g><path d="M13.1929358225,11.33288943578125L12.9153155725,11.33288943578125C12.7618674625,11.33288943578125,12.6376953125,11.20871603578125,12.6376953125,11.05526918578125C12.6376953125,10.90182107578125,12.7618474325,10.77764892578125,12.9153155725,10.77764892578125L13.1929358225,10.77764892578125C13.3463626525,10.77764892578125,13.4705560825,10.90180104578125,13.4705560825,11.05526918578125C13.4705360525,11.20871603578125,13.3463413725,11.33288943578125,13.1929358225,11.33288943578125Z" fill="#8D40FF" fill-opacity="1" style="mix-blend-mode:passthrough"/></g><g><path d="M15.1362951975,11.33288943578125L14.8586749475,11.33288943578125C14.7052268375,11.33288943578125,14.5810546875,11.20871603578125,14.5810546875,11.05526918578125C14.5810546875,10.90182107578125,14.7052280875,10.77764892578125,14.8586749475,10.77764892578125L15.1362951975,10.77764892578125C15.2897433075,10.77764892578125,15.4139154575,10.90180104578125,15.4139154575,11.05526918578125C15.4139167075,11.20871603578125,15.2897645875,11.33288943578125,15.1362951975,11.33288943578125Z" fill="#8D40FF" fill-opacity="1" style="mix-blend-mode:passthrough"/></g><g><path d="M5.69828688625,12.998558585L5.42068728625,12.998558585C5.26723918625,12.998558585,5.14306640625,12.874406455,5.14306640625,12.720938325C5.14306640625,12.567511495,5.26723918625,12.443359375,5.42068728625,12.443359375L5.69828688625,12.443359375C5.85173499625,12.443359375,5.9759078062499995,12.567511495,5.9759078062499995,12.720938325C5.9758864662499995,12.874407705,5.85173439625,12.998558585,5.69828688625,12.998558585Z" fill="#8D40FF" fill-opacity="1" style="mix-blend-mode:passthrough"/></g><g><path d="M7.64117926,12.998558585L7.36355838,12.998558585C7.21011028,12.998558585,7.0859375,12.874406455,7.0859375,12.720938325C7.0859375,12.567511495,7.21011028,12.443359375,7.36355838,12.443359375L7.64117926,12.443359375C7.79462737,12.443359375,7.9187788999999995,12.567511495,7.9187788999999995,12.720938325C7.9187788999999995,12.874407705,7.79462737,12.998558585,7.64117926,12.998558585Z" fill="#8D40FF" fill-opacity="1" style="mix-blend-mode:passthrough"/></g><g><path d="M9.584517355,12.998558585L9.306917755,12.998558585C9.153469655,12.998558585,9.029296875,12.874406455,9.029296875,12.720938325C9.029296875,12.567511495,9.153469655,12.443359375,9.306917755,12.443359375L9.584517355,12.443359375C9.737965465,12.443359375,9.862138275,12.567511495,9.862138275,12.720938325C9.862138275,12.874407705,9.737965465,12.998558585,9.584517355,12.998558585Z" fill="#8D40FF" fill-opacity="1" style="mix-blend-mode:passthrough"/></g><g><path d="M11.25004344875,12.998558585L10.97244447875,12.998558585C10.81899636875,12.998558585,10.69482421875,12.874406455,10.69482421875,12.720938325C10.69482421875,12.567511495,10.81899761875,12.443359375,10.97244447875,12.443359375L11.25004469875,12.443359375C11.40349280875,12.443359375,11.52766495875,12.567511495,11.52766495875,12.720938325C11.52766495875,12.874407705,11.40351283875,12.998558585,11.25004344875,12.998558585Z" fill="#8D40FF" fill-opacity="1" style="mix-blend-mode:passthrough"/></g><g><path d="M13.1929358225,12.998558585L12.9153155725,12.998558585C12.7618674625,12.998558585,12.6376953125,12.874406455,12.6376953125,12.720938325C12.6376953125,12.567511495,12.7618474325,12.443359375,12.9153155725,12.443359375L13.1929358225,12.443359375C13.3463626525,12.443359375,13.4705560825,12.567511495,13.4705560825,12.720938325C13.4705360525,12.874407705,13.3463413725,12.998558585,13.1929358225,12.998558585Z" fill="#8D40FF" fill-opacity="1" style="mix-blend-mode:passthrough"/></g><g><path d="M15.1362951975,12.998558585L14.8586749475,12.998558585C14.7052268375,12.998558585,14.5810546875,12.874406455,14.5810546875,12.720938325C14.5810546875,12.567511495,14.7052280875,12.443359375,14.8586749475,12.443359375L15.1362951975,12.443359375C15.2897433075,12.443359375,15.4139154575,12.567511495,15.4139154575,12.720938325C15.4139167075,12.874407705,15.2897645875,12.998558585,15.1362951975,12.998558585Z" fill="#8D40FF" fill-opacity="1" style="mix-blend-mode:passthrough"/></g><g><path d="M5.69828688625,16.32979637796875L5.42068728625,16.32979637796875C5.26723918625,16.32979637796875,5.14306640625,16.20564424796875,5.14306640625,16.05217611796875C5.14306640625,15.89874928796875,5.26723918625,15.77459716796875,5.42068728625,15.77459716796875L5.69828688625,15.77459716796875C5.85173499625,15.77459716796875,5.9759078062499995,15.89874928796875,5.9759078062499995,16.05217611796875C5.9758864662499995,16.20564549796875,5.85173439625,16.32979637796875,5.69828688625,16.32979637796875Z" fill="#8D40FF" fill-opacity="1" style="mix-blend-mode:passthrough"/></g><g><path d="M7.64117926,16.32979637796875L7.36355838,16.32979637796875C7.21011028,16.32979637796875,7.0859375,16.20564424796875,7.0859375,16.05217611796875C7.0859375,15.89874928796875,7.21011028,15.77459716796875,7.36355838,15.77459716796875L7.64117926,15.77459716796875C7.79462737,15.77459716796875,7.9187788999999995,15.89874928796875,7.9187788999999995,16.05217611796875C7.9187788999999995,16.20564549796875,7.79462737,16.32979637796875,7.64117926,16.32979637796875Z" fill="#8D40FF" fill-opacity="1" style="mix-blend-mode:passthrough"/></g><g><path d="M9.584517355,16.32979637796875L9.306917755,16.32979637796875C9.153469655,16.32979637796875,9.029296875,16.20564424796875,9.029296875,16.05217611796875C9.029296875,15.89874928796875,9.153469655,15.77459716796875,9.306917755,15.77459716796875L9.584517355,15.77459716796875C9.737965465,15.77459716796875,9.862138275,15.89874928796875,9.862138275,16.05217611796875C9.862138275,16.20564549796875,9.737965465,16.32979637796875,9.584517355,16.32979637796875Z" fill="#8D40FF" fill-opacity="1" style="mix-blend-mode:passthrough"/></g><g><path d="M11.25004344875,16.32979637796875L10.97244447875,16.32979637796875C10.81899636875,16.32979637796875,10.69482421875,16.20564424796875,10.69482421875,16.05217611796875C10.69482421875,15.89874928796875,10.81899761875,15.77459716796875,10.97244447875,15.77459716796875L11.25004469875,15.77459716796875C11.40349280875,15.77459716796875,11.52766495875,15.89874928796875,11.52766495875,16.05217611796875C11.52766495875,16.20564549796875,11.40351283875,16.32979637796875,11.25004344875,16.32979637796875Z" fill="#8D40FF" fill-opacity="1" style="mix-blend-mode:passthrough"/></g><g><path d="M5.69828688625,14.664218781484376L5.42068728625,14.664218781484376C5.26723918625,14.664218781484376,5.14306640625,14.540066661484374,5.14306640625,14.386598531484376C5.14306640625,14.233130391484375,5.26723918625,14.108978271484375,5.42068728625,14.108978271484375L5.69828688625,14.108978271484375C5.85173499625,14.108978271484375,5.9759078062499995,14.233130391484375,5.9759078062499995,14.386598531484376C5.9759078062499995,14.540066661484374,5.85173439625,14.664218781484376,5.69828688625,14.664218781484376Z" fill="#8D40FF" fill-opacity="1" style="mix-blend-mode:passthrough"/></g><g><path d="M7.64117926,14.664218781484376L7.36355838,14.664218781484376C7.21011028,14.664218781484376,7.0859375,14.540066661484374,7.0859375,14.386598531484376C7.0859375,14.233130391484375,7.21011028,14.108978271484375,7.36355838,14.108978271484375L7.64117926,14.108978271484375C7.79462737,14.108978271484375,7.9187788999999995,14.233130391484375,7.9187788999999995,14.386598531484376C7.9187788999999995,14.540066661484374,7.79462737,14.664218781484376,7.64117926,14.664218781484376Z" fill="#8D40FF" fill-opacity="1" style="mix-blend-mode:passthrough"/></g><g><path d="M9.584517355,14.664218781484376L9.306917755,14.664218781484376C9.153469655,14.664218781484376,9.029296875,14.540066661484374,9.029296875,14.386598531484376C9.029296875,14.233130391484375,9.153469655,14.108978271484375,9.306917755,14.108978271484375L9.584517355,14.108978271484375C9.737965465,14.108978271484375,9.862138275,14.233130391484375,9.862138275,14.386598531484376C9.862138275,14.540066661484374,9.737964865,14.664218781484376,9.584517355,14.664218781484376Z" fill="#8D40FF" fill-opacity="1" style="mix-blend-mode:passthrough"/></g><g><path d="M11.25004344875,14.664218781484376L10.97244447875,14.664218781484376C10.81899636875,14.664218781484376,10.69482421875,14.540066661484374,10.69482421875,14.386598531484376C10.69482421875,14.233130391484375,10.81899761875,14.108978271484375,10.97244447875,14.108978271484375L11.25004469875,14.108978271484375C11.40349280875,14.108978271484375,11.52766495875,14.233130391484375,11.52766495875,14.386598531484376C11.52766495875,14.540066661484374,11.40351283875,14.664218781484376,11.25004344875,14.664218781484376Z" fill="#8D40FF" fill-opacity="1" style="mix-blend-mode:passthrough"/></g><g><path d="M13.1929358225,14.664218781484376L12.9153155725,14.664218781484376C12.7618674625,14.664218781484376,12.6376953125,14.540066661484374,12.6376953125,14.386598531484376C12.6376953125,14.233130391484375,12.7618474325,14.108978271484375,12.9153155725,14.108978271484375L13.1929358225,14.108978271484375C13.3463626525,14.108978271484375,13.4705560825,14.233130391484375,13.4705560825,14.386598531484376C13.4705560825,14.540066661484374,13.3463413725,14.664218781484376,13.1929358225,14.664218781484376Z" fill="#8D40FF" fill-opacity="1" style="mix-blend-mode:passthrough"/></g><g><path d="M15.1362951975,14.664218781484376L14.8586749475,14.664218781484376C14.7052268375,14.664218781484376,14.5810546875,14.540066661484374,14.5810546875,14.386598531484376C14.5810546875,14.233130391484375,14.7052280875,14.108978271484375,14.8586749475,14.108978271484375L15.1362951975,14.108978271484375C15.2897433075,14.108978271484375,15.4139154575,14.233130391484375,15.4139154575,14.386598531484376C15.4139154575,14.540066661484374,15.2897645875,14.664218781484376,15.1362951975,14.664218781484376Z" fill="#8D40FF" fill-opacity="1" style="mix-blend-mode:passthrough"/></g><g><path d="M5.47709548,6.61347102265625C5.17049342,6.61347102265625,4.921875,6.36487392265625,4.921875,6.05825042265625L4.921875,1.89414870265625C4.921875,1.58752568265625,5.17047246,1.33892822265625,5.47709548,1.33892822265625C5.78371882,1.33892822265625,6.032316,1.58752568265625,6.032316,1.89414870265625L6.032316,6.05825042265625C6.032316,6.36487392265625,5.78371882,6.61347102265625,5.47709548,6.61347102265625Z" fill="#8D40FF" fill-opacity="1" style="mix-blend-mode:passthrough"/></g><g><path d="M15.19340407375,6.61347102265625C14.88680201375,6.61347102265625,14.63818359375,6.36487392265625,14.63818359375,6.05825042265625L14.63818359375,1.89414870265625C14.63818359375,1.58752568265625,14.88680201375,1.33892822265625,15.19340407375,1.33892822265625C15.50002741375,1.33892822265625,15.74862459375,1.58752568265625,15.74862459375,1.89414870265625L15.74862459375,6.05825042265625C15.74862459375,6.36487392265625,15.50004869375,6.61347102265625,15.19340407375,6.61347102265625Z" fill="#8D40FF" fill-opacity="1" style="mix-blend-mode:passthrough"/></g><g><path d="M18.7455714375,8.834273214375L2.0891441674999998,8.834273214375C1.9356962175,8.834273214375,1.8115234375,8.710100444375,1.8115234375,8.556652334375C1.8115234375,8.403204234375,1.9356962175,8.279052734375,2.0891441674999998,8.279052734375L18.7455714375,8.279052734375C18.8990194375,8.279052734375,19.0231914375,8.403225514375,19.0231914375,8.556652334375C19.0231934375,8.710100444375,18.8990194375,8.834273214375,18.7455714375,8.834273214375Z" fill="#8D40FF" fill-opacity="1" style="mix-blend-mode:passthrough"/></g></g></svg>