<svg xmlns="http://www.w3.org/2000/svg" xmlns:xlink="http://www.w3.org/1999/xlink" fill="none" version="1.1" width="42" height="42" viewBox="0 0 42 42"><defs><clipPath id="master_svg0_6_5358"><rect x="0" y="0" width="42" height="42" rx="0"/></clipPath></defs><g clip-path="url(#master_svg0_6_5358)"><g><path d="M37.0039180625,16.831081265136717C36.8506600625,16.35940026513672,36.4429110625,16.01563126513672,35.9521120625,15.94432426513672L26.4271770625,14.560292265136718L22.1674980625,5.929252085136719C21.9480320625,5.484507085136719,21.4950960625,5.202934265136719,20.9991490625,5.202934265136719C20.5032020625,5.202934578061109,20.0502650625,5.484507085136719,19.8307960625,5.929252085136719L15.5711190625,14.560333265136718L6.0461838624999995,15.944364265136718C5.5554307725,16.01572826513672,5.1477337625,16.35948526513672,4.9944806095,16.83112726513672C4.8412274565,17.30276726513672,4.9689913545,17.820513265136718,5.3240625825,18.16671426513672L12.2164096625,24.885072265136717L10.5893607625,34.37149826513672C10.5054883625,34.86030926513672,10.7064185625,35.354347265136724,11.1076564625,35.645862265136714C11.5088930625,35.937378265136715,12.040842962500001,35.97580726513672,12.4798121625,35.744987265136714L20.9991680625,31.266121265136718L29.5185240625,35.74498526513672C29.8021470625,35.89469326513672,30.4558960625,35.92939026513672,30.8906610625,35.64580726513672C31.3043440625,35.37596726513672,31.4928090625,34.860317265136715,31.4089760625,34.37149226513672L29.7819270625,24.88507126513672L36.6742340625,18.166712265136717C37.0293850625,17.820539265136716,37.1571960625,17.30275126513672,37.0039180625,16.831081265136717ZM27.4725420625,23.49722826513672C27.1654640625,23.796552265136718,27.0253350625,24.22781226513672,27.0978240625,24.65046526513672L28.3943710625,32.210056265136714L21.6054230625,28.640875265136717C21.4186310625,28.54260026513672,21.2105480625,28.491247265136717,20.9991300625,28.491251265136718C20.7878890625,28.491220265136718,20.5798110625,28.54257226513672,20.3928370625,28.640875265136717L13.6038894625,32.210056265136714L14.9004335625,24.65046526513672C14.9729320625,24.227817265136718,14.8328199625,23.79656026513672,14.5257558625,23.49722826513672L9.0333528625,18.14345926513672L16.6236220625,17.04054926513672C17.047994062500003,16.97889726513672,17.4148510625,16.71236626513672,17.6046330625,16.32782126513672L20.9991680625,9.449828165136719L24.3936610625,16.32777826513672C24.5834390625,16.71231126513672,24.9502770625,16.97884126513672,25.3746320625,17.040507265136718L32.9649430625,18.14341726513672L27.4725420625,23.49722826513672Z" fill="#8D40FF" fill-opacity="1" style="mix-blend-mode:passthrough"/></g></g></svg>