<svg xmlns="http://www.w3.org/2000/svg" xmlns:xlink="http://www.w3.org/1999/xlink" fill="none" version="1.1" width="34" height="34" viewBox="0 0 34 34"><defs><clipPath id="master_svg0_6_5362"><rect x="0" y="0" width="34" height="34" rx="0"/></clipPath></defs><g clip-path="url(#master_svg0_6_5362)"><g><path d="M16.9911520625,3.094505816698074C12.3204440625,3.094505816698074,8.1947493625,5.390346010058593,5.6685426625,8.908026210058594L5.6685426625,6.568003210058594C5.6685426625,5.8485687100585935,5.0836100625,5.265445210058594,4.3621033625,5.265445210058594C3.6405965725,5.265445210058594,3.0556640625,5.848598010058594,3.0556640625,6.568003210058594L3.0556640625,11.778235410058594C3.0556640625,12.497494710058593,3.6405968025,13.080793410058593,4.3621033625,13.080793410058593L10.0233492625,13.080793410058593C10.744855362500001,13.080793410058593,11.3297881625,12.497523310058593,11.3297881625,11.778235410058594C11.3297881625,11.058800710058595,10.744855362500001,10.475677010058593,10.0233492625,10.475677010058593L7.7508549625,10.475677010058593C9.800511862499999,7.587403810058594,13.1724250625,5.699650510058594,16.9911800625,5.699650510058594C23.2442760625,5.699650510058594,28.3136140625,10.753872910058593,28.3136140625,16.988496310058594C28.3136140625,23.223001310058592,23.2442740625,28.277343310058594,16.9911800625,28.277343310058594C11.7206573625,28.277343310058594,7.3043041625,24.681717310058595,6.0421934625,19.820360310058593L6.0195186624999995,19.827423310058595C5.8434903625,19.315710310058595,5.3706471625,18.942233310058594,4.7975625625,18.942233310058594C4.0760559625,18.942233310058594,3.4911232325,19.525385310058592,3.4911232325,20.244644310058593C3.4911232325,20.373020310058592,3.5297608425,20.489311310058593,3.5643711125,20.606332310058594L3.5507721925,20.610622310058595C3.5593518625,20.642168310058594,3.5750812325,20.670387310058594,3.5838359625000002,20.701759310058595C3.5934370725,20.727060310058594,3.5998280625,20.752332310058595,3.6109465325,20.776931310058593C5.2686257625,26.603090310058594,10.616451762499999,30.882431310058593,16.9912670625,30.882431310058593C24.6875510625,30.882431310058593,30.9266090625,24.661815310058593,30.9266090625,16.988469310058594C30.9265500625,9.314977210058593,24.6874640625,3.0944789648055937,16.9911520625,3.094505816698074L16.9911520625,3.094505816698074ZM16.9911520625,8.955914510058594C16.2696460625,8.955914510058594,15.6847130625,9.539066810058593,15.6847130625,10.258472410058594L15.6847130625,18.073820310058593C15.6847130625,18.793255310058594,16.2696460625,19.376379310058592,16.9911520625,19.376379310058592L22.6523680625,19.376379310058592C23.3738750625,19.376379310058592,23.9588070625,18.793226310058593,23.9588070625,18.073966310058594C23.9588070625,17.35441531005859,23.3738730625,16.771408310058593,22.6523680625,16.771408310058593L18.2975900625,16.771408310058593L18.2975900625,10.258472410058594C18.2975900625,9.539038610058594,17.712628062500002,8.955914510058594,16.9911520625,8.955914510058594L16.9911520625,8.955914510058594Z" fill="#8D40FF" fill-opacity="1" style="mix-blend-mode:passthrough"/></g></g></svg>