<svg xmlns="http://www.w3.org/2000/svg" xmlns:xlink="http://www.w3.org/1999/xlink" fill="none" version="1.1" width="31" height="31" viewBox="0 0 31 31"><defs><clipPath id="master_svg0_1_4771"><rect x="0" y="0" width="31" height="31" rx="0"/></clipPath></defs><g clip-path="url(#master_svg0_1_4771)"><g><path d="M23.1005244375,13.810515925Q23.1005244375,13.988971724999999,23.0917674375,14.167212925000001Q23.083011437499998,14.345454225000001,23.0655194375,14.523051225Q23.0480274375,14.700647325,23.0218414375,14.877171525Q22.9956574375,15.053695725,22.9608414375,15.228723525Q22.9260264375,15.403751325,22.882665437500002,15.576858525Q22.839304437499997,15.749967625,22.7875004375,15.920739125Q22.7356964375,16.091510725,22.6755774375,16.259534825Q22.6154564375,16.427558925,22.5471644375,16.592430625Q22.4788714375,16.757303625,22.4025714375,16.918625625Q22.326272437500002,17.079948625,22.2421494375,17.237333624999998Q22.1580244375,17.394718625,22.066280437499998,17.547783625Q21.974535437500002,17.700851625,21.875390437500002,17.849231625Q21.776245437500002,17.997611624999998,21.6699384375,18.140949624999998Q21.563633437500002,18.284287624999997,21.450421437499998,18.422236625Q21.3372094375,18.560184624999998,21.2173654375,18.692412625Q21.097520437500002,18.824640625,20.971334437499998,18.950827625000002Q20.8451464375,19.077014625,20.7129194375,19.196859625000002Q20.580692437499998,19.316702624999998,20.4427444375,19.429914625000002Q20.3047944375,19.543125625000002,20.161457437499998,19.649431625Q20.018119437499998,19.755737625000002,19.8697384375,19.854882625000002Q19.7213574375,19.954027625000002,19.5682914375,20.045771625Q19.4152254375,20.137515625,19.257841437499998,20.221640625Q19.1004564375,20.305763625,18.9391334375,20.382063625Q18.7778114375,20.458363625,18.6129384375,20.526656625Q18.4480667375,20.594948625,18.2800426375,20.655069625Q18.1120185375,20.715188625,17.9412469375,20.766992625Q17.7704754375,20.818796624999997,17.5973663375,20.862157625000002Q17.4242591375,20.905519625,17.2492313375,20.940334625Q17.0742035375,20.975149625,16.8976793375,21.001335625Q16.7211551375,21.027519625,16.5435590375,21.045011625Q16.3659620375,21.062502625,16.1877212375,21.071258625Q16.0094795375,21.080015625,15.8310237375,21.080016625Q15.652567337499999,21.080015625,15.4743261375,21.071259625Q15.2960848375,21.062502625,15.1184883375,21.045011625Q14.9408908375,21.027519625,14.7643661375,21.001333625Q14.587841037499999,20.975149625,14.4128141375,20.940333625Q14.237786737499999,20.905518625,14.0646786375,20.862157625000002Q13.8915701375,20.818796624999997,13.7207985375,20.766992625Q13.5500264375,20.715188625,13.382001837499999,20.655069625Q13.2139778375,20.594948625,13.0491056375,20.526656625Q12.8842334375,20.458363625,12.722910837499999,20.382063625Q12.5615882375,20.305764625000002,12.4042043375,20.221641625Q12.2468199375,20.137516625,12.0937528375,20.045772624999998Q11.9406857375,19.954027625000002,11.7923050375,19.854882625000002Q11.6439242375,19.755737625000002,11.5005869375,19.649430625Q11.3572497375,19.543125625000002,11.2193012375,19.429913624999998Q11.0813527375,19.316701625,10.9491255375,19.196857625Q10.8168983375,19.077012625000002,10.6907105375,18.950826624999998Q10.5645229375,18.824638625,10.4446791375,18.692411625Q10.3248353375,18.560184624999998,10.2116239375,18.422236625Q10.0984124375,18.284286625,9.9921060375,18.140949624999998Q9.8857998375,17.997611624999998,9.7866549375,17.849230625Q9.687510037500001,17.700849625,9.595765137499999,17.547783625Q9.5040203375,17.394717625,9.4198967175,17.237333624999998Q9.3357729875,17.079948625,9.2594731475,16.918625625Q9.1831732975,16.757303625,9.1148810975,16.592430625Q9.0465888675,16.427558925,8.9864688175,16.259534825Q8.9263487475,16.091510725,8.8745456375,15.920739125Q8.8227425175,15.749967625,8.7793812175,15.576858525Q8.7360199075,15.403751325,8.7012048175,15.228723525Q8.6663897475,15.053695725,8.6402047875,14.877171525Q8.6140198265,14.700647325,8.5965280645,14.523051225Q8.5790362975,14.345454225000001,8.5702798674,14.167213425Q8.5615234375,13.988971724999999,8.5615234375,13.810515925Q8.5615234375,13.632059524999999,8.5702798674,13.453818325Q8.5790362975,13.275577025,8.5965280645,13.097980525Q8.6140198265,12.920383025,8.6402047875,12.743858325Q8.6663897475,12.567333224999999,8.7012048175,12.392306325Q8.7360199075,12.217278924999999,8.7793812175,12.044170825Q8.8227425175,11.871062325,8.8745456375,11.700290725Q8.9263487475,11.529518625,8.9864687875,11.361494024999999Q9.0465888675,11.193470025,9.1148810975,11.028597825Q9.1831732975,10.863725625,9.2594731475,10.702403024999999Q9.3357729875,10.541080425,9.4198967175,10.383696525Q9.5040203375,10.226312125,9.595765137499999,10.073245025Q9.687510037500001,9.920177925,9.7866549375,9.771797225Q9.8857998375,9.623416425,9.9921062375,9.480079125Q10.0984124375,9.336741925,10.2116239375,9.198793425Q10.3248353375,9.060844925,10.4446791375,8.928617725Q10.5645229375,8.796390525,10.6907105375,8.670202725Q10.8168983375,8.544015125,10.9491255375,8.424171325Q11.0813527375,8.304327525,11.2193012375,8.191116125Q11.3572497375,8.077904625,11.5005869375,7.971598225Q11.6439242375,7.8652920250000005,11.7923050375,7.766147125Q11.9406857375,7.667002225,12.0937528375,7.575257325Q12.2468199375,7.483512525,12.4042043375,7.399388905Q12.5615882375,7.315265175,12.722910837499999,7.238965335Q12.8842334375,7.162665485,13.0491056375,7.094373285Q13.2139778375,7.026081055,13.382001837499999,6.965961005Q13.5500264375,6.905840935,13.7207985375,6.854037825Q13.8915701375,6.802234705,14.0646782375,6.758873405Q14.237786737499999,6.715512095,14.4128141375,6.680697005Q14.587841037499999,6.645881935,14.7643661375,6.619696975Q14.9408908375,6.593512014,15.1184883375,6.576020252Q15.2960848375,6.558528485,15.4743261375,6.5497720549Q15.652567337499999,6.541015625,15.8310237375,6.541015625Q16.0094795375,6.541015625,16.1877207375,6.5497720549Q16.3659620375,6.558528485,16.5435590375,6.576020252Q16.7211551375,6.593512014,16.8976793375,6.619696975Q17.0742035375,6.645881935,17.2492313375,6.680697005Q17.4242591375,6.715512095,17.5973663375,6.758873405Q17.7704754375,6.802234705,17.9412469375,6.854037825Q18.1120185375,6.905840935,18.2800426375,6.965960975Q18.4480667375,7.026081055,18.6129384375,7.094373285Q18.7778114375,7.162665485,18.9391334375,7.238965335Q19.1004564375,7.315265175,19.257841437499998,7.399388905Q19.4152264375,7.483512525,19.5682914375,7.575257325Q19.7213594375,7.667002225,19.8697394375,7.766147125Q20.018119437499998,7.8652920250000005,20.161457437499998,7.971598425Q20.304795437499997,8.077904625,20.4427444375,8.191116125Q20.580692437499998,8.304327525,20.7129204375,8.424171325Q20.8451484375,8.544015125,20.971335437500002,8.670202725Q21.0975224375,8.796390525,21.217367437500002,8.928617725Q21.337210437499998,9.060844925,21.450422437500002,9.198793425Q21.563633437500002,9.336741925,21.6699394375,9.480079125Q21.776245437500002,9.623416425,21.875390437500002,9.771797225Q21.974535437500002,9.920177925,22.0662794375,10.073245025Q22.1580234375,10.226312125,22.2421484375,10.383696525Q22.3262714375,10.541080425,22.4025714375,10.702403024999999Q22.4788714375,10.863725625,22.5471644375,11.028597825Q22.6154564375,11.193470025,22.6755774375,11.361494024999999Q22.7356964375,11.529518625,22.7875004375,11.700290725Q22.839304437499997,11.871062325,22.882665437500002,12.044170425Q22.9260274375,12.217278924999999,22.9608424375,12.392306325Q22.9956574375,12.567333224999999,23.0218434375,12.743858325Q23.0480274375,12.920383025,23.0655194375,13.097980525Q23.083011437499998,13.275577025,23.0917684375,13.453818325Q23.1005244375,13.632059524999999,23.1005244375,13.810515925Z" fill="#D4B8FE" fill-opacity="1" style="mix-blend-mode:passthrough"/></g><g><path d="M15.653984574999999,10.462544421875C17.327984775,10.462544421875,18.691984175,11.826544321875,18.691984175,13.500543621875C18.691984175,15.174543421875,17.327983375,16.538544621875,15.653984574999999,16.538544621875C13.979985475,16.538544621875,12.615984575,15.174544321875,12.615984575,13.500545021875C12.615984575,12.694545221875,12.941485175,11.935044721875,13.499484575,11.361544821875C14.072984475,10.788044721875,14.847984275,10.462545321875,15.653984574999999,10.462544421875ZM15.653984574999999,8.633544921875C12.956984075,8.633544921875,10.771484375,10.834544921875,10.771484375,13.531544221875C10.771484375,16.228544221874998,12.972484575,18.414043421875,15.669485575,18.414043421875C18.366485575,18.414043421875,20.551985775,16.213043721875,20.551985775,13.516043621875C20.551985775,12.214043821875,20.040486375,10.974043321875,19.110485075,10.059544121875C18.195984875,9.145043851875,16.955984075,8.63354399800306,15.653984574999999,8.633544921875Z" fill="#8D40FF" fill-opacity="1" style="mix-blend-mode:passthrough"/></g><g><path d="M24.0400615,4.8670034484375C19.5605635,0.2480034484375,12.1825638,0.12400374843750006,7.5635629,4.5880033484375L7.2845633,4.8670034484375C2.6655625,9.6410036484375,2.6655625,17.2205051484375,7.2845633,22.0100021484375L15.6545615,30.5815031484375L24.0245625,22.0100021484375C28.6590655,17.2360031484375,28.6590655,9.6410036484375,24.0400615,4.8670034484375ZM22.7690625,20.8010021484375L15.6545615,28.1170021484375L8.540062899999999,20.8010021484375C4.60306209,16.755504148437502,4.60306209,10.3075037484375,8.540062899999999,6.2620034484375C12.3530626,2.3250030484375,18.6305645,2.2320033284375,22.5520625,6.0450034484375C22.6295625,6.1070036484375,22.6915605,6.1845030484375,22.7690625,6.2620034484375C26.7060645,10.3075037484375,26.7060645,16.755504148437502,22.7690625,20.8010021484375Z" fill="#8D40FF" fill-opacity="1" style="mix-blend-mode:passthrough"/></g></g></svg>