<svg xmlns="http://www.w3.org/2000/svg" xmlns:xlink="http://www.w3.org/1999/xlink" fill="none" version="1.1" width="35" height="35" viewBox="0 0 35 35"><defs><clipPath id="master_svg0_2_35"><rect x="0" y="0" width="35" height="35" rx="0"/></clipPath></defs><g clip-path="url(#master_svg0_2_35)"><g><path d="M17.6755849375,2.3626708984375C9.3154845375,2.3626708984375,2.5380859375,9.1400694984375,2.5380859375,17.5001698984375C2.5380859375,25.8600918984375,9.3154845375,32.6376688984375,17.6755849375,32.6376688984375C26.0355069375,32.6376688984375,32.8130839375,25.8600918984375,32.8130839375,17.5001698984375C32.8130839375,9.1400694984375,26.0355069375,2.3626708984375,17.6755849375,2.3626708984375ZM18.2856329375,26.4402158984375C17.9743099375,26.7256428984375,17.6111839375,26.8813918984375,17.1698359375,26.8813918984375C16.7286589375,26.8813918984375,16.365358937499998,26.7254658984375,16.0540339375,26.4402158984375C15.7427099375,26.1288928984375,15.6128609375,25.7655928984375,15.6128609375,25.3242418984375C15.6128609375,24.8832398984375,15.7425359375,24.5195918984375,16.0540339375,24.2345158984375C16.3655349375,23.9231928984375,16.728660937500003,23.7933408984375,17.1698359375,23.7933408984375C17.6110089375,23.7933408984375,18.0002099375,23.9231908984375,18.3115329375,24.2345158984375C18.5969579375,24.5195888984375,18.7527079375,24.8832398984375,18.7527079375,25.3242418984375C18.7527079375,25.7914938984375,18.5971359375,26.1547928984375,18.2856329375,26.4402158984375ZM22.0225829375,16.0600938984375C21.7632329375,16.3714188984375,21.0623589375,17.046218898437502,19.9204829375,18.0582438984375C19.3496339375,18.5510458984375,18.9604319375,19.0182948984375,18.7009089375,19.4855458984375C18.3635089375,20.0563928984375,18.2077569375,20.6790448984375,18.2077569375,21.3797458984375L18.2077569375,21.9768428984375L16.1319089375,21.9768428984375L16.1319089375,21.3797458984375C16.1319089375,20.5234678984375,16.287658937499998,19.7709688984375,16.5989849375,19.1222458984375C16.9622839375,18.3436718984375,17.8187339375,17.357546898437498,19.2201349375,16.1118958984375C19.6352349375,15.6967968984375,19.9467339375,15.3852958984375,20.1023099375,15.1777458984375C20.6213609375,14.5290208984375,20.8807109375,13.8542208984375,20.8807109375,13.1276208984375C20.8807109375,12.0896958984375,20.5695609375,11.2852210984375,19.9985349375,10.7143716984375C19.4017829375,10.0915464984375,18.5451579375,9.8062963984375,17.4554339375,9.8062963984375C16.1579839375,9.8062963984375,15.1979339375,10.2213973984375,14.5751099375,11.0778455984375C14.0040849375,11.8044452984375,13.7186599375,12.7905698984375,13.7186599375,14.0621208984375L11.6683597375,14.0621198984375C11.6683597375,12.2456187984375,12.1615104375,10.7924193984375,13.1994349375,9.7026953984375C14.2375349375,8.5608195984375,15.6905599375,7.9897951984375,17.5590339375,7.9897951984375C19.2199589375,7.9897951984375,20.5433079375,8.4309696984375,21.5555079375,9.3649453984375C22.5155579375,10.247295398437501,23.0087069375,11.4670447984375,23.0087069375,13.0238448984375C23.0087069375,14.1916208984375,22.6713089375,15.2036448984375,22.0225829375,16.0600938984375Z" fill="#272636" fill-opacity="1" style="mix-blend-mode:passthrough"/></g></g></svg>