<svg xmlns="http://www.w3.org/2000/svg" xmlns:xlink="http://www.w3.org/1999/xlink" fill="none" version="1.1" width="32"
	height="32" viewBox="21 13 32 32">
	<g>
		<g>
			<rect x="0" y="0" width="417" height="93" rx="20" fill="url(#master_svg0_6_00742)" fill-opacity="1" />
		</g>
		<g>
			<path
				d="M45.118055,24.5812573L46.973177,24.5812573L46.973177,27.2352419L51.709998999999996,22.5675001L46.974661,18L46.974661,21.0301523L45.119730000000004,21.0301523C39.808374,21.0301523,36.34389,24.5028639,33.697766,27.566758200000002C31.3227654,30.320822,29.2668724,32.919241,25.9539816,32.919241L23,32.919241L23,36.471741L25.9525008,36.471741C31.2638569,36.471741,34.260927,32.779953,36.908502,29.715922C39.283533,26.9604092,41.797268,24.5812569,45.118055,24.5812573L45.118055,24.5812573ZM30.7246432,26.612651800000002L31.4121962,25.822226C31.9766455,25.1713624,32.5670347,24.481151099999998,33.209697,23.7962723C31.3069124,22.2303777,29.0163774,21.074666999999998,25.952502,21.074666999999998L23,21.074666999999998L23,24.6259093C23,24.6259093,23.79596376,24.5920296,25.9525008,24.6259093C28.040267,24.6651201,29.3496971,25.4176197,30.724610300000002,26.6126509L30.7246432,26.612651800000002ZM46.974630000000005,33.055741L45.119699,33.055741C43.096965999999995,33.055741,41.077844999999996,32.061169,39.631128000000004,30.741669C39.487944,30.911468,39.3423,31.079762000000002,39.194233,31.246517C38.559304,31.981243,37.878357,32.772953,37.127092,33.552607C39.07954,35.230637,41.908966,36.606987000000004,45.119699,36.606987000000004L46.974661,36.606987000000004L46.974661,39.653242L51.709998999999996,34.977516L46.974661,30.418409L46.974630000000005,33.055741L46.974630000000005,33.055741Z"
				fill="currentColor" fill-opacity="1" style="mix-blend-mode:passthrough" />
		</g>
	</g>
</svg>