<svg xmlns="http://www.w3.org/2000/svg" xmlns:xlink="http://www.w3.org/1999/xlink" fill="none" version="1.1" width="25" height="25" viewBox="0 0 25 25"><g><g><path d="M18.10041,16.6394466757625C18.10041,16.6394466757625,23.52891,17.3673220240625,22.978241,20.050447264062498C22.641075,21.6929473640625,20.662407,22.2014474640625,19.153908,22.6064472640625C14.526909,23.8461971640625,9.2675753,23.7989473640625,4.9765744000000005,22.3364472640625C3.4739077,21.8256974640625,1.65157431,20.9481963640625,2.057574335,19.3641972640625C2.45424107,17.8150718640625,4.3209078000000005,17.3211971540625,5.6345744,16.9476968640625C6.1525745,16.8003212840625,7.1477408,16.4853215840625,7.4394083,16.8711975840625C7.7742414,17.3166974740625,7.2690744,17.6935725640625,6.3964076,17.9106979640625C5.1294076,18.2346985640625,3.4482409,18.6318220640625,3.191574,19.6341984640625C2.94190747,20.6016990640625,4.3220744,20.8908243640625,5.0699077,21.1709480640625C5.2705746,21.2463226640625,5.4735744,21.3149471640625,5.6765747,21.3779477640625C5.9589086,21.4645728640625,6.244741,21.5421972640625,6.5305748,21.6119484640625C6.8455744,21.6884474640625,7.1629081,21.7559475640625,7.4814086,21.8144483640625C12.067575,22.6784481640625,17.329241,22.8640727640625,21.032242,20.6635727640625C22.138243,20.0054473640625,21.763744,18.5755729640625,17.913743,17.7475733640625C17.913743,17.7475733640625,17.610412,17.6508240640625,17.507742999999998,17.4280740640625C17.34091,17.0703242440625,17.490242000000002,16.6124486330625,18.10041,16.6394466757625Z" fill="#8D40FF" fill-opacity="1" style="mix-blend-mode:passthrough"/></g><g><path d="M12.59921975,2.0000024139881L12.69021985,2.0022524521L12.78005365,2.0045024902L12.86988685,2.0090025663L12.95855375,2.013502643L13.047220750000001,2.019127637L13.13588765,2.02700267L13.22455455,2.034877703L13.312055149999999,2.043877654L13.400722049999999,2.055127643L13.48822215,2.066377632L13.57455635,2.077627622L13.66088965,2.091127649L13.74722385,2.10575259L13.83355715,2.12037754L13.91872405,2.13725252L14.00389195,2.15412751L14.08905885,2.17212741L14.17422585,2.19237736L14.25822635,2.21262729L14.34106065,2.23512727L14.42506125,2.2553772L14.50789545,2.27900231L14.58956245,2.30375233L14.67123035,2.32850236L14.75289725,2.35437727L14.83456515,2.3813773400000002L14.91623215,2.4095022999999998L14.99556445,2.4387522L15.07489775,2.46800229L15.15423015,2.49837729L15.23239615,2.53212726L15.31056215,2.56250226L15.38872815,2.59625226L15.46572785,2.6300022L15.54272675,2.6660022100000003L15.61855975,2.7020022299999997L15.69439175,2.73800224L15.77022575,2.77625227L15.84489175,2.8145023L15.91839075,2.85387731L15.99189075,2.89437735L16.06539075,2.9360023699999998L16.13772375,2.9776274000000003L16.20888975,3.0203773L16.28005675,3.0631272000000003L16.351222749999998,3.1081271L16.42122375,3.1531273L16.49122375,3.1992522L16.56122275,3.2453771L16.62772375,3.2926272L16.69538975,3.3410023L16.76305675,3.3905025L16.82955775,3.4400024L16.894890750000002,3.4906274L16.96022375,3.5412524000000003L17.024390750000002,3.5941272L17.08855775,3.645877L17.15155875,3.6998771L17.21455975,3.7538773L17.27639275,3.8101271L17.33705975,3.8641273L17.39772775,3.9203773L17.45722875,3.9777521L17.51672975,4.0351269L17.57506275,4.0936272L17.63339675,4.1521273L17.68939675,4.2117524L17.74539575,4.2725024000000005L17.800227749999998,4.3332524L17.85506175,4.3951275L17.90872775,4.4570024L17.96239375,4.5200021L18.01489275,4.5830021L18.06622575,4.6471272L18.11755875,4.7112525000000005L18.167725750000002,4.776502600000001L18.216725750000002,4.8440025L18.26455775,4.9092526L18.31239175,4.9767525L18.359058750000003,5.0442523999999995L18.405724749999997,5.1117523L18.45005775,5.180377200000001L18.49439175,5.2501273L18.537558750000002,5.3198776L18.58072575,5.3907528L18.62272575,5.4616275000000005L18.66355875,5.5325031L18.70322575,5.604502699999999L18.741726749999998,5.677628L18.78022775,5.7507524L18.81756075,5.8238778L18.853728750000002,5.8981273000000005L18.88989675,5.9723775L18.924896750000002,6.0477529L18.95756375,6.1231279L18.99022875,6.198503L19.02289475,6.275003L19.053227749999998,6.3515034L19.08356075,6.430253L19.11272675,6.5067525L19.14072575,6.5855026L19.167559750000002,6.6642523L19.19322575,6.7430024L19.218891749999997,6.8217521L19.24222575,6.9016271L19.26555875,6.9826269L19.288892750000002,7.0625014L19.308726749999998,7.1435013L19.32855975,7.225626L19.34839375,7.3066258L19.365893749999998,7.3887506L19.38339375,7.4720001L19.39856175,7.5541248L19.41372875,7.6373744L19.42772875,7.7217498L19.440562749999998,7.8049994L19.45223075,7.8893747L19.46389675,7.9737501L19.47206175,8.0592504L19.480228750000002,8.1447506L19.488394749999998,8.2302508L19.49422775,8.3157511L19.49889375,8.4012513L19.50355975,8.487876400000001L19.50589375,8.5745015L19.50822675,8.6611266L19.50822675,8.8805017L19.50355975,9.013251799999999L19.49656075,9.144877000000001L19.488394749999998,9.277626999999999L19.47672875,9.409252200000001L19.46506075,9.5408773L19.44756175,9.6725025L19.430060750000003,9.804127699999999L19.409060750000002,9.9357524L19.38689375,10.067378L19.363560749999998,10.1990032L19.33556075,10.3295031L19.306394750000003,10.4600029L19.27606175,10.5916281L19.24222975,10.7210035L19.20722875,10.8515034L19.172227749999998,10.9808788L19.13256075,11.1113796L19.09172675,11.2407541L19.049726749999998,11.3690052L19.00539275,11.4972553L18.95872575,11.6255054L18.912059749999997,11.7537556L18.863059749999998,11.8820066L18.81172675,12.009131L18.75922775,12.135131L18.70556175,12.26113L18.65072775,12.38713L18.59356275,12.51313L18.53522875,12.638004L18.47689475,12.761755L18.415060750000002,12.886629L18.353226749999997,13.010379L18.28905975,13.13413L18.224892750000002,13.254503L18.159558750000002,13.376002L18.091891750000002,13.497502L18.024224750000002,13.617876L17.95539175,13.738251L17.88539175,13.8575L17.81539275,13.975624L17.74305875,14.093749L17.669559749999998,14.211873L17.596059750000002,14.327748L17.52139375,14.443623L17.44672775,14.559498L17.370894749999998,14.673122L17.29389475,14.786747L17.21689575,14.900372L17.13872975,15.012872L17.06056375,15.123121L16.98239775,15.235621L16.90306475,15.343622L16.822565750000003,15.452747L16.66156575,15.667623L16.50056575,15.877996L16.33723275,16.086122L16.17389975,16.289746L16.010566750000002,16.488871L15.84489975,16.684621L15.68156675,16.875872L15.51823375,17.062621L15.35723405,17.244871L15.19623375,17.422621L15.03639985,17.595871000000002L14.88006685,17.764622L14.72489925,17.926621L14.57323165,18.085247L14.42273135,18.237122L14.27573205,18.384497L14.13339905,18.526247L13.99456595,18.662371L13.85923195,18.792871L13.73089795,18.916622L13.60373025,19.034746L13.48356435,19.147247L13.36806445,19.252996L13.155731249999999,19.444248L12.969064750000001,19.609621L12.811564449999999,19.747995L12.68323045,19.855997L12.589897149999999,19.935873L12.51055285,20.000002L12.43238635,19.935877L12.33905315,19.857126L12.21071955,19.748001L12.05088615,19.610752L11.864219649999999,19.446503L11.65188695,19.255251L11.53755335,19.149502L11.41621975,19.037001L11.291386150000001,18.918877L11.16071985,18.795126L11.02538635,18.665751L10.886552850000001,18.53075L10.74421975,18.387877L10.59721995,18.241627L10.44788645,18.088625L10.29621985,17.931126L10.14105365,17.768002L9.983553449999999,17.600376L9.823719950000001,17.42825L9.66271975,17.250501L9.50171995,17.068251L9.33838675,16.881501L9.17505355,16.69025L9.01172045,16.495625L8.84605405,16.295375L8.682720849999999,16.092875L8.51938775,15.884751L8.35722115,15.674376L8.19622115,15.460627L8.11688755,15.350376L8.03755425,15.241251L7.958220949999999,15.131001L7.880053950000001,15.019626L7.8030538499999995,14.907126L7.72488685,14.794626L7.64905305,14.682126L7.57321955,14.566252L7.49738585,14.451502L7.42271955,14.335628L7.34921995,14.218628L7.27688685,14.101628L7.2045537500000005,13.983503L7.13455375,13.864254L7.06455385,13.745005L6.99455395,13.625755L6.92688715,13.504256L6.8603869500000005,13.383882L6.79388675,13.261256L6.72971975,13.139756L6.66672015,13.016006L6.60372055,12.893381L6.54305415,12.769631L6.48472083,12.645882L6.42638755,12.519882L6.36922085,12.393882L6.31322074,12.267882L6.25955379,12.141883L6.20705342,12.014758L6.15688705,11.8876333L6.1067206899999995,11.7593832L6.06005406,11.6322584L6.01338744,11.502883L5.97022057,11.3746328L5.92705369,11.2452574L5.88621998,11.1158819L5.84772027,10.9865065L5.8127203,10.8560066L5.77772033,10.7255068L5.74388611,10.5950022L5.71238589,10.4645023L5.68321884,10.3328772L5.65638578,10.2023764L5.63305247,10.0707512L5.609719157,9.9391265L5.58871901,9.8075013L5.57121861,9.6747513L5.554885626,9.5431261L5.54321897,9.4115009L5.531552315,9.2787509L5.522218823,9.1460009L5.5152184963,9.0132508L5.51171875,8.8816261L5.51171875,8.6611257L5.5128853321,8.5745006L5.5152184963,8.487875500000001L5.5198848248,8.4012504L5.524551153,8.315750099999999L5.530384064,8.2302499L5.538550973,8.1447496L5.546717882,8.059249399999999L5.556051373,7.9737492L5.567718029,7.8893738L5.579384685,7.8049984L5.59105134,7.7217488L5.60505116,7.6373734L5.62021756,7.5541239L5.63538396,7.4719992L5.65288436,7.3887496L5.67038476,7.3066249L5.69021833,7.225625L5.71005189,7.1435003L5.73105204,7.062501L5.75438535,6.9837508L5.77771866,6.9016261L5.80105197,6.8228765L5.82555187,6.7441263L5.85121834,6.6631265L5.8780514,6.5855017L5.90605104,6.5067515L5.9352181,6.4291267L5.96555173,6.3515015L5.99588537,6.2750015L6.02855217,6.1985016L6.06121898,6.1231265L6.09621894,6.0477509L6.12888575,5.972375899999999L6.16505229,5.898126599999999L6.20121884,5.8238764L6.23855197,5.7507517L6.27705169,5.677626399999999L6.3155514,5.604502L6.3552177,5.5325015L6.39605141,5.4616267999999994L6.4380517,5.3907514L6.48121858,5.3198764L6.5243854500000005,5.2501261L6.56871895,5.1803761L6.61538555,5.1128762000000005L6.65971895,5.0453761L6.70638565,4.9778762L6.75421885,4.910376299999999L6.80205205,4.8428764L6.85105185,4.7765014L6.90121815,4.7112513L6.95255115,4.647126L7.00388405,4.5830009L7.0563844499999995,4.520000899999999L7.11005135,4.4570012000000006L7.16371835,4.395126100000001L7.21855185,4.333251199999999L7.27338545,4.272501200000001L7.32938555,4.2117512L7.3877187499999994,4.1521261L7.44371895,4.093626L7.50205215,4.0351257L7.5615520499999995,3.9788758L7.6210517499999995,3.9203756L7.681718350000001,3.8641256999999998L7.74238495,3.8090006L7.804217850000001,3.7538755999999998L7.8672175499999994,3.6998755L7.9302170499999995,3.6458755L7.99438405,3.5941255L8.05855105,3.5412502999999997L8.12388465,3.4906254L8.18921825,3.4400003999999997L8.25571845,3.3905004L8.32338525,3.3410003L8.391052049999999,3.2926253L8.45871875,3.245375L8.52871875,3.2003751L8.59871865,3.1531249L8.66871855,3.1081250000000002L8.73871855,3.0631250000000003L8.80988505,3.020375L8.88105155,2.97762513L8.95338465,2.93600017L9.02688435,2.89437515L9.10038395,2.85387504L9.17388365,2.81450009L9.24855085,2.7762500599999997L9.32438445,2.73800004L9.40021805,2.70200002L9.476051850000001,2.66600001L9.55305195,2.63L9.63005255,2.59625006L9.70821905,2.56250006L9.78638605,2.5310001399999997L9.86455295,2.49837509L9.94388625,2.46800008L10.02321955,2.43874997L10.104886050000001,2.40949988L10.18421985,2.38137493L10.265886349999999,2.35437486L10.34755275,2.32849991L10.42921925,2.30374992L10.510886150000001,2.27899989L10.59371945,2.25649992L10.67771915,2.23399994L10.760552449999999,2.21262488L10.84455205,2.19237494L10.92971805,2.172125L11.01488445,2.15412509L11.10005095,2.13725011L11.18521735,2.12037513L11.27155015,2.10575018L11.35788295,2.091125235L11.444216749999999,2.077625208L11.53055005,2.066375218L11.61805005,2.055125229L11.70671705,2.04387524L11.79421715,2.034875289L11.882884050000001,2.027000256L11.971550950000001,2.019125223L12.06021785,2.013500229L12.14888475,2.0090001523L12.23871855,2.0045000762L12.328552250000001,2.0022500381L12.419551850000001,2L12.59921975,2.0000024139881ZM12.43355365,3.1250024L12.358887150000001,3.1261272L12.28305335,3.1283771L12.208386449999999,3.1317523L12.13372035,3.1362522999999998L12.06022075,3.1407524L11.98555425,3.1475023L11.91205455,3.1542523L11.838554850000001,3.1610022L11.76622205,3.1700023L11.69272235,3.1790024L11.620388949999999,3.1902524000000003L11.54805615,3.2015024L11.47805595,3.2127524999999997L11.404556249999999,3.2251273L11.33455655,3.2386272L11.26455645,3.2532522999999998L11.19222355,3.2690023L11.122223349999999,3.2847524999999997L11.05222365,3.3016274L10.98222355,3.3196273L10.91339015,3.3376272L10.84455685,3.3578774L10.775723450000001,3.3770021999999997L10.70805695,3.3995021999999997L10.64038995,3.4197524L10.57272335,3.4422523L10.50505635,3.4658772L10.43855615,3.4895021L10.372056050000001,3.5142519L10.306722650000001,3.540127L10.241388749999999,3.5660021L10.17605545,3.5930022L10.110721550000001,3.6211272L10.04655455,3.6492522000000003L9.98238755,3.6785021L9.91938785,3.7088768L9.85638855,3.7392517L9.79338885,3.7707518L9.73155595,3.8045017999999997L9.66972255,3.8360019000000003L9.60905645,3.8697519L9.54722305,3.9035019L9.48889015,3.9383768L9.42705705,3.9743766000000003L9.36872385,4.0103767L9.31039045,4.0475018L9.25205705,4.0846269L9.193723949999999,4.1228771L9.13539075,4.162251899999999L9.07822395,4.201627L9.02222395,4.242126900000001L8.966223750000001,4.2826266L8.91022345,4.3242519L8.85539005,4.367001999999999L8.80172305,4.4097521L8.74688955,4.4525023L8.69438935,4.4975023L8.64188885,4.5425021999999995L8.58938835,4.587502199999999L8.53805545,4.6325021L8.48672245,4.6786270000000005L8.43655635,4.7258773000000005L8.38638975,4.7731273000000005L8.33738995,4.8215024L8.28839015,4.869877600000001L8.24172355,4.9182527L8.192723749999999,4.9688778L8.14605715,5.0183778L8.099390549999999,5.0701275L8.05389075,5.120752599999999L8.00955725,5.1725025L7.96522375,5.2253776L7.9208903500000005,5.2782523999999995L7.87772325,5.3322525L7.83572295,5.385127499999999L7.793722649999999,5.4413774L7.75288915,5.4953775L7.71322275,5.5516274L7.67355635,5.6078775L7.63389015,5.6641273000000005L7.595390350000001,5.7203774L7.55805735,5.7766272999999995L7.520724250000001,5.8351278L7.4857242500000005,5.8925028L7.45072425,5.9510026L7.41572425,6.0106282L7.3807243499999995,6.0702529L7.34689095,6.129878L7.31539075,6.1906281L7.28272395,6.2513781L7.2523902499999995,6.3121281L7.22205665,6.3740034L7.19172295,6.4358778L7.16372005,6.5000019L7.13572035,6.5618773L7.10772075,6.6260028L7.08088765,6.689003L7.0552211499999995,6.7531281L7.03188785,6.8172531L7.00622145,6.8825035L6.98288815,6.9466286L6.96072135,7.0141287L6.93972125,7.0782537L6.91872105,7.1457539L6.8988875499999995,7.2110038L6.87905395,7.2785034L6.8603869500000005,7.3460035L6.84288655,7.4135036L6.82655355,7.4810033L6.81022055,7.5485034L6.79622075,7.6160035L6.78105435,7.684628L6.76938775,7.7543778L6.75538795,7.8230028L6.74488785,7.8927526L6.73322115,7.9625025L6.72388765,8.0322523L6.71572075,8.103127L6.70755385,8.1740017L6.70055355,8.244876399999999L6.69472065,8.3168759L6.68888685,8.3877506L6.68422055,8.4597502L6.68188735,8.531749699999999L6.67955425,8.6037493L6.67721935,8.6757522L6.67721935,8.746626899999999L6.67838595,8.8602514L6.68188575,8.972751599999999L6.6865520499999995,9.0852513L6.69471895,9.197751499999999L6.70405245,9.3102512L6.71571915,9.423875800000001L6.72855235,9.537500900000001L6.74488535,9.6511259L6.76238575,9.7647505L6.78105275,9.8783751L6.80438605,9.993125L6.82771935,10.1078749L6.85221925,10.2226248L6.87905225,10.3373737L6.9082193499999995,10.4521236L6.93855295,10.5668736L6.9712197499999995,10.6827488L7.00621975,10.7974977L7.04238625,10.913373L7.07971945,11.0281219L7.11938575,11.1439972L7.16021945,11.2587471L7.20338635,11.3746214L7.24771975,11.4893713L7.29438635,11.6052456L7.34105305,11.7199955L7.39005275,11.8347454L7.44021915,11.9494953L7.49271955,12.064245L7.5452198500000005,12.178994L7.60005335,12.29262L7.65605355,12.406244L7.71438695,12.519869L7.77272005,12.633493L7.83105325,12.747119L7.892886450000001,12.859618L7.95471955,12.972118L8.01771905,13.084619L8.08188605,13.197118L8.14721965,13.306243L8.21371985,13.418743L8.28022005,13.527868L8.35021995,13.636993L8.417886750000001,13.746119L8.48788665,13.855244L8.55788665,13.963243L8.62905315,14.071244L8.70138625,14.17812L8.77371935,14.28387L8.84721895,14.38962L8.921885249999999,14.495371L8.99655245,14.599996L9.07121845,14.703497L9.14588495,14.804748L9.29988455,15.009497L9.45388415,15.211997L9.60905075,15.407747L9.76421685,15.601248L9.92055035,15.792498L10.07805065,15.978123L10.23438455,16.161497L10.38955065,16.339247L10.54471685,16.513621999999998L10.69988345,16.684623000000002L10.851549649999999,16.849998L11.003216250000001,17.010872L11.15138295,17.168371L11.29838325,17.317997L11.441883050000001,17.464247999999998L11.58304925,17.605997000000002L11.719549149999999,17.742122000000002L11.85371635,17.872622L11.98321625,17.996372L12.10804935,18.115622L12.22821615,18.229246L12.34488245,18.336123L12.45338205,18.437372L12.50938225,18.486872L12.56771565,18.435123L12.67621615,18.334997L12.79288245,18.228123L12.91188245,18.115622L13.03671505,17.995248L13.16621545,17.871496999999998L13.29921575,17.738747L13.436882449999999,17.603747L13.57804875,17.461998L13.72154905,17.315747L13.86738105,17.163871999999998L14.01671605,17.007497L14.16838265,16.845497L14.32005025,16.680123000000002L14.47405055,16.509123000000002L14.62921815,16.334747L14.78555205,16.155872000000002L14.94188495,15.973623L15.09821895,15.786874L15.25455285,15.595623L15.41088675,15.402122L15.56605375,15.204123L15.72005375,15.003872L15.87405475,14.797997L15.94755475,14.696747L16.02338675,14.593246L16.09805275,14.488621L16.17155275,14.382871L16.24505275,14.277121L16.31738575,14.17137L16.38971875,14.064495L16.460884749999998,13.956494L16.53205175,13.848495L16.60205175,13.739369L16.67205175,13.630244L16.73855175,13.519994L16.80621875,13.409744L16.87271875,13.299494L16.936885750000002,13.188119L17.00105275,13.076744L17.06521975,12.964244L17.12705375,12.852869L17.18772175,12.740369L17.24722175,12.627869L17.30555675,12.51312L17.36388975,12.40062L17.41872275,12.28587L17.47355575,12.17337L17.527221750000002,12.057495L17.578553749999998,11.9427452L17.62872075,11.8279953L17.67772075,11.7132463L17.72555375,11.5984964L17.772220750000002,11.4837465L17.81538775,11.3678722L17.85855375,11.2531223L17.89938875,11.1372471L17.93905575,11.0224981L17.97755575,10.9077482L18.01372375,10.7918739L18.04872375,10.677124L18.08022275,10.5623741L18.11055575,10.4476242L18.13972175,10.3328743L18.16772175,10.2181244L18.19222175,10.1033754L18.215554750000003,9.9908752L18.23888875,9.875000499999999L18.25638875,9.7625008L18.273889750000002,9.6477509L18.290222749999998,9.5352511L18.30305675,9.4227509L18.31472475,9.3080015L18.32405775,9.1955013L18.33222275,9.0841265L18.336889749999997,8.9716268L18.34038975,8.8602514L18.341555749999998,8.7477517L18.341555749999998,8.6757522L18.339222749999998,8.6026268L18.336889749999997,8.5306263L18.33455675,8.4586267L18.32989075,8.3866272L18.32405775,8.3157525L18.31822375,8.243753L18.31122475,8.1728783L18.303058749999998,8.1020036L18.294892750000002,8.031128899999999L18.285559749999997,7.9613791L18.27389275,7.8916292L18.26339375,7.8218794L18.25172675,7.7543797L18.23772675,7.6835051L18.222559750000002,7.6160049L18.20855875,7.5462551L18.19222575,7.478755L18.17589075,7.4112554L18.158390750000002,7.3437552L18.13972375,7.2762556L18.11988975,7.2098804L18.10005675,7.1435056L18.07905675,7.0771303L18.05805675,7.0118804L18.035889750000003,6.9455051L18.01255575,6.8813801L17.98922375,6.8161302L17.963556750000002,6.7520046L17.93788975,6.6878796L17.911057749999998,6.6248794L17.88305775,6.5607543L17.85505275,6.5000019L17.82705275,6.4370027L17.79672075,6.3751273L17.76638775,6.3132529L17.73605475,6.2525024L17.703388750000002,6.1917529L17.67188975,6.1310024L17.63805675,6.0713778L17.60422375,6.0117521L17.56922375,5.9521275L17.534222749999998,5.8936269L17.49922175,5.8373767999999995L17.46072075,5.7777522L17.42338775,5.7215023L17.38488675,5.665252199999999L17.34521975,5.6090024L17.30555275,5.5527525L17.265885750000002,5.4965024L17.22505175,5.4413774L17.18305075,5.3862524L17.141051750000003,5.332252L17.09788375,5.2793772L17.05355075,5.2265022000000005L17.009217749999998,5.1736269L16.96488375,5.121877L16.91938375,5.071252100000001L16.872716750000002,5.0195022L16.82605075,4.9700022L16.77938375,4.9193773L16.73038375,4.8710021999999995L16.681383750000002,4.8226271L16.63238475,4.774251899999999L16.582217749999998,4.727001700000001L16.53205175,4.6797514L16.48071875,4.6347515999999995L16.42938575,4.5875013L16.37688675,4.5425014L16.324386750000002,4.4975014L16.271887749999998,4.4536264L16.217054750000003,4.4108763L16.16338875,4.3681262L16.10855575,4.325376L16.05255675,4.2837512L15.99655675,4.2432513L15.94055875,4.2027514L15.88339275,4.163376599999999L15.82622575,4.1240015L15.76789175,4.085751500000001L15.70955875,4.0486264L15.65122375,4.0115013L15.59288975,3.9755013999999997L15.53105675,3.9395016L15.47272205,3.9057516999999997L15.40972135,3.8720018L15.34905435,3.8382517L15.28722005,3.8045017999999997L15.22538665,3.7718767L15.16238595,3.7403766000000003L15.09938525,3.7100017999999997L15.03638555,3.6796268999999997L14.97221855,3.6503769999999998L14.90805145,3.6222521L14.84388545,3.5930022L14.77855205,3.5660021L14.71321865,3.540127L14.64788535,3.5142519L14.58138465,3.4895021L14.51488495,3.4670022L14.44721795,3.4422523L14.37955095,3.4197524L14.31188395,3.3983773L14.24421785,3.3770021999999997L14.17538455,3.3578774L14.10655115,3.3376272L14.03771785,3.3196273L13.96771715,3.3016274L13.89771745,3.2847524999999997L13.82771775,3.2690023L13.75771805,3.2532522999999998L13.68771745,3.2386272L13.61538505,3.2251273L13.54305175,3.2138773L13.473051550000001,3.2003775L13.39955185,3.1891276L13.32721905,3.1790024L13.25371935,3.1700023L13.18138595,3.1610022L13.107886350000001,3.1542523L13.03438665,3.1475023L12.959720650000001,3.1407524L12.88622095,3.1362522999999998L12.81155445,3.1317523L12.73688845,3.1283771L12.66105555,3.1261272L12.43472195,3.1261272L12.43355365,3.1250024Z" fill="#8D40FF" fill-opacity="1" style="mix-blend-mode:passthrough"/></g><g><path d="M12.599599125000001,5.3759785741568L12.689432625,5.3793537319L12.779266125,5.3849787265L12.867933025,5.3917286395L12.955433325,5.4029786285L13.042933425000001,5.4142286185L13.129267725,5.4277284445L13.214434624999999,5.4434785095L13.299601525,5.4614784125L13.383602125,5.4806032325L13.467602724999999,5.5031032125L13.550436925,5.5267281125L13.632104425,5.5526032425L13.712603524999999,5.5796033025L13.793102725,5.6088531925L13.871268725,5.6403533225L13.949434725,5.6741032925L14.026433925,5.7078532625000005L14.102267225,5.7438530625L14.176933325,5.7821031225L14.251599325,5.8226029825L14.323932625000001,5.8631028525L14.395099125,5.9081028125L14.466265725,5.9531027625L14.535099025000001,5.9981027225L14.602766025000001,6.0453529325L14.670432524999999,6.0948529825L14.735766425,6.1454778925L14.799933424999999,6.1983526925L14.862933625,6.2523528325L14.923601125000001,6.3086027525L14.984268225000001,6.3648527225L15.042602525,6.4211026625L15.099768125,6.4807277625L15.155767425,6.5414777625L15.210599925,6.6033531624999995L15.263099624999999,6.6663533625L15.314432625,6.7304785625L15.363432425,6.7979785625L15.411265324999999,6.8632285625L15.457932425,6.9307285625L15.502265925,7.0004782625L15.545432524999999,7.0702280625L15.587432825,7.1411027625L15.627100025,7.2142281624999995L15.664433925,7.2873533625L15.700601625000001,7.3616037625L15.734434125,7.4369788625L15.767099824999999,7.512354162499999L15.797432924999999,7.5911040624999995L15.825432325000001,7.667603962499999L15.852265325000001,7.7463538624999995L15.876765225,7.8262288625L15.898932025,7.9061035625L15.919932325000001,7.9882283625L15.938599125,8.0703530625L15.954933125,8.1524777625L15.968933625,8.2357280625L15.981767625,8.3201033625L15.991100325,8.4044787625L15.999266625,8.4899790625L16.005099325,8.5766041625L16.008599325,8.6621043625L16.009765625,8.7498535625L16.008599325,8.8364786625L16.005099325,8.9231040625L15.999266625,9.009729162500001L15.991100325,9.0941045625L15.981767625,9.1796047625L15.968933625,9.2628543625L15.954933125,9.3472297625L15.938599125,9.429354162500001L15.919932325000001,9.511478862499999L15.898932025,9.5924787625L15.876765225,9.6734785625L15.852265325000001,9.7533531625L15.825432325000001,9.8321032625L15.797432924999999,9.9108533625L15.767099824999999,9.9862284625L15.734434125,10.0627283625L15.700601625000001,10.1381034625L15.664433925,10.2123536625L15.627100025,10.2854790625L15.587432825,10.3574786625L15.545432524999999,10.4294786625L15.502265925,10.499227962500001L15.457932425,10.5678529625L15.411265324999999,10.636477962499999L15.363432425,10.7039780625L15.314432625,10.768103162500001L15.263099624999999,10.833353062499999L15.210599925,10.8963532625L15.155767425,10.9582285625L15.099768125,11.0189781625L15.042602525,11.0774779625L14.984268225000001,11.1359777625L14.923601125000001,11.192227862500001L14.862933625,11.2484779625L14.799933424999999,11.301352962500001L14.735766425,11.3531031625L14.670432524999999,11.404853362499999L14.602766025000001,11.454353362500001L14.535099025000001,11.5016031625L14.466265725,11.5477280625L14.395099125,11.5927276625L14.323932625000001,11.635478062499999L14.251599325,11.677103062499999L14.176933325,11.7176031625L14.102267225,11.7547283625L14.026433925,11.7918529625L13.949434725,11.8267278625L13.871268725,11.8604779625L13.793102725,11.8908529625L13.712603524999999,11.9201030625L13.632104425,11.9471030625L13.550436925,11.9729776625L13.467602724999999,11.9966025625L13.383602125,12.019102562499999L13.299601525,12.038227562500001L13.214434624999999,12.0562281625L13.129267725,12.0719776625L13.042933425000001,12.0854773625L12.955433325,12.0978522625L12.867933025,12.1068525625L12.779266125,12.1147279625L12.689432625,12.1203532625L12.599599125000001,12.1237277625L12.509765625,12.1248535625L12.419932124999999,12.1248535625L12.330098625,12.1203541625L12.240265125,12.1147284625L12.151598225,12.1068534625L12.064097925,12.0978531625L11.976597524999999,12.086603162500001L11.890264525,12.0719785625L11.805098325,12.0562286625L11.719932125,12.038228462500001L11.635932225,12.0179781625L11.551932325,11.996603462500001L11.469099325,11.9741034625L11.387432625,11.9471034625L11.306932725,11.9201040625L11.226432825,11.8908538625L11.148265825,11.8593535625L11.070098925,11.826728362499999L10.993098725,11.792978762499999L10.917265025,11.754728762500001L10.842597925,11.717604162499999L10.767931725,11.6771039625L10.695598625,11.6354784625L10.624432125,11.5927286625L10.553265525,11.5477285625L10.484432224999999,11.5027284625L10.416765425,11.4543537625L10.349098725,11.404854262499999L10.283765125,11.3531041625L10.219598025,11.3013539625L10.156598425,11.247353562499999L10.095932025,11.192228762500001L10.035265525,11.135978662500001L9.976932285,11.0774788625L9.919765595,11.0189790625L9.863765475,10.9582295625L9.808931945,10.8963541625L9.756431575,10.8333539625L9.705098625,10.7681035625L9.656098845,10.7028536625L9.608265635,10.636478862499999L9.561599015,10.568978762499999L9.517265555,10.4992289625L9.474098685,10.4294791625L9.432098385,10.3574786625L9.392432095,10.2854790625L9.355098965,10.2123536625L9.318932415,10.1381034625L9.285099025,10.0627283625L9.252432225,9.9862284625L9.222098585,9.909728062500001L9.194098945,9.8321032625L9.167265895,9.7533531625L9.142765995,9.6746034625L9.120599265,9.5924787625L9.099599123,9.511478862499999L9.08093214,9.429354162500001L9.064599156,9.3472297625L9.050599337,9.2628543625L9.037766099,9.1796047625L9.028432608,9.0941045625L9.020265698,9.009729162500001L9.0144327879,8.9231040625L9.0109330416,8.8364786625L9.009765625,8.7498535625L9.0109322071,8.6621036625L9.0144319534,8.5766034625L9.020264864,8.4899780625L9.028431773,8.4044778625L9.037765265,8.3201026625L9.050598502,8.2357272625L9.064598322,8.152476762500001L9.080931306,8.0703523625L9.099598289,7.9882275625000005L9.120598435,7.9061028625L9.142765165,7.8273529625L9.167265055,7.7463531625L9.194098115,7.6676032625L9.222097755,7.5899782625L9.252431395,7.5123531625L9.285098195,7.4369780625L9.318931575,7.3616028625L9.355098125,7.2873526625L9.392431255,7.2142273625L9.432097555,7.1411019625000005L9.474097845,7.0702272624999996L9.517264725,7.0004775625L9.561598185,6.9307277625L9.608264805,6.8632278625000005L9.656098005,6.7968528625L9.705097795,6.7304777625L9.756430745,6.6663526625L9.808931115,6.6033522625L9.863764645,6.5414769625L9.919764755,6.4807269625L9.976931455,6.4211017625L10.035264725,6.3648518925L10.095931125,6.3086019725L10.156597625,6.2523520025L10.219597225,6.1983519225L10.283764225,6.1454767025L10.349097825,6.0948517325000005L10.416764625,6.0453517425L10.484431425,5.9981015325L10.553264725,5.9531015725L10.624431225,5.9081016225L10.695597725,5.8631016625L10.767930825,5.8226017925L10.842597125,5.7821019025L10.917264225,5.7438518425L10.993097925,5.7078520625L11.070098125,5.6741020725L11.148264925,5.6403521325L11.226431825,5.6088519825L11.306931925,5.5796020925L11.387431825,5.5526020425L11.469098525,5.5267269025L11.551931625,5.5042269225L11.635931525,5.4817269425L11.719931125,5.4614768025L11.805097625,5.4434769005L11.890263825,5.4277268355L11.976596825,5.4131016885L12.064096925,5.4018516985L12.151597525,5.3917266275L12.240264425,5.3849767148L12.330097725,5.3793517202L12.419931425,5.3759765625L12.599599125000001,5.3759785741568ZM12.449099025,6.5009783625L12.388432725,6.5032281625L12.328932725,6.5066028625L12.270599625,6.5111025625L12.211099625,6.5178528625L12.153933025,6.5257280625L12.095599625,6.5347282625L12.038433025,6.5459782625L11.982432825,6.5572281624999995L11.926432825,6.5707280625L11.871599225,6.5853527624999995L11.816765825000001,6.6011024625L11.761932325,6.6179778625L11.708265325,6.6359782625L11.655765025000001,6.6551034625L11.603264525,6.6776033625L11.550764125,6.6978535625L11.499431125000001,6.7214784625L11.449265024999999,6.7451033625L11.399098425,6.7709780625L11.350098625000001,6.7968528625L11.301098825,6.8249781625L11.253265825,6.8542284625L11.206599225,6.8834787625L11.161098925000001,6.9149788625L11.115599125,6.9464789625000005L11.070098925,6.9802290625L11.026932225,7.0139789624999995L10.983765224999999,7.0488538625L10.941764925,7.0848536625000005L10.900931225,7.1208534624999995L10.860097525,7.1591030625L10.821597825,7.1984784625L10.783098125,7.2378537625L10.745764925,7.2783540625L10.709598425,7.3199792625L10.673431825,7.3616044625L10.639598525,7.4043545625L10.606931724999999,7.449354662499999L10.574264925,7.4943544625000005L10.543931225,7.5393545625L10.513597625,7.5843543625L10.485597925,7.6316041625L10.457598325,7.6788539625L10.430765225,7.7272286625L10.406265425,7.775603562500001L10.381765525,7.8251030625L10.359598725,7.8746027625L10.337432025,7.9252281625L10.317598425,7.976978262499999L10.298931525,8.0287287625L10.281431125,8.0804788625L10.265098125,8.1333541625L10.249931725,8.187354062499999L10.235931825,8.2413542625L10.224265225,8.2953543625L10.212598525,8.3516044625L10.203265025,8.4056043625L10.195098125,8.4618544625L10.188097825,8.5181043625L10.183431525,8.5754792625L10.179931725,8.6328539625L10.177598625,8.6913537625L10.176432025,8.7498535625L10.177598625,8.8083534625L10.179931725,8.8657283625L10.183431525,8.9242281625L10.188097825,8.9804780625L10.195098125,9.0367278625L10.203265025,9.092977962500001L10.212598525,9.1492278625L10.224265225,9.2032279625L10.235931825,9.259477862499999L10.249931725,9.3123531625L10.265098125,9.3652284625L10.281431125,9.4181036625L10.298931525,9.4709787625L10.317598425,9.5227289625L10.338598625,9.5733542625L10.359598725,9.6239795625L10.381765525,9.6746048625L10.406265425,9.724104862499999L10.430765225,9.7724795625L10.457598325,9.8208541625L10.485597925,9.868103962500001L10.513597625,9.914228962500001L10.543931225,9.9603538625L10.574264925,10.0064782625L10.606931724999999,10.0514783625L10.639598525,10.0942287625L10.673431825,10.139228362499999L10.709598425,10.1797289625L10.745764925,10.2213539625L10.783098125,10.2618541625L10.821597825,10.3012294625L10.860097525,10.340605262499999L10.900931225,10.3777298625L10.941764925,10.4148545625L10.983765224999999,10.4508542625L11.026932225,10.4857292625L11.070098925,10.519479262499999L11.115599125,10.5532293625L11.161098925000001,10.5847291625L11.206599225,10.6162295625L11.253265825,10.6454796625L11.301098825,10.674729862500001L11.350098625000001,10.701729762500001L11.399098425,10.7287292625L11.449265024999999,10.753478962500001L11.499431125000001,10.7782287625L11.550764125,10.801853662500001L11.603264525,10.8243536625L11.655765025000001,10.8434791625L11.708265325,10.8637289625L11.761932325,10.8817295625L11.816765825000001,10.898604862500001L11.871599225,10.9143543625L11.926432825,10.9289793625L11.982432825,10.9424791625L12.038433025,10.9537291625L12.095599625,10.9649791625L12.153933025,10.9739789625L12.211099625,10.9818544625L12.270599625,10.9874791625L12.328932725,10.9931044625L12.388432725,10.9964790625L12.449099025,10.9987292625L12.509765625,10.9998531625L12.570432925,10.9998531625L12.631100225,10.9964785625L12.690600825,10.993103462499999L12.748935025,10.9874782625L12.808435724999999,10.9818534625L12.865601525,10.973978562500001L12.923935625,10.9649782625L12.981101525,10.9537281625L13.037100825,10.942478162499999L13.093100025,10.9289784625L13.147933025,10.9143538625L13.202765424999999,10.898603962500001L13.257597924999999,10.881728662499999L13.311264025,10.8637285625L13.363763825,10.8434781625L13.416263625,10.8232278625L13.468762824999999,10.801853162499999L13.520095825,10.7793531625L13.570261925,10.753478062500001L13.620428525000001,10.728728262499999L13.669428325,10.701728862500001L13.718428124999999,10.674729362499999L13.766261125,10.6454787625L13.812928225,10.6162285625L13.858428025,10.5847282625L13.903927825,10.5532283625L13.949428125,10.5194783625L13.992594725,10.4857282625L14.035761825,10.4519781625L14.077762125,10.4148535625L14.118596125,10.3777289625L14.159429525,10.340604262500001L14.197930325,10.3012289625L14.236430625,10.2618536625L14.273764625,10.2213530625L14.309931725,10.1797280625L14.346099425,10.1381029625L14.379931925000001,10.094227762500001L14.412597625,10.050352562499999L14.445263825,10.006477862499999L14.475596424999999,9.9614777625L14.505929425,9.9142279625L14.533928825,9.8692278625L14.561928725,9.8208532625L14.588761824999999,9.7724785625L14.613261725000001,9.7241039625L14.637761625,9.6746044625L14.659928325,9.6239790625L14.680928224999999,9.5733532625L14.701928625,9.5227279625L14.720595325,9.470977762499999L14.738096225,9.4181027625L14.754429824999999,9.3652274625L14.769597025,9.3123524625L14.783597924999999,9.2583522625L14.795265225,9.2032272625L14.806932425,9.1492271625L14.816265125000001,9.092977062500001L14.824431425,9.0367271625L14.831430925,8.9804773625L14.836097225,8.9242272625L14.839596725,8.8657274625L14.841930425000001,8.8094775625L14.843098625,8.7498535625L14.841931825,8.6913537625L14.839598625,8.6328539625L14.836098625,8.5766041625L14.831432325,8.5181043625L14.824433325000001,8.4618544625L14.816267025,8.4056043625L14.806934325,8.3504793625L14.795267124999999,8.2953543625L14.783599425,8.2413542625L14.769598925,8.187354062499999L14.754431725,8.1333541625L14.738097625,8.0804788625L14.720597224999999,8.0287287625L14.701930025,7.976978262499999L14.682096525,7.9252281625L14.659930225,7.8746027625L14.637763025,7.8251030625L14.613263125,7.775603562500001L14.588763225000001,7.7272286625L14.561930624999999,7.6788539625L14.533930824999999,7.6316041625L14.505930925000001,7.5843543625L14.475598325,7.5393545625L14.445265724999999,7.4943544625000005L14.412599525000001,7.449354662499999L14.379933325,7.4043545625L14.346100825,7.3616044625L14.309933625,7.3199792625L14.273766525,7.2783540625L14.236432125,7.2378537625L14.197931725,7.1984784625L14.159431425000001,7.1591030625L14.118597525,7.1208534624999995L14.077763525,7.0848536625000005L14.035763724999999,7.0488538625L13.992596625000001,7.0151038625L13.949429525,6.9791040625L13.903929725000001,6.9464789625000005L13.858429925,6.9149788625L13.812929624999999,6.8834787625L13.766263025,6.8542284625L13.718429525000001,6.8249781625L13.669429825,6.7968528625L13.620430025000001,6.7709780625L13.570263825,6.7451033625L13.520097725,6.7226033625L13.468764325,6.6978535625L13.416265025000001,6.6764784625L13.363765725,6.6551034625L13.311265925,6.6359782625L13.257599825,6.6179778625L13.202767325,6.6011024625L13.147934424999999,6.5853527624999995L13.093101525,6.5707280625L13.037102725,6.5572281624999995L12.981103225,6.5459782625L12.923937325,6.5347282625L12.865603225000001,6.5257280625L12.808437325,6.5178528625L12.748936624999999,6.5111025625L12.690602525,6.5066028625L12.631101825,6.5032281625L12.570434525,6.5009783625L12.449099025,6.5009783625Z" fill="#8D40FF" fill-opacity="1" style="mix-blend-mode:passthrough"/></g></g></svg>