<svg t="1756462989687" class="icon" viewBox="0 0 1024 1024" version="1.1" xmlns="http://www.w3.org/2000/svg" p-id="4417" width="70" height="40"><path d="M706.935545 472.040771c11.256121 0 22.61457 4.297792 31.210153 12.893375 17.191166 17.191166 17.191166 45.12681101 0 62.317978L341.21395 944.183871c-17.191166 17.191166-45.12681101 17.191166-62.317977 0-17.191166-17.191166-17.191166-45.12681101 0-62.317977L675.827721 484.934146c8.595583-8.595583 19.851704-12.893375 31.107824-12.893375z" p-id="4418" fill="#9278FE"></path><path d="M310.106126 75.10902401c11.256121 0 22.61457 4.297792 31.210153 12.89337399L738.145698 484.934146c17.191166 17.191166 17.191166 45.12681101 0 62.317978-17.191166 17.191166-45.12681101 17.191166-62.317977 0L278.895973 150.320376c-17.191166-17.191166-17.191166-45.12681101 1e-8-62.317978 8.595583-8.595583 19.851704-12.893375 31.21015299-12.89337399z" p-id="4419" fill="#9278FE"></path></svg>