<svg t="1756725923247" class="icon" viewBox="0 0 1024 1024" version="1.1" xmlns="http://www.w3.org/2000/svg" p-id="6365" width="40" height="40"><path d="M468.48 805.034667c-199.893333 0-358.741333-153.984-358.741333-347.648 0-193.706667 158.848-347.690667 358.698666-347.690667s358.741333 153.984 358.741334 347.690667c0 193.706667-158.890667 347.648-358.741334 347.648z m0-99.328c143.445333 0 256.213333-109.269333 256.213333-248.32 0-139.093333-112.768-248.32-256.256-248.32-143.488 0-256.213333 109.226667-256.213333 248.32 0 139.050667 112.725333 248.32 256.213333 248.32z m302.336 0l143.488 139.050666-71.765333 69.546667-143.488-139.093333 71.765333-69.546667z" fill="#9278FE" p-id="6366"></path></svg>