<svg xmlns="http://www.w3.org/2000/svg" xmlns:xlink="http://www.w3.org/1999/xlink" fill="none" version="1.1" width="24" height="24" viewBox="-2 -2 24 24"><defs><clipPath id="master_svg0_6_5350"><rect x="0" y="0" width="20" height="20" rx="0"/></clipPath></defs><g clip-path="url(#master_svg0_6_5350)"><g><path d="M10,18.999998C14.970562,18.999998,18.999998,14.970562,18.999998,10C18.999998,5.0294375,14.970562,1.0000004,10,1.0000002C5.0294375,1.0000004,1.0000004,5.0294375,1.0000004,10C1.0000004,14.970562,5.0294375,18.999998,10,18.999998ZM10,20C4.4770002,20,0,15.523001,0,10C0,4.4770007,4.4770002,0,10,0C15.523001,0,20,4.4770002,20,10C20,15.523001,15.523001,20,10,20ZM10.5,9.5L14.499999,9.5C14.776142,9.5,14.999999,9.7238588,14.999999,10.000001C14.999999,10.276143,14.776142,10.500001,14.499999,10.500001L10,10.500001C9.7238579,10.500001,9.499999,10.276143,9.499999,10.000001L9.499999,2.5C9.499999,2.2238576,9.7238579,2.0000002,10,2.0000002C10.276142,2.0000002,10.500001,2.2238576,10.5,2.5L10.5,9.5Z" fill="#8D40FF" fill-opacity="1" style="mix-blend-mode:passthrough"/></g></g></svg>