<svg xmlns="http://www.w3.org/2000/svg" xmlns:xlink="http://www.w3.org/1999/xlink" fill="none" version="1.1" width="25" height="25" viewBox="0 0 25 25"><defs><clipPath id="master_svg0_1_4616"><rect x="0" y="0" width="25" height="25" rx="0"/></clipPath></defs><g clip-path="url(#master_svg0_1_4616)"><g><path d="M12.500001,23.75C18.713203,23.75,23.749998,18.713203,23.749998,12.5C23.749998,6.2867975,18.713203,1.2500006,12.500001,1.2500002C6.286797,1.2500006,1.2500005,6.2867975,1.2500005,12.5C1.2500005,18.713203,6.286797,23.75,12.500001,23.75ZM12.500001,25C5.5962501,25,0,19.403749,0,12.5C0,5.5962515,5.5962501,0,12.500001,0C19.403751,0,25.000002,5.596251,25.000002,12.5C25.000002,19.403749,19.403751,25,12.500001,25ZM13.125,11.875001L18.124998,11.875001C18.470177,11.875001,18.75,12.154824,18.75,12.500003C18.75,12.845181,18.470177,13.125001,18.124998,13.125001L12.500001,13.125001C12.154823,13.125001,11.874999,12.845181,11.874999,12.500003L11.874999,3.125C11.874999,2.7798221,12.154823,2.5000005,12.500001,2.5000005C12.845178,2.5000005,13.125001,2.7798221,13.125,3.125L13.125,11.875001Z" fill="#8D40FF" fill-opacity="1" style="mix-blend-mode:passthrough"/></g></g></svg>